<?xml version="1.0" encoding="utf-8"?>
<!-- Generator: Adobe Illustrator 24.2.1, SVG Export Plug-In . SVG Version: 6.00 Build 0)  -->
<svg version="1.1" id="ICONS" xmlns="http://www.w3.org/2000/svg" xmlns:xlink="http://www.w3.org/1999/xlink" x="0px" y="0px"
	 viewBox="0 0 113.6 114" style="enable-background:new 0 0 113.6 114;" >
<style type="text/css">
	.st0{fill:none;stroke:#132144;stroke-width:7;stroke-linecap:round;stroke-linejoin:round;}
</style>
<g id="at-line">
	<path class="st0" d="M82.9,100.4c-10.6,7.2-23.8,11.6-37.3,9.6c-16.7-2.5-29.6-8.2-38.2-29.4s-3-47.5,13.8-63s44-18.8,63.6-7.1
		s29.9,37.5,23,59.3C106,75.6,102.6,81.5,97,84c-10,4.4-21.8-4.6-24.4-15.2s1.1-21.7,4.7-32"/>
	<path class="st0" d="M73.4,48.7C71.2,39.6,61.7,34,53.1,34c-9.7-0.1-18,6.8-19.7,16.4c-2,10.8-0.7,20.9,8.6,26.8s25.6,2.7,30.5-8.4
		"/>
</g>
</svg>
