<?xml version="1.0" encoding="utf-8"?>
<!-- Generator: Adobe Illustrator 24.1.3, SVG Export Plug-In . SVG Version: 6.00 Build 0)  -->
<svg version="1.1" id="ICONS" xmlns="http://www.w3.org/2000/svg" xmlns:xlink="http://www.w3.org/1999/xlink" x="0px" y="0px"
	 viewBox="0 0 108.4 105.4" style="enable-background:new 0 0 108.4 105.4;" >
<style type="text/css">
	.st0{fill:#F4F6F9;stroke:#F4F6F9;stroke-width:7;stroke-linecap:round;stroke-linejoin:round;}
	.st1{fill:none;stroke:#132144;stroke-width:7;stroke-linecap:round;stroke-linejoin:round;}
</style>
<path class="st0" d="M98.1,39.8C83.9-12.7,4.7,9.5,19.6,60.4C27.2,120.1,109.2,89.4,98.1,39.8z"/>
<path class="st1" d="M84.4,28.3C65.6,45.5,47.6,63.6,30.5,82.6c-0.7,3,2.8,5.6,5.9,5.2s5.5-2.6,7.8-4.7
	C64.3,63.9,83.7,44,102.5,23.4c1-1,1.8-2.2,2.2-3.5c0.6-2.5-1.1-4.9-2.8-6.8C97.8,7.9,92,2.2,85.5,3.8C83,4.4,80.9,6,78.9,7.6
	C56.8,24.9,35,42.7,13.5,60.9c-4.8,4-9.9,8.9-10,15.1c-0.1,5.1,3.2,9.6,6.5,13.6c4.5,5.4,9.7,11.1,16.6,12.1
	c8.5,1.3,16.1-4.7,22.6-10.4c15.8-14,31.2-28.3,46.4-43"/>
</svg>
