<?xml version="1.0" encoding="utf-8"?>
<!-- Generator: Adobe Illustrator 24.1.3, SVG Export Plug-In . SVG Version: 6.00 Build 0)  -->
<svg version="1.1" id="ICONS" xmlns="http://www.w3.org/2000/svg" xmlns:xlink="http://www.w3.org/1999/xlink" x="0px" y="0px"
	 viewBox="0 0 332.2 214" style="enable-background:new 0 0 332.2 214;" >
<style type="text/css">
	.st0{fill:none;stroke:#132144;stroke-width:7;stroke-linecap:round;stroke-linejoin:round;}
	.st1{fill:#377dff;stroke:#377dff;stroke-width:7;stroke-linecap:round;stroke-linejoin:round;}
	.st2{fill:#FFFFFF;stroke:#132144;stroke-width:7;stroke-linecap:round;stroke-linejoin:round;}
</style>
<path class="st0" d="M213.4,23.3c-5.8-7.5-14.6-12.1-24.1-12.5C144.7,8.9,66.1,5.4,28.1,3.5C15.8,2.9,5.3,12.3,4.6,24.6
	C1.8,78.5,5.2,140.7,4.2,159.5c-1,17.6,18.8,25.1,35,27.4"/>
<path class="st1" d="M223.2,22.7c12.2-0.8,22.8,8.5,23.6,20.7c3.6,53.7,1.1,116,2.5,134.9c1.6,21.5-28.5,28.5-44.8,28.9
	c-46.1,1.2-92.3,0.2-138.4-3c-8.8-0.6-19-2.1-23.5-9.7c-2.3-3.8-2.5-8.4-2.7-12.8c-1.2-24.3-5.4-79.1-8.2-114.7
	c-1.3-17.8,12-33.2,29.8-34.5c0.2,0,0.3,0,0.5,0C106.6,29.8,185.1,25.2,223.2,22.7z"/>
<path class="st0" d="M39.2,167.9c29.1-12.8,39.4-33.3,56.6-39c17.1-5.7,31.7,22.8,38.5,33.4c4.5-12.4,9.3-25.1,17.9-35
	c8.7-9.9,22.6-16.4,35.3-12.9c8.2,2.3,14.8,8.3,21,14.2c11.8,11.1,26.7,24.5,40.4,33.1"/>
<path class="st0" d="M124.6,54.5c5.2-3.4,15.5-5.3,26.7,6.9c11.2,12.2,1.8,33.6-21.3,29.1C110.5,86.7,109.8,64.2,124.6,54.5z"/>
<path class="st2" d="M222.6,171.5c-8.2-6.2-14.6-21.1-13.5-35.5c1-12.3,12.6-28.7,24.7-32.3c7.6-2.3,16.5-4.1,24.4-3.6
	c12,0.7,19.5,7.6,25.2,17.8c8.7,15.7,9.2,34.5-3.1,48.6c-8.5,9.6-17.6,12.9-30.3,14.3C243.9,181.4,230.9,177.8,222.6,171.5z"/>
<path class="st2" d="M278.4,170.1c13.1,13.8,26.5,27.3,40.1,40.5"/>
<path class="st2" d="M223.7,133.1c2.3-7.4,7.6-13.6,14.6-17"/>
<path class="st2" d="M248.7,113.1l2.8-1"/>
<path class="st2" d="M275.8,73.9l7.7-18"/>
<path class="st2" d="M305.5,92.3l14.8-9.9"/>
<path class="st2" d="M316.2,127.1l12.6-0.1"/>
</svg>
