<?xml version="1.0" encoding="utf-8"?>
<!-- Generator: Adobe Illustrator 24.1.2, SVG Export Plug-In . SVG Version: 6.00 Build 0)  -->
<svg version="1.1" id="Layer_1" xmlns="http://www.w3.org/2000/svg" xmlns:xlink="http://www.w3.org/1999/xlink" x="0px" y="0px"
	 viewBox="0 0 805.3 511" style="enable-background:new 0 0 805.3 511;" >
<style type="text/css">
	.st0{fill:#FF6060;}
	.st1{clip-path:url(#SVGID_2_);}
	.st2{fill:#FF9D5B;}
	.st3{fill:#E781D7;}
</style>
<g id="_10_-_DESIGN_CARD" transform="translate(-6465 -2559.19)">
	<g id="CARD-2">
		<rect id="CARD-3" x="6465" y="2559.2" class="st0" width="805.3" height="511"/>
		<g>
			<defs>
				<rect id="SVGID_1_" x="6465" y="2559.2" width="805.3" height="511"/>
			</defs>
			<clipPath id="SVGID_2_">
				<use xlink:href="#SVGID_1_"  style="overflow:visible;"/>
			</clipPath>
			<g id="Clip" class="st1">
				<path id="SHAPE" class="st2" d="M7417.7,2806.6c-44.3,52.8-142.4,26.5-256.4,9.1c-107-16.3-250.9-64.1-266.3-189.5
					c-28.4-231.2-3.9-642.9,422.2-56.1C7430.3,2725.9,7441.5,2778.1,7417.7,2806.6z"/>
				<path id="SHAPE-2" class="st3" d="M6811.1,2927.1c220.8,107,174.5,216.9,140,284.8c-54.1,106.4-402.8,423.4-562.8-235.7
					c-68.7-283.2,39.6-373.8,173.3-318.8C6691.6,2711.1,6674.5,2860.9,6811.1,2927.1z"/>
			</g>
		</g>
	</g>
</g>
</svg>
