<?xml version="1.0" encoding="utf-8"?>
<!-- Generator: Adobe Illustrator 24.2.1, SVG Export Plug-In . SVG Version: 6.00 Build 0)  -->
<svg version="1.1" id="ICONS" xmlns="http://www.w3.org/2000/svg" xmlns:xlink="http://www.w3.org/1999/xlink" x="0px" y="0px"
	 viewBox="0 0 113.6 114" style="enable-background:new 0 0 113.6 114;" >
<style type="text/css">
	.st0{fill:none;stroke:#132144;stroke-width:5;stroke-linecap:round;stroke-linejoin:round;}
</style>
<path class="st0" d="M81.1,87.1c0,0-2.4,14.9-3,18.6c-0.9,5.8-4.9,6.1-10.2,5.8c-6.7-0.4-13.6-0.7-20.3-1.8c-4.4-0.7-16-0.3-18-5.3
	c-0.7-1.8,1.3-13.9,1.3-13.9l1.6-20.2c0,0,2.8-30.5,3.2-34.5c0.3-2.5,0.3-5.8,2.4-7.2c2.5-1.7,12-2,24.7-0.8
	c12.7,1.2,20.8,3.5,21.9,5.3c1.1,1.8-0.1,10.3-0.5,14c-0.1,1-0.5,6.3-1,12.8L81.1,87.1z"/>
<line class="st0" x1="10.2" y1="78.7" x2="5.8" y2="82.1"/>
<line class="st0" x1="10.7" y1="25.4" x2="7.9" y2="23"/>
<line class="st0" x1="14.6" y1="18.7" x2="12.8" y2="15.8"/>
<line class="st0" x1="95.5" y1="17.1" x2="100.1" y2="12.5"/>
<line class="st0" x1="102.5" y1="61.4" x2="107.8" y2="60.2"/>
<line class="st0" x1="102.9" y1="71.6" x2="106.7" y2="72.5"/>
<path class="st0" d="M43.9,8.8c0.1-2.2-0.2-4.3-1.1-6.4"/>
</svg>
