<?xml version="1.0" encoding="utf-8"?>
<!-- Generator: Adobe Illustrator 24.2.1, SVG Export Plug-In . SVG Version: 6.00 Build 0)  -->
<svg version="1.1" id="Layer_1" xmlns="http://www.w3.org/2000/svg" xmlns:xlink="http://www.w3.org/1999/xlink" x="0px" y="0px"
	 viewBox="0 0 678.8 589" style="enable-background:new 0 0 678.8 589;" >
<style type="text/css">
	.st0{fill:#F4F6F9;}
	.st1{fill:none;stroke:#1E2022;stroke-width:7;stroke-linecap:round;stroke-linejoin:round;}
	.st2{fill:#1E2022;}
	.st3{fill:#FFE945;stroke:#FFE945;stroke-width:7;stroke-linecap:round;stroke-linejoin:round;}
</style>
<path class="st0" d="M40.5,332.1c-1.6,30.1,0.5,58.1,8.7,79.3c5.9,15.3,15.2,30.4,26.9,44.9c0.1-6.2,1.4-12.3,3.9-18
	c2.6-6.5,7.6-11.7,14-14.6l0.4-2.4c0,0,1.6-29,2.2-41c1-0.2,2.2-0.3,3.5-0.4l-0.3-1.2c0,0-0.4-17.4-2.8-24.1l-1.5-1
	C79.4,347,56.4,340.1,40.5,332.1z"/>
<path class="st0" d="M660.6,334.3c3.7-56.6,4.4-115.9-21.1-169.4c-25.9-54.3-83.1-94.2-138.5-127.5C443.6,2.9,392.6,2.9,343.7,0.4
	s-133.1,7-178.5,47S98,107.9,74,174.4c-12,33.8-21.1,68.5-27.2,103.8c19,7.6,43.5,26.2,54.6,30.7c10,1.4,20.1,2.1,30.3,1.9
	c11-0.1,27.3-1.9,37.7-5.9c9.9-3.8,19.8-9.6,29.2-13.4c9.8-4,20.8,3.4,16,13.5c-4.3,9-12.7,15.4-22.9,20.8s-18.5,8.1-21,19.2
	c-1.4,5.8-0.6,30-0.4,36.9c1,0.2,2.1,0.4,3.2,0.6c1.1,12.5,3.2,40.9,3.2,40.9v1.2c2.7,1.1,5.2,2.7,7.5,4.7
	c11.7,10.7,19.9,31.7,24.8,46.5c0.5,1.4,1.1,3.1,1.6,5c13.9-2.6,35.8,2.4,41.7,7.4c0.3,0.3,0.6,0.5,0.9,0.8
	c7-10.4,15-19.5,17.5-23.2c13.2-20.1,39.5-42.6,59.5-55.7c17.4-11.4,36.8-23.6,51.8-37.1c15.5-13.9,8.6-26.5,10.6-44.1
	c0.1-0.7,1.5-0.5,4.1,0.2v-70.1c0-23.5,2.1-77.1,2.1-77.1s-14.9-4.7-28.8-9s-31.7-7.5-47-10.2c0,0,21.4-17.8,32.2-25.6
	c14.8-10.6,29.2-21,45.5-29.6c1.8-0.9,3.6-1.9,5.5-2.8c-3.7-1.1-7-2.9-8.9-6.1c-0.3-0.6-0.5-1.3-0.5-2c0-2.3,1.8-4.2,4.1-4.2
	c22-0.3,37.6-19.2,58.3-24.2c8-2,16.9-1.9,24.4,1.3s12.3,9.5,16.4,16.2c11.7-3.6,24,1.5,32.3,10.5c10.1,11,15.9,26.3,18.7,40.7
	c1.1,5.9,1.8,11.9,2.1,17.9l0,0c12.5,1.9,24.2,6.3,28.6,17.3c8.2,20.5-14.1,27.3-32.5,26.6c-2.4,12.5-5.7,25-8.9,37.2
	c-0.9,3-3.8,3.5-6,2.3c1.1,26.7,2.2,59.9,2.2,81.3v1.3c0.7-0.3,1.3-0.6,2-0.9c6.1,13.4,6.4,33,17.7,42.8
	c19.4,16.7,46.7,32.1,67.2,48.3c6.9,5.5,13.6,11.1,19.9,17.1C654.4,397.9,658.5,365.6,660.6,334.3z"/>
<path class="st1" d="M61.1,585.5c0-65.9,3.4-105.2,26.4-105.2c-11-5.9-15.4-23.8-7.7-42.1c9.3-22,34-17.8,53.4-18.8
	c15-0.8,39.8-0.3,50.7,9.7c11.7,10.7,19.9,31.7,24.8,46.5c1.8,5.6,5.7,15.5,1.3,21.1c-3.9,4.8-11.3,1.3-11.5-5
	c-0.8-18.8,44.7-11.2,53.6-3.7c8.5,7.2,12.9,20,10.6,30.9c-1.4,6.8-6.6,17.3-14.9,11.3c-21.7-15.4,16.7-55.7,22.6-64.6
	c13.2-20.1,39.5-42.6,59.5-55.7c17.4-11.4,36.8-23.6,51.8-37.1c15.5-13.9,8.6-26.5,10.6-44.1c0.3-2.8,21.2,8.3,52.3,8.3
	s67.1-5,93.6-17.1c6.1,13.4,6.4,33,17.7,42.8c19.4,16.7,46.7,32.1,67.2,48.3c20.2,15.9,37.9,33.3,52.1,54.7"/>
<path class="st1" d="M397.5,372.9c-0.6-1.7-1.4-3.4-1.9-5.1c4.3,11.9,21.5,36.6,31.8,21.1c7.2-11,15.1-24.3,20.2-39.3
	c17.8,24.4,42.9,45.6,54.9,43.9c14.7-2.2,34.3-26.5,39.9-39"/>
<path class="st1" d="M476.6,539.3c3.7-12.4,7-26.2,4.7-38.9c-2.2-12.4-15.4-40-31.4-40c-12.4,3.5,17.1,20.6,26.9,17.5
	c13.6-4.3,9.8-19.9,6.8-30.8c-7.2-26.8-27.5-38.8-32.7-73.1"/>
<path class="st1" d="M328.1,474.3c16,4.3,67.6,5.9,67.6,5.9"/>
<path class="st1" d="M335.5,498.7c0,0,1.3-24.8,7-34.4"/>
<path class="st1" d="M346.8,519.6c0,0,1.6-38.4,10.1-55.7"/>
<path class="st1" d="M396.5,326.7v-67.9c0-23.5,2.1-77.1,2.1-77.1s-14.9-4.7-28.8-9s-31.7-7.5-47-10.2c0,0,21.4-17.8,32.2-25.6
	c14.8-10.6,29.2-21,45.5-29.6c26.8-14.1,58.9-28.3,88.8-18.1c25.4,8.6,36,38.5,35.9,63.5c16.7,1,48.4-0.5,56.3,19.3
	c11.2,27.9-34.3,30.4-49.3,23c0,0,4.1,83.5,4.1,124.4"/>
<line class="st1" x1="451" y1="145" x2="451.9" y2="134.8"/>
<line class="st1" x1="427.9" y1="143.7" x2="428.8" y2="133.5"/>
<path class="st1" d="M544.5,179.8c5.3-3.6,9.6-4.3,16.4-4.1"/>
<path class="st1" d="M434.5,194.3c5.8,0.3,11.4-2,15.4-6.2"/>
<path class="st1" d="M10.5,298.8c-14.9-14.2-3.9-21.6,12-16.9c11,3.4,21.7,7.4,32.2,11.9c29.1,12.7,44.7,17.1,76.9,16.9
	c11-0.1,27.3-1.9,37.7-5.9c9.9-3.8,19.8-9.6,29.2-13.4c9.8-4,20.8,3.4,16,13.5c-4.3,9-12.7,15.4-22.9,20.8s-18.5,8.1-21.1,19.1
	c-1.6,6.7-0.3,36.8-0.3,36.8"/>
<path class="st1" d="M97.9,355.6c2.5,6.7,1.8,23.1,1.8,23.1"/>
<path class="st1" d="M63.8,325.6c0,0-9.9-3.9-19.5-7.6s-18.7-10-22.3-6.8c-6.3,5.6,8.2,15,11.8,17.2c18.1,11.1,52,20,69.4,28.8"/>
<path class="st1" d="M20.4,314.7c-6.6-2.8-13.4-7.9-10.4-14.4s11.6-4.8,17.2-2.8c14.1,5,23.2,10.7,37.4,14.7"/>
<path class="st1" d="M22.6,281.9c8.8-23.6,61,19.9,78.8,27"/>
<path class="st1" d="M94.3,421.3c0,0,1.6-29,2.2-41c10.5-1.5,34.5-1.7,45.1-1.2c11.3,0.6,20.5,1.1,31.6,3.2
	c1.1,12.5,3.2,40.9,3.2,40.9"/>
<path class="st2" d="M548.9,198.7c-6.7-0.3-12.8-1.5-16.8-3.5c0,0,0.9,18.8,1.9,43c2.2,1.3,5.2,0.8,6-2.3
	C543.3,223.7,546.5,211.2,548.9,198.7z"/>
<path class="st2" d="M398.7,92.8c-2,1.1-2.7,3.6-1.6,5.6c4.3,7.3,15.8,7.3,23.2,8.6c9.5,1.8,19.2,2.8,28.9,2.9
	c14.2,0.1,28.6-2.5,41.1-9.1c-0.7,11.2,4.7,22,10.4,32c8.5,14.6,14.3,30.6,17,47.3c0.6,3.8,5.8,3.6,7.5,1c5.4-8,7.9-17.8,8.7-27.9
	c6.3,0.2,12.6,0.7,18.8,1.5c-0.3-6-1-12-2.1-17.9c-2.8-14.5-8.6-29.7-18.7-40.7c-8.3-9.1-20.6-14.1-32.3-10.5
	c-4.1-6.8-8.8-12.9-16.4-16.2s-16.4-3.3-24.4-1.3c-20.6,5-36.3,23.9-58.3,24.2C399.9,92.3,399.3,92.4,398.7,92.8z"/>
<path class="st1" d="M136.5,344.2c0.9-0.7,2-0.9,3.1-0.7"/>
<path class="st3" d="M79.6,141.6c-13.6,11.3-21.9,27.5-25.2,44.6c-3.4,18.9,0.6,38.5,11.3,54.5c4.8,7.1,17.7,15,25.9,17.8
	c10.9,3.6,20.2,4.1,31.5,4.5c10.1,0.4,33.2-2.8,45.6-11.6s21.6-17.9,24.8-31.1c2.8-11.7,5.6-22.6,2.8-34.6
	c-4.1-17.5-7.7-28-19.6-40.8c-12.1-13.1-30-17.1-49.1-16.4C108.5,129.3,89.7,133.4,79.6,141.6z"/>
<path class="st1" d="M136.9,262.1c-11.6,0.3-20.8-2-31-9s-19.3-18-22.4-23.3c-6.8-11.3-10.5-30.2-9.3-43.3
	c0.8-9.1,6.7-23.6,12.2-31.3c6.8-9.3,16-15.8,22.5-19.7s22.2-7.1,31.7-6.7"/>
<path class="st1" d="M114.4,185.6c3.8-2,7.6-4.1,11.3-6.4c-0.2,11.2-1.7,22.3-1.7,33.6"/>
<path class="st1" d="M114.4,212.1c2.7,2,9,1.6,12.3,2c2.4,0.3,4.5,0.9,7.1,0.8"/>
<path class="st1" d="M158.8,178.7c-5.4-3.8-12-0.9-12.3,5.8c-0.3,6.1,6.6,12.8,11.9,6.8"/>
<path class="st1" d="M144.8,206.4c4.7,0,10.4,0,15,1"/>
<path class="st1" d="M143.4,150.1c5.6,0.4,11.3,1,16.6,3.4c6.1,2.8,11.4,9.6,15.1,15.1c6.7,10,10.2,22.4,6.8,34.3"/>
<path class="st1" d="M114.4,238.7c-4.9-2-11.6-7.5-14.7-12c-9.6-14.2-12.4-31.8-7.7-48.2c2.2-7.6,6.2-15.6,12.5-20.5
	c5.1-4.2,11.4-6.8,18-7.5"/>
<path class="st1" d="M144.4,241.8c-3.8,0.9-8.1,2-12,1.1"/>
<path class="st1" d="M176.1,216.9c-3,8.2-7.7,13.3-15.5,17.8"/>
<path class="st1" d="M81.4,140.6c6.2,0,12.2-0.3,18.4-0.3"/>
<path class="st1" d="M58.3,174c3.8,1.6,13.4,1.1,17,0"/>
<path class="st1" d="M55.1,207c6.1-0.3,12.7,0,19.1,0"/>
<path class="st1" d="M64.3,238.7c2.6-1,6.1-0.2,8.9-0.4c4.7-0.2,9.8,0.7,14.3-0.7"/>
<path class="st1" d="M78.3,250.3c7.1-0.2,14.5-0.7,21.8-0.7"/>
</svg>
