<?xml version="1.0" encoding="utf-8"?>
<!-- Generator: Adobe Illustrator 24.2.0, SVG Export Plug-In . SVG Version: 6.00 Build 0)  -->
<svg version="1.1" id="Layer_1" xmlns="http://www.w3.org/2000/svg" xmlns:xlink="http://www.w3.org/1999/xlink" x="0px" y="0px"
	 viewBox="0 0 571.2 631.9" style="enable-background:new 0 0 571.2 631.9;" >
<style type="text/css">
	.st0{fill:#F4F6F9;}
	.st1{fill:none;stroke:#132144;stroke-width:7;stroke-linecap:round;stroke-linejoin:round;}
	.st2{fill:none;stroke:#333333;stroke-width:7;stroke-linecap:round;stroke-linejoin:round;}
	.st3{fill:#377dff;}
	.st4{fill:#132144;}
</style>
<g id="BG">
	<path class="st0" d="M561.6,349.9c-6.3-12.9-15.4-24.5-25.4-34.7c-9.6-9.8-20.7-17.6-31.3-26.2c-9.9-8.1-19.2-17.4-20.6-30.8
		c-1.7-14.7,3.5-29.5,6.3-43.8c6.1-29.8-0.1-60.7-17.2-85.8c-16.5-24.5-41-42.5-67.9-54.2C379.2,63,349.3,59,324.8,43.7
		c-13-8.1-22.8-20.2-35.4-28.9C277.2,6.4,263,2.2,248.5,0.7c-28.2-3.1-60.4,4.7-84.7,19c-12.5,7.3-22.4,17.6-30,29.9
		c-6.8,10.9-11.9,22.7-18.1,34c-6,10.9-13,20.7-23.5,27.6c-10.9,7.2-23,12.1-34,19c-11.9,7.5-21.9,17.3-27.6,30.3
		c-5.5,13-7.7,27.1-6.5,41.1c2.4,31.8,19.1,59.3,27.3,89.5c3.6,13.3,5.7,27.7,2.7,41.4c-3.4,15.1-14.5,26.3-19.6,40.7
		c-2.8,8.2-4.1,16.9-3.8,25.6c7.9-2.1,17.2,4.6,20.9,7.6c15.2,12.2,23.5,32.3,28.7,49.8c-1.9-6-1.6-12.3-3.1-18.4
		c-1.9-7.4-4.6-14.5-8-21.3c-3.4-7-10.5-17.1-12.5-24.9c-1.4-5.1,1.7-10,4.9-10.6c8-1.5,12.5,3.9,15.5,6.7c9,8.4,14.1,18.7,20,29.3
		c5.3,9.6,7,17,11.6,29l0.1,0.2c0.8-1.6,1.9-2.9,3.4-3.8c3.3-1.9,6-1.2,8.1,0.8l0.9-1.5c4.3-15.2,9-28.7,20.5-50
		s29.6-46.5,39.6-59.5c2.2-10.8,3.5-31.8,18.7-40.3c0.7,0.5,1.4,1,2.2,1.5l-0.2-0.5c-6.8-23.2-18.3-81-21.1-102.7
		c-4.8,0.4-25.9,8.1-32.1,9.9c-7.3,2-27.8,6.9-37.6,9.2s19.9-46.3,28.4-58.6c14.8-21.4,31.9-44.5,52.1-61c1.4-1.2,2.8-2.4,4.2-3.6
		c-6-0.7-11.7-2.6-17-5.4c-3-1.5-1.6-5.1,1.4-5.3c22.3-2,35.4-18.1,57.4-21.9c11.8-2.1,26-0.1,37.1,4.2c8.7,3.3,16.1,9.8,18.1,18.9
		c21.8-1.2,29,31.6,31.5,48.1c0.5,3.1,0.9,6.3,1.2,9.4l0,0c1.7-0.6,3.3-1.1,5.1-1.5c14.3-3.5,32.6,1.3,28.8,19.4
		c-3.1,14.8-19.2,19.2-33.6,20.8c-0.6,9.5-1.6,19-2.8,28.5c-0.3,1.8-2,3-3.7,2.7c0,0-0.1,0-0.1,0c0.7,3.3,1.4,6.7,2,10
		c1.4,7.9,6.5,40.2,6.5,40.2l0.2,0.8c0.1-0.1,0.3-0.2,0.5-0.3c3.7-1.9,10.3,5.6,11.9,7.8c8.4,12.1,13,25.6,14.1,36.9
		c14.3,1.2,40.1,11.8,50,18c26,16.3,46,32.2,66.7,55.1c24.1,26.7,46.3,55.7,62.2,87.9c0.3,0.5,0.5,1.1,0.8,1.6
		c10.6-9.1,19.8-19.5,26.7-31.6C574.8,404.8,574.4,375.7,561.6,349.9z"/>
</g>
<path class="st1" d="M98.3,493.2c5-8,7.8-17.2,8-26.7c0.1-6.2-0.9-20.3,5.9-24.1c8.3-4.7,12.4,7,14.3,12.4
	c4.2,12.5,1.9,29.3,0.4,42.1c-0.6,5.1-6.4,23.9-4.2,26.4"/>
<path class="st1" d="M247.4,604.2c0,0-15.5-11-21-15.2s-11-9.7-16-14.6c-10.5-10.1-11.4-24.2-12-38.2c-0.8-17.9-0.5-35.6,3.4-53.1
	c1.9-8.4,6.1-27,9.4-34.3s4.8-15,14.2-17.4c17.2-4.3,1.7,31,4.9,42.4"/>
<path class="st1" d="M224.4,481.4c8.6-10.2,15.1-22.2,24.2-32.2c8.8-9.6,17.8-20.2,27.4-29.2c7.3-6.9,15.9-14.2,24.8-19.4
	c4.6-2.7,15.9-7.8,16,4.1c0.2,10.4-18.9,22.5-28,32.3"/>
<path class="st1" d="M270.8,454.9c17.4-16.9,32.6-33.9,53.9-46.1c4.6-2.6,16.7-7.6,19.5,0.1c2.9,7.9-8.5,14-13.5,17.7
	c-4.9,3.7-22.9,19.2-27.3,23.4"/>
<path class="st1" d="M294.8,456.2c16.3-11.5,26.2-21.2,44.1-27.4c6.6-2.3,13.8-3,14,5.4c0.3,9.5-9.5,15-17,19.4
	c-7,4.1-16.5,11.5-23.6,15.6"/>
<path class="st1" d="M304.7,473.9c9.2-5.8,19.6-11.7,30-14.3c4.7-1.2,20.7-6.4,18.3,5.1c-0.8,3.9-5.6,7.7-8.4,10.2
	c-5,4.5-10.5,9-15.2,13.9c-4.5,4.7-9,8.5-13.1,13.7c-3.4,4.3-6.8,8.4-10.1,12.8c-6.8,8.9-10.9,19.5-16.3,29.2"/>
<path class="st1" d="M108.6,445.9c-4.6-12-6.3-19.4-11.6-29c-5.9-10.7-11.1-21-20-29.3c-3-2.8-7.4-8.1-15.5-6.7
	c-3.2,0.6-6.2,5.5-4.9,10.6c2.1,7.8,9.2,17.9,12.5,24.8c3.4,6.8,6.1,13.9,8,21.3c1.5,6.1,1.2,12.4,3.1,18.4
	c-5.3-17.5-13.5-37.6-28.7-49.8c-4.3-3.5-16-11.9-24.6-5.9c-7.8,5.5,5.9,14.3,8.5,17.5c9.7,11.8,18.4,24.2,23.9,38.6
	c-2.9-10-14.1-22.5-22.5-28.3c-4.9-3.3-13.9-10.6-20.2-8c-14.9,6.2,7.3,23.7,11,27c4.1,3.7,7.7,7.9,10.9,12.4
	c1.8,2.5,5.3,6.5,6.1,9.6c-5.8-6.9-11.8-15.8-19.5-22.6s-15.5-4.8-19-1c-10,11,12,23.7,18,29.9c8.8,9.1,11.7,20.8,16.4,32.3
	c4.2,10.4,3.7,22.1,5.6,33c2.8,16.9,7.4,30.3,23.6,37.6c8.9,4,18.1,7.7,27.8,9.2c4.2,0.7,17.6,3.7,17.6,3.7
	c4.3-3.7,7.6-8.4,9.7-13.8c4.1-9.8,6.1-20.6,7.8-31.1c1.4-8.9,3.3-17.9,2.8-27c-0.3-4.5-0.6-5.2-3.4-7.2c-1.7-1.2-5.4-2.2-5.2-2.7"
	/>
<path class="st1" d="M321.8,546.8c-1,0.2-6.3,14-8.3,16.7c-8.7,12.4-20.3,24.3-33.5,31.9c-12.9,7.4-28.6,12-40.3,8.8
	c4,3.8,9,10.2,13.1,13.5c5.5,4.3,10.9,8.7,15.2,10.7"/>
<path class="st1" d="M296.4,531.7c0,0,18,11.3,25.5,14.5c8-3.9,23.2,9.2,30.1,15c5.4,4.6,10,5.9,7.8,13.8
	c-2.3,8.3-6.7,15.7-11.1,22.9c-4.5,6.8-9.7,13-15.6,18.7"/>
<path class="st1" d="M132.6,510.9c1-9.8,16.1-7.5,19.8-5.4"/>
<path class="st1" d="M248.6,449.2c5.2-9.9,5.9-19,6.4-24.3c0.6-5.9,0.8-13.1-1.5-18.6c-2-4.6-6-8.1-7.3-13.1
	c-2.1-8.8,3-18.5,3.4-27.4c0.6-11.9,0-25.9-4.3-37.1"/>
<path class="st1" d="M188.9,337.6c0,0,2,5.3,4.3,11.6c1.7,4.5,5.6,12.9,10,15.3c12.4,7,23.8-20,26.4-27.9c3.1-9,6.4-18.9,8.7-27.7
	c15.7,11.8,22.2,34.7,38.4,46.3c23.2,16.7,38.2-3,52-21.3c5.4-7.2,16.9-22.7,17.3-30.7"/>
<path class="st1" d="M121.2,441.6c4.3-15.2,9-28.7,20.5-50c11.5-21.3,29.6-46.5,39.6-59.5c2.2-10.8,3.5-31.8,18.7-40.3
	c6.7,4.7,19.2,11.2,29,11.7c13.7,0.8,27.4-1.1,40.3-5.5c14.6-5.2,32.9-16,42.9-27.6c4.4-5,12.4-14.2,16.1-16
	c3.7-1.8,10.3,5.6,11.9,7.8c8.4,12.1,13,25.6,14.1,36.9c14.3,1.2,40.1,11.8,50,18c26,16.3,46,32.2,66.7,55.1
	c24.1,26.7,46.3,55.7,62.2,87.9c11.9,24.2,17.8,48.1,25.7,73.5"/>
<path class="st1" d="M255.8,392.5v-1.9"/>
<path class="st2" d="M327.6,253.9c0,0-5.1-32.4-6.5-40.2c-2.4-13.4-5.9-26.9-7.7-40.2c15.6-0.9,41.8-2.4,45.9-21.8
	c3.8-18-14.5-22.8-28.8-19.4c-7.9,1.9-14.5,5.8-22,8.6c0.2-7.6-4.7-18.3-7.3-25.4c-3.4-8.9-8.3-17.1-14.5-24.4
	c-12.6-15-34.3-21.3-53.2-20.6c-7.8,0.3-15.6,1.8-22.9,4.6c-7.5,2.8-12.9,9.4-19,14.4c-20.3,16.4-37.4,39.5-52.1,61
	c-8.5,12.3-38.2,60.9-28.4,58.6s30.3-7.1,37.6-9.2c6.3-1.8,27.4-9.5,32.1-9.9c2.8,21.6,14.3,79.4,21.1,102.7"/>
<line class="st1" x1="230.4" y1="142" x2="230.4" y2="136.2"/>
<line class="st1" x1="201.1" y1="146.6" x2="199.7" y2="141.1"/>
<path class="st1" d="M226.6,111.8c3.6-0.8,8.6,0.3,11.4,1.7"/>
<path class="st1" d="M184.4,124c1.5-2.6,3.7-4.7,6.2-6.1"/>
<path class="st3" d="M272.9,134.1l-0.4-0.8c-0.9-1.7-3.1-2.3-4.8-1.3c-1,0.6-1.7,1.6-1.8,2.8c-0.4,2.1-0.8,4.2-1.4,6.3
	c-2.5,9.4-5.6,21.1-0.5,27.1c1.9,2.2,4.8,3.4,7.8,3.3c0.4,0,0.9,0,1.3,0c5-0.4,7.4-3,8.5-5.1C285.6,158.4,279,144.9,272.9,134.1z"/>
<path class="st1" d="M213.1,196.6c8.7-0.6,12.4-1.3,18.9-8.4c3.3-3.6,7.6-10.7,15.9-3.4s-6.3,30.6-22.9,33.4
	c-7,1.2-17.2-2.4-19.2-10S208.6,195.7,213.1,196.6z"/>
<path class="st1" d="M217.1,217.7c2.4-6.2,4.9-10.8,10.6-14.3c3-1.8,20.3-9.9,21.8-8.3"/>
<path class="st4" d="M313.4,173.5c1.3,10,3.6,20.1,5.7,30.2c1.8,0.3,3.5-0.8,3.8-2.6c0,0,0-0.1,0-0.1c1.1-9.5,2.1-19,2.8-28.5
	C321.4,173,317.1,173.3,313.4,173.5z"/>
<path class="st4" d="M325.5,133.9c-0.3-3.1-0.7-6.3-1.2-9.4c-2.6-16.5-9.8-49.2-31.5-48.1c-2-9.1-9.4-15.5-18.1-18.9
	c-11.2-4.3-25.3-6.3-37.1-4.2c-21.9,3.9-35,20-57.4,21.9c-3.1,0.3-4.4,3.9-1.4,5.3c8.8,4.4,16.4,6.2,26.1,5.5
	c10.8-0.8,21-1.1,31.6,1.7c9.2,2.4,18.4,5.5,28,5.2c7.3-0.2,7.3-0.3,13.6-3.8c-3.5,9.6-2,15.5,3.5,24.3
	c7.7,12.4,16.3,24.6,24.3,39.6c1,1.9,4.7,1.9,5.1-0.7c0.7-4.3,1.1-8.6,1.4-12.9C316.7,137.6,320.9,135.5,325.5,133.9z"/>
<line class="st1" x1="334.4" y1="148" x2="327.6" y2="153"/>
<path class="st1" d="M361.2,571.1c4.9-3.6,17-3.2,23-1.9c11.6,2.4,18.6,12.1,23.9,21.8c-0.6-6-2.3-10.5,3.7-14.4
	c4.8-3.1,11.3-2.9,16.7-1.9c3.6,0.7,18.7,4.4,18.6,9.9c-0.1,6.6-11.4,2.6-14.4,0.5c-6-4.3-8.6-12.9-8.6-20
	c-0.1-8.6,3.5-23.8,11.5-27.9c-19.8,0.3-28.8-35.8-25-50.6"/>
<path class="st4" d="M250.4,190.3c0.1-1-0.1-2-0.6-2.9c-1-1.8-3.8-3.3-6.2-4.1c-2.2-1.3-5-1.3-7.2-0.1c-3.1,1.7-5.6,4.8-8,7.3
	c-2.9,2.8-6.3,4-10,5.4c-1.5-0.7-3.1-1-4.7-0.6c-3.7,0.5-6.2,3.8-6.8,7.2c-0.6,3.1-0.1,8.5,3.2,10c0.6,0.3,1.3,0.4,2,0.3
	c0.8,2.2,4.1,3.4,5.3,0.7c0.2-0.5,0.4-1,0.6-1.6c3.3-3.2,7.2-5.9,11.3-7.9c1-0.4,1.6-1.4,1.5-2.5c1.3-0.9,2.6-1.8,3.9-2.6
	c3.6-1.4,7.4-2.4,11.2-2.8C249.8,195.7,251.5,193.4,250.4,190.3z"/>
<path class="st1" d="M229.4,559.1c3.4,0.4,6.3-1.3,9.3-2"/>
</svg>
