<?xml version="1.0" encoding="utf-8"?>
<!-- Generator: Adobe Illustrator 24.1.3, SVG Export Plug-In . SVG Version: 6.00 Build 0)  -->
<svg version="1.1" id="Layer_1" xmlns="http://www.w3.org/2000/svg" xmlns:xlink="http://www.w3.org/1999/xlink" x="0px" y="0px"
	 viewBox="0 0 558.6 688.5" style="enable-background:new 0 0 558.6 688.5;" >
<style type="text/css">
	.st0{fill:#F4F6F9;}
	.st1{fill:none;stroke:#132144;stroke-width:7;stroke-linecap:round;stroke-linejoin:round;}
	.st2{fill:#132144;}
</style>
<path id="BG" class="st0" d="M3.6,184.8c0.6,18.9,2.7,38,5.2,56.8c2.5,19.1,5.8,38.2,12,56.4c11.9,34.9,35,63.1,55.2,93.4
	c6,8.9,11.5,18.2,16.4,27.8c17.2-16.8,32.4-34.3,51.1-49.8c6-5,19.8-16.7,26.5-21.6c0-2.3,0-4.6,0-7c0.1-5.2,0.2-10.5,0.4-15.9
	c-13.9-22.3-27.4-45.4-29.1-69.2c-1.3-17.7,1.1-35.4,7.1-52c2-5.7,4.5-11.3,7.5-16.7c-10.4-6.5-17.6-21.5-8.1-31.6
	c5.4-5.7,13.3-6.9,21.3-6l0,0c0.7-9.7,2.2-19.4,6.6-28.2c4.6-9.3,10.3-19.2,21.7-20.9l0.1-0.4c3.8-16.4,27.2-20.2,41-16.3
	c17,4.8,30.6,19.1,48.8,20c0.6,0,1.2,0.3,1.7,0.7c1,1,1.1,2.6,0.1,3.6c-4.2,4.1-9.5,6.9-15.3,8.1c1,0.8,1.9,1.6,2.8,2.5
	c9.5,8.8,19.4,17.5,28.4,26.7c6.5,6.6,13,13.3,19.9,19.9c6.6,6.4,12.7,13.1,18.7,20.1c1.6,1.9,12.6,13.1,11,15.9
	c-1.1,2-12.1-0.1-14.7-0.3l-3.8-0.3c12.1,15.1,20.7,33.1,25.6,52.6c3.4,13.3,7.7,22.5,19.9,22.5s73.3,4.5,114,1.8
	c4-0.3,9-4.9,9.6-9.3c1.3-9.7,2-19.5,2.2-29.3c0.9-66.5-37-128.5-88.7-168.1c-55.6-42.7-126.2-61.8-195-69.1
	C187.3-2,149.5-0.7,115.7,15.4c-31.3,15-57.1,41.1-78,68.3c-10.8,14.1-20,29.2-26.2,45.9C4.9,147.2,3,166.1,3.6,184.8z"/>
<path class="st1" d="M305.9,306.9c0-30.9,2.2-61.6,2.3-92.3c0-5.1-0.6-14.7-0.6-14.7s11.7-0.3,15.9,0c5.5,0.3,10.9,0.8,16.4,1.1
	c2.6,0.2,13.6,2.3,14.7,0.3c1.6-2.8-9.4-14-11-15.9c-6-7-12.1-13.7-18.7-20.1c-6.9-6.6-13.3-13.2-19.9-19.9
	c-9-9.2-18.9-17.9-28.4-26.7c-17.5-16.1-46-32-69-19.1c-13.6,7.6-18.1,24.5-21,38.6c-1,4.9-1.8,10-2.5,15.2
	c-11.4-4.4-27.4-7.3-36.3,2.1c-11.3,11.8,0.7,30.5,13.7,34.1c6.6,1.9,13.3,3.1,20.2,3.7c0,8,0,18,0.1,28.7"/>
<path class="st1" d="M166.1,171.5c1.8,0.4,3.8,0.8,5.7,1.1"/>
<line class="st1" x1="241.2" y1="160.8" x2="241.2" y2="169.1"/>
<line class="st1" x1="266.2" y1="160.8" x2="266.2" y2="169.1"/>
<path class="st1" d="M241.8,200.2c4-5.3,14.1,0.4,18.1,3.4"/>
<path class="st1" d="M33.9,490.3c17.1-23.9,35.4-48.7,56.5-69.1c18-17.4,33.7-35.7,53.1-51.7c6.2-5.1,20.3-17.2,26.9-21.9"/>
<path class="st1" d="M297.3,348.3c8.6,0,17.1-5.1,24.2-12.6"/>
<path class="st1" d="M204.3,296.6c0,0-1.2-10.8-1.2-20.5s0-24.2,0-34.9c0-6.8,1.7-25.9-6-28.7c-15.4-5.6-19.5,22.9-20.1,28.7
	c-3.4,31.5-6.5,67.8-7,99.7c-0.2,15.6-0.1,31.3,0,46.9c0.1,9.5-0.1,26.7-0.1,26.7"/>
<path class="st1" d="M268.6,295.5c0.6-3.3-5.5-10.4-9.4-12c-5.3-2.3-13-1.8-18.4-1.1c-9.1,1.3-15.8,4.7-24.5,8
	c-5.2,2-13.8,8.1-13.8,8.1"/>
<path class="st1" d="M291.2,323.6c-0.5-11.4-13.9-25.7-24.9-26.9c-6.7-0.7-15.9,4.3-22.1,7c-6,2.5-17,9.5-17,9.5"/>
<path class="st1" d="M246.5,404.2c20.8,2.5,33.7-47.4,13.8-47.6c7.5,2.7,15.3-0.8,19.4-7.3c-2.1,5.5-5.3,21.3,3,23.2
	c17.1,3.9,15.8-31.2,12.7-39.6c-2.9-7.7-8.5-12-16.5-12.5c-5.6-0.4-11.3,1.4-16.6,2.8c-5.7,1.5-14.7,8-14.7,8"/>
<path class="st1" d="M285.3,309c0,0,13.9-1.4,22.3-2.1c3.6,5.3,5.5,9.3,8,14.1c2.4,4.6,6,14.6,6,14.6s7.7,5.3,10.9,7.2
	c37.3,22.6,62.4,40.4,82.8,54.6c20.4,14.2,50,41.2,61,57.1c16.4,3,31.5,10.8,41,19c9.5,8.2,25.9,27.8,31.5,39.4
	c5.8,11.9,9.1,20.7,9.8,34"/>
<path class="st1" d="M250.4,438.8c0,0,0.6-20.7-0.5-32.3"/>
<path class="st1" d="M169.1,412.1c-4.1,0-4.1,11.1-5.6,23.7c-0.9,8-1.9,30-1.9,38.1c0,3.9-0.5,12.5,1.7,15.4
	c1.5,2.1,6.4,5.9,8.5,7.2c4.4,2.7,8.4,4.6,13.1,6.9c14.4,7.3,31,14.1,47.6,15.2c6.6,0.4,15.5,0.2,18.1-2.2s1.4-24.2,2-36.4
	c0.6-12.4,1.6-29.5,1.6-41.2c-11.7,4.3-28.1,2.6-40.7,0C198.6,435.8,173.7,423.8,169.1,412.1z"/>
<path class="st1" d="M292.5,515.1c-5-4.4-13.1-21.2-10.4-26.9c14.2,7.6,3.4-10.7,0.2-17.2c-1.3-2.6-8.9-15.1-4.2-18.1
	c2.6-1.6,7.8,3.2,10.5,2.8c17.4-2.8-20.2-56.8-22.3-64.6"/>
<path class="st1" d="M261.2,525c10.4-4.1,23.1-8.2,34.3-9.9c8.3-1.3,18.6-1,26.5,2.9c10.1,5,15.8,10,22.5,18.9
	c1.7-13.8,11.3-20.4,26-16.1s23.7,8.8,36.5,20.8c-5.8-16.5,14.6-12.8,21.3-12.5c9,0.3,26.8,5,26.8,13.9c0,4.4-19.3,4.6-27.3-4.2
	s-13.1-21,6.5-22.3c-12.6-0.1-21-2-26-7.4c-3.1-3.3-4.9-10.7-4-15.3"/>
<path class="st1" d="M286.7,682.3c0.2,1.1,0.7,1.6,0.6,2.7c-0.5-4.3,1.9-7.9,2.7-11.9c1.5-7,0.4-13.9-1-20.8
	c-1.8-9.1-2.5-20.1-7.9-28c-3.7-5.3-4.6-4.7-1.7-11.6c3.2-7.7,7.1-13.3,6.8-21.9c-0.5-14.3-5.7-30.9-12.5-43.5
	c-3.2-5.9-5.7-14.9-10-19.7c-3.7-4.2-8.3-8.6-13.1-11.3"/>
<path class="st1" d="M146.3,645.5c4.1-3.2,0.9-25.4,1.1-31c0.8-18.7,2.7-37.6,4.4-56.2c2-21.8,3-50,11.4-68.9"/>
<path class="st1" d="M80.4,588c-3.9,10.5-8.1,18.1-15.1,12.7s-3.1-26.3-1.7-34.2c2.2-12.6,8.5-26,18.7-34.4
	c10.5-8.6,20.2-12.3,33.5-12.3c13.7,0,25.1-0.4,38.3,2.4"/>
<path class="st1" d="M118.2,575.6c-1.5,4.3-1.5,10.6-1.4,18.7s10.5,39.8,21.4,26.2c3.7-4.6-1.2-18-1.5-23.6
	c-0.1-5.5,1.7-11,5.2-15.3"/>
<path class="st1" d="M106.1,559.4c-1.8,5.7-4.4,12.5-5.1,19.3c-1.3,13.1-1.3,23.7,3.6,35.9c1.6,4.1,5.5,11.9,10.9,11.8
	c6.1-0.1,7.2-5.9,8.2-10.3"/>
<path class="st1" d="M104.6,614.5c1.9,18.5-11.6,15.1-15.6,8.8c-14.7-23.5-9-57,6.3-76.3"/>
<path class="st1" d="M382.4,650c-8.3,2.5-19.3-0.6-27.8-1.2c-9.1-0.5-18.1-1.9-26.9-3.9c-14.8-3.7-29.3-11.2-43.3-17"/>
<path class="st1" d="M240.2,503.3v-1.7"/>
<path class="st2" d="M181.7,193.3c-3.4-0.3-6.7-0.7-10-1.3c1.2,6.6,3.1,13.1,5.6,19.4c0.2,0.4,0.4,0.8,0.8,1.1
	c1.1,1,2.8,0.8,3.7-0.3C181.7,205.3,181.7,198.8,181.7,193.3z"/>
<path class="st2" d="M181,166.2c1.2,0.7,2.8,0.4,3.5-0.8c5.5-9.1,15-15.4,19.3-25.2s4.5-17.6,1.5-27.3c5.4-5.3,10.8-7.2,17.9-5
	c8.3,2.5,19.2,7.9,27.9,8.7c13.2,1.1,27.2,2.2,38.1-8.4c0.4-0.5,0.7-1.1,0.7-1.7c0-1.4-1.1-2.6-2.5-2.7c-18.1-0.9-31.8-15.2-48.8-20
	c-13.9-3.9-37.3-0.2-41,16.3l-0.1,0.4c-11.5,1.7-17.1,11.6-21.7,20.9c-4.4,8.8-5.9,18.5-6.6,28.2c3.2,0.4,6.4,1.1,9.4,2
	c0.3,4.2,1,8.3,1.3,12.6C179.9,164.9,180.3,165.7,181,166.2z"/>
<path class="st1" d="M147.7,593.6c-4-0.8-7.2-1.6-9.3-5.5"/>
</svg>
