<?xml version="1.0" encoding="utf-8"?>
<!-- Generator: Adobe Illustrator 24.1.3, SVG Export Plug-In . SVG Version: 6.00 Build 0)  -->
<svg version="1.1" id="Layer_1" xmlns="http://www.w3.org/2000/svg" xmlns:xlink="http://www.w3.org/1999/xlink" x="0px" y="0px"
	 viewBox="0 0 644.6 580.6" style="enable-background:new 0 0 644.6 580.6;" >
<style type="text/css">
	.st0{fill:#F4F6F9;}
	.st1{fill:none;stroke:#132144;stroke-width:7;stroke-linecap:round;stroke-linejoin:round;}
	.st2{fill:#132144;}
</style>
<path class="st0" d="M261.3,99.9C225.9,86.1,189.7,74.3,153,64.7c27.6,17.3,147.3,93.6,183,120.4c13.5,2.6,28.3,8.5,37,14.2
	s3.2,18.4-0.6,30.1s-12.7,29-20,27c-7.3-2-35.7-8.9-43.4-9.7c-4.5-0.5-16.3-0.8-29.7-1.1c-3.5,7.9-8.4,17.8-12.8,27l0.6,1.2
	c27.9,19.9,41.2,51.4,48.4,84.6l0.7,2.9c0.6-0.7,1.2-1.4,1.8-2c4.8,12.6,9.6,25.3,13.5,38.3c1.9,6.3,2.8,10,2.3,13l1.2-0.5
	c2.8-1.1,9.1,2.5,11.5,4.8c3.5,3.2,7.9,11.4,12,20.8c2-7.6,5.8-13.8,13.5-19.7c-6.5-25.3,33.5-66.2,54.2-78.2
	c0.5,0.4,1.1,0.8,1.7,1.3l0.1-0.2c6.2-23.5,18.2-45,27.8-67.4c5.5-12.8,13-23.7,19.6-35.7c3.1-5.7,2.1-8.1-1.3-14.3
	c-3.8-7.1-6.7-12.7-11.3-19.4c-6.7-9.7-13.3-17.6-17.8-24.6s11.6-5.3,28.5-2.7c12.3,1.9,38.7,7.9,58.4,12.1
	c-6.5-7.2-10.3-16.5-10.9-26.2c-0.2-2.7,3.4-3.8,5.1-2.1c5.5,5.3,12.3,8.3,19.5,10.5c-6.2-18.9-19.9-35.9-34.6-48.9
	c-13.7-12.1-28.6-22.9-43-34.1l-46.6-36.3c-8.2-6.4-18.1-0.5-16.7,9.7c2.2,15.5,2.5,31.3,1.1,46.9C352.5,62.8,293.3,27.2,229.9,0.7
	c-8.5-3.5-15.3,7.8-11.3,14.7C234.4,42.7,248.6,71,261.3,99.9z"/>
<path class="st0" d="M259.5,511.9c0.3-4.4,2.1-19.3,8.4-20.9c-7.4-9.2-12.7-14.4-11.8-27.6c0.5-6.3,2.6-20.3,9.9-25
	c-2.5-2.3-4.1-5.3-4.7-8.6c-1.6-7.6-6.3-32.3-6.3-32.3c1.7,0,3.4-0.2,5-0.6l-1.3-0.4c0.2-4.5-2.5-9.8-4.1-13.9
	c-5.3-0.3-15.6-2.7-22.4-5.8c-1.1,3.5-2.7,6.7-4.8,9.7c-4.1,5.3-10.4,4.6-16.7,3.2c-8.2-1.9-9.3-6.2-8-14.2c0.8-4.9,2.7-19,2.7-19
	l1.8-0.2c-13.4-1.6-26.6-14.1-21.8-30.7c-4.4-5-6.5-11.6-3.5-20.1c-0.4-0.8-0.7-1.6-1-2.4c-2.4-7.3,0.6-16.8,4.5-21l2.1,1.5
	c-1.9-2.1-3.4-4.7-4.2-7.5c-2.6-12.1,6.7-20.4,17.4-21.7c9.1-1,18.2-0.5,27.1,1.6l-0.4,1.3l1-0.4c1.5-4.7,2.9-9,3.9-12.1
	c-2,0-3.8-0.1-5.3-0.2c-12.8-0.5-65.9,2.9-80.6,3.7c-21.6,1.2-42.5,3.4-63.7,6.6c-0.4,0.1-0.7,0.1-1.1,0.2
	c-17.5,13.9-33,30.2-46.1,48.3c-4.8,6.6,1.8,14.6,8.6,15l122.9,8.4c-30.2,26-57.6,55-81.8,86.6c-4.7,6.2,1.7,15.2,8.6,15
	c49.8-1,99.5-4,149.1-9c-20.7,28.5-37.5,59.8-49.7,92.9c-2.9,7.8,5.5,13.5,12.3,12.3c17.8-3.2,35.8-6.4,53.7-10.1
	C259.4,513.7,259.4,512.8,259.5,511.9z"/>
<path class="st1" d="M253.4,363.4c0,0-4.8-3.1-6.8-6.3c-2.8-4.5-5-8.2-6.2-13.4c-1.9-7.9-1-22.4,3.6-29.2
	c-9.7-2.3-32.1-10.3-28.6-23.5c3.1-11.7,23.9-9.4,32.7-7.3c4.1,1,13,5.3,18,11.3"/>
<path class="st1" d="M227.9,256.1c-8.9-2.1-18.1-2.6-27.1-1.6c-10.6,1.3-19.9,9.6-17.4,21.7c1.8,8.6,18.9,23.3,31.6,17.3"/>
<path class="st1" d="M315.4,358.4c-7.2-33.2-20.5-64.6-48.4-84.6"/>
<path class="st1" d="M185.4,282.1c-3.9,4.3-6.9,13.7-4.5,21c2.1,6.5,8.5,11.4,14.5,14c7.5,3.3,30.6,6.8,32-6"/>
<path class="st1" d="M181.9,305.6c-6.1,17.6,9.4,27,22.2,30.9c7.8,2.4,32.7,0.7,35.8-8.6"/>
<path class="st1" d="M185.4,325.6c-4.9,17.2,9.5,30,23.3,30.9c6.2,0.4,11.5-4.2,11.9-10.4c0.2-3.3-1-6.5-3.3-8.7"/>
<path class="st1" d="M205.4,266.4c5.2,1,10.9,2.2,15.4,4.8c4.3,2.5,5.9,7.6,6.6,10.8"/>
<path class="st1" d="M258.8,396.4c0.2-4.5-2.5-9.8-4.1-13.9c-6.8-0.4-17-1.2-22.5-5.5"/>
<path class="st1" d="M242.1,353.1c-0.9,5.3-4.7,10-6.8,15c-2.4,5.7-4.1,13.4-7.9,18.4c-4.1,5.3-10.4,4.6-16.7,3.2
	c-8.2-1.9-9.3-6.2-8-14.2c0.8-4.9,2.7-19,2.7-19"/>
<path class="st1" d="M223.7,273.8c2.3-9.3,5.1-18.4,8.4-27.3"/>
<path class="st1" d="M259.4,287.8c6-13.6,14.4-29.2,19.3-41.3"/>
<path class="st1" d="M336,185.1C299.1,157.4,172.8,77,150.6,63.2c-15.2-9.5-43.4-25.7-51.6-30c-7.6-4-23.4-4-30.6-0.2
	C53.1,41,42.1,55.2,34.4,70.8c-7.2,14.2-13.2,29-18,44.2c-6.2,19.8-10,36.1-11.6,57.1c-1.1,14.9-2.5,29.6,0.5,44.4
	c2.7,13.4,6.1,28.1,12.8,40c6.1,10.7,12.5,10.5,23,8c14-3.2,27.3-7.5,41.7-9.7c21.3-3.2,42.2-5.5,63.7-6.6
	c14.7-0.8,67.8-4.2,80.6-3.7c16.2,0.6,70.9,1.1,81.9,2.2c7.7,0.8,36.1,7.7,43.4,9.7c7.3,2,16.2-15.3,20-27s9.4-24.4,0.6-30.1
	S349.5,187.6,336,185.1c-0.9,13.9-9.5,45.3-19.2,62.6"/>
<path class="st1" d="M102.1,49.9c4.6,13.4,9,37,9.7,51.1c0.8,16-0.2,32.1-3,47.9c-3.6,18.8-12.2,43.7-23.3,66.5S54,260.8,45.5,263.6
	"/>
<path class="st1" d="M99.9,181c0,0-61.5-26-63.8-31.8c-1.7-4.3,2-22.5,5.6-25.4c4.3-3.4,32.6,0.6,39.4,1.7
	c5.5,0.9,30.1,4.5,30.1,4.5"/>
<path class="st1" d="M43.8,122.9c7.6,7.5,2.8,23-7.7,26.2"/>
<path class="st1" d="M255.1,397.4c11.9-0.3,23.5-8.1,33.4-14.3c10.8-6.8,21.4-14.2,29.5-23.8c4.8,12.6,9.6,25.3,13.5,38.3
	c4.5,15.1,3.5,15.7-10,25.2c-14.2,9.7-30.3,16.1-47.3,18.7c0,0-10.3,0.3-12.7-11.7C259.8,422.1,255.1,397.4,255.1,397.4z"/>
<path class="st1" d="M266.1,438.4c-7.3,4.8-9.4,18.7-9.9,25c-1,13.2,4.3,18.4,11.8,27.6c-6.3,1.6-8.1,16.5-8.4,20.9
	c-0.8,11.4-0.2,22.9,2,34.1c1.6,8,7,23.8,14.2,31.1"/>
<path class="st1" d="M334.9,410.1c2.8-1.1,9.1,2.5,11.5,4.8c9.3,8.6,24.8,51.8,26,60.6c0.6,4.4,0,22.7-8.7,13.9
	c-4.6-4.6-7.3-20.2-7.3-26c0.1-23,0.3-35.7,15.5-47.5c-6.5-25.3,33.5-66.2,54.2-78.2c4.7,3.3,12.4,10.3,19.7,14
	c11.2,5.6,27.5,8.9,40,9.7c14.5,0.9,41.4,2,67.5-1.6c2,6.1,1.6,17.9,3.7,23.9c1.6,4.7,14.8,28.8,18.9,39.3
	c4.7,12,33.2,71.5,36.1,78.5c5.8,13.9,12.7,26.2,19.3,39.5"/>
<path class="st1" d="M449.4,405.1c-4.9,17-5,44.1-18.7,58.1c-5.3,5.4-11.5,6-10.7,16c0.7,9.1,3.2,26.3-8,31.8"/>
<path class="st1" d="M461.4,495.8c10,0,20,0.7,30.1,0.7c5.8,0,35.7-0.7,35.7-0.7"/>
<line class="st1" x1="511.4" y1="487.8" x2="511.4" y2="504.4"/>
<path class="st1" d="M499.4,485.8c2.6,11.2,1.2,22.7,0,34"/>
<path class="st1" d="M420.8,353.8c-2.6,8.9-14.8,32.1-8.5,40.7c8.3,11.4,35.4-20.9,43.8-23.3c0.3,14,5.2,34.9,21.2,37.6
	c9.9,1.7,21.2-2.8,30-7c8.6-4.3,16.8-9.2,24.7-14.6"/>
<path class="st1" d="M427.9,338.9c6.2-23.5,18.2-45,27.8-67.4c5.5-12.8,13-23.7,19.6-35.7c3.1-5.7,2.1-8.1-1.3-14.3
	c-3.8-7.1-6.7-12.7-11.3-19.4c-6.7-9.7-13.3-17.6-17.8-24.6s11.6-5.3,28.5-2.7s60.3,12.9,76.7,15.8c15.1,2.7,34.4,9,44,21.7
	c7.2,9.6,5.1,26.3,0,36.7c14.4,2.2,53.9,2.1,45.9,25.8c-6.6,19.5-40.2,10.3-54.5,6.4c-7.6,12.4-13.9,27.1-20.2,40.5
	c-5.4,11.5-12.1,27.3-15,38.5"/>
<path class="st1" d="M503.5,252.8c3.8,5.7,2,14.3-0.4,19.9c-2.2,5.1-7.7,15.4-14.4,15.3c-7.1-0.1-6.3-10.2-5.4-15.6
	c1.1-6.1,3.3-11.5,7.1-17.6C494.2,248.7,500.6,248.5,503.5,252.8z"/>
<line class="st1" x1="508.1" y1="210.9" x2="512.8" y2="220"/>
<line class="st1" x1="534" y1="232.3" x2="546.4" y2="231.6"/>
<path class="st1" d="M607.4,268.4c5.1-0.2,8.9,1.2,14,1"/>
<path class="st2" d="M609,211.7c3.4-5.4,4.3-12,2.4-18.1c-2.8-9-10.8-13.5-19.6-15.1c-5.5-1-11.2-1.3-16.7-2.3
	c-6.1-1.1-12-2.6-18-4.1c-11-2.8-22.5-5.5-30.9-13.6c-1.8-1.7-5.3-0.6-5.1,2.1c2.5,36.5,42,46,70.6,57.3c-3.2,2.7-5.5,6.4-6.6,10.4
	c-2.8,9.4,0.9,19.3-1.3,28.8c-0.5,2.4,2.1,4.9,4.4,3.4c5-3.2,9.7-6.7,14.2-10.7c6.3,0.6,12.5,1.5,18.6,2.7
	C624.4,238.7,621.7,219.6,609,211.7z"/>
<path class="st2" d="M576.6,297.9c0.7,1.4,2.3,2.1,3.8,1.4c0,0,0,0,0,0c0.7,0.1,1.3-0.1,1.8-0.6c5.8-4.4,11.9-9,17.4-14.1
	c-5.4-1.1-10.4-2.5-14.1-3.5C582.4,286.5,579.4,292.1,576.6,297.9z"/>
</svg>
