<?xml version="1.0" encoding="utf-8"?>
<!-- Generator: Adobe Illustrator 24.1.3, SVG Export Plug-In . SVG Version: 6.00 Build 0)  -->
<svg version="1.1" id="Layer_1" xmlns="http://www.w3.org/2000/svg" xmlns:xlink="http://www.w3.org/1999/xlink" x="0px" y="0px"
	 viewBox="0 0 644.6 553.9" style="enable-background:new 0 0 644.6 553.9;" >
<style type="text/css">
	.st0{fill:none;stroke:#132144;stroke-width:7;stroke-linecap:round;stroke-linejoin:round;}
	.st1{fill:#132144;}
</style>
<path class="st0" d="M378.5,268.5c5-6,13.9-10.3,18-11.3c8.8-2.1,29.5-4.4,32.7,7.3c3.5,13.1-18.9,21.2-28.6,23.5
	c4.6,6.8,5.5,21.3,3.6,29.2c-1.2,5.1-3.4,8.9-6.2,13.4c-2,3.2-6.8,6.3-6.8,6.3"/>
<path class="st0" d="M429.6,266.8c12.8,6,29.8-8.7,31.6-17.3c2.6-12.1-6.7-20.4-17.4-21.7c-9.1-1-18.2-0.5-27.1,1.6"/>
<path class="st0" d="M377.5,247.2c-27.9,19.9-41.2,51.4-48.4,84.6"/>
<path class="st0" d="M417.2,284.4c1.4,12.8,24.5,9.3,32,6c6-2.6,12.4-7.5,14.5-14c2.3-7.3-0.6-16.7-4.5-21"/>
<path class="st0" d="M404.7,301.3c3.1,9.3,28,10.9,35.8,8.6c12.8-3.9,28.3-13.3,22.2-30.9"/>
<path class="st0" d="M427.2,310.6c-2.3,2.3-3.5,5.5-3.3,8.7c0.4,6.2,5.8,10.8,11.9,10.4c13.9-0.9,28.2-13.7,23.3-30.9"/>
<path class="st0" d="M417.2,255.4c0.8-3.2,2.4-8.3,6.6-10.8c4.5-2.6,10.2-3.8,15.4-4.8"/>
<path class="st0" d="M412.5,350.4c-5.5,4.3-15.7,5.1-22.5,5.5c-1.6,4.1-4.3,9.4-4.1,13.9"/>
<path class="st0" d="M439.2,329.8c0,0,1.9,14.1,2.7,19c1.3,8,0.2,12.3-8,14.2c-6.3,1.5-12.6,2.1-16.7-3.2
	c-3.8-4.9-5.5-12.6-7.9-18.4c-2.1-5-5.8-9.7-6.8-15"/>
<path class="st0" d="M412.5,219.8c3.3,8.9,6.1,18.1,8.4,27.3"/>
<path class="st0" d="M365.8,219.8c4.9,12.1,13.3,27.8,19.3,41.3"/>
<path class="st0" d="M327.8,221.1c-9.7-17.3-18.2-48.7-19.2-62.7c-13.4,2.6-28.2,8.5-37,14.2s-3.2,18.4,0.6,30.1s12.7,29,20,27
	s35.7-8.9,43.4-9.7c11-1.1,65.7-1.5,81.9-2.2c12.8-0.5,65.9,2.9,80.6,3.7c21.6,1.2,42.5,3.4,63.7,6.6c14.4,2.2,27.7,6.5,41.7,9.7
	c10.5,2.5,16.9,2.7,23-8c6.8-11.9,10.2-26.6,12.8-40c2.9-14.9,1.6-29.5,0.5-44.4c-1.5-21-5.4-37.3-11.5-57.1
	c-4.8-15.2-10.8-30-18-44.2c-7.7-15.6-18.7-29.8-34.1-37.9c-7.2-3.8-22.9-3.8-30.6,0.2c-8.2,4.3-36.4,20.5-51.6,30
	c-22.1,13.8-148.5,94.2-185.4,121.9"/>
<path class="st0" d="M599.1,236.9c-8.5-2.8-28.7-25.3-39.9-48.1s-19.8-47.7-23.3-66.5c-2.8-15.8-3.8-31.9-3-47.9
	c0.7-14.1,5.1-37.7,9.7-51.1"/>
<path class="st0" d="M533.3,103.3c0,0,24.6-3.6,30.1-4.5c6.9-1.1,35.1-5.1,39.4-1.7c3.6,2.9,7.3,21.1,5.6,25.4
	c-2.3,5.8-63.8,31.8-63.8,31.8"/>
<path class="st0" d="M608.5,122.5c-10.6-3.2-15.3-18.7-7.7-26.2"/>
<path class="st0" d="M383.2,403.1c-2.5,11.9-12.7,11.7-12.7,11.7c-17-2.6-33.1-9-47.3-18.7c-13.5-9.4-14.5-10-10-25.2
	c3.9-13,8.7-25.7,13.5-38.3c8.1,9.5,18.7,17,29.5,23.8c9.9,6.2,21.5,14,33.4,14.3C389.5,370.8,384.8,395.5,383.2,403.1z"/>
<path class="st0" d="M368.9,550.4c7.2-7.3,12.6-23.1,14.2-31.1c2.2-11.2,2.8-22.7,2-34.1c-0.3-4.4-2.1-19.3-8.4-20.9
	c7.4-9.2,12.8-14.4,11.8-27.6c-0.5-6.3-2.6-20.2-9.9-25"/>
<path class="st0" d="M13.3,514.4c6.5-13.3,13.5-25.6,19.3-39.5c2.9-6.9,31.4-66.5,36.1-78.5c4.1-10.5,17.3-34.6,18.9-39.3
	c2.1-6,1.7-17.8,3.7-23.9c26.1,3.6,53.1,2.4,67.5,1.6c12.5-0.7,28.8-4,40-9.7c7.3-3.7,15-10.8,19.7-14c20.7,12,60.7,52.9,54.2,78.2
	c15.2,11.8,15.4,24.5,15.5,47.5c0,5.8-2.7,21.4-7.3,26c-8.7,8.8-9.3-9.5-8.7-13.9c1.2-8.8,16.7-52,26-60.6c2.4-2.3,8.7-5.9,11.5-4.8
	"/>
<path class="st0" d="M232.5,484.4c-11.2-5.6-8.7-22.7-8-31.8c0.8-10-5.4-10.6-10.7-16c-13.7-14-13.8-41.1-18.7-58.1"/>
<path class="st0" d="M117.4,469.1c0,0,29.9,0.7,35.7,0.7c10.1,0,20.1-0.7,30.1-0.7"/>
<line class="st0" x1="133.2" y1="477.8" x2="133.2" y2="461.1"/>
<path class="st0" d="M145.2,493.1c-1.2-11.3-2.6-22.8,0-34"/>
<path class="st0" d="M112.8,360.5c7.9,5.4,16.1,10.3,24.7,14.6c8.8,4.2,20.1,8.7,30,7c16-2.7,20.9-23.6,21.2-37.6
	c8.3,2.4,35.5,34.6,43.8,23.3c6.2-8.6-5.9-31.7-8.5-40.7"/>
<path class="st0" d="M94.2,333.6c-2.9-11.2-9.6-27.1-15-38.5C72.9,281.7,66.6,267,59,254.6c-14.3,3.9-47.8,13.2-54.5-6.4
	c-8-23.7,31.5-23.6,45.9-25.9c-5.1-10.4-7.2-27.1,0-36.7c9.6-12.7,28.9-19,44-21.7c16.4-2.9,59.8-13.2,76.7-15.8s33-4.4,28.5,2.7
	s-11.1,14.9-17.8,24.6c-4.6,6.7-7.4,12.2-11.3,19.4c-3.3,6.1-4.4,8.6-1.3,14.3c6.6,12,14.1,23,19.6,35.8
	c9.6,22.4,21.6,43.9,27.8,67.4"/>
<path class="st0" d="M154.2,228.1c3.8,6.1,6,11.5,7.1,17.6c1,5.4,1.7,15.5-5.4,15.6c-6.7,0.1-12.3-10.2-14.4-15.3
	c-2.4-5.6-4.2-14.2-0.4-19.9C144,221.8,150.4,222,154.2,228.1z"/>
<line class="st0" x1="131.8" y1="193.3" x2="136.5" y2="184.3"/>
<line class="st0" x1="98.2" y1="205" x2="110.6" y2="205.6"/>
<path class="st0" d="M23.2,242.8c5.1,0.2,8.9-1.2,14-1"/>
<path class="st1" d="M23.7,226c6.2-1.3,12.4-2.2,18.6-2.7c4.4,3.9,9.2,7.5,14.2,10.7c2.3,1.5,4.9-1,4.4-3.4
	c-2.2-9.5,1.5-19.3-1.3-28.8c-1.1-4.1-3.4-7.7-6.6-10.4c28.6-11.3,68.1-20.8,70.6-57.3c0.2-2.7-3.4-3.8-5.1-2.1
	c-8.4,8.1-19.9,10.8-30.9,13.6c-6,1.5-11.9,3-18,4.1c-5.5,1-11.2,1.3-16.7,2.3C44,153.5,36.1,158,33.2,167c-1.9,6.1-1,12.7,2.4,18.1
	C22.9,193,20.2,212.1,23.7,226z"/>
<path class="st1" d="M59,254.6c-3.7,1-8.6,2.4-14.1,3.5c5.6,5.1,11.6,9.7,17.4,14.1c0.5,0.4,1.2,0.6,1.8,0.6c0,0,0,0,0,0
	c1.4,0.7,3.1,0,3.8-1.4C65.2,265.5,62.2,259.8,59,254.6z"/>
</svg>
