<svg  xmlns="http://www.w3.org/2000/svg"  x="0px" y="0px"
	 viewBox="0 0 24 24" style="enable-background:new 0 0 24 24;" >

<g id="File_2">
	<g>
		<g>
			<path d="M19.5,24h-15C3.673,24,3,23.327,3,22.5v-21C3,0.673,3.673,0,4.5,0h10C14.776,0,15,0.224,15,0.5v5
				C15,5.775,15.224,6,15.5,6h5C20.776,6,21,6.224,21,6.5v16C21,23.327,20.327,24,19.5,24z M4.5,1C4.224,1,4,1.225,4,1.5v21
				C4,22.775,4.224,23,4.5,23h15c0.276,0,0.5-0.225,0.5-0.5V7h-4.5C14.673,7,14,6.327,14,5.5V1H4.5z"/>
		</g>
		<g>
			<path d="M20.5,7c-0.128,0-0.256-0.049-0.354-0.146l-6-6c-0.195-0.195-0.195-0.512,0-0.707s0.512-0.195,0.707,0l6,6
				c0.195,0.195,0.195,0.512,0,0.707C20.756,6.951,20.628,7,20.5,7z"/>
		</g>
		<g>
			<path d="M16.5,10h-9C7.224,10,7,9.776,7,9.5S7.224,9,7.5,9h9C16.776,9,17,9.224,17,9.5S16.776,10,16.5,10z"/>
		</g>
		<g>
			<path d="M16.5,14h-9C7.224,14,7,13.776,7,13.5S7.224,13,7.5,13h9c0.276,0,0.5,0.224,0.5,0.5S16.776,14,16.5,14z"/>
		</g>
		<g>
			<path d="M16.5,18h-9C7.224,18,7,17.776,7,17.5S7.224,17,7.5,17h9c0.276,0,0.5,0.224,0.5,0.5S16.776,18,16.5,18z"/>
		</g>
	</g>
</g>

</svg>
