
<svg   xmlns="http://www.w3.org/2000/svg"  x="0px" y="0px"
	 viewBox="0 0 24 24" style="enable-background:new 0 0 24 24;" >
<g>
	<g>
		<path d="M9,21c-1.654,0-3-1.346-3-3c0-0.276,0.224-0.5,0.5-0.5S7,17.724,7,18c0,1.103,0.897,2,2,2s2-0.897,2-2s-0.897-2-2-2H7.5
			C7.224,16,7,15.776,7,15.5S7.224,15,7.5,15H9c1.103,0,2-0.897,2-2s-0.897-2-2-2s-2,0.897-2,2c0,0.276-0.224,0.5-0.5,0.5
			S6,13.276,6,13c0-1.654,1.346-3,3-3s3,1.346,3,3c0,1.042-0.534,1.962-1.343,2.5C11.466,16.038,12,16.958,12,18
			C12,19.654,10.654,21,9,21z"/>
	</g>
	<g>
		<path d="M16.5,21c-0.276,0-0.5-0.224-0.5-0.5v-8.793l-1.146,1.146c-0.195,0.195-0.512,0.195-0.707,0s-0.195-0.512,0-0.707l2-2
			c0.144-0.143,0.357-0.186,0.545-0.108C16.878,10.115,17,10.298,17,10.5v10C17,20.776,16.776,21,16.5,21z"/>
	</g>
	<g>
		<path d="M20.5,24h-17C1.57,24,0,22.43,0,20.5v-15C0,3.57,1.57,2,3.5,2C3.776,2,4,2.224,4,2.5S3.776,3,3.5,3C2.122,3,1,4.122,1,5.5
			v15C1,21.878,2.122,23,3.5,23h17c1.378,0,2.5-1.122,2.5-2.5v-15C23,4.122,21.878,3,20.5,3C20.224,3,20,2.776,20,2.5
			S20.224,2,20.5,2C22.43,2,24,3.57,24,5.5v15C24,22.43,22.43,24,20.5,24z"/>
	</g>
	<g>
		<path d="M16.5,3h-9C7.224,3,7,2.776,7,2.5S7.224,2,7.5,2h9C16.776,2,17,2.224,17,2.5S16.776,3,16.5,3z"/>
	</g>
	<g>
		<path d="M5.5,5C5.224,5,5,4.776,5,4.5v-4C5,0.224,5.224,0,5.5,0S6,0.224,6,0.5v4C6,4.776,5.776,5,5.5,5z"/>
	</g>
	<g>
		<path d="M18.5,5C18.224,5,18,4.776,18,4.5v-4C18,0.224,18.224,0,18.5,0S19,0.224,19,0.5v4C19,4.776,18.776,5,18.5,5z"/>
	</g>
	<g>
		<path d="M23.5,8h-23C0.224,8,0,7.776,0,7.5S0.224,7,0.5,7h23C23.776,7,24,7.224,24,7.5S23.776,8,23.5,8z"/>
	</g>
</g>

</svg>
