<svg xmlns="http://www.w3.org/2000/svg" width="20.2" height="11.598" viewBox="0 0 20.2 11.598">
  <g id="Group_3" data-name="Group 3" transform="translate(-0.1 -0.1)">
    <path id="Stroke_1" data-name="Stroke 1" d="M5.3,0a5.3,5.3,0,0,0,0,10.6H9.084V0H7.267" transform="translate(0.6 0.6)" fill="none" stroke="#259cd4" stroke-linecap="round" stroke-linejoin="round" stroke-miterlimit="10" stroke-width="1"/>
    <path id="Stroke_3" data-name="Stroke 3" d="M0,5.2A2.515,2.515,0,0,0,2.422,2.6,2.515,2.515,0,0,0,0,0" transform="translate(9.684 3.301)" fill="none" stroke="#259cd4" stroke-linecap="round" stroke-linejoin="round" stroke-miterlimit="10" stroke-width="1"/>
    <path id="Stroke_5" data-name="Stroke 5" d="M0,4.674A2.96,2.96,0,0,0,1.108,2.338,2.959,2.959,0,0,0,0,0" transform="translate(15.112 3.562)" fill="none" stroke="#259cd4" stroke-linecap="round" stroke-linejoin="round" stroke-miterlimit="10" stroke-width="1"/>
    <path id="Stroke_7" data-name="Stroke 7" d="M0,7.539A4.774,4.774,0,0,0,1.786,3.77,4.774,4.774,0,0,0,0,0" transform="translate(18.013 2.13)" fill="none" stroke="#259cd4" stroke-linecap="round" stroke-linejoin="round" stroke-miterlimit="10" stroke-width="1"/>
  </g>
</svg>
