
<svg  xmlns="http://www.w3.org/2000/svg"  x="0px" y="0px"
	 viewBox="0 0 24 24" style="enable-background:new 0 0 24 24;" >

<g id="Layers">
	<g>
		<g>
			<path d="M12,14.5c-0.079,0-0.159-0.019-0.231-0.057l-11.5-6C0.104,8.357,0,8.187,0,8s0.104-0.357,0.269-0.443l11.5-6
				c0.145-0.076,0.318-0.076,0.463,0l11.5,6C23.896,7.643,24,7.813,24,8s-0.104,0.357-0.269,0.443l-11.5,6
				C12.159,14.481,12.079,14.5,12,14.5z M1.581,8L12,13.437L22.419,8L12,2.563L1.581,8z"/>
		</g>
		<g>
			<path d="M12,18.5c-0.079,0-0.159-0.019-0.231-0.057l-11.5-6C0.104,12.357,0,12.187,0,12s0.104-0.357,0.269-0.443l1.672-0.872
				c0.244-0.125,0.547-0.034,0.675,0.212c0.128,0.245,0.033,0.547-0.212,0.675L1.581,12L12,17.437L22.419,12l-0.822-0.429
				c-0.245-0.128-0.34-0.43-0.212-0.675s0.431-0.337,0.675-0.212l1.672,0.872C23.896,11.643,24,11.813,24,12
				s-0.104,0.357-0.269,0.443l-11.5,6C12.159,18.481,12.079,18.5,12,18.5z"/>
		</g>
		<g>
			<path d="M12,22.5c-0.079,0-0.159-0.019-0.231-0.057l-11.5-6C0.104,16.357,0,16.187,0,16s0.104-0.357,0.269-0.443l1.672-0.872
				c0.244-0.126,0.547-0.033,0.675,0.212s0.033,0.547-0.212,0.675L1.581,16L12,21.437L22.419,16l-0.822-0.429
				c-0.245-0.128-0.34-0.43-0.212-0.675s0.431-0.337,0.675-0.212l1.672,0.872C23.896,15.643,24,15.813,24,16
				s-0.104,0.357-0.269,0.443l-11.5,6C12.159,22.481,12.079,22.5,12,22.5z"/>
		</g>
	</g>
</g>

</svg>
