<svg xmlns="http://www.w3.org/2000/svg" width="20.017" height="21.87" viewBox="0 0 20.017 21.87">
  <g id="Date_icon" data-name="Date icon" transform="translate(-0.211 -0.211)">
    <path id="Stroke_1" data-name="Stroke 1" d="M15.492,0a3.524,3.524,0,0,1,3.524,3.523V15.492a3.524,3.524,0,0,1-3.524,3.523H3.524A3.524,3.524,0,0,1,0,15.492V3.523A3.524,3.524,0,0,1,3.524,0" transform="translate(0.711 2.565)" fill="none" stroke="#259cd4" stroke-linecap="round" stroke-linejoin="round" stroke-miterlimit="10" stroke-width="1"/>
    <path id="Stroke_3" data-name="Stroke 3" d="M0,0H4.443" transform="translate(7.976 2.565)" fill="none" stroke="#259cd4" stroke-linecap="round" stroke-linejoin="round" stroke-miterlimit="10" stroke-width="1"/>
    <path id="Stroke_5" data-name="Stroke 5" d="M0,0H18.418" transform="translate(0.91 7.551)" fill="none" stroke="#259cd4" stroke-linecap="round" stroke-linejoin="round" stroke-miterlimit="10" stroke-width="1"/>
    <path id="Stroke_7" data-name="Stroke 7" d="M0,0H10.89" transform="translate(4.774 12.892)" fill="none" stroke="#259cd4" stroke-linecap="round" stroke-linejoin="round" stroke-miterlimit="10" stroke-width="1"/>
    <path id="Stroke_9" data-name="Stroke 9" d="M0,0H4.64" transform="translate(7.965 16.216)" fill="none" stroke="#259cd4" stroke-linecap="round" stroke-linejoin="round" stroke-miterlimit="10" stroke-width="1"/>
    <path id="Stroke_11" data-name="Stroke 11" d="M0,4.107V0" transform="translate(6.083 0.711)" fill="none" stroke="#259cd4" stroke-linecap="round" stroke-linejoin="round" stroke-miterlimit="10" stroke-width="1"/>
    <path id="Stroke_13" data-name="Stroke 13" d="M0,4.107V0" transform="translate(14.355 0.711)" fill="none" stroke="#259cd4" stroke-linecap="round" stroke-linejoin="round" stroke-miterlimit="10" stroke-width="1"/>
  </g>
</svg>
