
<svg  xmlns="http://www.w3.org/2000/svg"  x="0px" y="0px"
	 viewBox="0 0 24 24" style="enable-background:new 0 0 24 24;" >

<g id="Pencil">
	<g>
		<g>
			<path d="M0.5,24c-0.131,0-0.259-0.051-0.354-0.146c-0.129-0.128-0.177-0.316-0.127-0.491l2-7
				c0.023-0.082,0.066-0.156,0.127-0.216L17.561,0.732c0.947-0.945,2.593-0.943,3.535,0l2.172,2.171C23.74,3.376,24,4.004,24,4.672
				c0,0.667-0.26,1.295-0.732,1.768L7.854,21.854c-0.06,0.06-0.135,0.104-0.216,0.127l-7,2C0.592,23.994,0.546,24,0.5,24z
				 M2.945,16.762l-1.718,6.01l6.011-1.717L22.561,5.732c0.585-0.585,0.585-1.537,0-2.122l-2.172-2.171l0,0
				c-0.565-0.566-1.554-0.567-2.121,0L2.945,16.762z M7.5,21.5h0.01H7.5z"/>
		</g>
		<g>
			<path d="M7.5,22c-0.128,0-0.256-0.049-0.354-0.146c-0.195-0.195-0.195-0.512,0-0.707L22.561,5.732
				c0.585-0.585,0.585-1.537,0-2.122l-2.172-2.171c-0.565-0.566-1.554-0.567-2.121,0L2.854,16.854c-0.195,0.195-0.512,0.195-0.707,0
				s-0.195-0.512,0-0.707L17.561,0.732c0.947-0.945,2.593-0.943,3.535,0l2.172,2.171c0.975,0.975,0.975,2.561,0,3.536L7.854,21.854
				C7.756,21.951,7.628,22,7.5,22z"/>
		</g>
		<g>
			<path d="M7.5,22c-0.128,0-0.256-0.049-0.354-0.146l-5-5c-0.195-0.195-0.195-0.512,0-0.707s0.512-0.195,0.707,0l5,5
				c0.195,0.195,0.195,0.512,0,0.707C7.756,21.951,7.628,22,7.5,22z"/>
		</g>
		<g>
			<path d="M6.5,18c-0.128,0-0.256-0.049-0.354-0.146c-0.195-0.195-0.195-0.512,0-0.707l14-14c0.195-0.195,0.512-0.195,0.707,0
				s0.195,0.512,0,0.707l-14,14C6.756,17.951,6.628,18,6.5,18z"/>
		</g>
	</g>
</g>
</svg>
