<svg xmlns="http://www.w3.org/2000/svg" width="20.057" height="20.517" viewBox="0 0 20.057 20.517">
  <g id="Group_2" data-name="Group 2" transform="translate(-0.064 -0.084)">
    <path id="Fill_22" data-name="Fill 22" d="M10.039,20.517h-.021a3.545,3.545,0,0,1-.439-.031c-.036,0-.07-.01-.105-.016-1.954-.309-4.334-2.087-6.212-4.641A15.969,15.969,0,0,1,0,6.532,6.84,6.84,0,0,1,1.688,1.915,5.833,5.833,0,0,1,6.078,0a4.573,4.573,0,0,1,3.95,1.946A4.577,4.577,0,0,1,13.979,0a5.833,5.833,0,0,1,4.39,1.915,6.84,6.84,0,0,1,1.688,4.617,15.98,15.98,0,0,1-3.26,9.3c-1.875,2.554-4.248,4.331-6.194,4.638H10.6c-.048.008-.083.014-.118.019A3.545,3.545,0,0,1,10.039,20.517ZM6.078,1.137c-2.863,0-4.941,2.269-4.941,5.4a14.723,14.723,0,0,0,3.1,8.694c1.689,2.251,3.807,3.867,5.4,4.118l.09.015a2.531,2.531,0,0,0,.283.021h.049a2.56,2.56,0,0,0,.282-.021l.058-.01c1.6-.253,3.732-1.871,5.425-4.123a14.7,14.7,0,0,0,3.1-8.7c0-3.126-2.078-5.4-4.941-5.4a3.445,3.445,0,0,0-3.328,2.006H9.406A3.444,3.444,0,0,0,6.078,1.137Z" transform="translate(0.064 0.084)" fill="#259cd4"/>
    <path id="Fill_23" data-name="Fill 23" d="M0,4.286H1.139c-.024-2.133.941-2.681,1.638-3.044V0A4.057,4.057,0,0,0,0,4.286" transform="translate(2.586 2.402)" fill="#259cd4"/>
  </g>
</svg>
