<svg xmlns="http://www.w3.org/2000/svg"   x="0px" y="0px" viewBox="0 0 100 100" enable-background="new 0 0 100 100" ><g display="none"><g display="inline"><path d="M75.309,56.443c3.066-2.032,6.133-4.065,9.199-6.098c-1.578-3.884-2.939-7.923-4.518-11.81    c-2.975,2.272-5.949,4.543-8.925,6.814C72.548,49,73.825,52.794,75.309,56.443z"></path><path d="M66.109,62.539c1.385,3.415,2.961,6.694,5.104,9.57c3.185-1.812,6.366-3.624,9.551-5.437    c-2.29-3.074-3.975-6.58-5.455-10.229C72.241,58.475,69.175,60.508,66.109,62.539z"></path><path d="M90.314,61.235c-3.184,1.812-6.366,3.624-9.551,5.438c2.29,3.072,5.188,5.714,9.097,7.635    c3.38-1.649,6.761-3.297,10.14-4.944C95.838,67.318,92.755,64.507,90.314,61.235z"></path><path d="M71.213,72.109c-3.184,1.813-6.368,3.625-9.553,5.438c-1.994-2.677-3.46-5.731-4.752-8.909    c3.066-2.034,6.136-4.064,9.201-6.099c-1.387-3.414-2.584-6.963-3.971-10.377c-2.975,2.271-5.949,4.542-8.924,6.813    c-1.291-3.18-2.757-6.232-4.753-8.911c2.858-2.49,5.716-4.981,8.574-7.471c-2.144-2.876-4.854-5.346-8.511-7.144    c2.661-2.655,5.324-5.309,7.988-7.965c3.907,1.922,6.804,4.562,9.095,7.636c2.858-2.491,5.716-4.981,8.574-7.473    c-2.438-3.271-5.522-6.082-9.685-8.127l-3.244,0.028c-2.662,2.656-5.324,5.312-7.987,7.967c-2.662,2.655-5.325,5.31-7.986,7.965    c-2.662,2.654-5.325,5.31-7.986,7.965c3.403,1.673,5.927,3.973,7.922,6.649c1.996,2.676,3.462,5.73,4.753,8.909    c1.29,3.179,2.403,6.484,3.694,9.662c1.291,3.181,2.758,6.232,4.753,8.909s4.518,4.977,7.923,6.648l3.246-0.029    c3.379-1.647,6.759-3.296,10.136-4.943C76.066,77.456,73.355,74.984,71.213,72.109z"></path><path d="M65.608,35.121c-2.856,2.491-5.716,4.981-8.572,7.473c2.142,2.875,3.717,6.155,5.103,9.568    c2.977-2.271,5.951-4.542,8.927-6.812C69.585,41.699,67.9,38.194,65.608,35.121z"></path></g><path display="inline" d="M1.406,72.664c1.005,1.004,2.031,1.607,2.294,1.346l55.78-55.781c0.263-0.261-0.34-1.29-1.346-2.294   c-1.004-1.004-2.03-1.606-2.292-1.344L0.062,70.371C-0.201,70.631,0.401,71.66,1.406,72.664z"></path></g><g display="none"><path display="inline" d="M95.933,40.134h-3.947c-1.169-6.55-3.687-11.883-8.151-11.883H8.965C2.348,28.251,0,39.967,0,50   s2.348,21.749,8.965,21.749h74.869c4.465,0,6.982-5.333,8.151-11.884h3.947c3.003,0,4.067-5.314,4.067-9.865   C100,45.449,98.936,40.134,95.933,40.134z M4.374,39.365c0.701-3.231,1.71-5.693,2.89-6.916h0.025h0.253H85.51h0.025   c1.181,1.223,2.189,3.684,2.891,6.916H4.374z M92.616,45.175c-0.081-1.055-0.193-2.105-0.332-3.136h4.409h0.011   c0.536,0.554,0.992,1.671,1.31,3.136H92.616z"></path></g><g display="none"><path display="inline" d="M98.943,73.272c0.58,0,1.056-0.476,1.056-1.056v-4.219c0-0.58-0.476-1.055-1.056-1.055H28.402   c-0.704,1.555-2.261,2.643-4.079,2.643c-1.817,0-3.375-1.088-4.079-2.643h-3.57l-0.618,0.618   c-3.498,3.497-5.424,8.146-5.424,13.093c0,4.947,1.927,9.599,5.424,13.095l0.618,0.619h3.495c0.664-1.647,2.27-2.813,4.154-2.813   c1.885,0,3.491,1.166,4.154,2.813h70.468c0.578,0,1.055-0.476,1.055-1.056v-4.22c0-0.579-0.477-1.055-1.055-1.055h-4.34   c-1.334-2.205-2.049-4.74-2.049-7.385c0-2.643,0.715-5.177,2.049-7.383h4.338V73.272z M23.536,88.04h-4.085   c-1.614-2.111-2.488-4.682-2.488-7.385c0-2.701,0.874-5.271,2.489-7.383h4.084h66.34c-0.491,1.132-0.87,2.311-1.13,3.525H61.425   c-0.873,0-1.582,0.709-1.582,1.582s0.709,1.582,1.582,1.582h26.948c-0.008,0.231-0.036,0.461-0.036,0.692   c0,2.585,0.538,5.084,1.539,7.384h-66.34V88.04z"></path><path display="inline" d="M98.943,11.961c0.58,0,1.056-0.476,1.056-1.056V6.687c0-0.58-0.476-1.055-1.056-1.055H28.402   c-0.704,1.555-2.261,2.642-4.079,2.642c-1.817,0-3.375-1.087-4.079-2.642h-3.57L16.057,6.25c-3.497,3.498-5.424,8.147-5.424,13.095   c0,4.946,1.927,9.598,5.424,13.095l0.618,0.618h3.495c0.664-1.647,2.27-2.813,4.154-2.813c1.885,0,3.491,1.166,4.154,2.813h70.468   c0.578,0,1.055-0.476,1.055-1.056v-4.219c0-0.58-0.477-1.055-1.055-1.055h-4.34c-1.334-2.206-2.049-4.739-2.049-7.384   c0-2.644,0.715-5.179,2.049-7.384H98.943z M23.536,26.729h-4.085c-1.614-2.112-2.488-4.682-2.488-7.384   c0-2.703,0.874-5.271,2.489-7.384h4.084h66.34c-0.491,1.13-0.87,2.312-1.13,3.525H61.425c-0.873,0-1.582,0.708-1.582,1.582   s0.709,1.582,1.582,1.582h26.948c-0.008,0.231-0.036,0.46-0.036,0.692c0,2.585,0.538,5.083,1.539,7.385L23.536,26.729   L23.536,26.729z"></path><path display="inline" d="M83.973,57.386c-1.334-2.205-2.049-4.74-2.049-7.384c0-2.645,0.715-5.179,2.049-7.384h4.34   c0.58,0,1.055-0.476,1.055-1.056v-4.218c0-0.58-0.475-1.056-1.055-1.056H17.846c-0.663,1.646-2.27,2.812-4.154,2.812   c-1.883,0-3.49-1.166-4.153-2.812H6.043l-0.618,0.618C1.927,40.403,0,45.055,0,50c0,4.946,1.927,9.599,5.425,13.096l0.618,0.617   h3.57c0.704-1.556,2.261-2.643,4.079-2.643c1.817,0,3.375,1.087,4.079,2.643h70.542c0.58,0,1.056-0.475,1.056-1.055v-4.22   c0-0.58-0.476-1.056-1.056-1.056h-4.34V57.386z M79.243,42.619c-1.001,2.3-1.539,4.799-1.539,7.383   c0,0.233,0.028,0.463,0.036,0.693H50.792c-0.874,0-1.582,0.709-1.582,1.582c0,0.874,0.708,1.582,1.582,1.582h27.321   c0.26,1.215,0.638,2.396,1.13,3.526H12.902H8.818c-1.615-2.112-2.489-4.681-2.489-7.384s0.874-5.272,2.488-7.384h4.084   L79.243,42.619L79.243,42.619z"></path></g><g><path d="M84.904,43.786c-1.282-1.974-3.249-3.328-5.538-3.815c-0.6-0.127-1.212-0.191-1.821-0.191c-1.35,0-2.642,0.317-3.803,0.879   c0.164-1.933-0.308-3.859-1.387-5.52c-1.282-1.974-3.249-3.329-5.538-3.815c-0.599-0.127-1.211-0.192-1.82-0.192   c-1.152,0-2.261,0.235-3.285,0.651l4.499-21.165c0.486-2.289,0.049-4.637-1.233-6.61S61.729,0.68,59.44,0.194   c-2.29-0.487-4.637-0.048-6.61,1.233c-1.973,1.282-3.329,3.249-3.815,5.538l-8.978,42.236L31.06,6.964   c-0.486-2.289-1.842-4.256-3.815-5.538c-1.974-1.282-4.323-1.719-6.611-1.233c-2.289,0.486-4.255,1.841-5.538,3.815   c-1.282,1.974-1.719,4.321-1.233,6.61l9.734,45.797l-0.199,3.604c-2.782,1.268-4.837,3.956-5.187,7.075   c-0.005,0.04-0.01,0.081-0.014,0.122c-0.026,0.271-0.044,0.542-0.044,0.817c0,0.1,0.006,0.211,0.013,0.329   c0.001,0.029,0.004,0.061,0.006,0.091c0.02,0.256,0.054,0.551,0.103,0.878c0.002,0.019,0.005,0.037,0.008,0.057   c0.372,2.489,1.46,6.751,2.148,9.327c1.476,5.582,3.224,11.515,3.78,13.383c1.404,4.431,6.144,7.9,10.792,7.9h31.181   c4.575,0,9.555-3.3,11.338-7.514l2.219-5.244c1.567-3.706,2.843-9.995,2.843-14.018v-6.11l3.554-16.718   C86.623,48.107,86.186,45.76,84.904,43.786z M66.04,34.987c2.722,0.578,4.464,3.263,3.886,5.984l-4.189,19.707   c-1.379-0.902-3.024-1.432-4.793-1.432h-5.219l4.33-20.374c0.493-2.315,2.571-3.996,4.942-3.996   C65.345,34.877,65.696,34.914,66.04,34.987z M17.526,9.841c-0.278-1.311-0.026-2.658,0.71-3.792s1.865-1.914,3.176-2.192   c1.312-0.28,2.658-0.026,3.793,0.711c1.135,0.737,1.914,1.864,2.192,3.175l9.957,46.846c0.184,0.865,0.947,1.483,1.831,1.483h1.703   c0.884,0,1.647-0.618,1.832-1.483l9.958-46.846c0.578-2.721,3.266-4.466,5.984-3.886c2.722,0.578,4.465,3.263,3.886,5.984   l-5.684,26.741c-0.2,0.483-0.36,0.988-0.472,1.513l-4.496,21.151H27.191l0.159-2.871c0.009-0.166-0.004-0.331-0.038-0.493   L17.526,9.841z M76.292,85.783l-2.219,5.244c-1.199,2.834-4.812,5.229-7.89,5.229H35.002c-3.006,0-6.314-2.421-7.212-5.255   c-1.436-4.829-3.401-11.778-4.659-16.833c-0.68-2.764-1.234-5.312-1.234-6.133c0-2.64,2.405-5.045,5.046-5.045h34   c2.783,0,5.046,2.264,5.046,5.045c0,2.783-2.263,5.047-5.046,5.047H40.778c-0.37,0-0.731,0.108-1.039,0.314l-5.188,3.458   c-0.861,0.573-1.093,1.735-0.52,2.596c0.574,0.86,1.734,1.094,2.596,0.52l4.716-3.144h19.599c2.889,0,5.447-1.407,7.051-3.562   c1.079,0.932,2.393,1.62,3.883,1.938c0.6,0.127,1.213,0.191,1.821,0.191c1.891,0,3.67-0.619,5.131-1.672   C78.731,77.285,77.61,82.666,76.292,85.783z M82.474,49.618l-3.833,18.034c-0.491,2.315-2.57,3.996-4.942,3.996   c-0.348,0-0.699-0.037-1.042-0.11c-1.286-0.273-2.35-1.021-3.058-2.018c0.083-0.484,0.136-0.978,0.136-1.485   c0-1.253-0.268-2.442-0.743-3.522l3.612-16.993c0.492-2.315,2.57-3.996,4.941-3.996c0.348,0,0.7,0.037,1.043,0.11   C81.31,44.212,83.053,46.897,82.474,49.618z"></path></g><g display="none"><path display="inline" d="M90.767,40.015H100v-8.826h-9.249c-0.488-2.093-1.317-4.055-2.423-5.826l6.546-6.545l-6.241-6.24   l-6.552,6.552c-1.77-1.1-3.729-1.924-5.82-2.41V7.455h-8.824v9.265c-2.092,0.485-4.052,1.31-5.823,2.411l-6.549-6.55l-6.239,6.241   l6.543,6.543c-1.107,1.772-1.936,3.735-2.425,5.829h-9.241v8.826h9.229c0.486,2.1,1.312,4.07,2.419,5.848l-6.522,6.522l6.241,6.24   l6.518-6.519c1.778,1.111,3.75,1.942,5.854,2.432v9.21h8.823v-9.212c2.104-0.49,4.075-1.322,5.854-2.434l6.518,6.52l6.241-6.24   l-6.526-6.526C89.454,44.082,90.281,42.114,90.767,40.015z M71.85,44.456c-4.875,0-8.826-3.952-8.826-8.824   c0-4.875,3.951-8.826,8.826-8.826c4.874,0,8.823,3.951,8.823,8.826C80.673,40.503,76.724,44.456,71.85,44.456z"></path><path display="inline" d="M47.064,68.806h9.233V59.98h-9.249c-0.488-2.093-1.318-4.054-2.423-5.825l6.546-6.545l-6.24-6.24   l-6.553,6.552c-1.77-1.1-3.729-1.924-5.82-2.41v-9.265h-8.824v9.265c-2.093,0.485-4.052,1.31-5.823,2.411l-6.55-6.55l-6.239,6.241   l6.543,6.542c-1.107,1.772-1.936,3.735-2.425,5.829H0v8.825h9.229c0.486,2.101,1.313,4.07,2.419,5.848l-6.522,6.524l6.241,6.238   l6.518-6.517c1.779,1.11,3.75,1.941,5.855,2.43v9.211h8.824v-9.213c2.103-0.489,4.075-1.32,5.854-2.433l6.518,6.519l6.24-6.239   l-6.526-6.526C45.752,72.874,46.579,70.906,47.064,68.806z M28.147,73.248c-4.875,0-8.826-3.952-8.826-8.825   c0-4.875,3.952-8.825,8.826-8.825c4.874,0,8.823,3.95,8.823,8.825C36.97,69.296,33.021,73.248,28.147,73.248z"></path></g><g display="none"><g display="inline"><polygon points="57.387,45.69 15.997,87.077 13.064,91.936 14.444,93.316 19.306,90.386 60.693,48.999   "></polygon></g><g display="inline"><path d="M97.542,8.841c-3.146-3.144-8.073-3.336-11.218-0.193L62.127,32.845c-0.278,0.28-0.278,0.729,0,1.01    c0.821,0.823,0.821,2.152,0,2.973c-0.818,0.82-2.151,0.823-2.974,0.001c-0.278-0.28-0.729-0.28-1.01-0.001l-2.787,2.788    c-0.229,0.233-0.258,0.58-0.102,0.853l10.659,10.661c0.275,0.156,0.623,0.128,0.855-0.103l2.787-2.787    c0.277-0.279,0.275-0.73-0.003-1.01c-0.821-0.821-0.821-2.155,0-2.976c0.819-0.821,2.154-0.818,2.975,0    c0.276,0.281,0.729,0.281,1.009,0l24.197-24.193C100.881,16.914,100.688,11.988,97.542,8.841z"></path></g><path display="inline" d="M86.777,80.44L58.422,54.1l-9.92,9.919l27.217,27.239c3.003,3.124,7.813,3.124,10.937,0.121   C89.662,88.253,89.781,83.445,86.777,80.44z M84.011,88.73c-1.56,1.686-4.085,1.446-5.77-0.12c-1.44-1.441-1.44-4.083,0-5.645   c1.685-1.566,4.21-1.566,5.77,0C85.574,84.527,85.574,87.291,84.011,88.73z"></path><path display="inline" d="M42.37,57.879l9.689-9.688L33.302,30.767c-2.762-3.003-3.487-4.205-2.762-7.693   c0.843-3.847,0.169-10.907-6.372-14.669C16.649,4.08,9.02,8.045,9.02,8.045L8.42,9.008c0,0,6.733,4.448,7.574,4.928   c0.961,0.603,3.845,3.846,0.358,9.017c-3.368,5.171-7.091,3.485-8.173,2.646c-0.841-0.482-7.574-4.811-7.574-4.811l-0.599,0.962   c0,0-0.483,9.016,6.968,13.825c3.486,2.282,7.216,2.282,9.861,1.322c2.645-0.841,4.565,0.122,7.813,3.246L42.37,57.879z"></path></g><g display="none"><g display="inline"><polygon points="28.757,57.483 30.274,56.608 43.45,48.974 43.476,48.988 68.326,34.647 68.32,22.36 7.493,57.449 82.193,100     92.475,94.07 73.438,83.138   "></polygon><polygon points="70.426,35.858 70.439,64.348 80.993,70.359 80.96,0 6.462,42.973 6.468,55.615 70.418,18.728   "></polygon><polygon points="83.093,73.972 70.441,66.764 70.44,66.771 68.167,65.468 43.483,51.406 32.962,57.479 93.538,92.26 93.497,6.007     83.059,0.014   "></polygon></g></g><g display="none"><path display="inline" d="M86.207,14.803L71.403,0h-57.61v94.827c0,2.948,3.706,5.173,8.62,5.173c4.915,0,8.621-2.225,8.621-5.173   l0,0V19.68l10.345,10.345v64.803l0,0c0,2.948,3.706,5.173,8.621,5.173c4.914,0,8.62-2.225,8.62-5.173V13.793H27.586v76.848   c-1.423-0.621-3.196-0.985-5.173-0.985c-1.975,0-3.749,0.364-5.172,0.985V3.448h51.725v91.379c0,2.948,3.705,5.173,8.62,5.173   c4.914,0,8.621-2.225,8.621-5.173l0,0V14.803z M55.172,90.641c-1.423-0.621-3.197-0.985-5.172-0.985   c-1.977,0-3.75,0.364-5.173,0.985V31.034h10.345V90.641z M50,96.552c-3.338,0-5.173-1.296-5.173-1.725s1.835-1.724,5.173-1.724   s5.172,1.295,5.172,1.724S53.338,96.552,50,96.552z M55.172,27.586H43.817L33.473,17.241h21.699V27.586z M22.413,93.104   c3.338,0,5.173,1.295,5.173,1.724s-1.835,1.725-5.173,1.725s-5.172-1.296-5.172-1.725S19.075,93.104,22.413,93.104z M82.759,16.231   v74.409c-1.423-0.621-3.197-0.985-5.173-0.985s-3.75,0.364-5.172,0.985V5.886L82.759,16.231z M77.586,96.552   c-3.338,0-5.172-1.296-5.172-1.725s1.834-1.724,5.172-1.724c3.337,0,5.173,1.295,5.173,1.724S80.923,96.552,77.586,96.552z"></path></g><g display="none"><path display="inline" d="M79.386,25.958V1.88h-0.002L78.299,0h-2.17l-1.087,1.88l0,0v1.864c-16.669,1.309-33.416,1.309-50.085,0   V1.88l0,0L23.871,0h-2.17l-1.085,1.88h-0.002v24.078h-6.08v3.379h6.08V44.3L46.93,70.615l-9.845,9.844h-9.883v3.379h6.505   L21.176,96.369v0.001l-0.562,2.095L22.15,100l2.096-0.562v0.002l15.603-15.602h20.304l15.603,15.602v-0.002L77.85,100l1.536-1.535   l-0.562-2.095v-0.001L66.293,83.838h6.504v-3.379h-9.883l-9.844-9.844L79.386,44.3V29.337h6.08v-3.379H79.386z M75.042,26v3.337   v10.64c-16.278,5.275-33.806,5.275-50.085,0v-10.64V26C41.626,27.31,58.373,27.31,75.042,26z M56.773,80.459H43.227L50,73.686   L56.773,80.459z M50,67.545l-6.626-6.627h13.253L50,67.545z M41.443,58.987L27.706,45.25c14.571,4.158,30.017,4.158,44.588,0   L58.557,58.987H41.443z"></path></g><g display="none"><path display="inline" d="M97.756,84.123L71.173,57.54c3.723-5.822,5.916-12.712,5.916-20.119C77.089,16.787,60.302,0,39.667,0   C19.033,0,2.244,16.787,2.244,37.421c0,20.634,16.789,37.427,37.423,37.427c5.039,0,9.84-1.015,14.231-2.829L81.88,100   L97.756,84.123z M19.085,37.421c0-11.348,9.234-20.58,20.582-20.58s20.58,9.232,20.58,20.58c0,11.354-9.232,20.586-20.58,20.586   S19.085,48.775,19.085,37.421z"></path></g><g display="none"><path display="inline" d="M96.792,44.66L55.341,3.208c-1.426-1.422-3.323-2.207-5.342-2.207c-2.018,0-3.915,0.785-5.338,2.207   L3.209,44.66C1.783,46.085,1,47.98,1,50.003c0,2.016,0.783,3.915,2.209,5.336L44.66,96.791c1.424,1.426,3.321,2.208,5.338,2.208   c2.019,0,3.919-0.782,5.342-2.208L96.792,55.34C99.737,52.398,99.737,47.605,96.792,44.66z M37.743,71.233   c-0.565,0.554-1.097,1.074-1.602,1.577l-7.232-7.232c0.55-0.547,1.107-1.094,1.694-1.664c5.147-5.021,11.313-11.036,13.477-23.072   c-0.525,0.124-1.023,0.265-1.486,0.423l-1.936,0.667c-4.069,1.405-5.402-0.346-2.965-3.891l7.864-11.442l0.002-0.003l4.43-6.447   l4.429,6.451l7.863,11.442c2.436,3.542,1.104,5.296-2.966,3.891l-1.932-0.667c-0.463-0.158-0.963-0.299-1.486-0.423   c2.164,12.036,8.329,18.05,13.479,23.072c0.587,0.57,1.144,1.117,1.69,1.664l-7.229,7.232c-0.507-0.503-1.04-1.023-1.604-1.577   c-3.787-3.693-8.635-8.419-12.246-15.729C46.379,62.814,41.532,67.54,37.743,71.233z"></path></g><g display="none"><g display="inline"><path d="M79.839,79.279h10.223v-4.418L100,84.805l-9.938,9.945v-4.418H65.902C71.252,87.594,75.977,83.822,79.839,79.279z"></path><path d="M41.186,21.016c-14.209,2.013-25.159,14.241-25.159,28.987c0,10.114,5.157,19.046,12.971,24.31H13.153    c-5.123-6.766-8.178-15.189-8.178-24.31c0-20.647,15.606-37.713,35.631-40.047l-5.248,5.242L41.186,21.016z"></path><path d="M5.532,84.805l-5.521-5.525h45.298c16.14,0,29.282-13.131,29.282-29.276c0-14.451-10.529-26.482-24.307-28.851v3.99    l-9.95-9.944l9.95-9.947V9.99c19.899,2.459,35.358,19.457,35.358,40.013c0,22.237-18.094,40.329-40.333,40.329H0L5.532,84.805z"></path></g></g><g display="none"><g display="inline"><path d="M44.426,57.316l9.258,9.255v10.276h10.273l3.012,3.011v10.274h9.867V100h23.163V87.111L57.314,44.424    c5.975-11.451,4.157-25.91-5.459-35.528c-11.861-11.861-31.094-11.861-42.959,0c-11.861,11.865-11.861,31.098,0,42.96    C18.513,61.473,32.975,63.291,44.426,57.316z M18.113,18.114c3.761-3.755,9.851-3.755,13.607,0c3.761,3.759,3.761,9.851,0,13.606    c-3.757,3.759-9.847,3.759-13.607,0C14.359,27.964,14.359,21.873,18.113,18.114z"></path></g></g><g display="none"><g display="inline"><path d="M50.001,23.267c-11.727,0-21.229,9.501-21.229,21.224c0,2.919,0.591,5.698,1.656,8.23l0,0l9.56,27.857h19.575l9.67-27.146    c1.268-2.72,1.994-5.742,1.994-8.941C71.228,32.768,61.725,23.267,50.001,23.267z"></path><rect x="47.79" width="4.416" height="17.32"></rect><rect x="23.254" y="11.299" transform="matrix(0.4999 0.8661 -0.8661 0.4999 27.6569 -20.886)" width="17.321" height="4.414"></rect><rect x="10.015" y="24.536" transform="matrix(-0.8659 -0.5002 0.5002 -0.8659 21.4697 59.2448)" width="17.32" height="4.417"></rect><polygon points="87.724,20.505 72.725,29.164 74.928,32.989 89.929,24.324   "></polygon><rect x="65.876" y="4.846" transform="matrix(0.8663 0.4995 -0.4995 0.8663 15.8505 -32.2056)" width="4.42" height="17.321"></rect><rect x="40.714" y="83.219" width="17.323" height="3.835"></rect><rect x="40.714" y="89.69" width="17.323" height="3.836"></rect><rect x="43.635" y="96.164" width="11.479" height="3.836"></rect></g></g><g display="none"><polygon display="inline" points="37.383,23.535 19.355,23.535 37.383,5.507  "></polygon><path display="inline" d="M41.891,1v27.042H14.849V99h70.303V1H41.891z M73.71,85.063H26.289v-5.799H73.71V85.063z M73.71,68.761   H26.289v-5.799H73.71V68.761z M73.71,52.028H26.289V46.23H73.71V52.028z"></path></g><g display="none"><g display="inline"><path d="M80.41,34.472c-15.332-9.239-25.794-11.5-30.109-9.805c-1.785,0.7-3.566,2.992-5.411,6.049    c-1.917,3.172-3.299,7.986-2.865,10.057c0.255,1.21,3.564,9.105,22.279,19.545c12.187,6.795,21.861,8.521,23.553,7.955    c1.721-0.568,4.078-1.847,7.265-6.301C98.068,57.852,99,53.188,99,51.402C99,49.623,92.82,41.95,80.41,34.472z M94.797,52.549    c-1.719,3.059-14.131-1.523-21.77-5.728c-7.643-4.203-23.853-15.219-20.053-19.289c2.672-2.866,13.938,0.764,26.162,8.403    C91.361,43.574,96.518,49.496,94.797,52.549z"></path><path d="M48.677,53.545c-2.624,0.997-9.263,2.157-17.522,2.157c-9.201,0-24.491-2.157-24.491-8.403    c0-7.249,22.567-10.217,32.607-9.214c0.096-0.717,0.334-1.767,0.334-1.767s-1.576-0.191-4.677-0.191    c-22.68,0-30.223,6.444-31.799,8.784c-1.576,2.34-2.102,7.399-2.102,10.218c0,2.819-0.61,8.516,3.917,13.467    c5.107,5.584,16.614,7.256,26.02,7.256c9.405,0,16.232-0.764,25.924-5.254c0.56-1.297,0.572-2.695,0.572-3.244    C57.461,62.003,51.686,54.555,48.677,53.545z"></path></g></g><g display="none"><path display="inline" d="M90.479,35.714h-2.864L77.364,18.627c-0.644-1.076-2.208-1.96-3.462-1.96H26.099   c-1.261,0-2.822,0.885-3.467,1.96l-10.25,17.087H9.518C4.281,35.714,0,40.002,0,45.238v2.679v23.812h9.518v11.604h14.293V71.729   h52.373v11.604h14.295V71.729H100V47.917v-2.679C100,40.002,95.715,35.714,90.479,35.714z M26.808,21.958h46.384l9.69,16.143   c-4.514,1.35-14.438,3.438-32.624,3.438c-18.292,0-28.457-2.136-33.103-3.507L26.808,21.958z M16.666,59.523   c-3.941,0-7.148-3.196-7.148-7.14c0-3.945,3.207-7.146,7.148-7.146c3.948,0,7.146,3.2,7.146,7.146   C23.812,56.327,20.614,59.523,16.666,59.523z M66.666,60.579H33.331c-0.579,0-1.055-0.471-1.055-1.056   c0-0.587,0.476-1.055,1.055-1.055h33.335c0.578,0,1.056,0.468,1.056,1.055C67.722,60.108,67.244,60.579,66.666,60.579z    M66.666,55.819H33.331c-0.579,0-1.055-0.474-1.055-1.057c0-0.584,0.476-1.059,1.055-1.059h33.335c0.578,0,1.056,0.475,1.056,1.059   C67.722,55.346,67.244,55.819,66.666,55.819z M83.334,59.523c-3.952,0-7.149-3.196-7.149-7.14c0-3.945,3.197-7.146,7.149-7.146   c3.948,0,7.146,3.2,7.146,7.146C90.479,56.327,87.282,59.523,83.334,59.523z"></path></g><g display="none"><g display="inline"><g><path d="M77.547,69.98V41.969c-1.656,0.146-3.432,0.279-5.328,0.397v29.553C74.137,71.342,75.92,70.693,77.547,69.98z"></path></g><g><path d="M25.553,42.202V71.12c6.612,2.348,15.182,3.769,24.552,3.769c2.221,0,4.393-0.084,6.51-0.235V42.94     c-2.123,0.033-4.293,0.051-6.51,0.051C40.869,42.991,32.359,42.696,25.553,42.202z"></path></g><g><g><path d="M17.899,38.676c7.445,0.959,19.451,1.542,32.206,1.542c12.612,0,24.538-0.572,31.993-1.513      c0.545-4.557,2.662-7.591,5.533-7.744C83.752,13.81,68.43,1,50.105,1C31.771,1,16.443,13.823,12.574,30.987      C15.331,31.274,17.363,34.245,17.899,38.676z M66.18,9.963c1.211-1.251,4.48-0.05,7.303,2.68      c2.824,2.731,4.133,5.961,2.922,7.214c-1.209,1.25-4.48,0.049-7.305-2.682C66.277,14.444,64.969,11.214,66.18,9.963z"></path></g></g><g><g><path d="M75.035,73.897c-5.184,1.769-11.473,3.025-18.373,3.522c-0.35,0.023-0.691,0.056-1.041,0.075      c-0.248,0.016-0.5,0.022-0.746,0.035c-0.701,0.036-1.404,0.071-2.117,0.092c-0.037,0.001-0.074,0.001-0.109,0.003      c-0.873,0.023-1.756,0.036-2.646,0.037c-0.89-0.001-1.773-0.014-2.646-0.037c-0.036-0.002-0.074-0.002-0.111-0.003      c-0.714-0.021-1.416-0.056-2.117-0.092c-0.247-0.013-0.499-0.02-0.745-0.035c-0.351-0.02-0.693-0.052-1.042-0.075      c-6.901-0.497-13.189-1.754-18.373-3.522c-4-1.395-7.365-3.133-9.927-5.136l-0.309-0.076      c2.482,10.095,9.561,18.531,16.084,23.998c2.366,2.295,4.904,4.15,7.549,5.204c0.179,0.092,0.369,0.205,0.539,0.291      c1.631,0.558,6.367,0.832,11.096,0.821c4.73,0.011,9.464-0.264,11.095-0.821c0.17-0.086,0.361-0.199,0.539-0.291      c2.645-1.054,5.184-2.909,7.549-5.204c6.525-5.467,13.604-13.903,16.086-23.998l-0.311,0.076      C82.398,70.765,79.033,72.503,75.035,73.897z M46.334,91.596c0,0.512-0.414,0.926-0.923,0.926s-0.924-0.414-0.924-0.926v-4.833      c0-0.511,0.415-0.925,0.924-0.925s0.923,0.414,0.923,0.925V91.596z M50.929,92.993c0,0.513-0.415,0.927-0.924,0.927      c-0.51,0-0.924-0.414-0.924-0.927v-6.581c0-0.509,0.415-0.924,0.924-0.924c0.509,0,0.924,0.415,0.924,0.924V92.993z       M55.523,91.596c0,0.512-0.416,0.926-0.924,0.926c-0.51,0-0.924-0.414-0.924-0.926v-4.833c0-0.511,0.414-0.925,0.924-0.925      c0.508,0,0.924,0.414,0.924,0.925V91.596z"></path></g></g><g><g><path d="M87.854,33.705c-1.723,0-3.121,3.312-3.121,7.396c0,0.013,0.002,0.021,0.002,0.034c-0.748,0.118-1.576,0.23-2.451,0.339      v25.958c3.602-2.411,5.688-5.255,5.688-8.307c0,0,3.004-15.327,3.004-18.024C90.975,37.016,89.576,33.705,87.854,33.705z       M88.07,41.508c-0.334,0-0.605-0.776-0.605-1.734s0.271-1.733,0.605-1.733c0.336,0,0.607,0.776,0.607,1.733      S88.406,41.508,88.07,41.508z"></path></g></g><g><g><path d="M20.352,68.867V41.75c-1.918-0.199-3.635-0.415-5.085-0.647c0-0.001,0-0.001,0-0.001c0-4.084-1.398-7.396-3.121-7.396      c-1.723,0-3.12,3.312-3.12,7.396c0,3.14,3.213,18.024,3.213,18.024C12.239,62.805,15.276,66.186,20.352,68.867z M11.882,41.508      c-0.334,0-0.606-0.776-0.606-1.734s0.272-1.733,0.606-1.733s0.607,0.776,0.607,1.733S12.216,41.508,11.882,41.508z"></path></g></g></g></g><g display="none"><g display="inline"><path d="M70.002,0H30c-3.684,0-6.666,2.981-6.666,6.667v86.667c0,3.686,2.981,6.667,6.666,6.667h40    c3.685,0,6.666-2.981,6.666-6.667V6.667C76.668,2.981,73.687,0,70.002,0z M43.229,6.042h13.542c1.211,0,2.188,0.983,2.188,2.188    c0,1.211-0.977,2.188-2.188,2.188H43.229c-1.211,0-2.188-0.977-2.188-2.188C41.042,7.024,42.019,6.042,43.229,6.042z     M50.001,93.743c-2.982,0-5.404-2.422-5.404-5.41c0-2.981,2.421-5.403,5.404-5.403s5.404,2.422,5.404,5.403    C55.405,91.321,52.983,93.743,50.001,93.743z M69.663,78.334H30.338v-62.5h39.323v62.5H69.663z"></path></g></g><g display="none"><g display="inline"><path d="M72.411,3.139c-1.412-1.171-3.168-1.711-4.703-2.084C64.725,0.328,53.238,0,50.161,0h-0.322    c-3.077,0-14.562,0.328-17.546,1.055c-1.536,0.373-3.295,0.913-4.702,2.084c-1.708,1.417-2.573,3.5-2.573,6.199v81.593    c0,5.494,4.404,7.077,6.294,7.504C33.398,98.902,38.288,100,49.8,100H50.2c11.512,0,16.402-1.098,18.489-1.565    c1.89-0.427,6.295-2.01,6.295-7.504V9.338C74.983,6.64,74.118,4.556,72.411,3.139z M66.542,5.617c1.321,0,2.392,1.067,2.392,2.395    c0,1.321-1.07,2.396-2.392,2.396s-2.394-1.076-2.394-2.396C64.148,6.685,65.227,5.617,66.542,5.617z M40.745,7.018h17.674    c0.58,0,1.038,0.462,1.038,1.035s-0.458,1.035-1.038,1.035H40.745c-0.579,0-1.038-0.465-1.038-1.035    C39.708,7.48,40.167,7.018,40.745,7.018z M53.923,94.332c-1.001,0.241-3.073,0.271-3.974,0.271c-0.107,0-0.197-0.003-0.265-0.003    s-0.161,0.003-0.266,0.003c-0.897,0-2.973-0.029-3.975-0.271c-1.345-0.326-1.762-1.825-1.762-2.335c0-0.357,0-1.304,1.432-1.304    h4.41h0.322h4.41c1.43,0,1.43,0.946,1.43,1.304C55.685,92.507,55.269,94.006,53.923,94.332z M68.634,86.117h-37.54V14.056H68.63    v72.062H68.634z"></path></g></g><g display="none"><path display="inline" d="M67.951,28.871v22.05l-22.052-22.05v25.746h-7.043V0h-9.231v54.616h-7.047V0h-9.23v54.616H6.304V100   h87.384V54.616h0.008L67.951,28.871z M89.581,65.962H75.942v-7.239h13.639V65.962z M54.096,70.064h13.642v7.243H54.096V70.064z    M45.892,77.308H32.253v-7.243h13.638V77.308z M54.096,65.962v-7.239h13.642v7.239H54.096z M45.892,58.723v7.239H32.253v-7.239   H45.892z M24.048,58.723v7.239H10.411v-7.239H24.048z M10.411,70.064h13.638v7.243H10.411V70.064z M75.942,77.308v-7.243h13.639   v7.243H75.942z"></path></g><g display="none"><g display="inline"><path d="M12.962,48.147V100h74.076V48.147H12.962z M53.704,76.751v12.137h-7.409V76.751c-2.202-1.288-3.704-3.646-3.704-6.381    c0-4.087,3.313-7.407,7.41-7.407c4.087,0,7.407,3.32,7.407,7.407C57.408,73.104,55.903,75.463,53.704,76.751z"></path><path d="M35.18,25.93c0.04-3.1-0.003-14.815,14.813-14.815c14.821,0,14.771,11.762,14.814,14.815v11.11h11.118V25.926    c0,0-0.007-25.926-25.925-25.926C24.077,0,24.07,25.926,24.07,25.926V37.04h11.11V25.93z"></path></g></g></svg>