
<svg  xmlns="http://www.w3.org/2000/svg"  x="0px" y="0px"
	 viewBox="0 0 24 24" style="enable-background:new 0 0 24 24;" >

<g id="Menu_1">
	<g>
		<g>
			<path d="M23.5,6h-23C0.224,6,0,5.776,0,5.5S0.224,5,0.5,5h23C23.776,5,24,5.224,24,5.5S23.776,6,23.5,6z"/>
		</g>
		<g>
			<path d="M23.5,13h-23C0.224,13,0,12.776,0,12.5S0.224,12,0.5,12h23c0.276,0,0.5,0.224,0.5,0.5S23.776,13,23.5,13z"/>
		</g>
		<g>
			<path d="M23.5,20h-23C0.224,20,0,19.776,0,19.5S0.224,19,0.5,19h23c0.276,0,0.5,0.224,0.5,0.5S23.776,20,23.5,20z"/>
		</g>
	</g>
</g>

</svg>
