<svg id="Trashcan" xmlns="http://www.w3.org/2000/svg" width="18" height="24" viewBox="0 0 18 24">
  <path id="Shape" d="M4.5,24A3.5,3.5,0,0,1,1,20.5V6H.5A.5.5,0,0,1,0,5.5v-1A2.5,2.5,0,0,1,2.5,2H5.191L5.5,1.382A2.487,2.487,0,0,1,7.736,0h2.526A2.486,2.486,0,0,1,12.5,1.382l.31.617H15.5A2.5,2.5,0,0,1,18,4.5v1a.5.5,0,0,1-.5.5H17V20.5A3.5,3.5,0,0,1,13.5,24Z" fill="#5c78bc"/>
  <path id="Path" d="M.5,13a.5.5,0,0,0,.5-.5V.5a.5.5,0,0,0-1,0v12A.5.5,0,0,0,.5,13Z" transform="translate(4 8)" fill="#5c78bc"/>
  <path id="Path-2" data-name="Path" d="M.5,13a.5.5,0,0,0,.5-.5V.5a.5.5,0,0,0-1,0v12A.5.5,0,0,0,.5,13Z" transform="translate(7 8)" fill="#5c78bc"/>
  <path id="Path-3" data-name="Path" d="M.5,13a.5.5,0,0,0,.5-.5V.5a.5.5,0,0,0-1,0v12A.5.5,0,0,0,.5,13Z" transform="translate(10 8)" fill="#5c78bc"/>
  <path id="Path-4" data-name="Path" d="M.5,13a.5.5,0,0,0,.5-.5V.5a.5.5,0,0,0-1,0v12A.5.5,0,0,0,.5,13Z" transform="translate(13 8)" fill="#5c78bc"/>
</svg>
