

<svg   xmlns="http://www.w3.org/2000/svg"  x="0px" y="0px"
	 viewBox="0 0 24 24" style="enable-background:new 0 0 24 24;" >
<g>
	<g>
		<path d="M14.754,16.342l-2.755-0.688l-0.204-0.817c0.73-0.746,1.234-1.746,1.402-2.778c0.429-0.154,0.754-0.539,0.814-1.014
			l0.185-1.478c0.044-0.35-0.064-0.702-0.295-0.967c-0.114-0.131-0.253-0.235-0.407-0.307l0.062-1.25l0.243-0.244
			c0.449-0.477,0.822-1.292,0.054-2.464C13.273,3.449,12.295,3,10.944,3c-0.521,0-1.716,0-2.842,0.742
			C4.856,3.823,4.435,5.428,4.435,6.826c0,0.318,0.07,0.984,0.123,1.443C4.386,8.341,4.231,8.45,4.105,8.593
			C3.869,8.859,3.76,9.214,3.804,9.567l0.185,1.478c0.063,0.508,0.43,0.913,0.903,1.042c0.167,0.989,0.645,1.954,1.33,2.683
			l-0.221,0.884l-2.755,0.688C1.334,16.819,0,18.529,0,20.5c0,0.133,0.052,0.261,0.146,0.354C0.24,20.947,0.368,21,0.5,21l17-0.002
			c0.276,0,0.5-0.224,0.5-0.5C18,18.529,16.666,16.819,14.754,16.342z M1.038,19.998c0.197-1.292,1.149-2.361,2.451-2.686
			l3.046-0.761c0.179-0.045,0.32-0.185,0.364-0.364l0.362-1.45c0.045-0.176-0.011-0.362-0.143-0.486
			c-0.723-0.678-1.202-1.673-1.281-2.66c-0.021-0.26-0.238-0.46-0.499-0.46h-0.12c-0.12,0-0.222-0.09-0.237-0.209L4.796,9.444
			C4.784,9.351,4.827,9.286,4.854,9.256C4.881,9.226,4.94,9.175,5.11,9.175c0.144,0,0.28-0.061,0.375-0.169
			C5.58,8.899,5.624,8.755,5.606,8.613C5.559,8.237,5.435,7.182,5.435,6.828c0-0.918,0-2.059,2.831-2.087
			C8.368,4.74,8.469,4.708,8.552,4.648c0.796-0.569,1.656-0.646,2.393-0.646c0.992,0,1.689,0.297,2.072,0.883
			c0.438,0.669,0.273,0.998,0.064,1.22l-0.369,0.37c-0.088,0.088-0.14,0.205-0.146,0.329l-0.09,1.85
			c-0.006,0.136,0.043,0.268,0.136,0.367c0.092,0.099,0.222,0.156,0.358,0.157c0.094,0.001,0.152,0.052,0.178,0.082
			c0.026,0.03,0.068,0.093,0.057,0.185l-0.185,1.478c-0.015,0.119-0.117,0.209-0.273,0.209c-0.261,0-0.478,0.2-0.499,0.46
			c-0.081,1.018-0.582,2.032-1.342,2.713c-0.138,0.123-0.196,0.313-0.151,0.493l0.347,1.389c0.045,0.179,0.185,0.32,0.364,0.364
			l3.046,0.761c1.3,0.325,2.252,1.395,2.45,2.688L1.038,19.998z M20.755,16.341L18,15.653l-0.112-0.442
			c1.886-0.338,2.865-0.907,2.909-0.933c0.141-0.083,0.229-0.233,0.241-0.396c0.012-0.163-0.061-0.325-0.188-0.428
			c-0.013-0.01-1.285-1.082-1.285-4.779c0-3.275-0.79-4.935-2.348-4.935H17.05c-0.536-0.505-0.974-0.722-1.943-0.736H15.1
			c-0.186,0-0.353,0.108-0.439,0.273c-0.087,0.167-0.07,0.375,0.04,0.528c0.112,0.158,0.298,0.229,0.474,0.2
			c0.715,0.02,0.895,0.165,1.318,0.588c0.094,0.093,0.221,0.146,0.354,0.146h0.37c0.857,0,1.348,1.435,1.348,3.935
			c0,2.79,0.666,4.278,1.163,4.999c-0.506,0.2-1.353,0.47-2.526,0.635c-0.14,0.019-0.266,0.098-0.345,0.215
			c-0.079,0.118-0.105,0.263-0.07,0.401l0.315,1.263c0.045,0.179,0.185,0.32,0.364,0.364l3.046,0.761
			c1.3,0.325,2.252,1.395,2.45,2.688H19.5v1l4-0.002c0.276,0,0.5-0.224,0.5-0.5C24,18.529,22.666,16.819,20.755,16.341z"/>
	</g>
</g>
</svg>
