<?xml version="1.0" encoding="utf-8"?>
<!-- Generator: Adobe Illustrator 22.1.0, SVG Export Plug-In . SVG Version: 6.00 Build 0)  -->
<svg xmlns="http://www.w3.org/2000/svg" xmlns:xlink="http://www.w3.org/1999/xlink" x="0px" y="0px" width="46px" height="46.1px"
     viewBox="0 0 46 46.1" style="enable-background:new 0 0 46 46.1;" >
<style type="text/css">
	.logo-short-white-0{fill:#E1E4EA;}
	.logo-short-white-1{fill:#FFFFFF;}
	.logo-short-white-2{fill:#377dff;}
</style>
    <g>
	<path class="logo-short-white-0" opacity=".65" d="M23,41.1L23,41.1c-9.9,0-18-8-18-18l0,0c0-9.9,8-18,18-18h11.3c3.7,0,6.6,3,6.6,6.6v11.4
		C41,33,32.9,41.1,23,41.1z"/>
        <path class="logo-short-white-1" opacity=".5" d="M28,36L28,36c-9.9,0-18-8-18-18l0,0c0-9.9,8-18,18-18h11.3C43,0.1,46,3.1,46,6.7v11.4C46,28,38,36,28,36z"/>
        <path class="logo-short-white-1" opacity=".7" d="M18,46.1L18,46.1c-10,0-18-8-18-18l0,0c0-9.9,8-18,18-18h11.3c3.7,0,6.6,3,6.6,6.6v11.4
		C35.9,38.1,27.9,46.1,18,46.1z"/>
        <g>
		<path class="logo-short-white-2" d="M17.4,34.1V18.4h10.2v2.9h-6.4v3.4H26v2.9h-4.8v6.5H17.4z"/>
	</g>
</g>
</svg>
