<svg width="600" height="400" viewBox="0 0 600 400" fill="none" xmlns="http://www.w3.org/2000/svg">
<path d="M600 0H0V400H600V0Z" fill="white"/>
<path d="M70 10H10V390H70V10Z" fill="#DFE3EE"/>
<path d="M590 10H80V390H590V10Z" fill="#F7F8F9"/>
<circle cx="40" cy="31" r="9" fill="#F7F8F9"/>
<path d="M20 53C20 50.7909 21.7909 49 24 49H56C58.2091 49 60 50.7909 60 53V53C60 55.2091 58.2091 57 56 57H24C21.7909 57 20 55.2091 20 53V53Z" fill="#F7F8F9"/>
<circle cx="40" cy="93" r="9" fill="#F7F8F9"/>
<path d="M20 115C20 112.791 21.7909 111 24 111H56C58.2091 111 60 112.791 60 115V115C60 117.209 58.2091 119 56 119H24C21.7909 119 20 117.209 20 115V115Z" fill="#F7F8F9"/>
<circle cx="40" cy="155" r="9" fill="#F7F8F9"/>
<path d="M20 177C20 174.791 21.7909 173 24 173H56C58.2091 173 60 174.791 60 177V177C60 179.209 58.2091 181 56 181H24C21.7909 181 20 179.209 20 177V177Z" fill="#F7F8F9"/>
<circle cx="40" cy="217" r="9" fill="#F7F8F9"/>
<path d="M20 239C20 236.791 21.7909 235 24 235H56C58.2091 235 60 236.791 60 239V239C60 241.209 58.2091 243 56 243H24C21.7909 243 20 241.209 20 239V239Z" fill="#F7F8F9"/>
<circle cx="40" cy="279" r="9" fill="#F7F8F9"/>
<path d="M20 301C20 298.791 21.7909 297 24 297H56C58.2091 297 60 298.791 60 301V301C60 303.209 58.2091 305 56 305H24C21.7909 305 20 303.209 20 301V301Z" fill="#F7F8F9"/>
<circle cx="40" cy="341" r="9" fill="#F7F8F9"/>
<path d="M20 363C20 360.791 21.7909 359 24 359H56C58.2091 359 60 360.791 60 363V363C60 365.209 58.2091 367 56 367H24C21.7909 367 20 365.209 20 363V363Z" fill="#F7F8F9"/>
</svg>
