<?xml version="1.0" encoding="utf-8"?>
<!-- Generator: Adobe Illustrator 24.1.3, SVG Export Plug-In . SVG Version: 6.00 Build 0)  -->
<svg version="1.1" id="Layer_1" xmlns="http://www.w3.org/2000/svg" xmlns:xlink="http://www.w3.org/1999/xlink" x="0px" y="0px"
	 viewBox="0 0 182.4 210" style="enable-background:new 0 0 182.4 210;" >
<style type="text/css">
	.st0{fill:#E7EAF3;}
	.st1{fill:#F8FAFD;}
	.st2{fill:#BDC5D1;}
	.st3{fill:#377dff;}
	.st4{fill:#FFFFFF;}
	.st5{font-family:'OpenSans-Bold';}
	.st6{font-size:36.9576px;}
	.st7{letter-spacing:5;}
</style>
<path class="st0" d="M156.2,210h-130c-8.3,0-15-6.7-15-15V15c0-8.3,6.7-15,15-15h95l50,50v145C171.2,203.3,164.5,210,156.2,210z"/>
<path class="st1" d="M171.2,50h-50V0L171.2,50z"/>
<path class="st2" d="M121.2,50l50,50V50H121.2z"/>
<path class="st3" d="M176.7,177.4H5.7c-3.1,0-5.7-2.5-5.7-5.7v-47.3c0-3.1,2.5-5.7,5.7-5.7h171c3.1,0,5.7,2.5,5.7,5.7v47.3
	C182.4,174.9,179.8,177.4,176.7,177.4z"/>
<text transform="matrix(1 0 0 1 40.8767 160.2324)" class="st4 st5 st6 st7">.CSV</text>
</svg>
