<?xml version="1.0" encoding="utf-8"?>
<!-- Generator: Adobe Illustrator 24.2.1, SVG Export Plug-In . SVG Version: 6.00 Build 0)  -->
<svg version="1.1" id="Layer_1" xmlns="http://www.w3.org/2000/svg" xmlns:xlink="http://www.w3.org/1999/xlink" x="0px" y="0px"
	 viewBox="0 0 890 500" style="enable-background:new 0 0 890 500;" >
<style type="text/css">
	.st0{fill:#F8FAFD;}
	.st1{fill:#377dff;}
	.st2{fill:#FFFFFF;stroke:#BDC5D1;stroke-width:4;}
	.st3{fill:none;stroke:#BDC5D1;stroke-width:4;}
	.st4{fill:#BDC5D1;}
</style>
<rect class="st0" width="890" height="500"/>
<path class="st1" d="M744.5,259.3c0,27.7-22.4,50-50,50s-50-22.3-50-50c0-27.6,22.4-50,50-50C722.2,209.3,744.5,231.7,744.5,259.3z
	 M695.8,225.8c-11,0-18,4.6-23.5,12.8c-0.7,1-0.4,2.5,0.5,3.2l7,5.3c1,0.8,2.6,0.6,3.4-0.4c3.6-4.6,6-7.2,11.6-7.2
	c4.1,0,9.2,2.7,9.2,6.6c0,3-2.5,4.6-6.6,6.9c-4.7,2.7-11,6-11,14.2v0.8c0,1.3,1.1,2.4,2.4,2.4h11.3c1.3,0,2.4-1.1,2.4-2.4v-0.3
	c0-5.8,16.7-6,16.7-21.5C719.4,234.7,707.2,225.8,695.8,225.8L695.8,225.8z M694.5,275.8c-5.1,0-9.3,4.1-9.3,9.3
	c0,5.1,4.1,9.3,9.3,9.3s9.3-4.1,9.3-9.3C703.8,280,699.6,275.8,694.5,275.8z"/>
<path class="st2" d="M573.3,157.5v208c0,5-4,9-9,9h-405c-5,0-9-4-9-9v-208c0-5,4-9,9-9h405C569.3,148.5,573.3,152.5,573.3,157.5z"/>
<line class="st3" x1="149.5" y1="216.5" x2="572.3" y2="216.5"/>
<path class="st4" d="M546.3,182.5L546.3,182.5c0,5-4,9-9,9h-355c-5,0-9-4-9-9l0,0c0-5,4-9,9-9h355
	C542.3,173.5,546.3,177.5,546.3,182.5z"/>
<path class="st4" d="M502.3,252.5L502.3,252.5c0,5-4,9-9,9h-311c-5,0-9-4-9-9l0,0c0-5,4-9,9-9h311
	C498.3,243.5,502.3,247.5,502.3,252.5z"/>
<path class="st4" d="M430.3,296.5L430.3,296.5c0,5-4,9-9,9h-239c-5,0-9-4-9-9l0,0c0-5,4-9,9-9h239
	C426.3,287.5,430.3,291.5,430.3,296.5z"/>
<path class="st4" d="M525.3,340.5L525.3,340.5c0,5-4,9-9,9h-334c-5,0-9-4-9-9l0,0c0-5,4-9,9-9h334
	C521.3,331.5,525.3,335.5,525.3,340.5z"/>
<path class="st2" d="M599.8,265.3L575,289.6c-0.6,0.6-1.7,0.2-1.7-0.7v-56.1l0,0l26.5,25.9C601.7,260.5,601.7,263.5,599.8,265.3z"/>
</svg>
