<?xml version="1.0" encoding="utf-8"?>
<!-- Generator: Adobe Illustrator 24.2.1, SVG Export Plug-In . SVG Version: 6.00 Build 0)  -->
<svg version="1.1" id="Layer_1" xmlns="http://www.w3.org/2000/svg" xmlns:xlink="http://www.w3.org/1999/xlink" x="0px" y="0px"
	 viewBox="0 0 890 500" style="enable-background:new 0 0 890 500;" >
<style type="text/css">
	.st0{fill:#F8FAFD;}
	.st1{fill:#377dff;}
	.st2{fill:#FFFFFF;stroke:#BDC5D1;stroke-width:4;}
	.st3{fill:none;stroke:#BDC5D1;stroke-width:4;}
	.st4{fill:#BDC5D1;}
</style>
<rect class="st0" width="890" height="500"/>
<path class="st1" d="M495,105.7c0,27.7-22.4,50-50,50s-50-22.3-50-50c0-27.6,22.4-50,50-50C472.7,55.7,495,78.1,495,105.7z
	 M446.3,72.2c-11,0-18,4.6-23.5,12.8c-0.7,1-0.4,2.5,0.5,3.2l7,5.3c1,0.8,2.6,0.6,3.4-0.4c3.6-4.6,6-7.2,11.6-7.2
	c4.1,0,9.2,2.7,9.2,6.6c0,3-2.5,4.6-6.6,6.9c-4.7,2.7-11,6-11,14.2v0.8c0,1.3,1.1,2.4,2.4,2.4h11.3c1.3,0,2.4-1.1,2.4-2.4v-0.3
	c0-5.8,16.7-6,16.7-21.5C469.9,81.1,457.7,72.2,446.3,72.2L446.3,72.2z M445,122.2c-5.1,0-9.3,4.1-9.3,9.3c0,5.1,4.1,9.3,9.3,9.3
	s9.3-4.1,9.3-9.3C454.3,126.4,450.1,122.2,445,122.2z"/>
<path class="st2" d="M243.6,222.5h405c5,0,9,4,9,9v208c0,5-4,9-9,9h-405c-5,0-9-4-9-9v-208C234.6,226.5,238.6,222.5,243.6,222.5z"/>
<line class="st3" x1="235.6" y1="290.5" x2="658.4" y2="290.5"/>
<path class="st4" d="M270.6,247.5h355c5,0,9,4,9,9l0,0c0,5-4,9-9,9h-355c-5,0-9-4-9-9l0,0C261.6,251.5,265.6,247.5,270.6,247.5z"/>
<path class="st4" d="M264.6,317.5h311c5,0,9,4,9,9l0,0c0,5-4,9-9,9h-311c-5,0-9-4-9-9l0,0C255.6,321.5,259.6,317.5,264.6,317.5z"/>
<path class="st4" d="M264.6,361.5h239c5,0,9,4,9,9l0,0c0,5-4,9-9,9h-239c-5,0-9-4-9-9l0,0C255.6,365.5,259.6,361.5,264.6,361.5z"/>
<path class="st4" d="M264.6,405.5h334c5,0,9,4,9,9l0,0c0,5-4,9-9,9h-334c-5,0-9-4-9-9l0,0C255.6,409.5,259.6,405.5,264.6,405.5z"/>
<path class="st2" d="M448.8,196l25.9,26.5l0,0h-56.1c-0.9,0-1.3-1.1-0.7-1.7l24.3-24.8C444,194.1,447,194.1,448.8,196z"/>
</svg>
