<?xml version="1.0" encoding="utf-8"?>


<svg version="1.1" id="Layer_1" xmlns="http://www.w3.org/2000/svg" xmlns:xlink="http://www.w3.org/1999/xlink" x="0px" y="0px"
	 width="524.974px" height="187.491px" viewBox="0 0 524.974 187.491" enable-background="new 0 0 524.974 187.491"
	 >
<g>
	<g>
		<g>
			<path fill="#FFFFFF" d="M196.208,64.09c-4.873-2.76-8.689-3.896-13.237-3.896c-11.613,0-19.409,8.363-19.409,20.869
				c0,6.254,2.111,11.775,6.09,15.836c3.33,3.41,8.689,5.684,13.399,5.684c6.009,0,9.826-1.137,14.13-4.061l2.761,5.523
				c-5.36,3.654-10.638,5.359-17.216,5.359c-7.065,0-13.968-2.68-18.84-7.391c-5.36-5.197-8.04-12.18-8.04-21.031
				c0-7.715,3.573-15.756,9.095-20.627c4.792-4.223,11.532-6.66,18.353-6.66c6.09,0,10.963,1.301,16.241,4.387L196.208,64.09z"/>
			<path fill="#FFFFFF" d="M240.467,60.762h-21.52v16.484h19.652v5.848h-19.652v19.002h25.174l-0.975,6.09h-31.265V54.914h28.585
				V60.762z"/>
			<path fill="#FFFFFF" d="M256.303,55.158c8.527-0.488,8.446-0.488,15.267-0.488c9.339,0,17.946,3.086,23.062,8.365
				c4.954,5.035,7.228,11.287,7.228,19.652c0,8.201-4.304,16.484-10.719,20.869c-2.437,1.705-5.441,2.924-9.177,3.736
				c-2.761,0.568-7.472,1.137-9.745,1.137l-4.466,0.082c-3.979,0-6.659-0.164-11.451-0.568V55.158z M263.368,102.014
				c3.654,0.568,4.223,0.568,8.852,0.568c14.211,0,21.926-7.309,21.926-20.789c0-7.551-4.629-15.104-11.125-18.271
				c-3.33-1.623-7.146-2.598-11.288-2.76c-1.462-0.082-2.923-0.164-4.548-0.164l-2.192,0.082c-0.081,0-0.894,0-1.624,0.082V102.014z
				"/>
			<path fill="#FFFFFF" d="M322.732,108.186h-7.065V54.914h7.065V108.186z"/>
			<path fill="#FFFFFF" d="M397.93,108.186h-7.065l-4.061-39.223l-18.109,39.223h-4.304l-17.865-38.41l-4.304,38.41h-6.497
				l6.497-53.271h4.791l19.977,43.203l19.814-43.203h4.873L397.93,108.186z"/>
			<path fill="#FFFFFF" d="M439.672,60.762h-21.52v16.484h19.652v5.848h-19.652v19.002h25.175l-0.975,6.09h-31.265V54.914h28.584
				V60.762z"/>
			<path fill="#FFFFFF" d="M455.508,55.158c8.527-0.488,8.446-0.488,15.268-0.488c9.339,0,17.946,3.086,23.062,8.365
				c4.954,5.035,7.228,11.287,7.228,19.652c0,8.201-4.304,16.484-10.719,20.869c-2.437,1.705-5.441,2.924-9.177,3.736
				c-2.761,0.568-7.471,1.137-9.745,1.137l-4.466,0.082c-3.979,0-6.659-0.164-11.451-0.568V55.158z M462.574,102.014
				c3.654,0.568,4.223,0.568,8.852,0.568c14.211,0,21.926-7.309,21.926-20.789c0-7.551-4.629-15.104-11.125-18.271
				c-3.329-1.623-7.146-2.598-11.288-2.76c-1.462-0.082-2.923-0.164-4.548-0.164l-2.192,0.082c-0.081,0-0.893,0-1.624,0.082V102.014
				z"/>
		</g>
		<g>
			<path fill="#FFFFFF" d="M167.232,126.299c-1.076-0.609-1.918-0.859-2.922-0.859c-2.564,0-4.285,1.846-4.285,4.607
				c0,1.381,0.466,2.6,1.345,3.496c0.735,0.752,1.918,1.254,2.958,1.254c1.327,0,2.169-0.25,3.12-0.896l0.61,1.221
				c-1.184,0.807-2.349,1.182-3.801,1.182c-1.56,0-3.083-0.59-4.159-1.631c-1.184-1.146-1.775-2.689-1.775-4.643
				c0-1.705,0.789-3.479,2.008-4.555c1.058-0.932,2.546-1.471,4.052-1.471c1.345,0,2.421,0.287,3.586,0.969L167.232,126.299z"/>
			<path fill="#FFFFFF" d="M170.961,131.91c0,0.699,0.072,1.113,0.305,1.615c0.395,0.859,1.273,1.434,2.206,1.434
				c0.932,0,1.667-0.287,2.259-0.879l0.753,0.789c-0.896,0.969-1.882,1.398-3.227,1.398c-2.313,0-3.801-1.668-3.801-4.285
				c0-1.166,0.484-2.33,1.255-3.047c0.681-0.629,1.631-1.023,2.474-1.023c1.435,0,2.385,0.539,2.958,1.686
				c0.251,0.52,0.34,0.896,0.34,1.578l-0.609,0.734H170.961z M175.121,130.906c-0.108-1.111-0.896-1.828-2.008-1.828
				c-1.076,0-1.882,0.699-2.133,1.828H175.121z"/>
			<path fill="#FFFFFF" d="M179.675,127.912c0.43,0.287,0.627,0.699,0.681,1.418c0.663-0.916,1.578-1.418,2.6-1.418
				c1.703,0,2.797,1.094,2.797,2.816v5.307h-1.47v-4.717c0-0.859-0.107-1.309-0.376-1.648c-0.305-0.377-0.717-0.537-1.309-0.537
				c-0.592,0-1.237,0.305-1.757,0.807c-0.107,0.107-0.215,0.232-0.395,0.447v5.648h-1.47v-4.717c0-1.988-0.09-2.455-0.538-2.885
				L179.675,127.912z"/>
			<path fill="#FFFFFF" d="M192.834,129.258h-2.151v4.16c0,1.254,0.233,1.559,1.201,1.559c0.358,0,0.735-0.09,1.327-0.322
				l0.215,0.986c-0.717,0.395-1.435,0.555-2.277,0.52c-0.753-0.035-1.398-0.395-1.703-0.951c-0.161-0.305-0.233-0.752-0.233-1.361
				v-0.664v-3.926h-1.667v-0.914l0.484-0.037c1.345-0.09,1.56-0.322,1.793-1.918l0.072-0.484h0.915l-0.125,2.242h2.151V129.258z"/>
			<path fill="#FFFFFF" d="M196.133,127.912c0.484,0.324,0.645,0.771,0.699,1.883c0.717-1.291,1.416-1.883,2.187-1.883
				c0.395,0,0.646,0.072,1.255,0.305l-0.359,1.238c-0.592-0.18-0.843-0.234-1.111-0.197c-0.538,0.072-1.13,0.502-1.596,1.184
				c-0.072,0.107-0.108,0.143-0.305,0.447v5.146h-1.47v-4.717c0-1.988-0.089-2.455-0.538-2.885L196.133,127.912z"/>
			<path fill="#FFFFFF" d="M202.641,131.91c0,0.699,0.072,1.113,0.305,1.615c0.395,0.859,1.273,1.434,2.206,1.434
				c0.932,0,1.667-0.287,2.259-0.879l0.753,0.789c-0.896,0.969-1.882,1.398-3.227,1.398c-2.313,0-3.801-1.668-3.801-4.285
				c0-1.166,0.484-2.33,1.255-3.047c0.681-0.629,1.631-1.023,2.474-1.023c1.435,0,2.385,0.539,2.958,1.686
				c0.251,0.52,0.34,0.896,0.34,1.578l-0.609,0.734H202.641z M206.801,130.906c-0.108-1.111-0.896-1.828-2.008-1.828
				c-1.076,0-1.882,0.699-2.133,1.828H206.801z"/>
			<path fill="#FFFFFF" d="M221.915,123.502v10.004c0,0.699,0,0.646,0.018,0.807c0.054,0.664,0.269,0.879,0.878,0.879h0.215
				l-0.215,1.004c-0.287,0.055-0.305,0.055-0.699,0.055c-0.771,0-1.255-0.322-1.47-0.986c-0.843,0.771-1.47,1.004-2.618,1.004
				c-1.972,0-3.424-1.721-3.424-4.053c0-2.275,1.721-4.195,3.765-4.195c0.896,0,1.255,0.09,2.08,0.574v-5.092H221.915z
				 M220.445,129.992c-0.646-0.627-1.201-0.859-1.954-0.824c-1.381,0.072-2.295,1.291-2.295,3.047c0,1.615,1.004,2.834,2.349,2.834
				c0.807,0,1.183-0.145,1.9-0.754V129.992z"/>
			<path fill="#FFFFFF" d="M226.29,131.91c0,0.699,0.072,1.113,0.305,1.615c0.395,0.859,1.273,1.434,2.206,1.434
				c0.932,0,1.667-0.287,2.259-0.879l0.753,0.789c-0.896,0.969-1.882,1.398-3.227,1.398c-2.313,0-3.801-1.668-3.801-4.285
				c0-1.166,0.484-2.33,1.255-3.047c0.681-0.629,1.631-1.023,2.474-1.023c1.435,0,2.385,0.539,2.958,1.686
				c0.251,0.52,0.34,0.896,0.34,1.578l-0.609,0.734H226.29z M230.449,130.906c-0.108-1.111-0.896-1.828-2.008-1.828
				c-1.076,0-1.882,0.699-2.133,1.828H230.449z"/>
			<path fill="#FFFFFF" d="M238.714,124.326c1.883-0.107,1.865-0.107,3.371-0.107c2.062,0,3.962,0.682,5.092,1.848
				c1.094,1.111,1.596,2.492,1.596,4.338c0,1.811-0.95,3.641-2.367,4.609c-0.538,0.375-1.201,0.645-2.026,0.824
				c-0.61,0.125-1.649,0.25-2.152,0.25l-0.986,0.018c-0.878,0-1.47-0.035-2.528-0.125V124.326z M240.274,134.672
				c0.807,0.125,0.932,0.125,1.954,0.125c3.138,0,4.841-1.613,4.841-4.59c0-1.666-1.022-3.334-2.456-4.033
				c-0.735-0.359-1.578-0.574-2.492-0.609c-0.323-0.018-0.646-0.037-1.004-0.037l-0.484,0.02c-0.018,0-0.197,0-0.358,0.018V134.672z
				"/>
			<path fill="#FFFFFF" d="M252.95,125.17c0,0.555-0.376,0.969-0.896,0.969c-0.502,0-0.896-0.414-0.896-0.969
				c0-0.557,0.395-0.969,0.896-0.969C252.574,124.201,252.95,124.613,252.95,125.17z M252.789,136.035h-1.47v-7.889h1.47V136.035z"
				/>
			<path fill="#FFFFFF" d="M255.675,128.809c1.094-0.592,1.936-0.842,2.869-0.842c0.914,0,1.703,0.305,2.152,0.861
				c0.34,0.393,0.484,1.057,0.484,2.078v2.6c0,0.699,0,0.646,0.018,0.807c0.053,0.664,0.268,0.879,0.879,0.879h0.215l-0.215,1.004
				c-0.287,0.055-0.305,0.055-0.699,0.055c-0.771,0-1.256-0.322-1.471-0.969c-0.914,0.736-1.524,0.986-2.403,0.986
				c-1.398,0-2.331-0.969-2.259-2.385c0.054-1.291,0.878-2.098,2.51-2.51c0.341-0.09,0.896-0.18,1.524-0.27l0.287-0.035l0.144-0.035
				v-0.342c0-0.592-0.072-0.859-0.305-1.111c-0.27-0.287-0.753-0.43-1.292-0.395c-0.735,0.055-1.291,0.252-2.438,0.896V128.809z
				 M259.709,131.93c-2.098,0.305-2.923,0.824-2.995,1.9c-0.054,0.789,0.448,1.309,1.291,1.309c0.646,0,1.076-0.18,1.704-0.664
				V131.93z"/>
			<path fill="#FFFFFF" d="M271.292,129.133l-1.828-0.072c0.537,0.574,0.77,1.111,0.77,1.775c0,1.021-0.305,1.738-0.967,2.312
				c-0.557,0.465-1.346,0.734-2.135,0.734c-0.377,0-0.627-0.018-1.146-0.125c-0.305,0.18-0.432,0.305-0.467,0.52
				c-0.072,0.342,0.162,0.502,1.041,0.699l2.365,0.539c1.256,0.285,2.008,1.219,1.955,2.365c-0.09,1.703-1.703,2.924-3.855,2.924
				c-2.223,0-3.676-1.041-3.676-2.619c0-0.986,0.646-1.721,1.973-2.258c-0.771-0.287-0.986-0.557-0.986-1.184
				c0-0.557,0.215-0.844,0.986-1.291c-1.094-0.574-1.523-1.346-1.523-2.672c0-1.613,1.273-2.832,3.029-2.922
				c0.609-0.037,0.986,0.035,1.668,0.287h2.797V129.133z M266.145,136.232c-0.932,0.447-1.416,1.021-1.416,1.666
				c0,1.041,1.021,1.793,2.439,1.793c1.398,0,2.33-0.662,2.33-1.648c0-0.557-0.27-0.932-0.842-1.201
				c-0.217-0.09-0.557-0.18-1.113-0.305L266.145,136.232z M265.268,130.531c-0.109,1.309,0.662,2.33,1.773,2.33
				c1.059,0,1.686-0.646,1.74-1.775c0.053-1.309-0.699-2.277-1.793-2.277C266.002,128.809,265.356,129.438,265.268,130.531z"/>
			<path fill="#FFFFFF" d="M274.196,127.912c0.43,0.287,0.627,0.699,0.682,1.418c0.662-0.916,1.578-1.418,2.6-1.418
				c1.703,0,2.797,1.094,2.797,2.816v5.307h-1.471v-4.717c0-0.859-0.107-1.309-0.377-1.648c-0.305-0.377-0.717-0.537-1.309-0.537
				s-1.236,0.305-1.756,0.807c-0.109,0.107-0.217,0.232-0.395,0.447v5.648h-1.471v-4.717c0-1.988-0.09-2.455-0.539-2.885
				L274.196,127.912z"/>
			<path fill="#FFFFFF" d="M290.905,131.857c0.127,2.475-1.576,4.41-3.891,4.41c-2.527,0-4.195-1.648-4.195-4.16
				c0-2.385,1.74-4.195,4.035-4.195C289.131,127.912,290.78,129.508,290.905,131.857z M284.362,131.803
				c0,1.938,1.111,3.299,2.689,3.299c1.344,0,2.33-1.146,2.33-2.707c0-1.936-1.094-3.262-2.672-3.262
				C285.366,129.133,284.362,130.279,284.362,131.803z"/>
			<path fill="#FFFFFF" d="M297.36,129.795c-0.879-0.574-1.219-0.717-1.83-0.682c-0.627,0.037-1.092,0.449-1.092,0.969
				c0,0.342,0.16,0.592,0.502,0.789c0.197,0.125,0.395,0.232,0.627,0.322l0.395,0.162l0.377,0.18l0.395,0.16
				c0.984,0.432,1.469,1.148,1.469,2.17c0,1.326-1.219,2.402-2.742,2.402c-1.131,0-2.027-0.377-2.797-1.201l0.752-0.986
				c0.682,0.682,1.363,1.021,2.027,1.021c0.824,0,1.379-0.43,1.379-1.074c0-0.557-0.232-0.789-1.111-1.148
				c-0.77-0.322-1.381-0.609-1.703-0.824c-0.609-0.395-0.932-1.111-0.879-1.9c0.09-1.256,1.094-2.188,2.439-2.242
				c0.789-0.035,1.596,0.234,2.348,0.789L297.36,129.795z"/>
			<path fill="#FFFFFF" d="M304.961,129.258h-2.15v4.16c0,1.254,0.232,1.559,1.201,1.559c0.357,0,0.734-0.09,1.326-0.322
				l0.215,0.986c-0.717,0.395-1.434,0.555-2.277,0.52c-0.752-0.035-1.398-0.395-1.703-0.951c-0.16-0.305-0.232-0.752-0.232-1.361
				v-0.664v-3.926h-1.668v-0.914l0.484-0.037c1.346-0.09,1.561-0.322,1.793-1.918l0.072-0.484h0.914l-0.125,2.242h2.15V129.258z"/>
			<path fill="#FFFFFF" d="M309.139,125.17c0,0.555-0.377,0.969-0.896,0.969c-0.502,0-0.896-0.414-0.896-0.969
				c0-0.557,0.395-0.969,0.896-0.969C308.762,124.201,309.139,124.613,309.139,125.17z M308.977,136.035h-1.471v-7.889h1.471
				V136.035z"/>
			<path fill="#FFFFFF" d="M317.35,129.812c-0.734-0.465-1.201-0.627-1.793-0.627c-1.416,0-2.438,1.148-2.438,2.744
				c0,1.773,1.057,3.029,2.545,3.029c0.754,0,1.166-0.125,1.973-0.574l0.537,0.969c-0.842,0.645-1.668,0.914-2.742,0.914
				c-2.35,0-3.998-1.828-3.873-4.303c0.107-2.295,1.828-4.053,3.943-4.053c1.023,0,1.775,0.234,2.582,0.826L317.35,129.812z"/>
			<path fill="#FFFFFF" d="M325.848,131.91c0,0.699,0.072,1.113,0.305,1.615c0.395,0.859,1.273,1.434,2.205,1.434
				s1.668-0.287,2.26-0.879l0.752,0.789c-0.896,0.969-1.883,1.398-3.227,1.398c-2.312,0-3.801-1.668-3.801-4.285
				c0-1.166,0.484-2.33,1.254-3.047c0.682-0.629,1.633-1.023,2.475-1.023c1.436,0,2.385,0.539,2.959,1.686
				c0.25,0.52,0.34,0.896,0.34,1.578l-0.609,0.734H325.848z M330.008,130.906c-0.107-1.111-0.896-1.828-2.008-1.828
				c-1.076,0-1.883,0.699-2.135,1.828H330.008z"/>
			<path fill="#FFFFFF" d="M338.112,129.258h-2.15v4.16c0,1.254,0.232,1.559,1.201,1.559c0.357,0,0.734-0.09,1.326-0.322
				l0.215,0.986c-0.717,0.395-1.434,0.555-2.277,0.52c-0.752-0.035-1.398-0.395-1.703-0.951c-0.16-0.305-0.232-0.752-0.232-1.361
				v-0.664v-3.926h-1.668v-0.914l0.484-0.037c1.346-0.09,1.561-0.322,1.793-1.918l0.072-0.484h0.914l-0.125,2.242h2.15V129.258z"/>
			<path fill="#FFFFFF" d="M351.971,123.502v10.004c0,0.699,0,0.646,0.018,0.807c0.055,0.664,0.27,0.879,0.879,0.879h0.215
				l-0.215,1.004c-0.287,0.055-0.305,0.055-0.699,0.055c-0.771,0-1.256-0.322-1.471-0.986c-0.842,0.771-1.469,1.004-2.617,1.004
				c-1.973,0-3.424-1.721-3.424-4.053c0-2.275,1.721-4.195,3.764-4.195c0.896,0,1.256,0.09,2.08,0.574v-5.092H351.971z
				 M350.5,129.992c-0.645-0.627-1.201-0.859-1.953-0.824c-1.381,0.072-2.295,1.291-2.295,3.047c0,1.615,1.004,2.834,2.348,2.834
				c0.807,0,1.184-0.145,1.9-0.754V129.992z"/>
			<path fill="#FFFFFF" d="M357.725,124.094c-0.232,1.613-0.77,3.012-1.828,4.607l-1.148-0.197c0.951-1.738,1.488-3.227,1.633-4.572
				L357.725,124.094z"/>
			<path fill="#FFFFFF" d="M361.903,136.035h-1.561v-11.762h1.561V136.035z"/>
			<path fill="#FFFFFF" d="M365.651,127.912c0.412,0.27,0.627,0.699,0.682,1.381c0.555-0.879,1.469-1.381,2.492-1.381
				c1.184,0,1.971,0.502,2.365,1.506c0.377-0.465,0.592-0.68,0.861-0.877c0.52-0.395,1.219-0.629,1.828-0.629
				c1.793,0,2.727,0.934,2.727,2.744v5.379h-1.471v-4.842c0-0.949-0.035-1.201-0.27-1.523c-0.25-0.395-0.699-0.592-1.326-0.557
				c-0.824,0.037-1.381,0.414-2.025,1.328v5.594h-1.471v-4.824c0-0.896-0.072-1.271-0.342-1.596
				c-0.285-0.357-0.734-0.537-1.289-0.502c-0.826,0.055-1.471,0.484-1.99,1.328v5.594h-1.471v-4.717c0-1.988-0.09-2.455-0.539-2.885
				L365.651,127.912z"/>
			<path fill="#FFFFFF" d="M379.438,128.809c1.094-0.592,1.936-0.842,2.869-0.842c0.914,0,1.703,0.305,2.15,0.861
				c0.342,0.393,0.484,1.057,0.484,2.078v2.6c0,0.699,0,0.646,0.018,0.807c0.055,0.664,0.27,0.879,0.879,0.879h0.215l-0.215,1.004
				c-0.287,0.055-0.305,0.055-0.699,0.055c-0.771,0-1.256-0.322-1.471-0.969c-0.914,0.736-1.523,0.986-2.402,0.986
				c-1.398,0-2.33-0.969-2.258-2.385c0.053-1.291,0.877-2.098,2.51-2.51c0.34-0.09,0.896-0.18,1.523-0.27l0.287-0.035l0.143-0.035
				v-0.342c0-0.592-0.07-0.859-0.305-1.111c-0.268-0.287-0.752-0.43-1.291-0.395c-0.734,0.055-1.291,0.252-2.438,0.896V128.809z
				 M383.471,131.93c-2.098,0.305-2.922,0.824-2.994,1.9c-0.053,0.789,0.449,1.309,1.291,1.309c0.646,0,1.076-0.18,1.703-0.664
				V131.93z"/>
			<path fill="#FFFFFF" d="M395.053,129.133l-1.828-0.072c0.539,0.574,0.771,1.111,0.771,1.775c0,1.021-0.305,1.738-0.969,2.312
				c-0.555,0.465-1.344,0.734-2.133,0.734c-0.377,0-0.629-0.018-1.148-0.125c-0.305,0.18-0.43,0.305-0.465,0.52
				c-0.072,0.342,0.16,0.502,1.039,0.699l2.367,0.539c1.254,0.285,2.008,1.219,1.953,2.365c-0.09,1.703-1.703,2.924-3.854,2.924
				c-2.225,0-3.676-1.041-3.676-2.619c0-0.986,0.645-1.721,1.973-2.258c-0.771-0.287-0.986-0.557-0.986-1.184
				c0-0.557,0.215-0.844,0.986-1.291c-1.094-0.574-1.525-1.346-1.525-2.672c0-1.613,1.273-2.832,3.031-2.922
				c0.609-0.037,0.986,0.035,1.666,0.287h2.797V129.133z M389.909,136.232c-0.932,0.447-1.416,1.021-1.416,1.666
				c0,1.041,1.021,1.793,2.438,1.793c1.398,0,2.33-0.662,2.33-1.648c0-0.557-0.268-0.932-0.842-1.201
				c-0.215-0.09-0.557-0.18-1.111-0.305L389.909,136.232z M389.03,130.531c-0.107,1.309,0.664,2.33,1.775,2.33
				c1.057,0,1.686-0.646,1.738-1.775c0.055-1.309-0.699-2.277-1.793-2.277C389.764,128.809,389.12,129.438,389.03,130.531z"/>
			<path fill="#FFFFFF" d="M398.317,131.91c0,0.699,0.072,1.113,0.305,1.615c0.395,0.859,1.273,1.434,2.205,1.434
				s1.668-0.287,2.26-0.879l0.752,0.789c-0.896,0.969-1.883,1.398-3.227,1.398c-2.312,0-3.801-1.668-3.801-4.285
				c0-1.166,0.484-2.33,1.254-3.047c0.682-0.629,1.633-1.023,2.475-1.023c1.436,0,2.385,0.539,2.959,1.686
				c0.25,0.52,0.34,0.896,0.34,1.578l-0.609,0.734H398.317z M402.477,130.906c-0.107-1.111-0.896-1.828-2.008-1.828
				c-1.076,0-1.883,0.699-2.135,1.828H402.477z"/>
			<path fill="#FFFFFF" d="M407.03,127.912c0.484,0.324,0.646,0.771,0.699,1.883c0.719-1.291,1.418-1.883,2.188-1.883
				c0.395,0,0.646,0.072,1.256,0.305l-0.359,1.238c-0.592-0.18-0.842-0.234-1.111-0.197c-0.537,0.072-1.129,0.502-1.596,1.184
				c-0.072,0.107-0.107,0.143-0.305,0.447v5.146h-1.471v-4.717c0-1.988-0.09-2.455-0.537-2.885L407.03,127.912z"/>
			<path fill="#FFFFFF" d="M414.938,125.17c0,0.555-0.377,0.969-0.896,0.969c-0.502,0-0.896-0.414-0.896-0.969
				c0-0.557,0.395-0.969,0.896-0.969C414.561,124.201,414.938,124.613,414.938,125.17z M414.776,136.035h-1.471v-7.889h1.471
				V136.035z"/>
			<path fill="#FFFFFF" d="M418.862,131.91c0,0.699,0.072,1.113,0.307,1.615c0.393,0.859,1.271,1.434,2.205,1.434
				c0.932,0,1.666-0.287,2.258-0.879l0.754,0.789c-0.896,0.969-1.883,1.398-3.229,1.398c-2.312,0-3.801-1.668-3.801-4.285
				c0-1.166,0.484-2.33,1.256-3.047c0.682-0.629,1.631-1.023,2.475-1.023c1.434,0,2.385,0.539,2.957,1.686
				c0.252,0.52,0.342,0.896,0.342,1.578l-0.609,0.734H418.862z M423.022,130.906c-0.107-1.111-0.896-1.828-2.008-1.828
				c-1.076,0-1.883,0.699-2.133,1.828H423.022z"/>
			<path fill="#FFFFFF" d="M444.395,136.035h-1.561l-0.896-8.66l-3.998,8.66h-0.949l-3.945-8.48l-0.951,8.48h-1.434l1.434-11.762
				h1.059l4.41,9.537l4.375-9.537h1.076L444.395,136.035z"/>
			<path fill="#FFFFFF" d="M447.909,131.91c0,0.699,0.072,1.113,0.305,1.615c0.395,0.859,1.273,1.434,2.205,1.434
				s1.668-0.287,2.26-0.879l0.752,0.789c-0.896,0.969-1.883,1.398-3.227,1.398c-2.312,0-3.801-1.668-3.801-4.285
				c0-1.166,0.484-2.33,1.254-3.047c0.682-0.629,1.633-1.023,2.475-1.023c1.436,0,2.385,0.539,2.959,1.686
				c0.25,0.52,0.34,0.896,0.34,1.578l-0.609,0.734H447.909z M452.069,130.906c-0.107-1.111-0.896-1.828-2.008-1.828
				c-1.076,0-1.883,0.699-2.135,1.828H452.069z M452.481,124.291l-3.031,2.205l-0.896-0.357l2.529-2.26L452.481,124.291z"/>
			<path fill="#FFFFFF" d="M462.772,123.502v10.004c0,0.699,0,0.646,0.018,0.807c0.055,0.664,0.27,0.879,0.879,0.879h0.215
				l-0.215,1.004c-0.287,0.055-0.305,0.055-0.699,0.055c-0.771,0-1.256-0.322-1.471-0.986c-0.842,0.771-1.469,1.004-2.617,1.004
				c-1.973,0-3.424-1.721-3.424-4.053c0-2.275,1.721-4.195,3.764-4.195c0.896,0,1.256,0.09,2.08,0.574v-5.092H462.772z
				 M461.301,129.992c-0.645-0.627-1.201-0.859-1.953-0.824c-1.381,0.072-2.295,1.291-2.295,3.047c0,1.615,1.004,2.834,2.348,2.834
				c0.807,0,1.184-0.145,1.9-0.754V129.992z"/>
			<path fill="#FFFFFF" d="M467.667,125.17c0,0.555-0.377,0.969-0.896,0.969c-0.502,0-0.896-0.414-0.896-0.969
				c0-0.557,0.395-0.969,0.896-0.969C467.29,124.201,467.667,124.613,467.667,125.17z M467.504,136.035h-1.471v-7.889h1.471V136.035
				z"/>
			<path fill="#FFFFFF" d="M475.877,129.812c-0.734-0.465-1.201-0.627-1.793-0.627c-1.416,0-2.438,1.148-2.438,2.744
				c0,1.773,1.057,3.029,2.545,3.029c0.754,0,1.166-0.125,1.973-0.574l0.537,0.969c-0.842,0.645-1.668,0.914-2.742,0.914
				c-2.35,0-3.998-1.828-3.873-4.303c0.107-2.295,1.828-4.053,3.943-4.053c1.023,0,1.775,0.234,2.582,0.826L475.877,129.812z"/>
			<path fill="#FFFFFF" d="M478.764,128.809c1.094-0.592,1.936-0.842,2.869-0.842c0.914,0,1.703,0.305,2.15,0.861
				c0.342,0.393,0.484,1.057,0.484,2.078v2.6c0,0.699,0,0.646,0.018,0.807c0.055,0.664,0.27,0.879,0.879,0.879h0.215l-0.215,1.004
				c-0.287,0.055-0.305,0.055-0.699,0.055c-0.771,0-1.256-0.322-1.471-0.969c-0.914,0.736-1.523,0.986-2.402,0.986
				c-1.398,0-2.33-0.969-2.258-2.385c0.053-1.291,0.877-2.098,2.51-2.51c0.34-0.09,0.896-0.18,1.523-0.27l0.287-0.035l0.143-0.035
				v-0.342c0-0.592-0.07-0.859-0.305-1.111c-0.268-0.287-0.752-0.43-1.291-0.395c-0.734,0.055-1.291,0.252-2.438,0.896V128.809z
				 M482.797,131.93c-2.098,0.305-2.922,0.824-2.994,1.9c-0.053,0.789,0.449,1.309,1.291,1.309c0.646,0,1.076-0.18,1.703-0.664
				V131.93z"/>
			<path fill="#FFFFFF" d="M488.983,123.502v12.533h-1.471v-12.533H488.983z"/>
			<path fill="#FFFFFF" d="M493.071,131.91c0,0.699,0.072,1.113,0.305,1.615c0.395,0.859,1.273,1.434,2.205,1.434
				s1.668-0.287,2.26-0.879l0.752,0.789c-0.896,0.969-1.883,1.398-3.227,1.398c-2.312,0-3.801-1.668-3.801-4.285
				c0-1.166,0.484-2.33,1.254-3.047c0.682-0.629,1.633-1.023,2.475-1.023c1.436,0,2.385,0.539,2.959,1.686
				c0.25,0.52,0.34,0.896,0.34,1.578l-0.609,0.734H493.071z M497.231,130.906c-0.107-1.111-0.896-1.828-2.008-1.828
				c-1.076,0-1.883,0.699-2.135,1.828H497.231z"/>
		</g>
	</g>
	<g>
		<path fill="#FFFFFF" d="M108.551,64.865c-12.834,0-23.266,10.406-23.266,23.262c0,12.847,10.432,23.251,23.266,23.251
			c12.85,0,23.267-10.404,23.267-23.251C131.818,75.271,121.401,64.865,108.551,64.865z"/>
		<path fill="#FFFFFF" d="M62.583,88.281c0-28.022,10.341-53.586,27.314-73.271v-0.503L14.099,88.253l75.798,73.74v-0.471
			C72.917,141.864,62.583,116.305,62.583,88.281z"/>
	</g>
</g>
</svg>
