<?xml version="1.0" standalone="no"?>
<!DOCTYPE svg PUBLIC "-//W3C//DTD SVG 20010904//EN"
 "http://www.w3.org/TR/2001/REC-SVG-20010904/DTD/svg10.dtd">
<svg version="1.0" xmlns="http://www.w3.org/2000/svg"
 width="500.000000pt" height="500.000000pt" viewBox="0 0 500.000000 500.000000"
 preserveAspectRatio="xMidYMid meet">
<metadata>
Created by potrace 1.16, written by Peter Selinger 2001-2019
</metadata>
<g transform="translate(0.000000,500.000000) scale(0.100000,-0.100000)"
fill="#000000" stroke="none">
<path d="M2253 4010 c-340 -53 -645 -216 -894 -478 -117 -123 -182 -216 -258
-369 -101 -202 -144 -359 -163 -597 l-11 -141 38 -184 c20 -102 50 -223 67
-270 36 -104 108 -244 183 -356 61 -93 216 -268 291 -331 125 -103 310 -207
469 -263 572 -202 1191 -66 1616 354 230 228 379 505 451 835 19 88 22 133 22
285 -1 266 -38 422 -159 670 -208 428 -616 738 -1100 835 -151 31 -396 35
-552 10z m372 -240 c359 -33 715 -236 938 -533 237 -316 309 -736 191 -1124
-48 -161 -174 -379 -304 -527 -27 -30 -50 -58 -51 -63 -2 -4 -14 -15 -25 -23
-12 -8 -57 -40 -100 -71 -159 -114 -366 -200 -566 -235 -143 -25 -381 -15
-513 21 -184 49 -341 124 -472 222 -395 297 -577 744 -507 1245 51 365 306
733 639 920 158 88 356 152 520 168 115 10 138 10 250 0z"/>
<path d="M2255 3247 c-131 -106 -240 -197 -242 -203 -5 -14 210 -194 230 -194
17 0 471 377 475 394 2 10 -173 165 -214 189 -6 3 -118 -81 -249 -186z"/>
<path d="M1658 2937 c-65 -53 -113 -100 -113 -110 0 -10 37 -46 87 -85 47 -37
166 -132 263 -211 157 -128 177 -141 182 -122 8 30 27 21 33 -17 3 -20 19 -41
46 -64 23 -18 66 -54 95 -79 83 -72 249 -199 259 -199 5 0 60 42 122 93 62 52
129 105 149 118 20 13 133 103 250 199 118 96 267 217 332 269 64 52 117 101
117 107 0 7 -15 23 -32 36 -18 12 -66 51 -106 86 -40 35 -79 62 -85 59 -12 -5
-46 -31 -422 -337 -303 -247 -319 -260 -332 -260 -7 0 -30 15 -50 33 -116 101
-206 168 -219 163 -9 -4 -12 -2 -8 5 7 12 -53 79 -70 79 -6 0 7 -16 29 -35 22
-19 35 -34 29 -35 -6 0 -17 7 -24 15 -17 21 -30 19 -30 -6 0 -11 -18 -36 -40
-56 -42 -38 -53 -79 -25 -89 21 -8 19 -21 -4 -27 -19 -4 -19 2 -19 148 0 85
-3 162 -6 173 -4 10 -48 52 -98 93 -51 41 -112 91 -136 112 -24 20 -47 37 -52
37 -5 0 -60 -42 -122 -93z"/>
</g>
</svg>
