<?xml version="1.0" standalone="no"?>
<!DOCTYPE svg PUBLIC "-//W3C//DTD SVG 20010904//EN"
 "http://www.w3.org/TR/2001/REC-SVG-20010904/DTD/svg10.dtd">
<svg version="1.0" xmlns="http://www.w3.org/2000/svg"
 width="211.000000pt" height="74.000000pt" viewBox="0 0 211.000000 74.000000"
 preserveAspectRatio="xMidYMid meet">
<metadata>
Created by potrace 1.16, written by Peter Selinger 2001-2019
</metadata>
<g transform="translate(0.000000,74.000000) scale(0.100000,-0.100000)"
fill="#000000" stroke="none">
<path d="M1448 653 c17 -7 17 -189 0 -196 -7 -3 13 -6 45 -6 91 -1 136 33 137
102 0 75 -42 108 -137 106 -32 0 -52 -3 -45 -6z m132 -23 c15 -15 20 -33 20
-75 0 -67 -22 -95 -75 -95 l-35 0 0 95 0 95 35 0 c22 0 43 -8 55 -20z"/>
<path d="M299 581 c-50 -40 -17 -131 48 -131 32 0 73 42 73 75 0 33 -41 75
-73 75 -14 0 -35 -8 -48 -19z"/>
<path d="M80 410 c0 -7 187 -10 540 -10 353 0 540 3 540 10 0 7 -187 10 -540
10 -353 0 -540 -3 -540 -10z"/>
</g>
</svg>
