<svg width="71" height="30" viewBox="0 0 71 30" fill="none" xmlns="http://www.w3.org/2000/svg">
<path d="M8.4039 28.3962C7.59391 28.8355 6.5856 29.0555 5.37899 29.0555C3.82088 29.0555 2.57318 28.54 1.6364 27.509C0.699607 26.4781 0.230957 25.1255 0.230957 23.4509C0.230957 21.6511 0.757935 20.1964 1.81189 19.0867C2.86634 17.9775 4.2028 17.423 5.82227 17.423C6.86101 17.423 7.72121 17.5773 8.4039 17.8858V19.291C7.61978 18.8412 6.75399 18.616 5.80655 18.616C4.54922 18.616 3.52925 19.0476 2.74766 19.9113C1.96607 20.7744 1.57553 21.9284 1.57553 23.3727C1.57553 24.7435 1.94071 25.8359 2.67158 26.6496C3.40194 27.4632 4.36054 27.8703 5.54687 27.8703C6.64697 27.8703 7.59898 27.619 8.4039 27.1166V28.3962Z" fill="#0050C8"/>
<path d="M19.7373 28.8668H18.2096L16.3766 25.7114C16.2087 25.4184 16.0454 25.1688 15.8876 24.9618C15.7299 24.7554 15.5681 24.5866 15.4028 24.4557C15.2374 24.3249 15.0589 24.2295 14.8682 24.1691C14.677 24.1091 14.4619 24.0789 14.2225 24.0789H13.1686V28.8668H11.8854V17.6111H15.1548C15.633 17.6111 16.0748 17.6726 16.4795 17.7956C16.8843 17.9186 17.2358 18.1057 17.5335 18.357C17.8317 18.6082 18.0645 18.9209 18.2324 19.2946C18.4008 19.6689 18.4845 20.1072 18.4845 20.6097C18.4845 21.0022 18.4272 21.3618 18.3131 21.6891C18.1984 22.0159 18.0351 22.3078 17.8241 22.5642C17.6126 22.8207 17.358 23.0391 17.0603 23.2194C16.7621 23.3998 16.4273 23.54 16.056 23.6395V23.6708C16.2391 23.7547 16.3984 23.8501 16.5333 23.9575C16.6682 24.0643 16.7965 24.1915 16.9188 24.3379C17.041 24.4844 17.1622 24.6507 17.2819 24.8362C17.4011 25.0223 17.535 25.2381 17.6826 25.4841L19.7373 28.8668ZM13.1686 18.8042V22.8858H14.9103C15.2308 22.8858 15.5275 22.8363 15.7999 22.7368C16.0723 22.6372 16.3076 22.4949 16.5064 22.3088C16.7052 22.1233 16.8604 21.8955 16.9725 21.6261C17.0841 21.3566 17.1404 21.0543 17.1404 20.7197C17.1404 20.1176 16.9507 19.648 16.5713 19.3108C16.192 18.9731 15.6432 18.8042 14.9255 18.8042H13.1686Z" fill="#0050C8"/>
<path d="M33.6602 28.8668H32.3846V21.3159C32.3846 20.7197 32.4201 19.9894 32.4916 19.1263H32.4607C32.3384 19.634 32.2294 19.9972 32.1325 20.2172L28.3899 28.8668H27.7635L24.0286 20.2797C23.9215 20.029 23.812 19.6444 23.6999 19.1263H23.6695C23.71 19.5761 23.7308 20.3115 23.7308 21.3316V28.8668H22.4933V17.6111H24.1888L27.5495 25.4601C27.8092 26.0621 27.9776 26.5119 28.0537 26.8106H28.0993C28.3184 26.193 28.4944 25.7327 28.6268 25.4289L32.0559 17.6111H33.6602V28.8668Z" fill="#0050C8"/>
<path d="M49.1322 28.8668H43.3274V17.6111H48.8878V18.8042H44.6106V22.5486H48.5667V23.7333H44.6106V27.6737H49.1322V28.8668Z" fill="#0050C8"/>
<path d="M60.3432 28.8668H58.8155L56.9825 25.7114C56.8147 25.4184 56.6519 25.1688 56.4936 24.9618C56.3359 24.7554 56.1741 24.5866 56.0087 24.4557C55.8434 24.3249 55.6654 24.2295 55.4741 24.1691C55.2834 24.1091 55.0679 24.0789 54.829 24.0789H53.7745V28.8668H52.4913V17.6111H55.7607C56.239 17.6111 56.6808 17.6726 57.086 17.7956C57.4908 17.9186 57.8417 18.1057 58.14 18.357C58.4377 18.6082 58.6705 18.9209 58.8389 19.2946C59.0068 19.6689 59.091 20.1072 59.091 20.6097C59.091 21.0022 59.0336 21.3618 58.919 21.6891C58.8044 22.0159 58.6416 22.3078 58.4301 22.5642C58.2186 22.8207 57.964 23.0391 57.6662 23.2194C57.3685 23.3998 57.0338 23.54 56.662 23.6395V23.6708C56.8451 23.7547 57.0044 23.8501 57.1393 23.9575C57.2742 24.0643 57.403 24.1915 57.5247 24.3379C57.647 24.4844 57.7682 24.6507 57.8879 24.8362C58.0076 25.0223 58.141 25.2381 58.2886 25.4841L60.3432 28.8668ZM53.7745 18.8042V22.8858H55.5162C55.8368 22.8858 56.1335 22.8363 56.4059 22.7368C56.6782 22.6372 56.9141 22.4949 57.1124 22.3088C57.3112 22.1233 57.4664 21.8955 57.5785 21.6261C57.6906 21.3566 57.7464 21.0543 57.7464 20.7197C57.7464 20.1176 57.5567 19.648 57.1773 19.3108C56.7979 18.9731 56.2496 18.8042 55.5315 18.8042H53.7745Z" fill="#0050C8"/>
<path d="M64.3826 24.6126V28.8668H63.0994V17.6111H66.1091C67.2802 17.6111 68.1875 17.904 68.8317 18.4904C69.4758 19.0763 69.7979 19.9034 69.7979 20.9709C69.7979 22.0383 69.4403 22.9119 68.7247 23.5921C68.0095 24.2728 67.0433 24.6126 65.826 24.6126H64.3826ZM64.3826 18.8042V23.4196H65.7271C66.6132 23.4196 67.2888 23.2116 67.7549 22.7957C68.2205 22.3797 68.4538 21.7923 68.4538 21.0334C68.4538 19.5474 67.5982 18.8042 65.8874 18.8042H64.3826Z" fill="#0050C8"/>
<path d="M2.51337 13.7374H0.0727539V3.704H2.51337V13.7374ZM2.51337 2.10699H0.0727539V0.0559998H2.51337V2.10699Z" fill="#0A143C"/>
<path d="M10.0321 11.4587C12.7851 11.4587 14.1606 9.85436 14.1606 6.52535C14.1606 3.69045 12.7851 2.33476 10.0321 2.33476H7.3982V11.4587H10.0321ZM4.95605 13.7374V0.055481H10.0321C14.4239 0.055481 16.621 2.23052 16.621 6.52535C16.621 11.3174 14.4239 13.7374 10.0321 13.7374H4.95605Z" fill="#0A143C"/>
<path d="M18.4956 8.36212V0.055481H20.9393V8.36212C20.9393 10.5351 22.1023 11.6213 24.2675 11.6213C26.4327 11.6213 27.5977 10.5351 27.5977 8.36212V0.055481H30.0383V8.36212C30.0383 11.9966 28.072 13.8141 24.2675 13.8141C20.463 13.8141 18.4956 11.9966 18.4956 8.36212Z" fill="#0A143C"/>
<path d="M32.481 13.7374V0.0559998H38.5592C41.2701 0.0559998 42.6233 1.2892 42.6233 3.72276C42.6233 5.36877 41.5694 6.74895 39.4589 7.83048L43.6626 13.7374H40.5656L36.4782 7.78148V6.62594C38.9188 6.21366 40.028 5.29058 40.028 3.82805C40.028 2.82314 39.5026 2.33476 38.4014 2.33476H35.1447V13.7374H32.481Z" fill="#0A143C"/>
<path d="M45.9962 13.7374H43.4729L49.1063 0.0559998H51.7508L57.5034 13.7374H54.8594L53.3465 10.0889H48.9394L49.7834 7.80963H52.4553L50.3672 2.69961L45.9962 13.7374Z" fill="#0A143C"/>
<path d="M58.8967 13.7374V0.0559998H64.9714C67.6803 0.0559998 69.0325 1.2892 69.0325 3.72276C69.0325 5.36877 67.9786 6.74895 65.8691 7.83048L70.0728 13.7374H66.9733L62.8914 7.78148V6.62594C65.334 6.21366 66.4407 5.29058 66.4407 3.82805C66.4407 2.82314 65.9133 2.33476 64.8111 2.33476H61.561V13.7374H58.8967Z" fill="#0A143C"/>
<path fill-rule="evenodd" clip-rule="evenodd" d="M41.2508 17.621H40.1127L36.1023 28.8663H37.2404L41.2508 17.621Z" fill="#0A143C"/>
</svg>
