<?xml version="1.0" encoding="UTF-8" standalone="no"?><!DOCTYPE svg PUBLIC "-//W3C//DTD SVG 1.1//EN" "http://www.w3.org/Graphics/SVG/1.1/DTD/svg11.dtd"><svg width="100%" height="100%" viewBox="0 0 279 128" version="1.1" xmlns="http://www.w3.org/2000/svg" xmlns:xlink="http://www.w3.org/1999/xlink" xml:space="preserve" xmlns:serif="http://www.serif.com/" style="fill-rule:evenodd;clip-rule:evenodd;stroke-linejoin:round;stroke-miterlimit:2;"><rect id="Artboard41" x="0" y="0" width="278.73" height="128" style="fill:none;"/><g><g transform="matrix(0.987338,0,0,1,-23.9335,0)"><text x="32.192px" y="116.093px" style="font-family:'LucidaGrande', 'Lucida Grande', sans-serif;font-weight:500;font-size:55.909px;fill:#0050c8;">C<tspan x="75.347px 115.172px 167.801px 189.963px 224.738px 264.563px " y="116.093px 116.093px 116.093px 116.093px 116.093px 116.093px ">RM ERP</tspan></text></g><g><path d="M19.696,63.248l-8.898,0l0,-35.594l8.898,0l-0,35.594Zm-0,-41.257l-8.898,-0l0,-7.277l8.898,0l-0,7.277Z" style="fill:#0a143c;fill-rule:nonzero;"/><path d="M47.106,55.166c10.037,-0 15.05,-5.692 15.05,-17.502c0,-10.056 -5.013,-14.865 -15.05,-14.865l-9.602,-0l-0,32.367l9.602,-0Zm-18.505,8.082l0,-48.535l18.505,-0c16.011,-0 24.022,7.715 24.022,22.951c-0,16.999 -8.011,25.584 -24.022,25.584l-18.505,0Z" style="fill:#0a143c;fill-rule:nonzero;"/><path d="M77.96,44.18l-0,-29.468l8.908,0l0,29.468c0,7.708 4.241,11.561 12.134,11.561c7.895,0 12.141,-3.853 12.141,-11.561l-0,-29.468l8.899,0l-0,29.468c-0,12.893 -7.169,19.342 -21.04,19.342c-13.869,-0 -21.042,-6.449 -21.042,-19.342" style="fill:#0a143c;fill-rule:nonzero;"/><path d="M128.947,63.249l-0,-48.536l22.157,0c9.883,0 14.817,4.376 14.817,13.008c0,5.839 -3.843,10.737 -11.536,14.572l15.324,20.956l-11.289,0l-14.903,-21.129l0,-4.098c8.898,-1.463 12.942,-4.738 12.942,-9.926c0,-3.565 -1.915,-5.298 -5.929,-5.298l-11.873,-0l-0,40.451l-9.71,0Z" style="fill:#0a143c;fill-rule:nonzero;"/><path d="M178.217,63.249l-9.198,0l20.537,-48.536l9.641,0l20.971,48.536l-9.639,0l-5.516,-12.943l-16.066,-0l3.076,-8.085l9.741,0l-7.612,-18.129l-15.935,39.157Z" style="fill:#0a143c;fill-rule:nonzero;"/><path d="M225.247,63.249l0,-48.536l22.145,0c9.876,0 14.806,4.376 14.806,13.008c0,5.839 -3.842,10.737 -11.532,14.572l15.324,20.956l-11.3,0l-14.88,-21.129l0,-4.098c8.904,-1.463 12.939,-4.738 12.939,-9.926c-0,-3.565 -1.924,-5.298 -5.941,-5.298l-11.849,-0l0,40.451l-9.712,0Z" style="fill:#0a143c;fill-rule:nonzero;"/></g><path d="M160.917,77.026l-4.149,-0l-14.62,39.893l4.149,0l14.62,-39.893Z" style="fill:#0a143c;"/></g></svg>