<svg width="35" height="32" viewBox="0 0 35 32" fill="none" xmlns="http://www.w3.org/2000/svg">
<path d="M0 32V4.15369C0 1.8695 1.82063 0 4.04624 0H30.9553C33.1799 0 35 1.8695 35 4.15369V31.7763C35 31.8453 34.998 31.9138 34.9949 31.9824L29.4067 26.3095C28.9521 25.8476 28.1937 25.6156 27.7235 25.7957C27.2508 25.9752 26.5298 25.71 26.1228 25.2076L19.5193 17.0668C19.1138 16.5634 18.4404 16.5618 18.0309 17.0616L12.5088 23.7943C12.0973 24.2952 11.3318 24.3969 10.8075 24.0237L9.47881 23.0708C8.95451 22.6935 8.19158 22.7994 7.78002 23.3028L7.01304 24.2423C6.60402 24.7436 6.01299 25.1562 5.70407 25.1547C5.39414 25.1536 4.79856 25.5611 4.38347 26.0588L0 32Z" fill="#0050C8"/>
<path d="M19.5431 18.8066C19.1341 18.3006 18.4687 18.3016 18.0607 18.8076L13.8259 24.0653C13.4179 24.5698 13.4887 24.6435 13.9851 24.2282L15.2759 23.1477C15.7699 22.7324 16.4565 22.4491 16.8013 22.5191C17.1431 22.5856 17.6289 22.4402 17.8802 22.1921C18.129 21.943 18.8004 21.9788 19.3722 22.271L20.9729 23.0937C21.5422 23.3885 21.9012 23.2421 21.7647 22.7719C21.6317 22.3017 21.6317 21.9051 21.7657 21.8916C21.9022 21.8781 21.6787 21.452 21.2717 20.9496L19.5431 18.8066Z" fill="white"/>
<path d="M25.6248 26.664C25.2421 26.1995 25.1081 26.1491 25.3306 26.5508C25.5546 26.9526 25.6274 28.5553 26.0662 28.6373C26.5046 28.7219 27.0572 28.9617 27.2928 29.1693C27.5294 29.3753 27.9121 29.4501 28.1503 29.3323C28.3849 29.216 29.08 29.2757 29.6903 29.4662L30.5321 29.7314C31.1439 29.9193 31.2693 29.7023 30.8122 29.244L29.3612 27.7887C28.9031 27.3283 28.1386 27.073 27.6598 27.2178C27.1816 27.3636 26.6851 27.4877 26.5556 27.4939C26.4287 27.5001 26.0081 27.127 25.6248 26.664Z" fill="white"/>
<path d="M9.83928 24.6647C9.3165 24.2838 8.55306 24.3819 8.13696 24.8822L7.6344 25.4837C7.22184 25.9825 6.57114 26.3899 6.19397 26.3889C5.8163 26.3889 5.16307 26.7917 4.74192 27.2842L3.99263 28.1598C3.56945 28.6523 3.68169 28.7909 4.23582 28.4681L4.42238 28.3601C4.97853 28.0394 5.62114 27.784 5.85068 27.7985C6.07819 27.812 6.65608 27.4633 7.1283 27.0252L7.19555 26.9624C7.6703 26.5228 8.20723 26.2846 8.38925 26.4268C8.57126 26.5742 8.90141 26.4943 9.12286 26.2514C9.34734 26.0105 9.99247 25.8413 10.5582 25.8766C11.1255 25.9098 11.1624 25.6285 10.6422 25.2491L9.83928 24.6647Z" fill="white"/>
</svg>

