<?xml version="1.0" encoding="utf-8"?>
<!-- Generator: Adobe Illustrator 24.1.3, SVG Export Plug-In . SVG Version: 6.00 Build 0)  -->
<svg version="1.1" id="Layer_1" xmlns="http://www.w3.org/2000/svg" xmlns:xlink="http://www.w3.org/1999/xlink" x="0px" y="0px"
	 viewBox="0 0 160 160" style="enable-background:new 0 0 160 160;" >
<style type="text/css">
	.st0{fill:url(#SVGID_1_);}
	.st1{fill:#FFFFFF;}
</style>
<linearGradient id="SVGID_1_" gradientUnits="adminSpaceOnUse" x1="452.9231" y1="-1656.2524" x2="453.4031" y2="-1656.2524" gradientTransform="matrix(0 -333.325 333.325 0 552150.375 151130.5938)">
	<stop  offset="0" style="stop-color:#911A1E"/>
	<stop  offset="1" style="stop-color:#D61E25"/>
</linearGradient>
<path class="st0" d="M0,160h160V0H0V160z"/>
<path class="st1" d="M125.8,49.6c-8.1-8.1-18.9-12.5-30.4-12.5S73.1,41.5,65,49.6l-0.9,0.9c-2.1-0.3-3.9-0.5-6-0.5
	c-9.6,0-18.9,3.8-25.8,10.8C18.1,75,18.1,98,32.4,112.3c6.9,6.9,16,10.7,25.8,10.7h38.2c11.3-0.2,21.8-4.7,29.7-12.5
	C142.6,93.6,142.6,66.2,125.8,49.6z M58.2,115.1c-7.7,0-14.8-3.3-20.1-8.8c-11.2-11.2-11.2-29.2,0-40.2c5.3-5.3,12.5-8.4,20.1-8.4
	h0.2c1.5,0,2.7,0.2,4.1,0.3c1.5,0.3,2.9,0.5,4.5,1c2.7,0.9,5.3,2.3,7.5,3.8c1,0.9,2.3,1.5,3.1,2.6l0.9,0.9l11.7,11.7
	c1.5,1.5,1.5,3.9,0,5.7c-0.9,0.9-1.7,1.2-2.7,1.2s-2.1-0.3-2.7-1.2L75.1,74L73,71.9c-0.3-0.3-0.7-0.5-0.9-0.9
	c-2.7-2.4-6-3.9-9.6-4.7c-1.2-0.3-2.6-0.3-3.8-0.3h-0.5c-5.3,0.2-10.1,2.3-13.9,6c-8.1,8.1-8.1,21,0,29c3.9,3.9,8.9,6,14.6,6h3.6
	l3.5,3.3c1.7,1.7,3.5,3.5,5.5,4.7L58.2,115.1L58.2,115.1z M120.3,104.7c-3.6,3.6-7.9,6.3-12.7,8.1c-1.5,0.5-2.9,0.9-4.5,1.4
	c-2.3,0.5-4.7,0.9-7.1,0.9h-0.7c-8.3,0-16-2.7-22.2-7.9c-0.9-0.7-1.7-1.5-2.6-2.3L54.1,88.4c-1.5-1.5-1.5-3.9,0-5.7
	c0.9-0.9,1.7-1.2,2.7-1.2c1,0,2.1,0.3,2.7,1.2L75.8,99c1.5,1.5,3.3,2.7,5,3.9c4.1,2.6,8.9,3.9,14.1,3.9c2.3,0,4.7-0.3,6.7-0.9
	c1.4-0.3,2.7-0.9,3.9-1.4c3.1-1.4,6-3.3,8.6-5.9c10.5-10.5,10.5-27.7,0-38.2c-5.3-5.3-12.2-7.9-19.1-7.9c-5.3,0-10.5,1.5-15.1,4.7
	c-2.3-1.7-4.7-3.3-7.4-4.5c6.5-5.3,14.6-8.1,22.5-8.1c8.9,0,17.9,3.5,24.7,10.1C133.8,68.8,133.8,91,120.3,104.7"/>
</svg>
