<?xml version="1.0" encoding="utf-8"?>
<!-- Generator: Adobe Illustrator 24.1.3, SVG Export Plug-In . SVG Version: 6.00 Build 0)  -->
<svg version="1.1" id="Layer_1" xmlns="http://www.w3.org/2000/svg" xmlns:xlink="http://www.w3.org/1999/xlink" x="0px" y="0px"
	 viewBox="0 0 160 78.3" style="enable-background:new 0 0 160 78.3;" >
<style type="text/css">
	.st0{fill-rule:evenodd;clip-rule:evenodd;fill:#2267AD;}
	.st1{fill-rule:evenodd;clip-rule:evenodd;fill:#CD2E29;}
</style>
<path class="st0" d="M59.9,19.3c4.6,1.8,9.2,3.7,13.7,5.9c-14.3,5.7-28.2,12.6-41.4,20.6c-4.5-2.3-9.1-4.6-13.7-6.6
	C31.8,31.4,45.6,24.8,59.9,19.3z M42.8,13.3C28,18,13.7,24.1,0,31.6c4.3,1.7,8.7,3.3,12.9,5.1C26.1,28.9,40,22.4,54.4,17.3
	C50.6,15.8,46.8,14.4,42.8,13.3z"/>
<path class="st1" d="M150.5,41.4c0.3,0.8,0.9,1,1.5,1c0.4,0,0.8,0,1-0.3c0.2-0.2,0.3-0.4,0.3-0.6c0-0.5-0.4-0.8-0.9-0.8l-0.9-0.3
	c-0.3-0.1-0.6-0.1-0.9-0.4s-0.4-0.6-0.4-1c0-1,0.9-1.4,1.8-1.4c0.8,0,1.5,0.4,1.8,1.3l-0.6,0.1c0-0.5-0.6-0.9-1.3-0.9
	c-0.4,0-1,0.3-1,0.8c0,0.6,0.4,0.8,0.9,0.9l0.8,0.1c0.4,0.1,0.8,0.3,1,0.4c0.3,0.4,0.4,0.6,0.4,1.2c0,0.4-0.1,0.9-0.5,1.2
	c-0.4,0.3-0.9,0.4-1.4,0.4c-1,0-1.7-0.5-2-1.5L150.5,41.4L150.5,41.4z M155.5,42.9H155v-5.1h0.9l1.7,4.1l1.4-4.1h1v5.1h-0.6v-4.5
	l-1.7,4.5h-0.5l-1.7-4.5L155.5,42.9L155.5,42.9z M91,18.7C79.3,13,67.1,8.3,54.7,4.5c-4.5,1.3-8.8,2.7-13,4.1
	C54.5,12.4,66.9,17.2,79,23C82.9,21.5,86.9,20.1,91,18.7L91,18.7z M110,13C98.1,7.8,85.8,3.5,73.1,0C69,0.8,65,1.7,61.1,2.7
	C73.6,6.4,85.9,11,97.6,16.6C101.7,15.3,105.9,14.1,110,13L110,13z M140.7,23.3c-30,10.1-58.1,24.5-83.6,42.6
	c6.4,4,12.5,8.1,18.5,12.5c24.2-19.2,50.9-35,79.4-46.9C150.3,28.5,145.6,25.8,140.7,23.3L140.7,23.3z M120,13.5
	C88.8,21.7,59.6,35,33.1,52.6c5.9,2.9,11.8,6,17.5,9.3C76.6,44.1,105.3,30,136,20.8C130.7,18.3,125.5,15.7,120,13.5L120,13.5z"/>
</svg>
