<?xml version="1.0" encoding="utf-8"?>
<!-- Generator: Adobe Illustrator 24.1.2, SVG Export Plug-In . SVG Version: 6.00 Build 0)  -->
<svg version="1.1" id="Layer_1" xmlns="http://www.w3.org/2000/svg" xmlns:xlink="http://www.w3.org/1999/xlink" x="0px" y="0px"
	 viewBox="0 0 160 156.5" style="enable-background:new 0 0 160 156.5;" >
<style type="text/css">
	.st0{fill-rule:evenodd;clip-rule:evenodd;fill:#0C3B7C;}
	.st1{fill:#FFFFFF;}
	.st2{fill:#00BAFC;}
</style>
<path class="st0" d="M160,30c0-16.6-13.5-30-30-30H30C13.5,0,0,13.5,0,30v96.4c0,16.6,13.5,30,30,30H130c16.6,0,30-13.5,30-30
	L160,30z"/>
<path class="st0" d="M0,97.2h79.9v59.3H0L0,97.2z"/>
<g>
	<path class="st1" d="M72.7,103.6l-12.9,0V88.2c0-3.3,1.3-5,4.1-5.4h8.8c6.3,0,10.3,4,10.3,10.4C83,99.7,79.1,103.6,72.7,103.6
		L72.7,103.6z M59.8,62V58c0-3.5,1.5-5.2,4.8-5.5h6.6c5.7,0,9,3.4,9,9c0,4.3-2.3,9.4-8.8,9.4H59.8V62z M89.2,77.4l-2.3-1.3l2-1.7
		c2.4-2,6.3-6.6,6.3-14.5c0-12.1-9.4-19.9-23.9-19.9H54.8v0h-1.9c-4.3,0.2-7.7,3.7-7.8,8v68.6h26.6c16.1,0,26.5-8.8,26.5-22.4
		C98.2,86.8,94.8,80.6,89.2,77.4"/>
	<path class="st2" d="M105.1,107.1c0-5.2,4.2-9.5,9.4-9.5c5.2,0,9.5,4.2,9.5,9.5c0,5.2-4.2,9.5-9.5,9.5
		C109.3,116.5,105.1,112.3,105.1,107.1"/>
</g>
</svg>
