<?xml version="1.0" encoding="utf-8"?>
<!-- Generator: Adobe Illustrator 24.1.2, SVG Export Plug-In . SVG Version: 6.00 Build 0)  -->
<svg version="1.1" id="Layer_1" xmlns="http://www.w3.org/2000/svg" xmlns:xlink="http://www.w3.org/1999/xlink" x="0px" y="0px"
	 viewBox="0 0 160 160.1" style="enable-background:new 0 0 160 160.1;" >
<style type="text/css">
	.st0{fill:#1F2E5C;}
	.st1{fill:#DE2179;}
	.st2{fill:#42BA9B;}
</style>
<g>
	<polygon class="st0" points="0.1,128.1 20.1,128.1 20.1,115.5 45.6,115.5 45.6,128.1 65.6,128.1 65.6,31.6 0.1,31.6 	"/>
	<path class="st0" d="M100.6,4.7L100.6,4.7c-3,0-5.5,2.5-5.5,5.5l0,0c0,3,2.5,5.5,5.5,5.5l0,0c3,0,5.5-2.5,5.5-5.5l0,0
		C106.1,7.2,103.6,4.7,100.6,4.7z"/>
	<path class="st0" d="M100.6,30L100.6,30c-3,0-5.5,2.5-5.5,5.5l0,0c0,3,2.5,5.5,5.5,5.5l0,0c3,0,5.5-2.5,5.5-5.5l0,0
		C106.1,32.4,103.6,30,100.6,30z"/>
	<path class="st0" d="M100.6,55.2L100.6,55.2c-3,0-5.5,2.5-5.5,5.5s2.5,5.5,5.5,5.5l0,0c3,0,5.5-2.5,5.5-5.5S103.6,55.2,100.6,55.2z
		"/>
	<path class="st0" d="M126.3,4.7L126.3,4.7c-3,0-5.5,2.5-5.5,5.5l0,0c0,3,2.5,5.5,5.5,5.5l0,0c3,0,5.5-2.5,5.5-5.5l0,0
		C131.8,7.2,129.4,4.7,126.3,4.7z"/>
	<path class="st0" d="M126.3,30L126.3,30c-3,0-5.5,2.5-5.5,5.5l0,0c0,3,2.5,5.5,5.5,5.5l0,0c3,0,5.5-2.5,5.5-5.5l0,0
		C131.8,32.4,129.4,30,126.3,30z"/>
	<path class="st0" d="M126.3,55.2L126.3,55.2c-3,0-5.5,2.5-5.5,5.5s2.5,5.5,5.5,5.5l0,0c3,0,5.5-2.5,5.5-5.5S129.4,55.2,126.3,55.2z
		"/>
	<path class="st0" d="M151.6,4.7L151.6,4.7c-3,0-5.5,2.5-5.5,5.5l0,0c0,3,2.5,5.5,5.5,5.5l0,0c3,0,5.5-2.5,5.5-5.5l0,0
		C157.2,7.2,154.7,4.7,151.6,4.7z"/>
	<path class="st0" d="M151.6,30L151.6,30c-3,0-5.5,2.5-5.5,5.5l0,0c0,3,2.5,5.5,5.5,5.5l0,0c3,0,5.5-2.5,5.5-5.5l0,0
		C157.2,32.4,154.7,30,151.6,30z"/>
	<path class="st0" d="M151.6,55.2L151.6,55.2c-3,0-5.5,2.5-5.5,5.5s2.5,5.5,5.5,5.5l0,0c3,0,5.5-2.5,5.5-5.5S154.7,55.2,151.6,55.2z
		"/>
</g>
<path class="st1" d="M33.6,94.5c-18.1-0.4-33.1,13.9-33.6,32s13.9,33.1,32,33.6s33.1-13.9,33.6-32C66,110,51.7,94.9,33.6,94.5z
	 M43.8,139H21.8v-21.9h21.9V139z"/>
<g>
	<ellipse class="st2" cx="32.8" cy="32.8" rx="32.8" ry="32.8"/>
	<path class="st2" d="M92.4,88.3v67.6H160V88.3H92.4z M146.3,137.3h-40.1v-8.4h40.1V137.3z M146.3,115.2h-40.1v-8.4h40.1V115.2z"/>
</g>
</svg>
