<?xml version="1.0" encoding="utf-8"?>
<!-- Generator: Adobe Illustrator 24.1.2, SVG Export Plug-In . SVG Version: 6.00 Build 0)  -->
<svg version="1.1" id="Layer_1" xmlns="http://www.w3.org/2000/svg" xmlns:xlink="http://www.w3.org/1999/xlink" x="0px" y="0px"
	 viewBox="0 0 200.4 66.5" style="enable-background:new 0 0 200.4 66.5;" >
<style type="text/css">
	.st0{fill:#7B878D;}
	.st1{fill:#E7EAF3;}
	.st2{fill:#BDC5D1;}
</style>
<g>
	<path class="st0" d="M137.8,33.4c-3.6-0.5-5-1.4-4.9-2.8c0.2-2.5,3.3-2.8,5.2-2.7c3.7,0.3,4.5,3.5,4.5,3.9l3.6-0.3
		c-0.2-2.3-2.1-6.8-7.5-7.2c-3-0.2-5.6,0.4-7.3,1.9c-1.3,1.1-2.4,2.8-2.6,4.5c-0.4,5.5,5,6.3,8.4,6.8c4.3,0.6,5.3,1.2,5.2,2.8
		c0,0.8-0.5,1.6-1.1,2.1c-0.9,0.7-2.7,1-4.5,0.8c-4.1-0.4-4.4-3-4.4-3.5l-3.6,0.1c0,2.2,1.5,6.5,7.6,7.2c3.3,0.4,6-0.6,7.4-1.6
		c1.6-1.2,2.5-3.2,2.6-5.1C146.7,34.6,141.2,33.9,137.8,33.4z"/>
	<path class="st0" d="M158.4,43.2c5.4,0,5-6.1,5-6.1V24.9h4.2V37c0,0,0,0.1,0,0.4c0,1.8-0.2,9.5-9.1,9.5h-0.3
		c-8.9,0-9.1-7.6-9.1-9.5c0-0.2,0-0.4,0-0.4V24.9h4.2V37C153.4,37,153,43.2,158.4,43.2"/>
	<path class="st0" d="M196,39.8c-1.2,2.1-3.6,3.3-6.2,3.3c-3.6,0-6.5-2.3-7-5.9h17.5c0-0.5,0-1.2,0-1.7c0-6.8-4.6-11.2-10.7-11.2
		c-6.1,0-11,4.3-11,11.2s4.9,11.3,11,11.3c3.8,0,7.4-1.6,9.4-4.8L196,39.8z M189.7,28.2c3.5,0,6,2.2,6.6,5.8h-13.4
		C183.4,30.3,186.1,28.2,189.7,28.2z"/>
	<path class="st0" d="M115.9,24.4c-3,0-6.1,1.4-7.5,3.8v-3.4h-4.2v32h4.2V43.2c1.4,2.5,4.5,3.7,7.5,3.7c5.9,0,10.8-4.3,10.8-11.2
		C126.7,28.9,121.8,24.4,115.9,24.4z M115.5,43c-3.5,0-7.2-2.5-7.2-7.1c0-4.6,3.6-7.6,7.4-7.6c3.9,0,7,2.9,7,7.2
		C122.6,39.9,119.3,43,115.5,43z"/>
	<rect x="171.3" y="13.1" class="st0" width="4.2" height="33.3"/>
	<path class="st0" d="M91.9,27.8c0.1,0,0.2,0,0.3,0C92.1,27.8,92,27.8,91.9,27.8L91.9,27.8z"/>
	<path class="st0" d="M91.9,24.2C91.9,24.2,91.9,24.2,91.9,24.2L91.9,24.2C91.9,24.2,91.9,24.2,91.9,24.2z"/>
	<path class="st0" d="M92.2,24.2c-0.1,0-0.2,0-0.3,0h0v0c0,0-3.6,0-7,1.4l0.4,1.1l0.8,2.3c1.2-0.5,3.2-1.1,5.8-1.2
		c0.1,0,0.2,0,0.3,0c4.6,0,4.7,4.2,4.7,4.2v1.1l-7.2-0.1c-0.5,0-3.4,0-5.5,2c-0.5,0.5-0.9,1-1.2,1.6c-0.4,0.9-0.7,1.9-0.7,3
		c0,1.4,0.4,2.7,1,3.8c0.3,0.5,0.7,1,1.1,1.4c1.4,1.3,3.4,2.1,5.6,2.1c0.2,0,0.4,0,0.5,0c2.5-0.1,4.8-1.1,6.3-3.5v3h3.7V32.8
		C100.6,29.3,98.4,24.2,92.2,24.2z M90.4,43.5c-1.3,0.1-4.3-0.6-4.3-3.9c0-0.9,0.8-3,3.4-3c2.6,0,7.2,0,7.2,0
		C96.8,40.6,94.4,43.3,90.4,43.5z"/>
	<path class="st0" d="M70.3,42.7c-6.7,0-11.8-5.4-11.8-12.1s5.2-12.2,11.8-12.2c3.2,0,6,1.3,8.1,3.3l2.5-3.4c-2.7-2.5-6.5-4-10.6-4
		c-9,0-16.1,7.3-16.1,16.3c0,9,7.1,16.3,16.1,16.3c3.7,0,7-1.2,9.6-3.1l-1.4-3.9C76.2,41.5,73.1,42.7,70.3,42.7z"/>
</g>
<g>
	<polygon class="st1" points="0,42.6 5.2,42.6 5.2,39.4 11.8,39.4 11.8,42.6 16.9,42.6 16.9,17.8 0,17.8 	"/>
	<path class="st1" d="M25.9,10.8L25.9,10.8c-0.8,0-1.4,0.6-1.4,1.4l0,0c0,0.8,0.6,1.4,1.4,1.4l0,0c0.8,0,1.4-0.6,1.4-1.4l0,0
		C27.4,11.5,26.7,10.8,25.9,10.8z"/>
	<path class="st1" d="M25.9,17.3L25.9,17.3c-0.8,0-1.4,0.6-1.4,1.4l0,0c0,0.8,0.6,1.4,1.4,1.4l0,0c0.8,0,1.4-0.6,1.4-1.4l0,0
		C27.4,18,26.7,17.3,25.9,17.3z"/>
	<path class="st1" d="M25.9,23.9L25.9,23.9c-0.8,0-1.4,0.6-1.4,1.4c0,0.8,0.6,1.4,1.4,1.4l0,0c0.8,0,1.4-0.6,1.4-1.4
		C27.4,24.5,26.7,23.9,25.9,23.9z"/>
	<path class="st1" d="M32.6,10.8L32.6,10.8c-0.8,0-1.4,0.6-1.4,1.4l0,0c0,0.8,0.6,1.4,1.4,1.4l0,0c0.8,0,1.4-0.6,1.4-1.4l0,0
		C34,11.5,33.4,10.8,32.6,10.8z"/>
	<path class="st1" d="M32.6,17.3L32.6,17.3c-0.8,0-1.4,0.6-1.4,1.4l0,0c0,0.8,0.6,1.4,1.4,1.4l0,0c0.8,0,1.4-0.6,1.4-1.4l0,0
		C34,18,33.4,17.3,32.6,17.3z"/>
	<path class="st1" d="M32.6,23.9L32.6,23.9c-0.8,0-1.4,0.6-1.4,1.4c0,0.8,0.6,1.4,1.4,1.4l0,0c0.8,0,1.4-0.6,1.4-1.4
		C34,24.5,33.4,23.9,32.6,23.9z"/>
	<path class="st1" d="M39.1,10.8L39.1,10.8c-0.8,0-1.4,0.6-1.4,1.4l0,0c0,0.8,0.6,1.4,1.4,1.4l0,0c0.8,0,1.4-0.6,1.4-1.4l0,0
		C40.5,11.5,39.9,10.8,39.1,10.8z"/>
	<path class="st1" d="M39.1,17.3L39.1,17.3c-0.8,0-1.4,0.6-1.4,1.4l0,0c0,0.8,0.6,1.4,1.4,1.4l0,0c0.8,0,1.4-0.6,1.4-1.4l0,0
		C40.5,18,39.9,17.3,39.1,17.3z"/>
	<path class="st1" d="M39.1,23.9L39.1,23.9c-0.8,0-1.4,0.6-1.4,1.4c0,0.8,0.6,1.4,1.4,1.4l0,0c0.8,0,1.4-0.6,1.4-1.4
		C40.5,24.5,39.9,23.9,39.1,23.9z"/>
</g>
<path class="st0" d="M8.7,34C4,33.9,0.1,37.6,0,42.2s3.6,8.5,8.3,8.7c4.7,0.1,8.5-3.6,8.7-8.3C17,38,13.3,34.1,8.7,34z M11.3,45.5
	H5.6v-5.7h5.7V45.5z"/>
<g>
	<ellipse class="st2" cx="8.5" cy="18.1" rx="8.5" ry="8.5"/>
	<path class="st2" d="M23.8,32.4v17.4h17.4V32.4H23.8z M37.7,45H27.4v-2.2h10.3V45z M37.7,39.3H27.4v-2.2h10.3V39.3z"/>
</g>
</svg>
