<?xml version="1.0" encoding="utf-8"?>
<!-- Generator: Adobe Illustrator 24.1.2, SVG Export Plug-In . SVG Version: 6.00 Build 0)  -->
<svg version="1.1" id="Layer_1" xmlns="http://www.w3.org/2000/svg" xmlns:xlink="http://www.w3.org/1999/xlink" x="0px" y="0px"
	 viewBox="0 0 200.4 66.5" style="enable-background:new 0 0 200.4 66.5;" >
<style type="text/css">
	.st0{opacity:0.5;}
	.st1{fill:#FFFFFF;}
</style>
<g id="blue" class="st0">
	<g>
		<path class="st1" d="M29.2,10.9c0,2.1-1.8,3.9-3.9,3.9s-3.9-1.8-3.9-3.9S23.2,7,25.3,7S29.2,8.8,29.2,10.9z M25.3,18
			c-2.3,0-4.1,1.8-4.1,4.1s1.8,4.1,4.1,4.1s4.1-1.8,4.1-4.1C29.4,19.7,27.6,18,25.3,18z M25.3,28.9c-2.3,0-4.2,1.9-4.2,4.2
			s1.9,4.2,4.2,4.2s4.2-1.9,4.2-4.2C29.6,30.8,27.6,28.9,25.3,28.9z M25.3,40c-2.3,0-4.1,1.8-4.1,4.1s1.8,4.1,4.1,4.1
			s4.1-1.8,4.1-4.1C29.4,41.9,27.6,40,25.3,40z M25.3,51.3c-2.1,0-3.9,1.8-3.9,3.9c0,2.1,1.8,3.9,3.9,3.9s3.9-1.8,3.9-3.9
			C29.2,53.1,27.5,51.3,25.3,51.3z M36.1,17.5c-2.5,0-4.6,2.1-4.6,4.6s2.1,4.6,4.6,4.6s4.6-2.1,4.6-4.6
			C40.7,19.6,38.6,17.5,36.1,17.5z M36.1,28.4c-2.6,0-4.8,2.1-4.8,4.8c0,2.6,2.1,4.8,4.8,4.8c2.6,0,4.8-2.1,4.8-4.8
			C40.9,30.5,38.7,28.4,36.1,28.4z M36.1,39.5c-2.5,0-4.6,2.1-4.6,4.6s2.1,4.6,4.6,4.6s4.6-2.1,4.6-4.6
			C40.7,41.6,38.6,39.5,36.1,39.5z M47.2,27.8c-2.8,0-5.3,2.3-5.3,5.3c0,2.8,2.3,5.3,5.3,5.3s5.3-2.3,5.3-5.3
			C52.3,30.1,50,27.8,47.2,27.8z M14.4,18.5c-1.9,0-3.5,1.6-3.5,3.5s1.6,3.5,3.5,3.5s3.5-1.6,3.5-3.5S16.4,18.5,14.4,18.5z
			 M14.4,29.4c-2.1,0-3.7,1.6-3.7,3.7s1.6,3.7,3.7,3.7s3.7-1.6,3.7-3.7S16.5,29.4,14.4,29.4z M14.4,40.5c-1.9,0-3.5,1.6-3.5,3.5
			s1.6,3.5,3.5,3.5s3.5-1.6,3.5-3.5S16.4,40.5,14.4,40.5z M3.5,30c-1.8,0-3.2,1.4-3.2,3.2c0,1.8,1.4,3.2,3.2,3.2s3.2-1.4,3.2-3.2
			C6.7,31.4,5.3,30,3.5,30z"/>
	</g>
</g>
<g id="wordmark">
	<g>
		<path class="st1" d="M92.3,26.3c-0.4,0-0.7,0.4-0.7,0.7v27.7c0,0.4,0.4,0.7,0.7,0.7h3.3c0.4,0,0.7-0.4,0.7-0.7V27
			c0-0.4-0.4-0.7-0.7-0.7H92.3L92.3,26.3z"/>
		<g>
			<g>
				<path class="st1" d="M94.1,14.6c-1.8,0-3.2,1.4-3.2,3.2s1.4,3.2,3.2,3.2c1.8,0,3.2-1.4,3.2-3.2S95.8,14.6,94.1,14.6z"/>
			</g>
		</g>
		<path class="st1" d="M163.3,26.3c-0.4,0-0.7,0.4-0.7,0.7v27.7c0,0.4,0.4,0.7,0.7,0.7h3.3c0.4,0,0.7-0.4,0.7-0.7V27
			c0-0.4-0.4-0.7-0.7-0.7H163.3L163.3,26.3z"/>
		<g>
			<g>
				<path class="st1" d="M164.9,14.6c-1.8,0-3.2,1.4-3.2,3.2s1.4,3.2,3.2,3.2s3.2-1.4,3.2-3.2S166.7,14.6,164.9,14.6z"/>
			</g>
		</g>
		<path class="st1" d="M198.4,52.7c0.2-0.2,0.2-0.4,0.2-0.5l0,0c0-0.2,0-0.2,0-0.2s0-0.2-0.2-0.2c0,0-0.2-0.2-0.4-0.2s-0.2,0-0.4,0
			h-0.9v2.5h0.4v-0.9h0.5l0,0l0.7,0.9h0.4l-0.9-1.1C198.2,53.1,198.4,52.9,198.4,52.7z M197.2,52.9V52h0.7c0.2,0,0.4,0,0.5,0.2
			c0.2,0,0.2,0.2,0.2,0.4l0,0c0,0.2,0,0.4-0.2,0.4s-0.4,0.2-0.5,0.2h-0.7V52.9z"/>
		<path class="st1" d="M197.7,50.6c-1.2,0-2.3,1.1-2.3,2.3s1.1,2.3,2.3,2.3s2.3-1.1,2.3-2.3C200,51.6,199,50.6,197.7,50.6z
			 M197.7,55c-1.2,0-2.1-0.9-2.1-2.1c0-1.2,0.9-2.1,2.1-2.1s2.1,0.9,2.1,2.1S198.8,55,197.7,55z"/>
		<path class="st1" d="M119.8,30.8c0.4,0,0.7-0.4,0.7-0.7v-3.3c0-0.4-0.4-0.7-0.7-0.7h-7.1V15.5c0-0.4-0.4-0.7-0.7-0.7h-3.3
			c-0.4,0-0.7,0.4-0.7,0.7v10.6h-3.5c-0.4,0-0.7,0.4-0.7,0.7v3.3c0,0.4,0.4,0.7,0.7,0.7h3.5v16c0,4.9,3.3,8.1,8.1,8.1h3.5
			c0.4,0,0.7-0.4,0.7-0.7v-3.3c0-0.4-0.4-0.7-0.7-0.7h-3c-2.3,0-3.9-1.6-3.9-4.1V30.7L119.8,30.8L119.8,30.8L119.8,30.8z"/>
		<path class="st1" d="M190,30.8c0.4,0,0.7-0.4,0.7-0.7v-3.3c0-0.4-0.4-0.7-0.7-0.7h-7.1V15.5c0-0.4-0.4-0.7-0.7-0.7h-3.3
			c-0.4,0-0.7,0.4-0.7,0.7v10.6h-3.5c-0.4,0-0.7,0.4-0.7,0.7v3.3c0,0.4,0.4,0.7,0.7,0.7h3.5v16c0,4.9,3.3,8.1,8.1,8.1h3.5
			c0.4,0,0.7-0.4,0.7-0.7v-3.3c0-0.4-0.4-0.7-0.7-0.7h-3.2c-2.3,0-3.9-1.6-3.9-4.1V30.7L190,30.8L190,30.8L190,30.8z"/>
		<path class="st1" d="M71.3,30.8v23.6c0,0.4,0.4,0.7,0.7,0.7h3.3c0.4,0,0.7-0.4,0.7-0.7V30.8h7.8c0.4,0,0.7-0.4,0.7-0.7v-3.3
			c0-0.4-0.4-0.7-0.7-0.7H76v-6.2c0-2.5,1.8-4.2,3.9-4.2h3.9c0.4,0,0.7-0.4,0.7-0.7v-3.3c0-0.4-0.4-0.7-0.7-0.7h-3.7
			c-4.9,0-8.8,4.1-8.8,8.8v6.3h-3.5c-0.4,0-0.7,0.4-0.7,0.7v3.3c0,0.4,0.4,0.7,0.7,0.7H71.3L71.3,30.8z"/>
	</g>
	<path class="st1" d="M152.1,29.6c-2.6-2.8-6.3-4.4-10.2-4.4c-3.7,0-7.4,1.6-9.7,3.9V11.5c0-0.4-0.4-0.7-0.7-0.7h-3.3
		c-0.4,0-0.7,0.4-0.7,0.7v29.1c0,10.8,7.2,15.5,14.3,15.5c7,0,14.3-4.8,14.3-15.5C156.1,36.3,154.7,32.4,152.1,29.6z M141.8,51.6
		c-7.1,0-9.7-5.6-9.7-10.9c0-6.5,3.9-10.8,9.7-10.8s9.7,4.4,9.7,10.8C151.4,46,148.9,51.6,141.8,51.6z"/>
</g>
</svg>
