<?xml version="1.0" encoding="utf-8"?>
<!-- Generator: Adobe Illustrator 24.1.2, SVG Export Plug-In . SVG Version: 6.00 Build 0)  -->
<svg version="1.1" id="Layer_1" xmlns="http://www.w3.org/2000/svg" xmlns:xlink="http://www.w3.org/1999/xlink" x="0px" y="0px"
	 viewBox="0 0 160 135.3" style="enable-background:new 0 0 160 135.3;" >
<style type="text/css">
	.st0{fill:#FF6B6B;}
</style>
<path class="st0" d="M137,0H92.6c-0.5,0-0.9,0.2-1.3,0.5L81.3,7.6c-0.7,0.6-1.8,0.6-2.5,0L68.7,0.5C68.3,0.2,67.9,0,67.4,0H23
	c-0.5,0-1,0.2-1.4,0.6C8.3,14.8,0.1,33.9,0,55c-0.2,43.7,35.2,79.7,78.9,80.3c44.7,0.6,81.1-35.4,81.1-80c0-21.2-8.2-40.4-21.6-54.7
	C138,0.2,137.5,0,137,0z M119.7,20.6c8.1,9.3,13,21.4,13,34.7c0,30.1-25.2,54.3-55.6,52.7C50,106.6,28.2,84.3,27.3,57.2
	c-0.5-14,4.5-26.9,13-36.6c0.7-0.7,0.6-1.9-0.1-2.6L23.8,1.6l53.8,38.6c1.4,1.1,3.4,1.1,4.8,0l53.8-38.6L119.8,18
	C119.1,18.7,119.1,19.8,119.7,20.6L119.7,20.6z"/>
</svg>
