<?xml version="1.0" encoding="utf-8"?>
<!-- Generator: Adobe Illustrator 24.1.2, SVG Export Plug-In . SVG Version: 6.00 Build 0)  -->
<svg version="1.1" id="Layer_1" xmlns="http://www.w3.org/2000/svg" xmlns:xlink="http://www.w3.org/1999/xlink" x="0px" y="0px"
	 viewBox="0 0 200.4 66.5" style="enable-background:new 0 0 200.4 66.5;" >
<style type="text/css">
	.st0{fill:#FFFFFF;}
	.st1{opacity:0.4;fill:#FFFFFF;}
	.st2{opacity:0.2;fill:#FFFFFF;}
</style>
<path class="st0" d="M100.2,66.5l13.3-40.9H86.9L100.2,66.5L100.2,66.5z"/>
<path class="st1" d="M100.2,66.5L86.9,25.6H68.3L100.2,66.5z"/>
<path class="st2" d="M68.3,25.6l-4,12.4c-0.4,1.1,0.1,2.3,1,3.1l34.9,25.4L68.3,25.6L68.3,25.6z"/>
<path class="st0" d="M68.3,25.6h18.6l-8-24.7c-0.4-1.3-2.2-1.3-2.6,0L68.3,25.6L68.3,25.6z"/>
<path class="st1" d="M100.2,66.5l13.3-40.9h18.6L100.2,66.5L100.2,66.5z"/>
<path class="st2" d="M132.1,25.6l4,12.4c0.4,1.1-0.1,2.3-1,3.1l-34.9,25.4L132.1,25.6L132.1,25.6z"/>
<path class="st0" d="M132.1,25.6h-18.6l8-24.7c0.4-1.3,2.2-1.3,2.6,0L132.1,25.6L132.1,25.6z"/>
</svg>
