<?xml version="1.0" encoding="utf-8"?>
<!-- Generator: Adobe Illustrator 24.1.2, SVG Export Plug-In . SVG Version: 6.00 Build 0)  -->
<svg version="1.1" id="Layer_1" xmlns="http://www.w3.org/2000/svg" xmlns:xlink="http://www.w3.org/1999/xlink" x="0px" y="0px"
	 viewBox="0 0 160 135.3" style="enable-background:new 0 0 160 135.3;" >
<style type="text/css">
	.st0{fill:#00C9DB;}
	.st1{fill:#0D55FF;}
	.st2{fill:#7000F2;}
</style>
<path class="st0" d="M141.7,99.9H87.6c-0.9,0-1.7,0.3-2.4,0.8l-40.3,32c-1,0.8-0.5,2.5,0.9,2.5h96.5c9.5,0,18.1-8.6,17.4-18.9
	C159.1,107,151.1,99.9,141.7,99.9"/>
<path class="st1" d="M97.9,66.5c0,0,0-0.1,0-0.1c-0.3-4.8-2.6-9.5-6.7-12.7L28.5,3.7c-7.7-6-18.7-4.6-24.7,3c-6,7.6-4.7,18.7,3,24.7
	l45.5,36.1L6.7,103.7c-7.7,6-9,17-3,24.7s17.1,9,24.7,3l62.7-49.9c4.1-3.2,6.4-7.9,6.7-12.7c0,0,0-0.1,0-0.1c0-0.4,0-0.7,0-1.1
	C98,67.2,97.9,66.8,97.9,66.5"/>
<path class="st2" d="M160,117.6c0,9.8-7.9,17.7-17.7,17.7c-9.8,0-17.7-7.9-17.7-17.7s7.9-17.7,17.7-17.7
	C152.1,99.9,160,107.8,160,117.6"/>
</svg>
