<?xml version="1.0" encoding="utf-8"?>
<!-- Generator: Adobe Illustrator 24.1.2, SVG Export Plug-In . SVG Version: 6.00 Build 0)  -->
<svg version="1.1" id="Layer_1" xmlns="http://www.w3.org/2000/svg" xmlns:xlink="http://www.w3.org/1999/xlink" x="0px" y="0px"
	 viewBox="0 0 160 220" style="enable-background:new 0 0 160 220;" >
<style type="text/css">
	.st0{fill:#4285F4;}
	.st1{fill:#F1F1F1;}
	.st2{fill:#A1C2FA;}
</style>
<g>
	<path class="st0" d="M100,0H15C7,0,0,7,0,15v190c0,8,7,15,15,15h130c8,0,15-7,15-15V60l-35-25L100,0z"/>
	<path class="st1" d="M40,160h80v-10H40L40,160L40,160z M40,180h60v-10H40V180z M40,110v10h80v-10H40z M40,140h80v-10H40L40,140
		L40,140z"/>
	<path class="st2" d="M100,0v45c0,8,7,15,15,15h45L100,0z"/>
</g>
</svg>
