<?xml version="1.0" encoding="utf-8"?>
<!-- Generator: Adobe Illustrator 24.1.2, SVG Export Plug-In . SVG Version: 6.00 Build 0)  -->
<svg version="1.1" id="Layer_1" xmlns="http://www.w3.org/2000/svg" xmlns:xlink="http://www.w3.org/1999/xlink" x="0px" y="0px"
	 viewBox="0 0 160 160" style="enable-background:new 0 0 160 160;" >
<style type="text/css">
	.st0{fill:#FFFFFF;}
</style>
<g>
	<rect width="160" height="160"/>
</g>
<g>
	<path class="st0" d="M78,105.6H72v-24H45.1v24h-5.9V54.5h5.9v21.7H72V54.5H78V105.6z"/>
	<path class="st0" d="M120.8,92c0,4.5-1.6,8-4.9,10.5c-3.3,2.5-7.7,3.8-13.3,3.8c-6.1,0-10.7-0.8-14-2.3v-5.7
		c2.1,0.9,4.4,1.6,6.8,2.1c2.5,0.5,4.9,0.8,7.3,0.8c4,0,6.9-0.8,8.9-2.3c2-1.5,3-3.6,3-6.3c0-1.8-0.4-3.2-1.1-4.3
		c-0.7-1.1-1.9-2.2-3.6-3.1c-1.7-1-4.2-2-7.6-3.3c-4.8-1.7-8.1-3.7-10.2-6c-2-2.3-3.1-5.4-3.1-9.1c0-3.9,1.5-7.1,4.4-9.4
		c3-2.3,6.9-3.5,11.7-3.5c5.1,0,9.7,0.9,14,2.8l-1.9,5.2c-4.2-1.8-8.3-2.7-12.3-2.7c-3.1,0-5.6,0.7-7.4,2c-1.8,1.4-2.7,3.2-2.7,5.6
		c0,1.8,0.3,3.2,1,4.4c0.7,1.1,1.8,2.2,3.3,3.1s3.9,2,7.1,3.1c5.4,1.9,9,4,11.1,6.1C119.8,85.6,120.8,88.5,120.8,92z"/>
</g>
</svg>
