<?xml version="1.0" encoding="utf-8"?>
<!-- Generator: Adobe Illustrator 24.1.2, SVG Export Plug-In . SVG Version: 6.00 Build 0)  -->
<svg version="1.1" id="Layer_1" xmlns="http://www.w3.org/2000/svg" xmlns:xlink="http://www.w3.org/1999/xlink" x="0px" y="0px"
	 viewBox="0 0 200.4 66.5" style="enable-background:new 0 0 200.4 66.5;" >
<style type="text/css">
	.st0{fill:#BDC5D1;}
</style>
<path class="st0" d="M56.9,32.5L56.9,32.5L56.9,32.5z M193.3,44.9L193.3,44.9c4.2,0,7.1-2.9,7.1-6.9c0-2-0.6-3.9-1.6-5.2
	c-1.1-1.4-2.7-2.2-4.6-2.2h0c-2.5,0-4.9,1.9-7.2,5.9l-0.2,0.3l-0.1-0.3c-0.6-1.7-1.1-3.1-1.4-3.9c-0.2-0.6-0.3-0.8-0.3-0.9
	c-0.1-0.4-0.5-0.7-1-0.7c-0.3,0-0.6,0.1-0.9,0.3c-0.3,0.2-0.5,0.4-0.5,0.7l0,0c-2.3,7.2-4.2,10.7-5.8,10.7c-0.2,0-0.4-0.1-0.5-0.2
	c-0.4-0.5-0.3-1.6-0.2-3.1c0.1-1.1,0.2-2.4,0.2-3.7c-0.1-2.6-1.5-4.2-3.8-4.2c-2.9,0-4.8,3.1-5.7,4.9l-0.3,0.5l-0.1-0.6
	c-0.2-2.3-1-5-3.4-5c-2.8,0-5,3.3-6.3,6.1l-0.3,0.7l0-0.8c0.2-3.7,0.3-5.9,0.4-6.5s0-1-0.2-1.3c-0.2-0.2-0.5-0.3-1.1-0.3
	c-0.9,0.1-1.4,0.6-2.1,2.4c-1.1,3-4,10.1-6.4,10.1c-0.5,0-0.8-0.2-1.1-0.5c-1-1.1-0.6-4.1,0-8.3l0-0.3c0.3-2-0.2-2.4-1.3-2.6
	c-0.1,0-0.2,0-0.3,0c-0.9,0-1.3,0.8-2.1,3.1c-1.4,4.1-3.3,8.3-5.4,8.3c-0.1,0-0.2,0-0.2,0c-1.1-0.2-1.1-1.9-1.1-4
	c0-1.2,0-2.5-0.1-3.6c-0.3-2.1-1.6-3.4-3.3-3.5c-3.4,0-5.6,4.3-6.7,6.9l-0.2,0.6l-0.1-0.6c-0.2-1.7-0.3-3.3-0.4-5v-0.1l0,0
	c6.3-7.9,9.1-13.7,9.2-18.6c0-3.1-1.4-5-3.9-5c-1.8,0-6,1.5-7.5,15.3c-0.3,2.6-0.4,5.2-0.4,7.8v0l0,0c-2.9,4.2-9.1,11.4-15.1,11.4
	c-5.5,0-9.8-4.4-9.8-12.2c0-10.4,7.4-16.8,12.9-16.8h0c1.2,0,2.2,0.3,3,1c0.8,0.7,1.2,1.6,1.2,2.6c0,1.4-0.5,2.2-0.9,2.9
	c-0.1,0.2-0.2,0.4-0.3,0.6c-0.1,0.2-0.2,0.5-0.1,0.7c0.1,0.3,0.5,0.4,1,0.4c1.3,0,3.3-1.9,3.3-4.8c0-3-2.5-6.1-7.1-6.1
	c-6.9,0-16.1,7.5-16.1,19.8c0,8.6,5.4,14.6,12.8,14.6c5.2,0,10.4-3.7,14.9-10l0.3-0.4l0,0.5c0.1,2.3,0.3,4.1,0.4,5.4
	c0.1,0.8,0.1,1.5,0.1,1.8c0,0.7,0.1,1.3,0.4,1.6s0.7,0.5,1.3,0.5c1,0,1.2-0.7,1.6-2.4l0.1-0.5c0.5-2.1,2.4-8.9,5.2-8.9
	c0.5,0,0.8,0.1,1.1,0.4c0.6,0.7,0.5,2,0.5,3.6c0,1-0.1,2,0,3c0.3,2.6,1.4,3.9,3.5,4c2.1,0,4.4-2.3,5.6-4.4l0.2-0.4l0.1,0.5
	c0.2,1.1,1.2,4.9,4.2,4.9c2.8,0,5.1-2.9,7.7-8.9l0.3-0.8l0,0.9c-0.1,2.3-0.2,5-0.2,7.2c0,1.7,0.2,2.3,0.9,2.3l0.2,0
	c0.7,0,1.2-0.4,1.5-1.3c2-6.8,3.6-10,5.3-10c1.6,0,1.8,3,1.9,8.3l0,0.4c0,1.8,0.1,2.7,1.3,2.7c0.9,0,1.1-0.7,1.5-2.4
	c0.1-0.3,0.2-0.7,0.3-1.1c1.6-5.5,2.9-7.7,4.5-7.7c1.4,0,1.5,1.4,1.5,1.9c0.1,1,0,2.1-0.2,3.1c-0.1,1-0.2,1.9-0.2,2.9
	c0.1,2.1,1.3,3.3,3.3,3.4c2.7,0,5-3.1,7.1-9.2l0.1-0.4l0.2,0.4c0.4,1,0.9,2.3,1.3,3.8l0,0.1l0,0.1c-2,4.5-3.5,9.5-3.5,12.2
	c0,3.5,1.6,5.8,4.1,5.9h0c1.4,0,4.5-0.5,4.6-5.6c0-2.1-0.5-5-1.5-8.7l-0.1-0.4l0.4,0.2C190.4,44.4,191.9,44.9,193.3,44.9L193.3,44.9
	z M124.9,27.7c0.1-1.3,0.2-2.5,0.3-3.7c1-7.5,3-12.8,5-12.8h0c0.9,0,1.4,0.7,1.4,2.1c0,3.4-2.2,8.3-6.4,14.5l-0.3,0.5L124.9,27.7
	L124.9,27.7z M187.2,54.8c-0.3,0.4-0.7,0.6-1.3,0.6c-0.6,0-1.1-0.2-1.4-0.6c-0.9-1.2-0.6-4,0.8-9.1c0.2-0.6,0.4-1.2,0.6-1.8l0.2-0.5
	l0.1,0.5C187.9,49.7,188.3,53.4,187.2,54.8z M187.8,39.7L187.8,39.7l-0.1-0.3l0-0.1c1.9-4,4.2-6.3,6.1-6.3h0c2.2,0,3.7,2,3.7,4.8
	c0,1.9-0.8,2.9-1.5,3.5c-0.8,0.7-1.8,1-2.9,1C190.5,42.4,188.8,41,187.8,39.7L187.8,39.7z M193.8,33.3L193.8,33.3L193.8,33.3z
	 M64.4,44.2c3-0.2,5.4-4.3,6.2-6l0.2-0.5l0.1,0.5c0.4,2.4,1.8,6.5,5.9,6.6h0c1.8,0,3.8-1.1,5.9-3.2l0.2-0.2l0.1,0.2
	c1.4,2.3,3.2,3.6,5.2,3.4c2.9-0.2,4.7-2.2,4.8-3.6c0-0.4-0.1-0.7-0.3-0.9c-0.3-0.3-0.6-0.3-0.9-0.1l-0.1,0.1
	c-0.7,0.7-1.9,1.9-3.3,1.9c-1.7,0.1-2.9-0.9-3.7-3l0-0.1l0.1-0.1c4.6-6.1,7.9-15.3,7.6-21.5c-0.1-2.9-1-6.3-4.1-6.3H88
	c-1.2,0.1-2.3,0.6-3.2,1.7c-2.9,3.3-4.4,11.3-3.9,20.4c0.1,1.9,0.4,3.7,1,5.3l0,0.1l-0.1,0.1c-1.7,2-3.4,3.1-4.8,3.1
	c-3.3,0-3.2-5.5-2.9-10.1c0.1-1,0.1-1.6-0.2-2c-0.2-0.3-0.6-0.4-1.1-0.4h-0.1c-1.2,0-1.4,0.2-2,2c-1.2,3.6-3.7,9.6-6.2,9.6
	c-0.7,0-1.2-0.2-1.6-0.7c-1.2-1.5-0.3-5.3,0.4-8.4c0.1-0.5,0.3-1.1,0.4-1.6c0.2-0.7,0.1-1.3-0.1-1.6c-0.3-0.3-0.8-0.5-1.4-0.4
	c-1.1,0.1-1.7,0.5-2.1,2.5l-0.1,0.4L60,31.5c-0.5-0.7-1.4-1.5-3-1.5c-0.1,0-0.3,0-0.5,0c-1.8,0.1-3.8,1.4-5.3,3.2
	c-1.7,2.2-2.6,4.9-2.3,7.7c0,0.1,0,0.3,0.1,0.4l0,0.1l-0.1,0.1c-1,1.1-2.1,1.7-3.1,1.7c-1.6,0-2.5-1.2-2.5-3.2
	c0-3.4,2.3-13.5,2.3-17.2c0-3.9-1.7-6-4.8-6.1h0c-4.4,0-7.9,5-11.2,15.3c-0.3,1-0.6,2-0.9,3l-0.5,1.6l0.1-1.6
	c0.3-3.5,0.5-6.9,0.6-10.4c0.2-5-0.5-8.2-2.1-9.8c-0.8-0.9-1.9-1.3-3.4-1.3h0c-5.4,0-8,9.1-9.9,15.6c-0.6,1.9-1.7,6.3-2.4,9.3
	l0.4-0.7c0.3-3.8,1.3-13.2,1.2-18.3c-0.1-5.5-1.9-8-5.9-8h0c-2.2,0-3.6,1.1-4.5,2C0.8,14.7,0,16.8,0,18.6c0,1.1,0.7,2.1,1.2,2.1
	c0.3,0,0.5-0.5,0.6-0.7c1.3-4.1,2.9-6.1,4.9-6.1c0.9,0,1.5,0.3,2,0.8c1.6,1.7,1.3,6.4,0.8,15C9.4,32.3,9.2,35.5,9,39
	c0,0.6-0.1,1.2-0.1,1.8c-0.2,2.5-0.3,4.4,0.6,4.5c1.2,0.2,2-0.3,2.4-1.5c0.6-1.8,1.9-6.7,4.5-15.6c2.5-8.5,4.4-11.7,6.8-11.7
	c2.8,0,3,4.8,2.5,14.9c-0.1,2.1-0.3,4.6-0.4,7.2c0,0.4,0,0.7,0,1.1c-0.1,2.2-0.2,3.9,0.4,4.6c0.2,0.2,0.5,0.3,0.8,0.3
	c1.2,0,1.6-1.1,2.2-2.8c0.1-0.3,0.2-0.6,0.3-1c4.1-11.4,7.2-21.3,11.3-21.3c1.2,0,2.2,1,2.2,3c0,4.5-2.2,13.2-2.2,17.6
	c0,1.6,0.5,3,1.3,4c0.9,1,2.1,1.6,3.6,1.6h0c1.4,0,2.8-0.7,4.3-2l0.1-0.1l0.1,0.1c1,1.3,2.5,2,4.2,1.8c2.6-0.2,4.7-2.5,5.5-4.6
	l0.2-0.4l0.2,0.4C60.4,42.5,61.7,44.5,64.4,44.2L64.4,44.2z M87.9,14.4L87.9,14.4c0.3,0,0.6,0.1,0.8,0.4c1,1.4,1,6.4-0.7,12.1
	c-1,3.3-2.3,6.3-3.9,8.9l-0.3,0.4l-0.1-0.5c-0.2-1.4-0.3-2.8-0.3-4C83.1,23.1,85.7,14.5,87.9,14.4L87.9,14.4z M59.6,34.5
	c-0.9,3.6-2.6,7.9-5.7,8.2l-0.3,0c-1.3,0-2-0.8-2.1-2.5c-0.2-2.1,0.7-4.5,2.3-6.2c1-1.1,2.1-1.7,3.1-1.7h0
	C58.3,32.4,59.2,33.4,59.6,34.5L59.6,34.5L59.6,34.5L59.6,34.5z M73.9,21.3c-1.1,0-2.1,0.9-2.1,2c0,1.1,0.9,2,2,2l0,0.2v-0.2
	c1.1,0,2-0.9,2.1-2C76,22.2,75.1,21.3,73.9,21.3L73.9,21.3z M145.6,21.3c-1.1,0-2.1,0.9-2.1,2c0,1.1,0.9,2,2,2l0,0.2v-0.2
	c1.1,0,2.1-0.9,2.1-2C147.7,22.2,146.8,21.3,145.6,21.3L145.6,21.3z"/>
</svg>
