<?xml version="1.0" encoding="utf-8"?>
<!-- Generator: Adobe Illustrator 24.1.2, SVG Export Plug-In . SVG Version: 6.00 Build 0)  -->
<svg version="1.1"
	 id="svg8" inkscape:version="0.92.3 (2405546, 2018-03-11)" sodipodi:docname="PDF file icon.svg" xmlns:cc="http://creativecommons.org/ns#" xmlns:dc="http://purl.org/dc/elements/1.1/" xmlns:inkscape="http://www.inkscape.org/namespaces/inkscape" xmlns:rdf="http://www.w3.org/1999/02/22-rdf-syntax-ns#" xmlns:sodipodi="http://sodipodi.sourceforge.net/DTD/sodipodi-0.dtd" xmlns:svg="http://www.w3.org/2000/svg"
	 xmlns="http://www.w3.org/2000/svg" xmlns:xlink="http://www.w3.org/1999/xlink" x="0px" y="0px" viewBox="0 0 160 196.7"
	 style="enable-background:new 0 0 160 196.7;" >
<style type="text/css">
	.st0{fill:#FF2116;}
	.st1{fill:#F5F5F5;}
	.st2{fill:#2C2C2C;}
</style>
<sodipodi:namedview  bordercolor="#666666" borderopacity="1.0" fit-margin-bottom="0" fit-margin-left="0" fit-margin-right="0" fit-margin-top="0" id="base" inkscape:current-layer="g899" inkscape:cx="122.12727" inkscape:cy="167.02823" inkscape:document-units="mm" inkscape:object-nodes="false" inkscape:pageopacity="0.0" inkscape:pageshadow="2" inkscape:snap-others="false" inkscape:snap-page="false" inkscape:window-height="705" inkscape:window-maximized="1" inkscape:window-width="1366" inkscape:window-x="-8" inkscape:window-y="-8" inkscape:zoom="0.98994949" pagecolor="#ffffff" showgrid="false">
	</sodipodi:namedview>
<g id="layer1" transform="translate(36.076172,-93.731774)" inkscape:groupmode="layer" inkscape:label="Capa 1">
	<g id="g899" transform="matrix(1.4843054,0,0,1.4843054,17.471885,-90.243502)">
		<g id="g876">
			<path id="path890" inkscape:connector-curvature="0" class="st0" d="M-22.4,123.9c-7.5,0-13.7,6.1-13.7,13.7v105.1
				c0,7.5,6.1,13.7,13.7,13.7H58c7.5,0,13.7-6.1,13.7-13.7v-86.5c0,0,0.2-2.5-0.9-5c-1-2.3-2.7-3.9-2.7-3.9c0,0,0,0,0,0l-19.9-19.6
				c0,0,0,0,0,0c0,0-1.7-1.6-4.2-2.7c-3-1.3-6-1.1-6-1.1l0,0L-22.4,123.9z"/>
			<path id="rect2684" inkscape:connector-curvature="0" class="st1" d="M-22.4,128.4h60.3c0,0,0,0,0,0c0,0,2.4,0,4.2,0.8
				c1.7,0.7,2.9,1.8,2.9,1.8c0,0,0,0,0,0l19.9,19.5c0,0,1.2,1.3,1.8,2.6c0.5,1.1,0.5,3,0.5,3c0,0,0,0.1,0,0.1v86.6
				c0,5.1-4.1,9.2-9.2,9.2h-80.4c-5.1,0-9.2-4.1-9.2-9.2V137.6C-31.6,132.5-27.5,128.4-22.4,128.4L-22.4,128.4z"/>
			
				<path id="path2697" inkscape:connector-curvature="0" sodipodi:nodetypes="scccscccscccccssscacccsccccccccccccccccccccaccccccccc" class="st0" d="
				M-9.2,202.9c-3.1-3.1,0.3-7.3,9.3-11.9l5.7-2.8l2.2-4.9c1.2-2.7,3.1-7.1,4.1-9.7l1.8-4.8l-1.3-3.6c-1.6-4.4-2.1-11-1.1-13.4
				c1.3-3.2,5.7-2.9,7.4,0.6c1.4,2.7,1.2,7.6-0.4,13.8l-1.3,5.1l1.2,2c0.6,1.1,2.5,3.7,4.1,5.7l3.1,3.8l3.8-0.5
				c12.2-1.6,16.3,1.1,16.3,5c0,4.9-9.6,5.3-17.6-0.3c-1.8-1.3-3-2.5-3-2.5s-5,1-7.5,1.7c-2.6,0.7-3.8,1.1-7.6,2.4
				c0,0-1.3,1.9-2.2,3.3c-3.2,5.2-6.9,9.4-9.6,11C-4.5,204.3-7.6,204.4-9.2,202.9z M-4.3,201.1c1.7-1.1,5.3-5.2,7.7-9.1l1-1.6
				l-4.5,2.3c-6.9,3.5-10.1,6.8-8.5,8.8C-7.7,202.6-6.5,202.5-4.3,201.1L-4.3,201.1z M40.8,188.5c1.7-1.2,1.5-3.6-0.5-4.6
				c-1.5-0.8-2.7-0.9-6.6-0.9c-2.4,0.2-6.2,0.6-6.9,0.8c0,0,2.1,1.5,3,2c1.2,0.7,4.3,2,6.5,2.7C38.5,189.2,39.8,189.2,40.8,188.5
				L40.8,188.5z M22.6,180.9c-1-1.1-2.8-3.3-3.9-5c-1.5-1.9-2.2-3.2-2.2-3.2s-1.1,3.4-1.9,5.5l-2.7,6.7l-0.8,1.5
				c0,0,4.2-1.4,6.3-1.9c2.3-0.6,6.8-1.5,6.8-1.5L22.6,180.9z M16.8,157.5c0.3-2.2,0.4-4.4-0.3-5.5c-2-2.1-4.3-0.4-3.9,4.7
				c0.1,1.7,0.6,4.7,1.1,6.5l1,3.3l0.7-2.5C15.8,162.7,16.4,159.7,16.8,157.5L16.8,157.5z"/>
			<g id="g858">
				<path id="path845" inkscape:connector-curvature="0" class="st2" d="M-3.9,217.2h5c1.6,0,2.9,0.2,3.9,0.5c1,0.3,1.8,1,2.5,2
					c0.7,1,1,2.3,1,3.7c0,1.3-0.3,2.5-0.8,3.4c-0.6,1-1.3,1.7-2.2,2.1c-0.9,0.4-2.4,0.6-4.3,0.6h-1.7v7.9h-3.4L-3.9,217.2z
					 M-0.5,219.8v7.1h1.7c1.5,0,2.5-0.3,3.1-0.8c0.6-0.6,0.9-1.5,0.9-2.7c0-0.9-0.2-1.7-0.6-2.3c-0.4-0.6-0.8-0.9-1.2-1.1
					c-0.4-0.1-1.2-0.2-2.1-0.2L-0.5,219.8z"/>
				<path id="path847" inkscape:connector-curvature="0" class="st2" d="M11.2,217.2h4.6c2.2,0,4,0.4,5.3,1.2c1.3,0.8,2.3,1.9,3,3.5
					c0.7,1.5,1,3.3,1,5.1c0,2-0.3,3.8-0.9,5.3c-0.6,1.5-1.5,2.8-2.8,3.7c-1.2,1-3,1.4-5.4,1.4h-4.8V217.2z M14.5,219.9v14.9h1.4
					c2,0,3.4-0.7,4.3-2c0.9-1.4,1.3-3.2,1.3-5.4c0-5-1.9-7.5-5.6-7.5L14.5,219.9z"/>
				<path id="path849" inkscape:connector-curvature="0" class="st2" d="M28.3,217.2h11.3v2.7h-7.9v6.1H38v2.7h-6.3v8.8h-3.4
					L28.3,217.2z"/>
			</g>
		</g>
	</g>
</g>
</svg>
