<?xml version="1.0" encoding="utf-8"?>
<!-- Generator: Adobe Illustrator 24.1.2, SVG Export Plug-In . SVG Version: 6.00 Build 0)  -->
<svg version="1.1" id="Layer_1" xmlns="http://www.w3.org/2000/svg" xmlns:xlink="http://www.w3.org/1999/xlink" x="0px" y="0px"
	 viewBox="0 0 160 160" style="enable-background:new 0 0 160 160;" >
<style type="text/css">
	.st0{fill:#FFFFFF;}
	.st1{fill:#5C54FF;}
	.st2{fill-rule:evenodd;clip-rule:evenodd;fill:#5C54FF;}
</style>
<rect class="st0" width="160" height="160"/>
<path class="st1" d="M80,80c-11,0-20-9-20-20c0-11,8.9-20,20-20c11,0,20,8.9,20,20C100,71.1,91.1,80,80,80 M80,0
	C46.9,0,20,26.9,20,60c0,33.2,26.9,60,60,60c33.1,0,60-26.8,60-59.9c0,0,0,0,0-0.1C140,26.9,113.2,0,80,0"/>
<path class="st2" d="M40,120c-11,0-20,8.9-20,20c0,0,0,0,0,0c0,11,8.9,20,20,20c11,0,20-8.9,20-20c0,0,0,0,0,0
	C60,128.9,51.1,120,40,120"/>
</svg>
