<?xml version="1.0" encoding="utf-8"?>
<!-- Generator: Adobe Illustrator 24.1.2, SVG Export Plug-In . SVG Version: 6.00 Build 0)  -->
<svg version="1.1" id="Layer_1" xmlns="http://www.w3.org/2000/svg" xmlns:xlink="http://www.w3.org/1999/xlink" x="0px" y="0px"
	 viewBox="0 0 159.7 160" style="enable-background:new 0 0 159.7 160;" >
<style type="text/css">
	.st0{fill-rule:evenodd;clip-rule:evenodd;fill:#36C5F0;}
	.st1{fill-rule:evenodd;clip-rule:evenodd;fill:#2EB67D;}
	.st2{fill-rule:evenodd;clip-rule:evenodd;fill:#ECB22E;}
	.st3{fill-rule:evenodd;clip-rule:evenodd;fill:#E01E5A;}
</style>
<g>
	<path class="st0" d="M58.5,0c-8.8,0-16,7.2-16,16c0,8.8,7.1,16,16,16h16V16C74.5,7.2,67.4,0,58.5,0C58.6,0,58.6,0,58.5,0
		 M58.5,42.7H16c-8.8,0-16,7.2-16,16c0,8.8,7.1,16,16,16h42.6c8.8,0,16-7.2,16-16C74.5,49.8,67.4,42.7,58.5,42.7L58.5,42.7z"/>
	<path class="st1" d="M159.7,58.7c0-8.8-7.1-16-16-16c-8.8,0-16,7.2-16,16v16h16C152.5,74.7,159.7,67.5,159.7,58.7z M117.1,58.7V16
		c0-8.8-7.1-16-16-16c-8.8,0-16,7.2-16,16v42.7c0,8.8,7.1,16,16,16C110,74.7,117.1,67.5,117.1,58.7z"/>
	<path class="st2" d="M101.1,160c8.8,0,16-7.2,16-16c0-8.8-7.1-16-16-16h-16v16C85.2,152.8,92.3,160,101.1,160z M101.1,117.3h42.6
		c8.8,0,16-7.2,16-16c0-8.8-7.1-16-16-16h-42.6c-8.8,0-16,7.2-16,16C85.2,110.2,92.3,117.3,101.1,117.3L101.1,117.3z"/>
	<path class="st3" d="M0,101.3c0,8.8,7.1,16,16,16c8.8,0,16-7.2,16-16v-16H16C7.1,85.3,0,92.5,0,101.3z M42.6,101.3V144
		c0,8.8,7.1,16,16,16c8.8,0,16-7.2,16-16v-42.7c0-8.8-7.1-16-16-16C49.7,85.3,42.6,92.5,42.6,101.3
		C42.6,101.3,42.6,101.3,42.6,101.3"/>
</g>
</svg>
