<?xml version="1.0" encoding="utf-8"?>
<!-- Generator: Adobe Illustrator 24.1.2, SVG Export Plug-In . SVG Version: 6.00 Build 0)  -->
<svg version="1.1" id="Layer_1" xmlns="http://www.w3.org/2000/svg" xmlns:xlink="http://www.w3.org/1999/xlink" x="0px" y="0px"
	 viewBox="0 0 160 160" style="enable-background:new 0 0 160 160;" >
<style type="text/css">
	.st0{fill:#2EBD59;}
</style>
<path class="st0" d="M80,0C35.8,0,0,35.8,0,80s35.8,80,80,80s80-35.8,80-80C160,35.8,124.2,0,80,0z M116.7,115.4
	c-1.4,2.4-4.5,3.1-6.9,1.7C91,105.6,67.4,103,39.6,109.3c-2.7,0.6-5.4-1.1-6-3.8c-0.6-2.7,1.1-5.4,3.8-6c30.5-7,56.6-4,77.7,8.9
	C117.4,110,118.1,113,116.7,115.4z M126.5,93.6c-1.8,2.9-5.6,3.9-8.6,2.1c-21.5-13.2-54.3-17-79.7-9.3c-3.3,1-6.8-0.9-7.8-4.2
	c-1-3.3,0.9-6.8,4.2-7.8c29.1-8.8,65.2-4.5,89.9,10.6C127.4,86.8,128.3,90.7,126.5,93.6L126.5,93.6z M127.3,70.9
	C101.5,55.6,59,54.2,34.4,61.7c-4,1.2-8.1-1-9.3-5s1-8.1,5-9.3C58.3,38.8,105.3,40.4,135,58c3.6,2.1,4.7,6.7,2.6,10.3
	C135.5,71.9,130.9,73,127.3,70.9z"/>
</svg>
