<?xml version="1.0" encoding="utf-8"?>
<!-- Generator: Adobe Illustrator 24.1.2, SVG Export Plug-In . SVG Version: 6.00 Build 0)  -->
<svg version="1.1" id="Layer_1" xmlns="http://www.w3.org/2000/svg" xmlns:xlink="http://www.w3.org/1999/xlink" x="0px" y="0px"
	 viewBox="0 0 200 64.9" style="enable-background:new 0 0 200 64.9;" >
<style type="text/css">
	.st0{fill:#2566AF;}
	.st1{fill:#E6A540;}
</style>
<g>
	<path class="st0" d="M86.7,63.8H70.4L80.6,1.1h16.3L86.7,63.8z M56.7,1.1L41.1,44.2l-1.8-9.3l0,0L33.8,6.8c0,0-0.7-5.6-7.7-5.6H0.3
		L0,2.2c0,0,7.9,1.6,17.1,7.2l14.2,54.5h17l26-62.7L56.7,1.1L56.7,1.1z M185,63.8h15L186.9,1.1h-13.1c-6.1,0-7.5,4.7-7.5,4.7
		l-24.3,58h17l3.4-9.3h20.7L185,63.8L185,63.8z M167.1,41.6l8.6-23.5l4.8,23.5H167.1z M143.2,16.2l2.3-13.5c0,0-7.2-2.7-14.7-2.7
		c-8.1,0-27.3,3.5-27.3,20.8c0,16.2,22.6,16.4,22.6,24.9s-20.2,7-26.9,1.6l-2.4,14.1c0,0,7.3,3.5,18.4,3.5
		c11.1,0,27.9-5.8,27.9-21.5c0-16.3-22.8-17.8-22.8-24.9C120.3,11.4,136.2,12.3,143.2,16.2L143.2,16.2z"/>
</g>
<path class="st1" d="M39.3,35L33.8,6.8c0,0-0.7-5.6-7.7-5.6H0.3L0,2.2c0,0,12.4,2.6,24.2,12.2C35.6,23.5,39.3,35,39.3,35z"/>
</svg>
