<svg xmlns="http://www.w3.org/2000/svg" width="12.429" height="20.384" viewBox="0 0 12.429 20.384">
  <g id="Group_2" data-name="Group 2" transform="translate(0.5 0.342)">
    <path id="Stroke_425" data-name="Stroke 425" d="M0,0V10.476" transform="translate(11.429 4.286)" fill="none" stroke="#259cd4" stroke-linecap="round" stroke-linejoin="round" stroke-miterlimit="10" stroke-width="1"/>
    <g id="Group_1" data-name="Group 1">
      <path id="Stroke_423" data-name="Stroke 423" d="M0,0V8.571" transform="translate(0 6.19)" fill="none" stroke="#259cd4" stroke-linecap="round" stroke-linejoin="round" stroke-miterlimit="10" stroke-width="1"/>
      <path id="Stroke_424" data-name="Stroke 424" d="M11.429,0A5.508,5.508,0,0,1,5.714,5.275,5.508,5.508,0,0,1,0,0" transform="translate(0 14.267)" fill="none" stroke="#259cd4" stroke-linecap="round" stroke-linejoin="round" stroke-miterlimit="10" stroke-width="1"/>
      <path id="Stroke_426" data-name="Stroke 426" d="M8.1,3.609A3.847,3.847,0,0,0,4.048,0,4.144,4.144,0,0,0,0,3.97" transform="translate(3.333 0.158)" fill="none" stroke="#259cd4" stroke-linecap="round" stroke-linejoin="round" stroke-miterlimit="10" stroke-width="1"/>
      <path id="Stroke_427" data-name="Stroke 427" d="M0,0V8.571" transform="translate(3.333 4.762)" fill="none" stroke="#259cd4" stroke-linecap="round" stroke-linejoin="round" stroke-miterlimit="10" stroke-width="1"/>
      <path id="Stroke_428" data-name="Stroke 428" d="M4.762,0A2.381,2.381,0,0,1,2.381,2.381,2.381,2.381,0,0,1,0,0" transform="translate(3.333 13.333)" fill="none" stroke="#259cd4" stroke-linecap="round" stroke-linejoin="round" stroke-miterlimit="10" stroke-width="1"/>
      <path id="Stroke_429" data-name="Stroke 429" d="M0,0V7.143" transform="translate(8.095 6.19)" fill="none" stroke="#259cd4" stroke-linecap="round" stroke-linejoin="round" stroke-miterlimit="10" stroke-width="1"/>
    </g>
  </g>
</svg>
