<svg xmlns="http://www.w3.org/2000/svg" width="20.182" height="18.364" viewBox="0 0 20.182 18.364">
  <g id="Page_1" data-name="Page 1" transform="translate(1 1)" fill="none" stroke-linecap="round" stroke-linejoin="round" stroke-miterlimit="10">
    <path d="M18.182,0H0L7.273,8.6v5.945l3.636,1.818V8.6Z" stroke="none"/>
    <path d="M -1.9073486328125e-06 -1.9073486328125e-06 L 7.27272891998291 8.599998474121094 L 7.27272891998291 14.54545783996582 L 10.90908908843994 16.36363792419434 L 10.90908908843994 8.599998474121094 L 18.18181991577148 -1.9073486328125e-06 L -1.9073486328125e-06 -1.9073486328125e-06 M -1.9073486328125e-06 -1.000001907348633 L 18.18181991577148 -1.000001907348633 C 18.5711498260498 -1.000001907348633 18.92507934570313 -0.7740421295166016 19.08893966674805 -0.4208812713623047 C 19.25279998779297 -0.06771278381347656 19.1967887878418 0.3484477996826172 18.94538879394531 0.6457281112670898 L 11.90908908843994 8.966150283813477 L 11.90908908843994 16.36363792419434 C 11.90908908843994 16.71021842956543 11.72963905334473 17.03207778930664 11.43481922149658 17.21428871154785 C 11.27423667907715 17.31353378295898 11.09187889099121 17.36363983154297 10.90903949737549 17.36363983154297 C 10.75619506835938 17.36363983154297 10.60301971435547 17.32863807678223 10.46187877655029 17.2580680847168 L 6.825518608093262 15.43988800048828 C 6.486728668212891 15.27049827575684 6.27272891998291 14.92422771453857 6.27272891998291 14.54545783996582 L 6.27272891998291 8.966150283813477 L -0.7635707855224609 0.6457281112670898 C -1.014970779418945 0.3484477996826172 -1.070980072021484 -0.06771278381347656 -0.9071216583251953 -0.4208812713623047 C -0.7432613372802734 -0.7740421295166016 -0.3893318176269531 -1.000001907348633 -1.9073486328125e-06 -1.000001907348633 Z" stroke="none" fill="#259cd4"/>
  </g>
</svg>
