

<svg   xmlns="http://www.w3.org/2000/svg"  x="0px" y="0px"
	 viewBox="0 0 24 24" style="enable-background:new 0 0 24 24;" >
<g>
	<g>
		<path d="M17.447,21.277c-0.043-0.085-0.108-0.155-0.187-0.203c2.073-1.974,3.24-4.672,3.24-7.573c0-3.741-2.012-7.197-5.253-9.074
			C14.844,3.586,13.992,3,12.999,3c-0.197,0-0.386,0.029-0.57,0.072c-0.137-0.457-0.483-0.82-0.93-0.98V0.5
			c0-0.276-0.224-0.5-0.5-0.5h-2c-0.276,0-0.5,0.224-0.5,0.5v1.592c-0.581,0.207-1,0.757-1,1.408v8c0,0.651,0.419,1.201,1,1.408
			V16.5c0,0.276,0.224,0.5,0.5,0.5h2c0.276,0,0.5-0.224,0.5-0.5v-3.592c0.581-0.207,1-0.757,1-1.408V7.949
			C12.661,7.982,12.828,8,12.999,8c0.552,0,1.058-0.186,1.473-0.491c1.896,1.414,3.027,3.62,3.027,5.992
			c0,1.484-0.439,2.865-1.185,4.03L14.44,18h-7.44c-0.276,0-0.5,0.224-0.5,0.5s0.224,0.5,0.5,0.5h7.5
			c0.04,0,0.081-0.005,0.122-0.015l0.659-0.165c-1.356,1.347-3.223,2.181-5.281,2.181h-5c-0.189,0-0.362,0.107-0.447,0.276l-1,2
			c-0.078,0.154-0.069,0.339,0.022,0.486C3.665,23.91,3.826,24,3.999,24h14c0.173,0,0.335-0.09,0.426-0.237s0.1-0.331,0.022-0.486
			L17.447,21.277z M9.499,1h1v1h-1V1z M10.499,16h-1v-3h1V16z M11.499,11.5c0,0.276-0.224,0.5-0.5,0.5h-2
			c-0.276,0-0.5-0.224-0.5-0.5v-8c0-0.276,0.224-0.5,0.5-0.5h2c0.276,0,0.5,0.224,0.5,0.5v0.01
			c-0.009,0.007-0.015,0.016-0.024,0.023c-0.133,0.103-0.253,0.218-0.362,0.345c-0.021,0.024-0.041,0.048-0.06,0.073
			c-0.094,0.118-0.177,0.244-0.249,0.379c-0.017,0.032-0.036,0.063-0.052,0.096c-0.064,0.134-0.115,0.274-0.154,0.419
			c-0.01,0.035-0.024,0.068-0.032,0.104c-0.04,0.178-0.066,0.361-0.066,0.551s0.025,0.373,0.066,0.551
			c0.008,0.036,0.023,0.069,0.032,0.104c0.04,0.146,0.09,0.286,0.154,0.419c0.016,0.033,0.035,0.063,0.052,0.096
			c0.072,0.134,0.154,0.26,0.249,0.379c0.02,0.025,0.04,0.049,0.06,0.073c0.109,0.127,0.23,0.242,0.362,0.345
			c0.009,0.007,0.015,0.016,0.024,0.023V11.5z M14.498,5.513c-0.002,0.178-0.037,0.352-0.1,0.516
			c-0.003,0.009-0.005,0.018-0.008,0.027c-0.069,0.169-0.169,0.326-0.297,0.464C13.819,6.813,13.432,7,12.999,7
			c-0.273,0-0.526-0.079-0.747-0.207c-0.001,0-0.001-0.001-0.002-0.002c-0.225-0.131-0.404-0.312-0.532-0.522
			c-0.014-0.023-0.026-0.048-0.039-0.072c-0.042-0.079-0.076-0.163-0.104-0.249c-0.01-0.032-0.022-0.062-0.029-0.095
			c-0.028-0.114-0.047-0.232-0.047-0.354c0-0.121,0.019-0.239,0.046-0.353c0.008-0.034,0.02-0.065,0.031-0.098
			c0.027-0.084,0.06-0.166,0.102-0.244c0.014-0.026,0.027-0.052,0.042-0.076c0.128-0.209,0.306-0.39,0.531-0.52
			c0.001,0,0.001-0.001,0.002-0.002C12.473,4.079,12.726,4,12.999,4c0.634,0,1.175,0.397,1.394,0.955
			c0.07,0.179,0.104,0.359,0.105,0.536c0,0.003,0.001,0.006,0.001,0.009C14.499,5.505,14.498,5.509,14.498,5.513z M4.808,23l0.5-1
			h4.691c4.687,0,8.5-3.813,8.5-8.5c0-2.656-1.24-5.14-3.342-6.744c0.019-0.032,0.028-0.068,0.045-0.1
			c0.052-0.098,0.099-0.199,0.137-0.304c0.023-0.063,0.042-0.127,0.06-0.192c0.026-0.095,0.047-0.192,0.062-0.292
			c0.006-0.038,0.02-0.074,0.024-0.113c2.498,1.77,4.013,4.653,4.013,7.745c0,3.013-1.392,5.783-3.818,7.6
			c-0.173,0.129-0.243,0.354-0.175,0.558C15.575,21.862,15.766,22,15.981,22h0.709l0.5,1H4.808z"/>
	</g>
</g>
</svg>
