<svg id="Group_1" data-name="Group 1" xmlns="http://www.w3.org/2000/svg" width="22" height="22" viewBox="0 0 22 22">
  <g id="Oval" fill="none" stroke="#fff" stroke-miterlimit="10" stroke-width="1">
    <circle cx="11" cy="11" r="11" stroke="none"/>
    <circle cx="11" cy="11" r="10.5" fill="none"/>
  </g>
  <g id="Shape" transform="translate(7.5 5.5)" fill="none" stroke-miterlimit="10">
    <path d="M3.5,7A3.5,3.5,0,1,0,0,3.5,3.51,3.51,0,0,0,3.5,7Z" stroke="none"/>
    <path d="M 3.5 6 C 4.878499984741211 6 6 4.878499984741211 6 3.5 C 6 2.121500015258789 4.878499984741211 1 3.5 1 C 2.121500015258789 1 1 2.121500015258789 1 3.5 C 1 4.878499984741211 2.121500015258789 6 3.5 6 M 3.5 7 C 1.575000047683716 7 -4.440892098500626e-16 5.425000190734863 -4.440892098500626e-16 3.5 C -4.440892098500626e-16 1.575000047683716 1.575000047683716 -4.440892098500626e-16 3.5 -4.440892098500626e-16 C 5.425000190734863 -4.440892098500626e-16 7 1.575000047683716 7 3.5 C 7 5.425000190734863 5.425000190734863 7 3.5 7 Z" stroke="none" fill="#fff"/>
  </g>
  <path id="Path" d="M16,2.975C16,.967,10.7,0,8,0S0,.967,0,2.975" transform="translate(3 14.525)" fill="none" stroke="#fff" stroke-miterlimit="10" stroke-width="1"/>
</svg>
