
<svg width="400px" height="121px" viewBox="0 0 400 121"  xmlns="http://www.w3.org/2000/svg" >
    <!-- Generator: Sketch 54.1 (76490) - https://sketchapp.com -->
    <title>Logo Cedimed</title>
    <desc>Created with Sketch.</desc>
    <defs>
        <polygon id="path-1" points="0 120.870892 399.546334 120.870892 399.546334 0 0 0"></polygon>
    </defs>
    <g id="Login-Page" stroke="none" stroke-width="1" fill="none" fill-rule="evenodd">
        <g transform="translate(-521.000000, -190.000000)" id="Logo-Cedimed">
            <g transform="translate(521.000000, 190.000000)">
                <g>
                    <path d="M149.578284,33.2589706 C145.583276,30.998017 142.453167,30.0661923 138.724618,30.0661923 C129.203245,30.0661923 122.810733,36.9201562 122.810733,47.1696046 C122.810733,52.2946407 124.541778,56.8196665 127.804181,60.1471665 C130.53429,62.9426407 134.929298,64.8050428 138.791388,64.8050428 C143.71869,64.8050428 146.848175,63.873218 150.377036,61.4769191 L152.640998,66.003816 C148.245991,68.9995015 143.918378,70.3966149 138.52493,70.3966149 C132.732106,70.3966149 127.0722,68.1999036 123.076568,64.3397541 C118.682184,60.0798057 116.485616,54.3578778 116.485616,47.1034912 C116.485616,40.7815531 119.414789,34.1907954 123.942715,30.1990428 C127.871576,26.7380686 133.397941,24.7409448 138.991076,24.7409448 C143.985148,24.7409448 147.980156,25.8068675 152.308393,28.3353933 L149.578284,33.2589706 Z" id="Fill-1" fill="#FEFEFE"></path>
                    <polygon id="Fill-3" fill="#FEFEFE" points="185.868019 30.5314186 168.223089 30.5314186 168.223089 44.0410062 184.336661 44.0410062 184.336661 48.8336041 168.223089 48.8336041 168.223089 64.4070526 188.864587 64.4070526 188.065211 69.397367 162.429641 69.397367 162.429641 25.7388206 185.868019 25.7388206"></polygon>
                    <path d="M204.646053,64.3397541 C207.641997,64.8050428 208.108144,64.8050428 211.903463,64.8050428 C223.555881,64.8050428 229.881622,58.8155428 229.881622,47.7677438 C229.881622,41.5799036 226.085679,35.3895686 220.759626,32.793682 C218.028892,31.4633057 214.900031,30.6649552 211.504087,30.5314809 C210.305335,30.4641201 209.107207,30.397383 207.774914,30.397383 L205.977722,30.4641201 C205.910952,30.4641201 205.244493,30.4641201 204.646053,30.5314809 L204.646053,64.3397541 Z M198.853229,25.939718 C205.844181,25.5392954 205.77741,25.5392954 211.37117,25.5392954 C219.02858,25.5392954 226.085679,28.0684448 230.280998,32.3951304 C234.343401,36.5209809 236.207363,41.6447696 236.207363,48.5006046 C236.207363,55.221718 232.678502,62.010816 227.418596,65.604017 C225.420468,67.0017541 222.956817,68.000316 219.894103,68.6664397 C217.630764,69.1323521 213.767426,69.5976407 211.903463,69.5976407 L208.242309,69.6643778 C204.978658,69.6643778 202.78209,69.5302799 198.853229,69.1990892 L198.853229,25.939718 Z" id="Fill-5" fill="#FEFEFE"></path>
                    <mask id="mask-2" fill="white">
                        <use xlink:href="#path-1"></use>
                    </mask>
                    <g id="Clip-8"></g>
                    <polygon id="Fill-7" fill="#FEFEFE" mask="url(#mask-2)" points="247.528237 69.397866 253.321061 69.397866 253.321061 25.7393196 247.528237 25.7393196"></polygon>
                    <polygon id="Fill-9" fill="#FEFEFE" mask="url(#mask-2)" points="314.980281 69.3976789 309.187457 69.3976789 305.85766 37.2534675 291.008986 69.3976789 287.480125 69.3976789 272.831139 37.9183438 269.302902 69.3976789 263.975601 69.3976789 269.302902 25.7391325 273.231139 25.7391325 289.61117 61.1459778 305.85766 25.7391325 309.853292 25.7391325"></polygon>
                    <polygon id="Fill-10" fill="#FEFEFE" mask="url(#mask-2)" points="349.207176 30.5314186 331.562246 30.5314186 331.562246 44.0410062 347.675819 44.0410062 347.675819 48.8336041 331.562246 48.8336041 331.562246 64.4070526 352.204368 64.4070526 351.404368 69.397367 325.769423 69.397367 325.769423 25.7388206 349.207176 25.7388206"></polygon>
                    <path d="M367.984587,64.3397541 C370.981154,64.8050428 371.447301,64.8050428 375.242621,64.8050428 C386.895039,64.8050428 393.22078,58.8155428 393.22078,47.7677438 C393.22078,41.5799036 389.424836,35.3895686 384.098783,32.793682 C381.369298,31.4633057 378.239189,30.6649552 374.843245,30.5314809 C373.644493,30.4641201 372.446365,30.397383 371.114696,30.397383 L369.31688,30.4641201 C369.250109,30.4641201 368.584899,30.4641201 367.984587,30.5314809 L367.984587,64.3397541 Z M362.191763,25.939718 C369.183963,25.5392954 369.116568,25.5392954 374.710328,25.5392954 C382.367738,25.5392954 389.424836,28.0684448 393.620156,32.3951304 C397.682559,36.5209809 399.546521,41.6447696 399.546521,48.5006046 C399.546521,55.221718 396.01766,62.010816 390.757754,65.604017 C388.76025,67.0017541 386.295975,68.000316 383.233261,68.6664397 C380.969922,69.1323521 377.107832,69.5976407 375.242621,69.5976407 L371.581466,69.6643778 C368.317816,69.6643778 366.121248,69.5302799 362.191763,69.1990892 L362.191763,25.939718 Z" id="Fill-11" fill="#FEFEFE" mask="url(#mask-2)"></path>
                    <path d="M125.819033,84.2424454 C124.93791,83.7428526 124.24649,83.5376515 123.423401,83.5376515 C121.320437,83.5376515 119.909516,85.0501515 119.909516,87.3136 C119.909516,88.4450124 120.292044,89.4441979 121.012168,90.1789299 C121.614353,90.7951567 122.584711,91.2068062 123.437754,91.2068062 C124.526053,91.2068062 125.216225,91.0016052 125.995632,90.4714505 L126.495476,91.4725072 C125.525117,92.1330175 124.569735,92.4411309 123.378471,92.4411309 C122.099844,92.4411309 120.850546,91.9571309 119.968175,91.1045175 C118.997192,90.1639608 118.513573,88.8996979 118.513573,87.2986309 C118.513573,85.9015175 119.159438,84.4482701 120.15975,83.5663423 C121.026521,82.8029196 122.24649,82.361332 123.482059,82.361332 C124.584087,82.361332 125.467083,82.5964711 126.422465,83.1553165 L125.819033,84.2424454 Z" id="Fill-12" fill="#FEFEFE" mask="url(#mask-2)"></path>
                    <path d="M132.287176,88.0176454 C132.199189,87.1076505 131.552075,86.5201144 130.640998,86.5201144 C129.758627,86.5201144 129.097785,87.0933052 128.891856,88.0176454 L132.287176,88.0176454 Z M128.87688,88.8409443 C128.87688,89.4135113 128.935538,89.753434 129.127114,90.1638361 C129.450359,90.8686299 130.16986,91.339532 130.934914,91.339532 C131.699969,91.339532 132.301529,91.1043928 132.78702,90.6191454 L133.404805,91.2653103 C132.66908,92.0592948 131.861591,92.4116918 130.758939,92.4116918 C128.862527,92.4116918 127.642559,91.0451402 127.642559,88.8995732 C127.642559,87.9446711 128.03819,86.9910165 128.670952,86.4028567 C129.229454,85.8876711 130.008861,85.5639649 130.699657,85.5639649 C131.875944,85.5639649 132.655351,86.0061763 133.125866,86.9454856 C133.331794,87.3714804 133.404805,87.6802175 133.404805,88.2390629 L132.904961,88.8409443 L128.87688,88.8409443 Z" id="Fill-13" fill="#FEFEFE" mask="url(#mask-2)"></path>
                    <path d="M136.022215,85.5642144 C136.374165,85.7993536 136.535788,86.1380289 136.580094,86.7261887 C137.124243,85.9758639 137.874321,85.5642144 138.711763,85.5642144 C140.108331,85.5642144 141.005055,86.4604876 141.005055,87.8725701 L141.005055,92.2217093 L139.800062,92.2217093 L139.800062,88.3559464 C139.800062,87.6517763 139.712075,87.2831629 139.49117,87.0049876 C139.240936,86.6956268 138.902715,86.5646474 138.417847,86.5646474 C137.93298,86.5646474 137.403807,86.814132 136.976973,87.2257814 C136.88961,87.3137247 136.801622,87.4160134 136.654353,87.5925237 L136.654353,92.2217093 L135.448736,92.2217093 L135.448736,88.3559464 C135.448736,86.7261887 135.375101,86.3438536 135.007551,85.9920804 L136.022215,85.5642144 Z" id="Fill-14" fill="#FEFEFE" mask="url(#mask-2)"></path>
                    <path d="M146.811607,86.6666866 L145.048112,86.6666866 L145.048112,90.0765165 C145.048112,91.1043928 145.239064,91.3538773 146.032824,91.3538773 C146.326739,91.3538773 146.636256,91.2796557 147.121123,91.0900474 L147.297098,91.8977536 C146.709267,92.2214598 146.120811,92.3524392 145.429392,92.3237485 C144.812855,92.294434 144.283058,92.000666 144.033448,91.5441093 C143.901154,91.2946247 143.842496,90.9278825 143.842496,90.4282897 L143.842496,89.8844134 L143.842496,86.6666866 L142.475257,86.6666866 L142.475257,85.9176093 L142.872761,85.8876711 C143.974789,85.8140732 144.150764,85.6232175 144.34234,84.3152948 L144.400998,83.9186144 L145.1517,83.9186144 L145.048112,85.7566918 L146.811607,85.7566918 L146.811607,86.6666866 Z" id="Fill-15" fill="#FEFEFE" mask="url(#mask-2)"></path>
                    <path d="M149.516755,85.5642144 C149.914259,85.8299155 150.046552,86.1966577 150.090234,87.1079 C150.677441,86.0488381 151.25092,85.5642144 151.884306,85.5642144 C152.207551,85.5642144 152.413479,85.623467 152.912699,85.813699 L152.619407,86.8284773 C152.133292,86.6812814 151.927988,86.6363742 151.707707,86.6669361 C151.266521,86.7261887 150.78103,87.0785856 150.399126,87.6368072 C150.339844,87.7253742 150.310515,87.7540649 150.148892,88.0035495 L150.148892,92.2217093 L148.943276,92.2217093 L148.943276,88.3559464 C148.943276,86.7261887 148.870265,86.3438536 148.50209,85.9920804 L149.516755,85.5642144 Z" id="Fill-16" fill="#FEFEFE" mask="url(#mask-2)"></path>
                    <path d="M158.264087,88.0176454 C158.174852,87.1076505 157.528986,86.5201144 156.616661,86.5201144 C155.735538,86.5201144 155.074072,87.0933052 154.868144,88.0176454 L158.264087,88.0176454 Z M154.853167,88.8409443 C154.853167,89.4135113 154.912449,89.753434 155.103401,90.1638361 C155.426022,90.8686299 156.146771,91.339532 156.911825,91.339532 C157.675632,91.339532 158.277816,91.1043928 158.763931,90.6191454 L159.381092,91.2653103 C158.645991,92.0592948 157.83663,92.4116918 156.735226,92.4116918 C154.838814,92.4116918 153.618846,91.0451402 153.618846,88.8995732 C153.618846,87.9446711 154.015101,86.9910165 154.647239,86.4028567 C155.206365,85.8876711 155.985772,85.5639649 156.676568,85.5639649 C157.852855,85.5639649 158.631638,86.0061763 159.102153,86.9454856 C159.307457,87.3714804 159.381092,87.6802175 159.381092,88.2390629 L158.881248,88.8409443 L154.853167,88.8409443 Z" id="Fill-17" fill="#FEFEFE" mask="url(#mask-2)"></path>
                    <path d="M169.450796,87.2684433 C168.921622,86.7551289 168.466084,86.5642732 167.848924,86.5935876 C166.716942,86.6528402 165.967488,87.6514021 165.967488,89.0909278 C165.967488,90.4138196 166.789953,91.4130052 167.893229,91.4130052 C168.554072,91.4130052 168.863588,91.2945 169.450796,90.7949072 L169.450796,87.2684433 Z M170.65766,81.9500567 L170.65766,90.1481186 C170.65766,90.7213093 170.65766,90.6782732 170.671388,90.8098763 C170.715694,91.3537526 170.892917,91.5296392 171.392137,91.5296392 L171.568112,91.5296392 L171.392137,92.3523144 C171.15688,92.3972216 171.142527,92.3972216 170.818658,92.3972216 C170.186521,92.3972216 169.789641,92.1333918 169.613042,91.5895155 C168.921622,92.2213351 168.407426,92.411567 167.466396,92.411567 C165.849548,92.411567 164.658284,91.0013557 164.658284,89.0909278 C164.658284,87.2260309 166.070452,85.6517835 167.746583,85.6517835 C168.481685,85.6517835 168.775601,85.7260052 169.450796,86.1226856 L169.450796,81.9500567 L170.65766,81.9500567 Z" id="Fill-18" fill="#FEFEFE" mask="url(#mask-2)"></path>
                    <path d="M177.65454,88.0176454 C177.565304,87.1076505 176.919438,86.5201144 176.007738,86.5201144 C175.125367,86.5201144 174.465148,87.0933052 174.25922,88.0176454 L177.65454,88.0176454 Z M174.242995,88.8409443 C174.242995,89.4135113 174.302902,89.753434 174.493229,90.1638361 C174.817098,90.8686299 175.537223,91.339532 176.302278,91.339532 C177.066084,91.339532 177.668892,91.1043928 178.154384,90.6191454 L178.771544,91.2653103 C178.036443,92.0592948 177.227707,92.4116918 176.125055,92.4116918 C174.229267,92.4116918 173.008674,91.0451402 173.008674,88.8995732 C173.008674,87.9446711 173.405554,86.9910165 174.037691,86.4028567 C174.596817,85.8876711 175.375601,85.5639649 176.066396,85.5639649 C177.243307,85.5639649 178.02209,86.0061763 178.491981,86.9454856 C178.69791,87.3714804 178.771544,87.6802175 178.771544,88.2390629 L178.2717,88.8409443 L174.242995,88.8409443 Z" id="Fill-19" fill="#FEFEFE" mask="url(#mask-2)"></path>
                    <path d="M185.709579,91.1045175 C186.371669,91.2068062 186.475257,91.2068062 187.312075,91.2068062 C189.88493,91.2068062 191.282122,89.8845381 191.282122,87.4452031 C191.282122,86.0792753 190.444056,84.7127237 189.267145,84.139533 C188.664961,83.8451412 187.974165,83.6686309 187.224711,83.6399402 C186.960125,83.6262186 186.694914,83.6100021 186.400374,83.6100021 L186.004119,83.6262186 C185.989766,83.6262186 185.84312,83.6262186 185.709579,83.6399402 L185.709579,91.1045175 Z M184.430952,82.6251619 C185.975413,82.5372186 185.959189,82.5372186 187.195382,82.5372186 C188.885866,82.5372186 190.444056,83.0960639 191.370109,84.050966 C192.267457,84.9622082 192.67869,86.0942443 192.67869,87.6067443 C192.67869,89.0905536 191.899906,90.5905794 190.737972,91.3839402 C190.296786,91.6914299 189.752637,91.9122237 189.076817,92.0594196 C188.576973,92.1617082 187.724555,92.2639969 187.312075,92.2639969 L186.503963,92.278966 C185.783838,92.278966 185.29897,92.2502753 184.430952,92.1766773 L184.430952,82.6251619 Z" id="Fill-20" fill="#FEFEFE" mask="url(#mask-2)"></path>
                    <path d="M194.766303,92.2213351 L195.971295,92.2213351 L195.971295,85.756567 L194.766303,85.756567 L194.766303,92.2213351 Z M196.104836,83.3166082 C196.104836,83.7712938 195.79532,84.1105928 195.369111,84.1105928 C194.957878,84.1105928 194.634009,83.7712938 194.634009,83.3166082 C194.634009,82.861299 194.957878,82.5232474 195.369111,82.5232474 C195.79532,82.5232474 196.104836,82.861299 196.104836,83.3166082 L196.104836,83.3166082 Z" id="Fill-21" fill="#FEFEFE" mask="url(#mask-2)"></path>
                    <path d="M201.645991,88.8569737 C199.926178,89.1064582 199.249111,89.5318294 199.191076,90.4137572 C199.146771,91.0605459 199.558627,91.4871644 200.250047,91.4871644 C200.778596,91.4871644 201.13117,91.3393448 201.645991,90.9426644 L201.645991,88.8569737 Z M198.338658,86.2985098 C199.235382,85.8138861 199.926178,85.6093088 200.691232,85.6093088 C201.439438,85.6093088 202.086552,85.8587933 202.454727,86.3147263 C202.733666,86.6359376 202.852231,87.1804376 202.852231,88.0174582 L202.852231,90.1480562 C202.852231,90.7212469 202.852231,90.6782108 202.866583,90.8098139 C202.909641,91.3536902 203.08624,91.5295768 203.586708,91.5295768 L203.763931,91.5295768 L203.586708,92.3522521 C203.351451,92.3971593 203.337098,92.3971593 203.013853,92.3971593 C202.381716,92.3971593 201.984212,92.1333294 201.808237,91.6031747 C201.058783,92.2069273 200.558315,92.4115046 199.83819,92.4115046 C198.691856,92.4115046 197.926802,91.6181438 197.986084,90.457417 C198.03039,89.3989789 198.705585,88.7384686 200.044119,88.400417 C200.323058,88.3268191 200.778596,88.2532211 201.293417,88.1796232 L201.528674,88.1503088 L201.645991,88.1222418 L201.645991,87.8421954 C201.645991,87.3575716 201.586708,87.1374015 201.396381,86.9309531 C201.175476,86.6958139 200.778596,86.5791799 200.33741,86.6084943 C199.734602,86.6527778 199.279064,86.8143191 198.338658,87.3426026 L198.338658,86.2985098 Z" id="Fill-22" fill="#FEFEFE" mask="url(#mask-2)"></path>
                    <path d="M206.203682,87.7106546 C206.113822,88.7834381 206.746583,89.6210825 207.658284,89.6210825 C208.526303,89.6210825 209.040499,89.0909278 209.084805,88.1653402 C209.128487,87.0931804 208.511326,86.2985722 207.615226,86.2985722 C206.80649,86.2985722 206.276069,86.8143814 206.203682,87.7106546 L206.203682,87.7106546 Z M206.922559,92.3828763 C206.159376,92.7496186 205.761872,93.2205206 205.761872,93.7481804 C205.761872,94.6020412 206.599938,95.2176443 207.762496,95.2176443 C208.90883,95.2176443 209.673261,94.6750155 209.673261,93.8666856 C209.673261,93.4107526 209.451732,93.1032629 208.982465,92.8824691 C208.804618,92.8088711 208.526303,92.7352732 208.069516,92.6329845 L206.922559,92.3828763 Z M211.142839,86.5642732 L209.643931,86.5050206 C210.084493,86.9759227 210.274821,87.4156392 210.274821,87.9601392 C210.274821,88.7971598 210.025211,89.3859433 209.482309,89.8555979 C209.025523,90.2366856 208.378409,90.4574794 207.731919,90.4574794 C207.422402,90.4574794 207.217722,90.443134 206.791513,90.3551907 C206.541903,90.5023866 206.437691,90.605299 206.408986,90.7805619 C206.349704,91.0606082 206.541903,91.1922113 207.262652,91.3537526 L209.202122,91.7953402 C210.231763,92.029232 210.8483,92.7939021 210.805242,93.7338351 C210.731607,95.129701 209.408674,96.130134 207.643931,96.130134 C205.821154,96.130134 204.629891,95.2768969 204.629891,93.9839433 C204.629891,93.1756134 205.159688,92.573732 206.246739,92.1333918 C205.614602,91.8976289 205.438003,91.6768351 205.438003,91.1628969 C205.438003,90.7075876 205.614602,90.4718247 206.246739,90.1057062 C205.35064,89.6348041 204.998066,89.0023608 204.998066,87.915232 C204.998066,86.5935876 206.042059,85.5944021 207.482309,85.5208041 C207.982153,85.4902423 208.291045,85.5494948 208.849548,85.756567 L211.142839,85.756567 L211.142839,86.5642732 Z" id="Fill-23" fill="#FEFEFE" mask="url(#mask-2)"></path>
                    <path d="M213.524431,85.5642144 C213.876381,85.7993536 214.038003,86.1380289 214.083557,86.7261887 C214.626459,85.9758639 215.377161,85.5642144 216.215226,85.5642144 C217.61117,85.5642144 218.507894,86.4604876 218.507894,87.8725701 L218.507894,92.2217093 L217.302278,92.2217093 L217.302278,88.3559464 C217.302278,87.6517763 217.21429,87.2831629 216.993385,87.0049876 C216.743151,86.6956268 216.40493,86.5646474 215.920062,86.5646474 C215.435195,86.5646474 214.906646,86.814132 214.480437,87.2257814 C214.390577,87.3137247 214.30259,87.4160134 214.157192,87.5925237 L214.157192,92.2217093 L212.950952,92.2217093 L212.950952,88.3559464 C212.950952,86.7261887 212.877317,86.3438536 212.509142,85.9920804 L213.524431,85.5642144 Z" id="Fill-24" fill="#FEFEFE" mask="url(#mask-2)"></path>
                    <path d="M221.859782,88.7528139 C221.859782,90.340783 222.771482,91.4566026 224.065086,91.4566026 C225.167114,91.4566026 225.97585,90.5166696 225.97585,89.2374376 C225.97585,87.6513397 225.078502,86.5642108 223.784899,86.5642108 C222.682871,86.5642108 221.859782,87.5041438 221.859782,88.7528139 M227.225148,88.7970974 C227.32936,90.8254067 225.932168,92.4115046 224.034509,92.4115046 C221.962122,92.4115046 220.594883,91.0605459 220.594883,89.0022985 C220.594883,87.0482108 222.022028,85.5644015 223.902839,85.5644015 C225.77117,85.5644015 227.122808,86.8717005 227.225148,88.7970974" id="Fill-25" fill="#FEFEFE" mask="url(#mask-2)"></path>
                    <path d="M232.517566,87.1076505 C231.797441,86.6361247 231.517878,86.5201144 231.01741,86.5488052 C230.50259,86.5787433 230.121934,86.9161711 230.121934,87.3427897 C230.121934,87.6228361 230.25298,87.8274134 230.533167,87.9895784 C230.695413,88.091867 230.857036,88.1798103 231.047988,88.2534082 L231.371232,88.3862588 L231.680125,88.5334546 L232.003994,88.664434 C232.810858,89.0180784 233.207738,89.6062381 233.207738,90.4432588 C233.207738,91.5297639 232.208674,92.4116918 230.959376,92.4116918 C230.032699,92.4116918 229.296973,92.1029546 228.666084,91.4274753 L229.282621,90.6191454 C229.841747,91.177367 230.40025,91.4567897 230.945023,91.4567897 C231.620842,91.4567897 232.075757,91.1043928 232.075757,90.5761093 C232.075757,90.1195526 231.884805,89.9286969 231.16468,89.6349289 C230.533167,89.3704753 230.032699,89.1353361 229.768112,88.9594495 C229.268268,88.6357433 229.003682,88.0482072 229.046739,87.4020423 C229.120998,86.3729186 229.944087,85.6094959 231.047988,85.5639649 C231.694477,85.5352742 232.355944,85.7566918 232.97248,86.2113773 L232.517566,87.1076505 Z" id="Fill-26" fill="#FEFEFE" mask="url(#mask-2)"></path>
                    <path d="M238.750515,86.6666866 L236.987644,86.6666866 L236.987644,90.0765165 C236.987644,91.1043928 237.177972,91.3538773 237.972356,91.3538773 C238.265647,91.3538773 238.57454,91.2796557 239.059407,91.0900474 L239.235382,91.8977536 C238.648175,92.2214598 238.060967,92.3524392 237.3683,92.3237485 C236.751763,92.294434 236.221966,92.000666 235.972356,91.5441093 C235.840686,91.2946247 235.781404,90.9278825 235.781404,90.4282897 L235.781404,89.8844134 L235.781404,86.6666866 L234.414165,86.6666866 L234.414165,85.9176093 L234.811045,85.8876711 C235.914321,85.8140732 236.090296,85.6232175 236.281248,84.3152948 L236.34053,83.9186144 L237.089984,83.9186144 L236.987644,85.7566918 L238.750515,85.7566918 L238.750515,86.6666866 Z" id="Fill-27" fill="#FEFEFE" mask="url(#mask-2)"></path>
                    <path d="M240.836817,92.2213351 L242.043058,92.2213351 L242.043058,85.756567 L240.836817,85.756567 L240.836817,92.2213351 Z M242.175975,83.3166082 C242.175975,83.7712938 241.867083,84.1105928 241.440874,84.1105928 C241.029641,84.1105928 240.705772,83.7712938 240.705772,83.3166082 C240.705772,82.861299 241.029641,82.5232474 241.440874,82.5232474 C241.867083,82.5232474 242.175975,82.861299 242.175975,83.3166082 L242.175975,83.3166082 Z" id="Fill-28" fill="#FEFEFE" mask="url(#mask-2)"></path>
                    <path d="M248.90858,87.1216216 C248.306396,86.7411577 247.923869,86.6083072 247.439002,86.6083072 C246.277691,86.6083072 245.439626,87.5488639 245.439626,88.8567866 C245.439626,90.310034 246.306396,91.3397814 247.526365,91.3397814 C248.144774,91.3397814 248.482371,91.2374928 249.144462,90.8688794 L249.584399,91.6622402 C248.894852,92.1911474 248.217161,92.4113175 247.336037,92.4113175 C245.409672,92.4113175 244.058034,90.9131629 244.160374,88.8854773 C244.248362,87.0049876 245.659282,85.5642144 247.393448,85.5642144 C248.232761,85.5642144 248.849298,85.7569412 249.510764,86.2415649 L248.90858,87.1216216 Z" id="Fill-29" fill="#FEFEFE" mask="url(#mask-2)"></path>
                    <path d="M259.287863,88.0176454 C259.199251,87.1076505 258.552761,86.5201144 257.641061,86.5201144 C256.75869,86.5201144 256.097847,87.0933052 255.891295,88.0176454 L259.287863,88.0176454 Z M255.876318,88.8409443 C255.876318,89.4135113 255.936225,89.753434 256.126552,90.1638361 C256.449797,90.8686299 257.170546,91.339532 257.934353,91.339532 C258.698783,91.339532 259.302215,91.1043928 259.787707,90.6191454 L260.404243,91.2653103 C259.668518,92.0592948 258.859782,92.4116918 257.758378,92.4116918 C255.86259,92.4116918 254.641997,91.0451402 254.641997,88.8995732 C254.641997,87.9446711 255.038877,86.9910165 255.669766,86.4028567 C256.229516,85.8876711 257.008924,85.5639649 257.699095,85.5639649 C258.87663,85.5639649 259.654789,86.0061763 260.125304,86.9454856 C260.330608,87.3714804 260.404243,87.6802175 260.404243,88.2390629 L259.904399,88.8409443 L255.876318,88.8409443 Z" id="Fill-30" fill="#FEFEFE" mask="url(#mask-2)"></path>
                    <path d="M265.932106,86.6666866 L264.169236,86.6666866 L264.169236,90.0765165 C264.169236,91.1043928 264.359563,91.3538773 265.153947,91.3538773 C265.447239,91.3538773 265.756131,91.2796557 266.240998,91.0900474 L266.416973,91.8977536 C265.829766,92.2214598 265.242559,92.3524392 264.549891,92.3237485 C263.933978,92.294434 263.403557,92.000666 263.153947,91.5441093 C263.022278,91.2946247 262.962995,90.9278825 262.962995,90.4282897 L262.962995,89.8844134 L262.962995,86.6666866 L261.595757,86.6666866 L261.595757,85.9176093 L261.993261,85.8876711 C263.095913,85.8140732 263.271888,85.6232175 263.462839,84.3152948 L263.522122,83.9186144 L264.271576,83.9186144 L264.169236,85.7566918 L265.932106,85.7566918 L265.932106,86.6666866 Z" id="Fill-31" fill="#FEFEFE" mask="url(#mask-2)"></path>
                    <path d="M276.090234,87.2684433 C275.561685,86.7551289 275.105523,86.5642732 274.488986,86.5935876 C273.356381,86.6528402 272.607551,87.6514021 272.607551,89.0909278 C272.607551,90.4138196 273.430016,91.4130052 274.532044,91.4130052 C275.19351,91.4130052 275.503027,91.2945 276.090234,90.7949072 L276.090234,87.2684433 Z M277.296474,81.9500567 L277.296474,90.1481186 C277.296474,90.7213093 277.296474,90.6782732 277.310827,90.8098763 C277.355133,91.3537526 277.531732,91.5296392 278.030952,91.5296392 L278.207551,91.5296392 L278.030952,92.3523144 C277.795694,92.3972216 277.781342,92.3972216 277.458097,92.3972216 C276.825959,92.3972216 276.428456,92.1333918 276.25248,91.5895155 C275.561685,92.2213351 275.047488,92.411567 274.105835,92.411567 C272.488986,92.411567 271.298346,91.0013557 271.298346,89.0909278 C271.298346,87.2260309 272.709891,85.6517835 274.384774,85.6517835 C275.119875,85.6517835 275.414415,85.7260052 276.090234,86.1226856 L276.090234,81.9500567 L277.296474,81.9500567 Z" id="Fill-32" fill="#FEFEFE" mask="url(#mask-2)"></path>
                    <path d="M282.014165,82.4346804 C281.823214,83.7569485 281.383276,84.9027062 280.515257,86.2112526 L279.573604,86.0490876 C280.353635,84.6251546 280.794197,83.4051753 280.912137,82.3018299 L282.014165,82.4346804 Z" id="Fill-33" fill="#FEFEFE" mask="url(#mask-2)"></path>
                    <polygon id="Fill-34" fill="#FEFEFE" mask="url(#mask-2)" points="284.15975 92.2213351 285.439626 92.2213351 285.439626 82.5818763 284.15975 82.5818763"></polygon>
                    <path d="M288.512824,85.5642144 C288.851045,85.7850082 289.02702,86.1380289 289.07195,86.6956268 C289.526864,85.9758639 290.276318,85.5642144 291.115632,85.5642144 C292.085991,85.5642144 292.731232,85.9758639 293.054477,86.7985392 C293.36337,86.4168278 293.539969,86.2415649 293.760874,86.0794 C294.187083,85.7569412 294.760562,85.5642144 295.260406,85.5642144 C296.729984,85.5642144 297.495663,86.3295082 297.495663,87.8126938 L297.495663,92.2217093 L296.290047,92.2217093 L296.290047,88.2536577 C296.290047,87.475266 296.260718,87.2681938 296.068518,87.0049876 C295.863214,86.6812814 295.495039,86.5197402 294.980842,86.5484309 C294.305023,86.5789928 293.848861,86.8883536 293.320312,87.6368072 L293.320312,92.2217093 L292.114072,92.2217093 L292.114072,88.2673794 C292.114072,87.5326474 292.055413,87.2257814 291.834509,86.9600804 C291.600499,86.6669361 291.2317,86.5197402 290.77741,86.5484309 C290.099719,86.5933381 289.57117,86.9457351 289.145585,87.6368072 L289.145585,92.2217093 L287.939345,92.2217093 L287.939345,88.3559464 C287.939345,86.7261887 287.86571,86.3438536 287.497535,85.9920804 L288.512824,85.5642144 Z" id="Fill-35" fill="#FEFEFE" mask="url(#mask-2)"></path>
                    <path d="M303.124992,88.8569737 C301.404555,89.1064582 300.728736,89.5318294 300.669454,90.4137572 C300.626396,91.0605459 301.037629,91.4871644 301.728424,91.4871644 C302.258222,91.4871644 302.610796,91.3393448 303.124992,90.9426644 L303.124992,88.8569737 Z M299.81766,86.2985098 C300.714384,85.8138861 301.404555,85.6093088 302.170234,85.6093088 C302.919688,85.6093088 303.566802,85.8587933 303.933729,86.3147263 C304.213916,86.6359376 304.330608,87.1804376 304.330608,88.0174582 L304.330608,90.1480562 C304.330608,90.7212469 304.330608,90.6782108 304.344961,90.8098139 C304.389891,91.3536902 304.56649,91.5295768 305.06571,91.5295768 L305.242309,91.5295768 L305.06571,92.3522521 C304.829828,92.3971593 304.8161,92.3971593 304.492231,92.3971593 C303.860094,92.3971593 303.46259,92.1333294 303.286615,91.6031747 C302.537161,92.2069273 302.037317,92.4115046 301.317192,92.4115046 C300.170234,92.4115046 299.405803,91.6181438 299.46571,90.457417 C299.508768,89.3989789 300.184587,88.7384686 301.523744,88.400417 C301.802059,88.3268191 302.258222,88.2532211 302.772418,88.1796232 L303.0083,88.1503088 L303.124992,88.1222418 L303.124992,87.8421954 C303.124992,87.3575716 303.066958,87.1374015 302.875382,86.9309531 C302.655725,86.6958139 302.258222,86.5791799 301.815788,86.6084943 C301.213604,86.6527778 300.757441,86.8143191 299.81766,87.3426026 L299.81766,86.2985098 Z" id="Fill-36" fill="#FEFEFE" mask="url(#mask-2)"></path>
                    <path d="M307.682683,87.7106546 C307.594072,88.7834381 308.226833,89.6210825 309.13791,89.6210825 C310.00468,89.6210825 310.520125,89.0909278 310.563183,88.1653402 C310.608112,87.0931804 309.990328,86.2985722 309.093604,86.2985722 C308.284867,86.2985722 307.756318,86.8143814 307.682683,87.7106546 L307.682683,87.7106546 Z M308.402808,92.3828763 C307.639626,92.7496186 307.242122,93.2205206 307.242122,93.7481804 C307.242122,94.6020412 308.079563,95.2176443 309.240874,95.2176443 C310.387207,95.2176443 311.151638,94.6750155 311.151638,93.8666856 C311.151638,93.4107526 310.931981,93.1032629 310.460842,92.8824691 C310.284867,92.8088711 310.00468,92.7352732 309.549766,92.6329845 L308.402808,92.3828763 Z M312.621217,86.5642732 L311.122933,86.5050206 C311.564743,86.9759227 311.75507,87.4156392 311.75507,87.9601392 C311.75507,88.7971598 311.50546,89.3859433 310.960686,89.8555979 C310.505772,90.2366856 309.858658,90.4574794 309.211544,90.4574794 C308.902652,90.4574794 308.6961,90.443134 308.269891,90.3551907 C308.020281,90.5023866 307.917941,90.605299 307.889236,90.7805619 C307.829329,91.0606082 308.020281,91.1922113 308.74103,91.3537526 L310.682371,91.7953402 C311.71014,92.029232 312.327925,92.7939021 312.283619,93.7338351 C312.209984,95.129701 310.887051,96.130134 309.124181,96.130134 C307.300156,96.130134 306.109516,95.2768969 306.109516,93.9839433 C306.109516,93.1756134 306.638066,92.573732 307.726989,92.1333918 C307.094852,91.8976289 306.918253,91.6768351 306.918253,91.1628969 C306.918253,90.7075876 307.094852,90.4718247 307.726989,90.1057062 C306.830889,89.6348041 306.476443,89.0023608 306.476443,87.915232 C306.476443,86.5935876 307.520437,85.5944021 308.961934,85.5208041 C309.461778,85.4902423 309.771295,85.5494948 310.327925,85.756567 L312.621217,85.756567 L312.621217,86.5642732 Z" id="Fill-37" fill="#FEFEFE" mask="url(#mask-2)"></path>
                    <path d="M318.70858,88.0176454 C318.620593,87.1076505 317.973479,86.5201144 317.061778,86.5201144 C316.179407,86.5201144 315.518565,87.0933052 315.312012,88.0176454 L318.70858,88.0176454 Z M315.297036,88.8409443 C315.297036,89.4135113 315.356942,89.753434 315.54727,90.1638361 C315.870515,90.8686299 316.591264,91.339532 317.35507,91.339532 C318.119501,91.339532 318.722933,91.1043928 319.208424,90.6191454 L319.824961,91.2653103 C319.08986,92.0592948 318.280499,92.4116918 317.179095,92.4116918 C315.283307,92.4116918 314.062715,91.0451402 314.062715,88.8995732 C314.062715,87.9446711 314.459594,86.9910165 315.091108,86.4028567 C315.650234,85.8876711 316.429641,85.5639649 317.119813,85.5639649 C318.297348,85.5639649 319.075507,86.0061763 319.546022,86.9454856 C319.751326,87.3714804 319.824961,87.6802175 319.824961,88.2390629 L319.325117,88.8409443 L315.297036,88.8409443 Z" id="Fill-38" fill="#FEFEFE" mask="url(#mask-2)"></path>
                    <path d="M322.441747,85.5642144 C322.839251,85.8299155 322.972168,86.1966577 323.015226,87.1079 C323.604306,86.0488381 324.177161,85.5642144 324.808674,85.5642144 C325.132543,85.5642144 325.339095,85.623467 325.838315,85.813699 L325.543775,86.8284773 C325.058284,86.6812814 324.85298,86.6363742 324.632699,86.6669361 C324.192137,86.7261887 323.706646,87.0785856 323.324119,87.6368072 C323.264836,87.7253742 323.235507,87.7540649 323.074509,88.0035495 L323.074509,92.2217093 L321.868268,92.2217093 L321.868268,88.3559464 C321.868268,86.7261887 321.794633,86.3438536 321.427707,85.9920804 L322.441747,85.5642144 Z" id="Fill-39" fill="#FEFEFE" mask="url(#mask-2)"></path>
                    <path d="M327.586895,92.2213351 L328.793136,92.2213351 L328.793136,85.756567 L327.586895,85.756567 L327.586895,92.2213351 Z M328.926053,83.3166082 C328.926053,83.7712938 328.616537,84.1105928 328.190952,84.1105928 C327.779719,84.1105928 327.45585,83.7712938 327.45585,83.3166082 C327.45585,82.861299 327.779719,82.5232474 328.190952,82.5232474 C328.616537,82.5232474 328.926053,82.861299 328.926053,83.3166082 L328.926053,83.3166082 Z" id="Fill-40" fill="#FEFEFE" mask="url(#mask-2)"></path>
                    <path d="M335.554197,88.0176454 C335.466209,87.1076505 334.819095,86.5201144 333.908019,86.5201144 C333.025647,86.5201144 332.364181,87.0933052 332.159501,88.0176454 L335.554197,88.0176454 Z M332.143276,88.8409443 C332.143276,89.4135113 332.202559,89.753434 332.394758,90.1638361 C332.716755,90.8686299 333.43688,91.339532 334.202559,91.339532 C334.966989,91.339532 335.568549,91.1043928 336.054041,90.6191454 L336.672449,91.2653103 C335.936724,92.0592948 335.127988,92.4116918 334.025335,92.4116918 C332.128924,92.4116918 330.908955,91.0451402 330.908955,88.8995732 C330.908955,87.9446711 331.305211,86.9910165 331.938596,86.4028567 C332.497722,85.8876711 333.275881,85.5639649 333.967301,85.5639649 C335.142964,85.5639649 335.922995,86.0061763 336.392262,86.9454856 C336.598814,87.3714804 336.672449,87.6802175 336.672449,88.2390629 L336.172605,88.8409443 L332.143276,88.8409443 Z" id="Fill-41" fill="#FEFEFE" mask="url(#mask-2)"></path>
                    <polygon id="Fill-42" fill="#FEFEFE" mask="url(#mask-2)" points="353.079314 92.2215845 351.799438 92.2215845 351.064337 85.1243732 347.786958 92.2215845 347.008175 92.2215845 343.773229 85.2709454 342.993198 92.2215845 341.817535 92.2215845 342.993198 82.5821258 343.861217 82.5821258 347.476817 90.3978526 351.064337 82.5821258 351.947332 82.5821258"></polygon>
                    <path d="M359.709579,82.5967206 L357.224087,84.4029887 L356.488986,84.1110918 L358.562621,82.2592928 L359.709579,82.5967206 Z M359.371357,88.0173959 C359.28337,87.107401 358.636256,86.5198649 357.725179,86.5198649 C356.842808,86.5198649 356.181342,87.0930557 355.974789,88.0173959 L359.371357,88.0173959 Z M355.960437,88.8413186 C355.960437,89.4138856 356.019719,89.7538082 356.210671,90.1642103 C356.533292,90.8690041 357.254041,91.3399062 358.018471,91.3399062 C358.782278,91.3399062 359.38571,91.104767 359.871201,90.6188959 L360.487738,91.2650608 C359.752637,92.0596691 358.943276,92.4114423 357.841872,92.4114423 C355.946084,92.4114423 354.725491,91.0448907 354.725491,88.8993237 C354.725491,87.9444216 355.122371,86.990767 355.753885,86.4032309 C356.313011,85.8874216 357.093042,85.5643392 357.78259,85.5643392 C358.960125,85.5643392 359.738284,86.0065505 360.209423,86.9458598 C360.414103,87.3712309 360.487738,87.679968 360.487738,88.2394371 L359.987894,88.8413186 L355.960437,88.8413186 Z" id="Fill-43" fill="#FEFEFE" mask="url(#mask-2)"></path>
                    <path d="M366.941279,87.2684433 C366.41273,86.7551289 365.956568,86.5642732 365.340031,86.5935876 C364.207426,86.6528402 363.458596,87.6514021 363.458596,89.0909278 C363.458596,90.4138196 364.281061,91.4130052 365.383089,91.4130052 C366.044555,91.4130052 366.354072,91.2945 366.941279,90.7949072 L366.941279,87.2684433 Z M368.14752,81.9500567 L368.14752,90.1481186 C368.14752,90.7213093 368.14752,90.6782732 368.161872,90.8098763 C368.206178,91.3537526 368.383401,91.5296392 368.882621,91.5296392 L369.05922,91.5296392 L368.882621,92.3523144 C368.646739,92.3972216 368.633011,92.3972216 368.309142,92.3972216 C367.677005,92.3972216 367.279501,92.1333918 367.103526,91.5895155 C366.41273,92.2213351 365.899158,92.411567 364.95688,92.411567 C363.340031,92.411567 362.150016,91.0013557 362.150016,89.0909278 C362.150016,87.2260309 363.560936,85.6517835 365.236443,85.6517835 C365.97092,85.6517835 366.26546,85.7260052 366.941279,86.1226856 L366.941279,81.9500567 L368.14752,81.9500567 Z" id="Fill-44" fill="#FEFEFE" mask="url(#mask-2)"></path>
                    <path d="M370.821841,92.2213351 L372.028081,92.2213351 L372.028081,85.756567 L370.821841,85.756567 L370.821841,92.2213351 Z M372.160998,83.3166082 C372.160998,83.7712938 371.852106,84.1105928 371.425897,84.1105928 C371.014041,84.1105928 370.690172,83.7712938 370.690172,83.3166082 C370.690172,82.861299 371.014041,82.5232474 371.425897,82.5232474 C371.852106,82.5232474 372.160998,82.861299 372.160998,83.3166082 L372.160998,83.3166082 Z" id="Fill-45" fill="#FEFEFE" mask="url(#mask-2)"></path>
                    <path d="M378.893479,87.1216216 C378.291295,86.7411577 377.908768,86.6083072 377.423276,86.6083072 C376.261966,86.6083072 375.424524,87.5488639 375.424524,88.8567866 C375.424524,90.310034 376.290671,91.3397814 377.511264,91.3397814 C378.129048,91.3397814 378.46727,91.2374928 379.128736,90.8688794 L379.569298,91.6622402 C378.879126,92.1911474 378.201435,92.4113175 377.320312,92.4113175 C375.394571,92.4113175 374.042933,90.9131629 374.145273,88.8854773 C374.232637,87.0049876 375.644181,85.5642144 377.378346,85.5642144 C378.21766,85.5642144 378.834197,85.7569412 379.495663,86.2415649 L378.893479,87.1216216 Z" id="Fill-46" fill="#FEFEFE" mask="url(#mask-2)"></path>
                    <path d="M384.567551,88.8569737 C382.847114,89.1064582 382.171295,89.5318294 382.112012,90.4137572 C382.068955,91.0605459 382.480187,91.4871644 383.170983,91.4871644 C383.70078,91.4871644 384.053354,91.3393448 384.567551,90.9426644 L384.567551,88.8569737 Z M381.260218,86.2985098 C382.156942,85.8138861 382.847114,85.6093088 383.612793,85.6093088 C384.362246,85.6093088 385.00936,85.8587933 385.376287,86.3147263 C385.656474,86.6359376 385.773167,87.1804376 385.773167,88.0174582 L385.773167,90.1480562 C385.773167,90.7212469 385.773167,90.6782108 385.78752,90.8098139 C385.832449,91.3536902 386.009048,91.5295768 386.508268,91.5295768 L386.684867,91.5295768 L386.508268,92.3522521 C386.272387,92.3971593 386.258658,92.3971593 385.934789,92.3971593 C385.302652,92.3971593 384.905148,92.1333294 384.729173,91.6031747 C383.979719,92.2069273 383.479875,92.4115046 382.75975,92.4115046 C381.612793,92.4115046 380.848362,91.6181438 380.908268,90.457417 C380.951326,89.3989789 381.627145,88.7384686 382.966303,88.400417 C383.244618,88.3268191 383.70078,88.2532211 384.214977,88.1796232 L384.450858,88.1503088 L384.567551,88.1222418 L384.567551,87.8421954 C384.567551,87.3575716 384.509516,87.1374015 384.317941,86.9309531 C384.098284,86.6958139 383.70078,86.5791799 383.258346,86.6084943 C382.656162,86.6527778 382.2,86.8143191 381.260218,87.3426026 L381.260218,86.2985098 Z" id="Fill-47" fill="#FEFEFE" mask="url(#mask-2)"></path>
                    <polygon id="Fill-48" fill="#FEFEFE" mask="url(#mask-2)" points="388.432449 92.2213351 389.63869 92.2213351 389.63869 81.949433 388.432449 81.949433"></polygon>
                    <path d="M396.402122,88.0176454 C396.314134,87.1076505 395.66702,86.5201144 394.75532,86.5201144 C393.872949,86.5201144 393.212106,87.0933052 393.005554,88.0176454 L396.402122,88.0176454 Z M392.990577,88.8409443 C392.990577,89.4135113 393.050484,89.753434 393.240811,90.1638361 C393.564056,90.8686299 394.284805,91.339532 395.048612,91.339532 C395.813042,91.339532 396.416474,91.1043928 396.901966,90.6191454 L397.518502,91.2653103 C396.783401,92.0592948 395.974041,92.4116918 394.872637,92.4116918 C392.976849,92.4116918 391.756256,91.0451402 391.756256,88.8995732 C391.756256,87.9446711 392.153136,86.9910165 392.784649,86.4028567 C393.343775,85.8876711 394.123183,85.5639649 394.813354,85.5639649 C395.990889,85.5639649 396.769048,86.0061763 397.239563,86.9454856 C397.444867,87.3714804 397.518502,87.6802175 397.518502,88.2390629 L397.018658,88.8409443 L392.990577,88.8409443 Z" id="Fill-49" fill="#FEFEFE" mask="url(#mask-2)"></path>
                    <path d="M77.4461154,41.2709794 C66.9231825,41.2709794 58.3696724,49.7989845 58.3696724,60.3340928 C58.3696724,70.8629639 66.9231825,79.3890979 77.4461154,79.3890979 C87.9821529,79.3890979 96.5238066,70.8629639 96.5238066,60.3340928 C96.5238066,49.7989845 87.9821529,41.2709794 77.4461154,41.2709794" id="Fill-50" fill="#FEFEFE" mask="url(#mask-2)"></path>
                    <path d="M39.7535725,60.461018 C39.7535725,37.4959665 48.2334477,16.5455026 62.1504524,0.41196134 L62.1504524,-0.00031185567 L6.24024961e-05,60.4379407 L62.1504524,120.87058 L62.1504524,120.484503 C48.2272075,104.374039 39.7535725,83.427317 39.7535725,60.461018" id="Fill-51" fill="#FEFEFE" mask="url(#mask-2)"></path>
                </g>
            </g>
        </g>
    </g>
</svg>