<svg xmlns="http://www.w3.org/2000/svg" width="20.118" height="20.066" viewBox="0 0 20.118 20.066">
  <g id="MED_Icon" data-name="MED Icon" transform="translate(0.118 0.066)">
    <g id="MED_Icon-2" data-name="MED Icon">
      <path id="Fill_20" data-name="Fill 20" d="M9.82,20.063a3.077,3.077,0,0,1-3.074-3.074V15.743a1.286,1.286,0,0,1-.73-.849,8.2,8.2,0,0,1-4.134-3.026A7.714,7.714,0,0,1,0,7.548V4.688C-.026,2.389,1.461.869,4.081.518a.961.961,0,1,1,.85,1.407.95.95,0,0,1-.7-.308c-1.435.191-3.141.878-3.117,3.065V7.556c-.028,1.914,2.705,5.592,5.1,6.236a1.287,1.287,0,0,1,2.09,0c2.4-.644,5.133-4.322,5.1-6.236V4.682c.025-2.186-1.681-2.873-3.116-3.065a.951.951,0,0,1-.7.308A.963.963,0,1,1,10.44.518c2.619.351,4.107,1.871,4.081,4.17v2.86a7.718,7.718,0,0,1-1.882,4.32,8.2,8.2,0,0,1-4.134,3.026,1.294,1.294,0,0,1-.648.8v1.291a1.963,1.963,0,0,0,3.926,0v-.5l0-.053a3.087,3.087,0,0,1,3.072-3.023H16.1a2,2,0,1,1-.009,1.111H14.858A1.972,1.972,0,0,0,12.9,16.447l0,.04v.5A3.077,3.077,0,0,1,9.82,20.063Zm8.2-6.978a.9.9,0,1,0,.9.895A.9.9,0,0,0,18.017,13.085Z" transform="translate(-0.117 -0.066)" fill="#3aa5d9"/>
    </g>
  </g>
</svg>
