<svg xmlns="http://www.w3.org/2000/svg"  width="18.475" height="23.776" viewBox="0 0 18.475 23.776">
  <defs>
    <clipPath id="clip-path">
      <path id="Clip_6" data-name="Clip 6" d="M0,0H4.286V3.414H0Z" transform="translate(0.04 0.015)" fill="none"/>
    </clipPath>
    <clipPath id="clip-path-2">
      <path id="Clip_15" data-name="Clip 15" d="M0,0H17.766V3.112H0Z" transform="translate(0 0.019)" fill="none"/>
    </clipPath>
  </defs>
  <g id="Group_2" data-name="Group 2" transform="translate(0 -0.015)">
    <path id="Fill_3" data-name="Fill 3" d="M2.394,3.443a1.263,1.263,0,0,1-.619-.2L.487,2.535C.35,2.459.028,2.281,0,1.967a.723.723,0,0,1,.241-.529L1.451.115A.387.387,0,0,1,1.94.063.27.27,0,0,1,2,.482L.792,1.806a.566.566,0,0,0-.1.126c.009,0,.037.029.169.1l1.288.712a.909.909,0,0,0,.246.1c.073,0,.2-.132.255-.187L3.741,1.572a.391.391,0,0,1,.491-.033.27.27,0,0,1,.039.42L3.183,3.048a1.149,1.149,0,0,1-.737.394l-.052,0" transform="translate(5.079 9.391)" fill="#259cd4"/>
    <g id="Group_1" data-name="Group 1" transform="translate(14.149)">
      <path id="Fill_1" data-name="Fill 1" d="M2.874,9.7c-.066,0-.131,0-.2-.009A3.259,3.259,0,0,1,.828,8.657,1.988,1.988,0,0,1,0,7.25,1.922,1.922,0,0,1,.6,6.1C2.1,4.388,3.684,2.7,5.315,1.082A3.18,3.18,0,0,1,7.074.022,3.521,3.521,0,0,1,9.31.672a3,3,0,0,1,1.494,1.4,2.042,2.042,0,0,1-.787,2.125c-.219.2-.4.355-.569.5-.255.219-.475.408-.777.709a.376.376,0,0,1-.474.03.26.26,0,0,1-.036-.406c.318-.317.558-.522.811-.74.165-.142.341-.292.553-.487s.881-.879.635-1.562A2.553,2.553,0,0,0,8.935,1.15,2.9,2.9,0,0,0,7.185.59a2.589,2.589,0,0,0-1.361.868C4.2,3.066,2.628,4.744,1.143,6.445a1.492,1.492,0,0,0-.47.821c-.011.348.3.672.652,1a2.617,2.617,0,0,0,1.428.854A1.756,1.756,0,0,0,3.86,8.8a4.95,4.95,0,0,0,.91-.88.373.373,0,0,1,.471-.058.262.262,0,0,1,.068.4,5.424,5.424,0,0,1-1.032.987,2.525,2.525,0,0,1-1.4.457" transform="translate(-7.982 1.565)" fill="#259cd4"/>
      <g id="Group_7" data-name="Group 7" clip-path="url(#clip-path)">
        <path id="Fill_5" data-name="Fill 5" d="M2.453,3.414a.376.376,0,0,1-.216-.066.257.257,0,0,1-.043-.4c.219-.222.42-.416.622-.609s.394-.378.607-.595c.055-.056.2-.2.186-.277s-.157-.153-.226-.2L2.562.739c-.081-.052-.294-.189-.4-.163a.645.645,0,0,0-.2.139L.583,1.951a.383.383,0,0,1-.477.011.256.256,0,0,1-.013-.4L1.477.321a1.147,1.147,0,0,1,.5-.294,1.294,1.294,0,0,1,1,.256l.82.527a.963.963,0,0,1,.483.554.864.864,0,0,1-.333.743c-.218.221-.418.414-.62.607s-.4.38-.609.6a.365.365,0,0,1-.26.1" transform="translate(0.04 0.015)" fill="#259cd4"/>
      </g>
      <path id="Fill_8" data-name="Fill 8" d="M2.824,5.009a3.19,3.19,0,0,1-.745-.086A2.776,2.776,0,0,1,.174,3.432,2.094,2.094,0,0,1,.534,1.2,2.918,2.918,0,0,1,1.84.317l.1-.044A3.346,3.346,0,0,1,3.26,0,2.773,2.773,0,0,1,4.325.2,2.45,2.45,0,0,1,5.532,1.3a2.391,2.391,0,0,1-.413,2.779A3.206,3.206,0,0,1,2.824,5.009ZM3.263.586A2.612,2.612,0,0,0,2.238.8l-.1.045a2.276,2.276,0,0,0-1.075.72A1.554,1.554,0,0,0,.8,3.22,2.124,2.124,0,0,0,2.255,4.354a2.467,2.467,0,0,0,.57.066,2.494,2.494,0,0,0,1.783-.714,1.879,1.879,0,0,0,.32-2.152A1.826,1.826,0,0,0,4.037.733,1.979,1.979,0,0,0,3.263.586Z" transform="translate(-2.902 6.574)" fill="#259cd4"/>
      <path id="Fill_10" data-name="Fill 10" d="M.324,6.261A.33.33,0,0,1,.031,6.1.27.27,0,0,1,.186,5.72,4.613,4.613,0,0,0,2.621,3.478a3.814,3.814,0,0,0,.062-3.1A.275.275,0,0,1,2.874.017.339.339,0,0,1,3.29.185a4.322,4.322,0,0,1-.07,3.508A5.23,5.23,0,0,1,.461,6.234a.359.359,0,0,1-.137.027" transform="translate(-2.902 11.269)" fill="#259cd4"/>
      <path id="Fill_12" data-name="Fill 12" d="M.345,8.452a.361.361,0,0,1-.3-.143.266.266,0,0,1,.122-.4A8.389,8.389,0,0,0,2.729,6.237,5.228,5.228,0,0,0,3.776,4.044a6.226,6.226,0,0,0,.247-1.873A3.159,3.159,0,0,0,3.451.442a.265.265,0,0,1,.113-.4.383.383,0,0,1,.474.1,3.671,3.671,0,0,1,.673,2.01,6.665,6.665,0,0,1-.262,2.019A5.725,5.725,0,0,1,3.281,6.585,8.894,8.894,0,0,1,.519,8.412a.393.393,0,0,1-.174.04" transform="translate(-1.814 10.33)" fill="#259cd4"/>
      <g id="Group_2-2" data-name="Group 2" transform="translate(-14.149 20.621)">
        <g id="Group_16" data-name="Group 16" transform="translate(0 0.039)">
          <path id="Clip_15-2" data-name="Clip 15" d="M0,0H17.766V3.112H0Z" transform="translate(0 0.019)" fill="none"/>
          <g id="Group_16-2" data-name="Group 16" clip-path="url(#clip-path-2)">
            <path id="Fill_14" data-name="Fill 14" d="M8.845,3.112h0c-2.442,0-4.889-.028-6.512-.051A3.7,3.7,0,0,1,.688,2.775,1.317,1.317,0,0,1,0,1.489,1.25,1.25,0,0,1,.708.231,3.293,3.293,0,0,1,2.12,0h.135L15.8.076a2.768,2.768,0,0,1,.9.11,1.506,1.506,0,0,1,.965,1.074c.085.34.261,1.047-.214,1.413C17.251,2.826,16.883,3.112,8.845,3.112ZM2.12.566A2.6,2.6,0,0,0,1.037.725C.88.8.671.959.671,1.489c0,.415.119.677.364.8a3.012,3.012,0,0,0,1.308.2c1.621.023,4.065.051,6.5.051,7,0,8.024-.233,8.172-.3.111-.088.108-.4-.01-.868a.933.933,0,0,0-.562-.665,2.143,2.143,0,0,0-.653-.067Z" transform="translate(0 0.019)" fill="#259cd4"/>
          </g>
        </g>
      </g>
      <path id="Fill_17" data-name="Fill 17" d="M13.083,9.078a.348.348,0,0,1-.311-.173A17.171,17.171,0,0,0,10.8,5.923a2.512,2.512,0,0,0-.822-.728,3.263,3.263,0,0,0-.934-.213c-.151-.02-.3-.04-.449-.067A6.2,6.2,0,0,1,5.73,3.286l-.143-.12c-.748-.627-1.566-1.259-2.573-1.987A2.734,2.734,0,0,0,1.667.589c-.4-.029-.9.169-.975.51-.071.315.219.652.4.824A7.918,7.918,0,0,0,3.076,3.162a6.8,6.8,0,0,1,2.46,1.715,5.357,5.357,0,0,1,.686,3.8.329.329,0,0,1-.363.272.311.311,0,0,1-.316-.312A4.787,4.787,0,0,0,4.969,5.2,6.222,6.222,0,0,0,2.734,3.669,8.538,8.538,0,0,1,.584,2.315,1.443,1.443,0,0,1,.024.987,1.592,1.592,0,0,1,1.723,0,3.4,3.4,0,0,1,3.452.73c1.02.738,1.849,1.378,2.61,2.016l.143.121A5.679,5.679,0,0,0,8.729,4.341c.136.024.275.043.413.061a3.878,3.878,0,0,1,1.156.277,3.1,3.1,0,0,1,1.053.9,17.747,17.747,0,0,1,2.043,3.081.279.279,0,0,1-.172.388.388.388,0,0,1-.139.026" transform="translate(-13.424 12.208)" fill="#259cd4"/>
      <path id="Fill_19" data-name="Fill 19" d="M1.7,2.817h0A1.684,1.684,0,0,1,.058,1.8.969.969,0,0,1,.2.878,1.555,1.555,0,0,1,1.105.424L2.495.105A3.142,3.142,0,0,1,3.209,0l.076,0a1.179,1.179,0,0,1,.866.383A1,1,0,0,1,4.2,1.526a2.176,2.176,0,0,1-.752.7A3.312,3.312,0,0,1,1.7,2.817Zm1.51-2.2A2.588,2.588,0,0,0,2.653.7l-1.39.319a1.026,1.026,0,0,0-.537.227.4.4,0,0,0-.039.371A1.067,1.067,0,0,0,1.7,2.2V2.51l0-.307a2.657,2.657,0,0,0,1.379-.487,1.621,1.621,0,0,0,.543-.484.429.429,0,0,0,.009-.47A.518.518,0,0,0,3.254.616Z" transform="translate(-13.787 16.904)" fill="#259cd4"/>
      <path id="Fill_21" data-name="Fill 21" d="M2.555.626H2.531L.325.514C.133.5-.012.382,0,.24A.33.33,0,0,1,.372,0L2.578.112c.192.01.337.132.324.274a.322.322,0,0,1-.347.24" transform="translate(-10.159 18.156)" fill="#259cd4"/>
      <path id="Fill_23" data-name="Fill 23" d="M1.287,1.878A1.419,1.419,0,0,1,.2,1.431.811.811,0,0,1,.343.237,1.422,1.422,0,0,1,1.133,0H1.2a1.663,1.663,0,0,1,.882.228.863.863,0,0,1,.453.812.864.864,0,0,1-.378.584,1.463,1.463,0,0,1-.679.244A1.686,1.686,0,0,1,1.287,1.878ZM1.2.574h0A.737.737,0,0,0,.8.67a.266.266,0,0,0-.1.187A.323.323,0,0,0,.765,1.1a.693.693,0,0,0,.515.2.835.835,0,0,0,.1-.006.712.712,0,0,0,.326-.113.315.315,0,0,0,.139-.2.336.336,0,0,0-.18-.294A.9.9,0,0,0,1.2.575Z" transform="translate(-1.451 8.139)" fill="#259cd4"/>
      <path id="Fill_25" data-name="Fill 25" d="M.383,1.565a.437.437,0,0,1-.2-.048.293.293,0,0,1-.124-.442L.742.152a.429.429,0,0,1,.528-.1A.293.293,0,0,1,1.394.49l-.685.923a.406.406,0,0,1-.326.152" transform="translate(-6.531 19.721)" fill="#259cd4"/>
      <path id="Fill_27" data-name="Fill 27" d="M.35,1.565a.377.377,0,0,1-.24-.084A.279.279,0,0,1,.1,1.05,3.465,3.465,0,0,0,.786.174.372.372,0,0,1,1.253.031a.289.289,0,0,1,.163.408A4.083,4.083,0,0,1,.6,1.47a.374.374,0,0,1-.254.1" transform="translate(-5.079 19.721)" fill="#259cd4"/>
      <path id="Fill_29" data-name="Fill 29" d="M.358,1.252A.424.424,0,0,1,.1,1.173a.225.225,0,0,1,0-.38A3.559,3.559,0,0,0,.785.133a.429.429,0,0,1,.489-.1A.236.236,0,0,1,1.4.4a4.136,4.136,0,0,1-.793.77.423.423,0,0,1-.252.078" transform="translate(-3.628 19.721)" fill="#259cd4"/>
      <path id="Fill_31" data-name="Fill 31" d="M.341,5.948a.38.38,0,0,1-.223-.07.258.258,0,0,1-.036-.407L5.568.1A.387.387,0,0,1,6.049.07a.258.258,0,0,1,.036.407L.6,5.848a.371.371,0,0,1-.259.1" transform="translate(-6.531 2.817)" fill="#259cd4"/>
    </g>
  </g>
</svg>
