
<svg  xmlns="http://www.w3.org/2000/svg"  x="0px" y="0px"
	 viewBox="0 0 24 24" style="enable-background:new 0 0 24 24;" >
<g id="Other">
	<g>
		<g>
			<path d="M3,15c-1.654,0-3-1.346-3-3s1.346-3,3-3s3,1.346,3,3S4.654,15,3,15z M3,10c-1.103,0-2,0.897-2,2s0.897,2,2,2s2-0.897,2-2
				S4.103,10,3,10z"/>
		</g>
		<g>
			<path d="M12,15c-1.654,0-3-1.346-3-3s1.346-3,3-3s3,1.346,3,3S13.654,15,12,15z M12,10c-1.103,0-2,0.897-2,2s0.897,2,2,2
				s2-0.897,2-2S13.103,10,12,10z"/>
		</g>
		<g>
			<path d="M21,15c-1.654,0-3-1.346-3-3s1.346-3,3-3s3,1.346,3,3S22.654,15,21,15z M21,10c-1.103,0-2,0.897-2,2s0.897,2,2,2
				s2-0.897,2-2S22.103,10,21,10z"/>
		</g>
	</g>
</g>
</svg>
