

<svg   xmlns="http://www.w3.org/2000/svg"  x="0px" y="0px"
	 viewBox="0 0 512 512" style="enable-background:new 0 0 512 512;" >
<g>
	<g>
		<g>
			<path d="M256,0C114.833,0,0,114.844,0,256s114.833,256,256,256s256-114.844,256-256S397.167,0,256,0z M256,490.667
				C126.604,490.667,21.333,385.396,21.333,256S126.604,21.333,256,21.333S490.667,126.604,490.667,256S385.396,490.667,256,490.667
				z"/>
			<path d="M224,149.333h-64c-5.896,0-10.667,4.771-10.667,10.667v192c0,5.896,4.771,10.667,10.667,10.667h64
				c5.896,0,10.667-4.771,10.667-10.667V160C234.667,154.104,229.896,149.333,224,149.333z M213.333,341.333h-42.667V170.667h42.667
				V341.333z"/>
			<path d="M352,149.333h-64c-5.896,0-10.667,4.771-10.667,10.667v192c0,5.896,4.771,10.667,10.667,10.667h64
				c5.896,0,10.667-4.771,10.667-10.667V160C362.667,154.104,357.896,149.333,352,149.333z M341.333,341.333h-42.667V170.667h42.667
				V341.333z"/>
		</g>
	</g>
</g>
</svg>
