

<svg   xmlns="http://www.w3.org/2000/svg"  x="0px" y="0px"
	 viewBox="0 0 24 24" style="enable-background:new 0 0 24 24;" >
<g>
	<g>
		<path d="M12,23.505C5.656,23.505,0.495,18.344,0.495,12S5.656,0.495,12,0.495S23.505,5.656,23.505,12S18.344,23.505,12,23.505z
			 M12,1.495C6.208,1.495,1.495,6.208,1.495,12S6.208,22.505,12,22.505S22.505,17.792,22.505,12S17.792,1.495,12,1.495z"/>
	</g>
	<g>
		<path d="M10.005,18.505c-0.128,0-0.256-0.049-0.354-0.146c-0.195-0.195-0.195-0.512,0-0.707l5.646-5.646L9.652,6.359
			c-0.195-0.195-0.195-0.512,0-0.707s0.512-0.195,0.707,0l6,6c0.195,0.195,0.195,0.512,0,0.707l-6,6
			C10.261,18.457,10.133,18.505,10.005,18.505z"/>
	</g>
</g>
</svg>
