
<svg  xmlns="http://www.w3.org/2000/svg"  x="0px" y="0px"
	 viewBox="0 0 24 24" style="enable-background:new 0 0 24 24;" >

<g id="Preferences_1">
	<g>
		<g>
			<path d="M7.785,22.241c-0.253,0-0.507-0.051-0.749-0.152c-0.881-0.371-1.715-0.853-2.479-1.432
				c-0.47-0.356-0.745-0.896-0.757-1.48C3.79,18.6,4.038,18.06,4.483,17.694c0.359-0.296,0.413-0.823,0.124-1.226
				c-0.334-0.463-0.621-0.963-0.854-1.486c-0.197-0.442-0.686-0.667-1.122-0.504c-0.548,0.207-1.141,0.151-1.633-0.146
				c-0.5-0.301-0.83-0.809-0.905-1.392C0.031,12.467,0,11.982,0,11.5s0.031-0.967,0.093-1.442c0.075-0.582,0.405-1.089,0.905-1.391
				C1.491,8.37,2.083,8.316,2.621,8.518C3.06,8.683,3.554,8.461,3.754,8.017c0.232-0.521,0.52-1.021,0.854-1.485
				c0.289-0.402,0.236-0.929-0.123-1.224C4.039,4.94,3.79,4.4,3.801,3.823c0.012-0.585,0.287-1.124,0.757-1.48
				c0.764-0.579,1.598-1.061,2.479-1.432c0.545-0.229,1.153-0.198,1.666,0.084c0.504,0.277,0.848,0.762,0.942,1.33
				c0.077,0.462,0.505,0.766,1.004,0.72c0.561-0.059,1.144-0.059,1.702,0c0.497,0.047,0.928-0.258,1.005-0.72
				c0.095-0.567,0.438-1.052,0.942-1.33c0.513-0.283,1.121-0.313,1.666-0.084c0.881,0.371,1.715,0.853,2.479,1.432
				c0.47,0.356,0.745,0.896,0.757,1.48C19.21,4.4,18.962,4.94,18.517,5.306c-0.359,0.296-0.413,0.823-0.124,1.226
				c0.334,0.463,0.621,0.963,0.854,1.486c0.198,0.442,0.687,0.666,1.122,0.504c0.549-0.206,1.141-0.15,1.633,0.146
				c0.5,0.301,0.83,0.809,0.905,1.392C22.969,10.533,23,11.018,23,11.5s-0.031,0.967-0.093,1.442
				c-0.075,0.582-0.405,1.089-0.905,1.391c-0.493,0.298-1.083,0.353-1.623,0.149l0.165-0.472l-0.175,0.468
				c-0.436-0.163-0.924,0.062-1.123,0.505c-0.232,0.521-0.52,1.021-0.854,1.485c-0.289,0.402-0.236,0.929,0.123,1.224
				c0.445,0.367,0.694,0.907,0.684,1.484c-0.012,0.585-0.287,1.124-0.757,1.48c-0.764,0.579-1.598,1.061-2.479,1.432
				c-0.545,0.229-1.153,0.198-1.666-0.084c-0.504-0.277-0.848-0.762-0.942-1.33c-0.077-0.462-0.508-0.772-1.004-0.72
				c-0.561,0.059-1.144,0.059-1.702,0c-0.499-0.051-0.928,0.258-1.005,0.72c-0.095,0.567-0.438,1.052-0.942,1.33
				C8.417,22.162,8.102,22.241,7.785,22.241z M2.919,13.428c0.73,0,1.428,0.433,1.747,1.146c0.206,0.461,0.459,0.901,0.754,1.311
				c0.6,0.836,0.471,1.945-0.301,2.581c-0.207,0.171-0.323,0.423-0.318,0.691c0.006,0.277,0.137,0.534,0.36,0.703
				c0.698,0.529,1.459,0.969,2.264,1.307c0.26,0.11,0.551,0.097,0.795-0.039c0.238-0.131,0.394-0.351,0.438-0.619
				c0.165-0.992,1.061-1.663,2.096-1.549c0.49,0.051,1.001,0.051,1.493,0c1.035-0.103,1.93,0.559,2.095,1.549
				c0.045,0.268,0.2,0.488,0.438,0.619c0.244,0.135,0.535,0.148,0.795,0.039c0.805-0.338,1.565-0.778,2.264-1.307
				c0.224-0.169,0.354-0.426,0.36-0.704c0.005-0.268-0.11-0.52-0.317-0.69c-0.772-0.636-0.901-1.745-0.302-2.581
				c0.295-0.41,0.548-0.85,0.753-1.31c0.416-0.924,1.466-1.377,2.384-1.034l0.009,0.003c0.257,0.095,0.532,0.07,0.76-0.068
				c0.237-0.143,0.395-0.384,0.43-0.662C21.972,12.381,22,11.939,22,11.5s-0.028-0.881-0.085-1.313
				c-0.035-0.279-0.192-0.52-0.43-0.663c-0.229-0.138-0.505-0.165-0.755-0.069c-0.935,0.348-1.982-0.103-2.396-1.028
				c-0.206-0.461-0.459-0.901-0.754-1.311c-0.6-0.836-0.471-1.945,0.301-2.581c0.207-0.171,0.323-0.423,0.318-0.691
				c-0.006-0.277-0.137-0.534-0.36-0.703c-0.698-0.529-1.459-0.969-2.264-1.307c-0.26-0.11-0.551-0.097-0.795,0.039
				c-0.238,0.131-0.394,0.351-0.438,0.619c-0.165,0.991-1.062,1.655-2.096,1.549c-0.49-0.051-1.001-0.051-1.493,0
				C9.724,4.148,8.824,3.481,8.658,2.49c-0.045-0.268-0.2-0.488-0.438-0.619C7.976,1.736,7.685,1.723,7.425,1.833
				C6.62,2.171,5.859,2.611,5.161,3.14C4.938,3.31,4.807,3.566,4.801,3.844c-0.005,0.268,0.11,0.52,0.317,0.69
				C5.891,5.169,6.02,6.279,5.42,7.115c-0.295,0.41-0.548,0.85-0.753,1.31C4.252,9.35,3.205,9.803,2.281,9.458
				C2.017,9.359,1.742,9.386,1.515,9.523c-0.237,0.143-0.395,0.384-0.43,0.662C1.028,10.619,1,11.061,1,11.5
				s0.028,0.881,0.085,1.313c0.035,0.279,0.192,0.52,0.43,0.663c0.229,0.138,0.504,0.164,0.755,0.069
				C2.483,13.466,2.702,13.428,2.919,13.428z"/>
		</g>
		<g>
			<path d="M11.5,16C9.019,16,7,13.981,7,11.5S9.019,7,11.5,7S16,9.019,16,11.5S13.981,16,11.5,16z M11.5,8C9.57,8,8,9.57,8,11.5
				S9.57,15,11.5,15s3.5-1.57,3.5-3.5S13.43,8,11.5,8z"/>
		</g>
	</g>
</g>
</svg>
