<?xml version="1.0" encoding="utf-8"?>
<!-- Generator: Adobe Illustrator 24.1.2, SVG Export Plug-In . SVG Version: 6.00 Build 0)  -->
<svg version="1.1" id="Layer_1" xmlns="http://www.w3.org/2000/svg" xmlns:xlink="http://www.w3.org/1999/xlink" x="0px" y="0px"
	 viewBox="0 0 1920 400" style="enable-background:new 0 0 1920 400;" >
<style type="text/css">
	.st0{fill:#AEE6FF;}
	.st1{clip-path:url(#SVGID_2_);}
	.st2{fill:#3ECEED;}
	.st3{fill:#FF8F5D;}
	.st4{fill:#4C48FF;}
</style>
<rect id="CARD-3" class="st0" width="1920" height="400"/>
<g>
	<defs>
		<rect id="SVGID_1_" width="1920" height="400"/>
	</defs>
	<clipPath id="SVGID_2_">
		<use xlink:href="#SVGID_1_"  style="overflow:visible;"/>
	</clipPath>
	<g id="Clip" class="st1">
		<path id="SHAPE" class="st2" d="M953.6,774.8l-1289.7,771.4c-82.6,48.9-189.1,23.3-240.4-57.8c-49.8-78.9-26.3-183.2,52.6-233
			c1.3-0.8,2.7-1.7,4.1-2.5L621.3,570.4l-706-1126.9c-49.8-78.8-26.4-183.1,52.4-232.9c1.4-0.9,2.8-1.7,4.2-2.6
			C54.5-841,161-815.3,212.3-734.2l797.9,1273.6c49.8,78.8,26.4,183-52.4,232.8C956.5,773.1,955.1,774,953.6,774.8L953.6,774.8z"/>
		<path id="SHAPE-2" class="st3" d="M1335.5-56.4L45.8,715c-82.6,48.9-189.1,23.3-240.4-57.8c-49.8-78.9-26.3-183.2,52.6-233
			c1.3-0.8,2.7-1.7,4.1-2.5l1141.1-682.5l-706-1126.9c-49.8-78.8-26.4-183.1,52.4-232.9c1.4-0.9,2.8-1.7,4.2-2.6
			c82.6-48.9,189.1-23.3,240.4,57.8l797.9,1273.6c49.8,78.8,26.4,183-52.4,232.8C1338.4-58.1,1337-57.3,1335.5-56.4L1335.5-56.4z"/>
		<path id="SHAPE-3" class="st4" d="M346.6,131.8l297-177.7l183.8,293.3l-297,177.7L346.6,131.8z"/>
	</g>
</g>
</svg>
