<?xml version="1.0" encoding="utf-8"?>
<!-- Generator: Adobe Illustrator 24.1.2, SVG Export Plug-In . SVG Version: 6.00 Build 0)  -->
<svg version="1.1" id="Layer_1" xmlns="http://www.w3.org/2000/svg" xmlns:xlink="http://www.w3.org/1999/xlink" x="0px" y="0px"
	 viewBox="0 0 1920 400" style="enable-background:new 0 0 1920 400;" >
<style type="text/css">
	.st0{fill:#D9DEEA;}
	.st1{clip-path:url(#SVGID_2_);}
	.st2{fill:#C0CBDD;}
	.st3{fill:#8192B0;}
</style>
<rect id="CARD-3" x="0" y="-409.4" class="st0" width="1920" height="1218.8"/>
<g>
	<defs>
		<rect id="SVGID_1_" x="0" y="-409.4" width="1920" height="1218.8"/>
	</defs>
	<clipPath id="SVGID_2_">
		<use xlink:href="#SVGID_1_"  style="overflow:visible;"/>
	</clipPath>
	<g id="Clip" class="st1">
		<path id="SHAPE" class="st2" d="M1298.9-3145.4L2618.5,745l-915.7,310.6c-51.2-86.8-133.2-158.6-222.9-207.2
			c-141.8-76.8-303-107.7-459-148.3C933,677.4,832,637,811.9,548.5C799,492,824.8,435,837.2,378.4
			c32.6-149.1-38.5-315.2-168.9-394.5c-32.4-19.7-69.2-35.7-90.9-66.8c-67-96,61.9-218.8,49.6-335.3c-4.4-42.1-27.4-79.8-52.4-114
			c-274.2-376.6-784-470.4-1203.4-673.3c-122.4-59.3-242.3-132.1-326.2-239.1c-83.9-107.1-126.4-254.3-81.1-382.5
			c62-175.3,259.6-261.3,442.4-295.4c182.8-34.1,378.1-38.8,537.7-134.1C117.6-2360.3,216-2550.9,351-2701.3
			c67.6-75.3,144.6-140.5,226.8-199.5L1298.9-3145.4z"/>
		<path id="SHAPE-2" class="st3" d="M1733.2-3610.3L3053,279.4L2137.2,590c-51.2-86.8-133.2-158.5-222.9-207.1
			c-141.8-76.8-303-107.7-459.1-148.2c-87.9-22.8-188.9-63.1-209-151.6c-12.8-56.5,13-113.5,25.3-170.1
			c32.6-149.1-38.5-315.1-168.9-394.5c-32.4-19.7-69.2-35.7-90.9-66.8c-67-96,61.9-218.8,49.6-335.2c-4.4-42.1-27.5-79.8-52.4-114
			C734.8-1374,224.9-1467.8-194.5-1670.7c-122.4-59.3-242.3-132-326.2-239.1c-83.9-107-126.4-254.2-81.1-382.4
			c62-175.2,259.6-261.3,442.4-295.4c182.8-34.1,378.1-38.8,537.7-134.1c173.5-103.6,271.9-294.2,406.9-444.5
			c67.6-75.3,144.6-140.5,226.8-199.5L1733.2-3610.3z"/>
	</g>
</g>
</svg>
