<?xml version="1.0" encoding="utf-8"?>
<!-- Generator: Adobe Illustrator 24.1.2, SVG Export Plug-In . SVG Version: 6.00 Build 0)  -->
<svg version="1.1" id="Layer_1" xmlns="http://www.w3.org/2000/svg" xmlns:xlink="http://www.w3.org/1999/xlink" x="0px" y="0px"
	 viewBox="0 0 110 110" style="enable-background:new 0 0 110 110;" >
<style type="text/css">
	.st0{opacity:0.1;fill:#377dff;}
	.st1{fill:#377dff;}
</style>
<path class="st0" d="M55,110L55,110C24.6,110,0,85.4,0,55l0,0C0,24.6,24.6,0,55,0l0,0c30.4,0,55,24.6,55,55l0,0
	C110,85.4,85.4,110,55,110z"/>
<path class="st1" d="M81.6,31c-1.5-1.4-3.9-1.4-5.4,0.1L43.7,64.3l-8-9.6c-1.8-2.2-4.9-2.6-6.9-0.9c-1.8,1.5-2.1,4.1-0.9,6.2
	l10.2,17.3c2,3.3,6.7,3.6,9,0.5L82,36.2C83.3,34.7,83.1,32.4,81.6,31z"/>
</svg>
