<?xml version="1.0" encoding="utf-8"?>
<!-- Generator: Adobe Illustrator 24.0.2, SVG Export Plug-In . SVG Version: 6.00 Build 0)  -->
<svg version="1.1" id="Layer_1" xmlns="http://www.w3.org/2000/svg" xmlns:xlink="http://www.w3.org/1999/xlink" x="0px" y="0px"
	 viewBox="0 0 140.4 132" style="enable-background:new 0 0 140.4 132;" >
<style type="text/css">
	.st0{fill:url(#SVGID_1_);}
	.st1{fill:#377dff;}
</style>
<radialGradient id="SVGID_1_" cx="70.2" cy="23.1111" r="51.2447" gradientTransform="matrix(0.9972 0 0 0.1 0.2 125.1889)" gradientUnits="adminSpaceOnUse">
	<stop  offset="2.054068e-07" style="stop-color:#000000;stop-opacity:0.3"/>
	<stop  offset="0.4872" style="stop-color:#000000;stop-opacity:0"/>
</radialGradient>
<ellipse class="st0" cx="70.2" cy="127.5" rx="70" ry="4.5"/>
<path class="st1" d="M112.6,23.4C104.4,9.6,88.8,0,72.7,0c-14.5,0-28.5,7.1-37,18.9C25.5,33,25.4,49.5,32,65.2
	c9.4,22.5,23.8,43.5,38.6,62.8c0.2-0.2,0.4-0.5,0.6-0.7c15.4-18.6,30.7-38.8,41.1-60.7c3.2-6.8,5.4-13.8,5.8-20.8
	C118.5,38.3,117,30.8,112.6,23.4z M72.7,67.4c-11.6,0-21-9.4-21-21.1c0-11.6,9.4-21.1,21-21.1s21,9.4,21,21.1
	C93.7,58,84.3,67.4,72.7,67.4z"/>
</svg>
