<?xml version="1.0" encoding="utf-8"?>
<!-- Generator: Adobe Illustrator 24.2.1, SVG Export Plug-In . SVG Version: 6.00 Build 0)  -->
<svg version="1.1" id="Layer_1" xmlns="http://www.w3.org/2000/svg" xmlns:xlink="http://www.w3.org/1999/xlink" x="0px" y="0px"
	 viewBox="0 0 900 400" style="enable-background:new 0 0 900 400;" >
<style type="text/css">
	.st0{fill:#E7EAF3;}
	.st1{fill:#BDC5D1;}
</style>
<rect class="st0" width="900" height="400"/>
<path class="st1" d="M598.5,288.1l-78-97.5c-1.9-2.6-4.9-4.2-8.2-4.2h-4.4c-3.3,0.1-6.4,1.6-8.3,4.2l-25,31.4l-51.8-72.4
	c-2-2.8-5.3-4.4-8.7-4.2h-4.2c-3.3,0-6.4,1.6-8.3,4.2l-99.7,138.5c-2.2,3.4-2.2,7.7,0,11.1l2.9,4.9c1.8,3.2,5.2,5.2,8.9,5.2h273.2
	c3.7,0,7.1-2,8.9-5.2l2.9-4.9C600.7,295.8,600.8,291.5,598.5,288.1z M340,282l72.1-100.1L443.2,282H340z M532.2,145.4
	c15.1,0,27.3-12.2,27.3-27.3s-12.2-27.3-27.3-27.3c-15.1,0-27.3,12.2-27.3,27.3S517.1,145.4,532.2,145.4z"/>
</svg>
