<?xml version="1.0" encoding="utf-8"?>
<!-- Generator: Adobe Illustrator 24.1.2, SVG Export Plug-In . SVG Version: 6.00 Build 0)  -->
<svg version="1.1" id="Layer_1" xmlns="http://www.w3.org/2000/svg" xmlns:xlink="http://www.w3.org/1999/xlink" x="0px" y="0px"
	 viewBox="0 0 160 210" style="enable-background:new 0 0 160 210;" >
<style type="text/css">
	.st0{fill:#E7EAF3;}
	.st1{fill:#F8FAFD;}
	.st2{fill:#BDC5D1;}
	.st3{fill:#377dff;}
</style>
<path class="st0" d="M145,210H15c-8.3,0-15-6.7-15-15V15C0,6.7,6.7,0,15,0h95l50,50v145C160,203.3,153.3,210,145,210z"/>
<path class="st1" d="M160,50h-50V0L160,50z"/>
<path class="st2" d="M110,50l50,50V50H110z"/>
<path class="st3" d="M125.8,162.2l-24.1-30.1c-0.6-0.8-1.5-1.3-2.5-1.3h-1.4c-1,0-2,0.5-2.6,1.3l-7.7,9.7l-16-22.4
	c-0.6-0.9-1.6-1.4-2.7-1.3h-1.3c-1,0-2,0.5-2.6,1.3l-30.8,42.8c-0.7,1-0.7,2.4,0,3.4l0.9,1.5c0.6,1,1.6,1.6,2.7,1.6h84.3
	c1.1,0,2.2-0.6,2.7-1.6l0.9-1.5C126.5,164.6,126.5,163.2,125.8,162.2z M46,160.3l22.3-30.9l9.6,30.9H46z"/>
<ellipse transform="matrix(0.9732 -0.2298 0.2298 0.9732 -22.3873 27.1286)" class="st2" cx="105.3" cy="109.7" rx="8.4" ry="8.4"/>
</svg>
