<?xml version="1.0" encoding="utf-8"?>
<!-- Generator: Adobe Illustrator 24.2.1, SVG Export Plug-In . SVG Version: 6.00 Build 0)  -->
<svg version="1.1" id="Layer_1" xmlns="http://www.w3.org/2000/svg" xmlns:xlink="http://www.w3.org/1999/xlink" x="0px" y="0px"
	 viewBox="0 0 890 500" style="enable-background:new 0 0 890 500;" >
<style type="text/css">
	.st0{fill:#F8FAFD;}
	.st1{fill:#377dff;}
	.st2{fill:#FFFFFF;stroke:#BDC5D1;stroke-width:4;}
	.st3{fill:none;stroke:#BDC5D1;stroke-width:4;}
	.st4{fill:#BDC5D1;}
</style>
<rect class="st0" width="890" height="500"/>
<path class="st1" d="M267.3,259.3c0,27.7-22.4,50-50,50s-50-22.3-50-50c0-27.6,22.4-50,50-50C245,209.3,267.3,231.7,267.3,259.3z
	 M218.6,225.8c-11,0-18,4.6-23.5,12.8c-0.7,1-0.4,2.5,0.5,3.2l7,5.3c1,0.8,2.6,0.6,3.4-0.4c3.6-4.6,6-7.2,11.6-7.2
	c4.1,0,9.2,2.7,9.2,6.6c0,3-2.5,4.6-6.6,6.9c-4.7,2.7-11,6-11,14.2v0.8c0,1.3,1.1,2.4,2.4,2.4H223c1.3,0,2.4-1.1,2.4-2.4v-0.3
	c0-5.8,16.7-6,16.7-21.5C242.2,234.7,230,225.8,218.6,225.8L218.6,225.8z M217.3,275.8c-5.1,0-9.3,4.1-9.3,9.3
	c0,5.1,4.1,9.3,9.3,9.3s9.3-4.1,9.3-9.3C226.6,280,222.4,275.8,217.3,275.8z"/>
<path class="st2" d="M347.5,148.5h405c5,0,9,4,9,9v208c0,5-4,9-9,9h-405c-5,0-9-4-9-9v-208C338.5,152.5,342.5,148.5,347.5,148.5z"/>
<line class="st3" x1="339.5" y1="216.5" x2="762.3" y2="216.5"/>
<path class="st4" d="M374.5,173.5h355c5,0,9,4,9,9l0,0c0,5-4,9-9,9h-355c-5,0-9-4-9-9l0,0C365.5,177.5,369.5,173.5,374.5,173.5z"/>
<path class="st4" d="M368.5,243.5h311c5,0,9,4,9,9l0,0c0,5-4,9-9,9h-311c-5,0-9-4-9-9l0,0C359.5,247.5,363.5,243.5,368.5,243.5z"/>
<path class="st4" d="M368.5,287.5h239c5,0,9,4,9,9l0,0c0,5-4,9-9,9h-239c-5,0-9-4-9-9l0,0C359.5,291.5,363.5,287.5,368.5,287.5z"/>
<path class="st4" d="M368.5,331.5h334c5,0,9,4,9,9l0,0c0,5-4,9-9,9h-334c-5,0-9-4-9-9l0,0C359.5,335.5,363.5,331.5,368.5,331.5z"/>
<path class="st2" d="M312,258.7l26.5-25.9l0,0v56.1c0,0.9-1.1,1.3-1.7,0.7L312,265.3C310.1,263.5,310.1,260.5,312,258.7z"/>
</svg>
