<?xml version="1.0" encoding="utf-8"?>
<!-- Generator: Adobe Illustrator 24.2.1, SVG Export Plug-In . SVG Version: 6.00 Build 0)  -->
<svg version="1.1" id="Layer_1" xmlns="http://www.w3.org/2000/svg" xmlns:xlink="http://www.w3.org/1999/xlink" x="0px" y="0px"
	 viewBox="0 0 890 500" style="enable-background:new 0 0 890 500;" >
<style type="text/css">
	.st0{fill:#F8FAFD;}
	.st1{fill:#377dff;}
	.st2{fill:none;stroke:#BDC5D1;stroke-width:4;}
	.st3{fill:#BDC5D1;}
	.st4{fill:#FFFFFF;stroke:#BDC5D1;stroke-width:4;}
</style>
<rect class="st0" width="890" height="500"/>
<path class="st1" d="M494.7,387.1c0,27.7-22.4,50-50,50c-27.6,0-50-22.3-50-50c0-27.6,22.4-50,50-50
	C472.4,337.1,494.7,359.5,494.7,387.1z M446.1,353.6c-11,0-18,4.6-23.5,12.8c-0.7,1-0.4,2.5,0.5,3.2l7,5.3c1,0.8,2.6,0.6,3.4-0.4
	c3.6-4.6,6-7.2,11.6-7.2c4.1,0,9.2,2.7,9.2,6.6c0,3-2.5,4.6-6.6,6.9c-4.7,2.7-11,6-11,14.2v0.8c0,1.3,1.1,2.4,2.4,2.4h11.3
	c1.3,0,2.4-1.1,2.4-2.4v-0.3c0-5.8,16.7-6,16.7-21.5C469.6,362.5,457.4,353.6,446.1,353.6L446.1,353.6z M444.7,403.6
	c-5.1,0-9.3,4.1-9.3,9.3c0,5.1,4.1,9.3,9.3,9.3c5.2,0,9.3-4.1,9.3-9.3C454,407.8,449.8,403.6,444.7,403.6z"/>
<line class="st2" x1="234.2" y1="270.1" x2="657" y2="270.1"/>
<path class="st3" d="M269.2,227.1h355c5,0,9,4,9,9l0,0c0,5-4,9-9,9h-355c-5,0-9-4-9-9l0,0C260.2,231.1,264.2,227.1,269.2,227.1z"/>
<path class="st4" d="M240.7,45.1h405c5,0,9,4,9,9v208c0,5-4,9-9,9h-405c-5,0-9-4-9-9v-208C231.7,49.1,235.7,45.1,240.7,45.1z"/>
<line class="st2" x1="232.7" y1="113.1" x2="655.5" y2="113.1"/>
<path class="st3" d="M267.7,70.1h355c5,0,9,4,9,9l0,0c0,5-4,9-9,9h-355c-5,0-9-4-9-9l0,0C258.7,74.1,262.7,70.1,267.7,70.1z"/>
<path class="st3" d="M261.7,140.1h311c5,0,9,4,9,9l0,0c0,5-4,9-9,9h-311c-5,0-9-4-9-9l0,0C252.7,144.1,256.7,140.1,261.7,140.1z"/>
<path class="st3" d="M261.7,184.1h239c5,0,9,4,9,9l0,0c0,5-4,9-9,9h-239c-5,0-9-4-9-9l0,0C252.7,188.1,256.7,184.1,261.7,184.1z"/>
<path class="st3" d="M261.7,228.1h334c5,0,9,4,9,9l0,0c0,5-4,9-9,9h-334c-5,0-9-4-9-9l0,0C252.7,232.1,256.7,228.1,261.7,228.1z"/>
<path class="st4" d="M440.5,297.6l-25.9-26.5l0,0h56.1c0.9,0,1.3,1.1,0.7,1.7l-24.3,24.8C445.3,299.5,442.3,299.5,440.5,297.6z"/>
</svg>
