<?xml version="1.0" encoding="utf-8"?>
<!-- Generator: Adobe Illustrator 23.0.3, SVG Export Plug-In . SVG Version: 6.00 Build 0)  -->
<svg version="1.1" id="Layer_1" xmlns="http://www.w3.org/2000/svg" xmlns:xlink="http://www.w3.org/1999/xlink" x="0px" y="0px"
	 viewBox="0 0 16.7 15.9" style="enable-background:new 0 0 16.7 15.9;" >
<style type="text/css">
	.st0{fill:#E7EAF3;}
	.st1{fill:#FFC107;}
</style>
<path class="st0" d="M16.6,6.3c0.2-0.2,0.1-0.6-0.2-0.6L11.3,5C11.2,5,11.1,5,11,4.8L8.7,0.1C8.6,0,8.5,0,8.4,0v13.4
	c0,0,0.1,0,0.2,0l4.7,2.3c0.2,0.1,0.6-0.1,0.5-0.4l-0.9-5.1c0-0.1,0-0.2,0.1-0.3L16.6,6.3z"/>
<path class="st1" d="M8.4,0C8.2,0,8.1,0.1,8,0.1L5.7,5C5.6,5,5.5,5.1,5.4,5.1L0.3,5.8C0,5.8-0.1,6.3,0.1,6.5L3.9,10
	C4,10.1,4,10.3,4,10.3l-0.9,5.1C3,15.8,3.3,16,3.6,15.8l4.6-2.4c0,0,0.1,0,0.1,0V0z"/>
</svg>
