<?xml version="1.0" encoding="utf-8"?>
<!-- Generator: Adobe Illustrator 24.1.2, SVG Export Plug-In . SVG Version: 6.00 Build 0)  -->
<svg version="1.1" id="Layer_1" xmlns="http://www.w3.org/2000/svg" xmlns:xlink="http://www.w3.org/1999/xlink" x="0px" y="0px"
	 viewBox="0 0 160 160" style="enable-background:new 0 0 160 160;" >
<style type="text/css">
	.st0{fill:url(#SVGID_1_);}
	.st1{fill:#2684FF;}
</style>
<linearGradient id="SVGID_1_" gradientUnits="adminSpaceOnUse" x1="68.9746" y1="-13078.8027" x2="27.5518" y2="-13007.0332" gradientTransform="matrix(1 0 0 1 0 13164.6943)">
	<stop  offset="0" style="stop-color:#0052CC"/>
	<stop  offset="0.92" style="stop-color:#2684FF"/>
</linearGradient>
<path class="st0" d="M47.5,73.9c-1.5-2-4.4-2.4-6.4-0.9c-0.6,0.4-1.1,1.1-1.4,1.7L0.5,153.1c-1.1,2.3-0.3,5.2,2.1,6.3
	c0.6,0.4,1.4,0.5,2.1,0.5h54.6c1.8,0,3.4-1.1,4.2-2.6C75.3,133.1,68.2,96,47.5,73.9z"/>
<path class="st1" d="M76.2,2.5C56.3,33.2,54,72,70.2,104.8l26.5,52.6c0.8,1.6,2.4,2.6,4.2,2.6h54.7c2.6-0.3,4.7-2.5,4.4-5.2
	c0-0.5-0.2-1.1-0.4-1.5L84.2,2.5c-1.1-2.2-3.7-3.2-5.9-2.1C77.5,1,76.7,1.7,76.2,2.5z"/>
</svg>
