<?xml version="1.0" encoding="utf-8"?>
<!-- Generator: Adobe Illustrator 24.1.2, SVG Export Plug-In . SVG Version: 6.00 Build 0)  -->
<svg version="1.1" id="Layer_1" xmlns="http://www.w3.org/2000/svg" xmlns:xlink="http://www.w3.org/1999/xlink" x="0px" y="0px"
	 viewBox="0 0 159.9 160" style="enable-background:new 0 0 159.9 160;" >
<style type="text/css">
	.st0{fill-rule:evenodd;clip-rule:evenodd;fill:#0080FF;}
</style>
<g>
	<path class="st0" d="M80,160v-31c32.8,0,58.3-32.5,45.7-67.1c-4.7-12.8-14.8-23-27.7-27.7C63.5,21.7,30.9,47.1,30.9,79.9H0
		C0,27.6,50.6-13.2,105.4,4c23.9,7.5,43.1,26.6,50.5,50.5C173.1,109.4,132.4,160,80,160"/>
	<path class="st0" d="M49.2,129.1h30.8V98.3H49.2L49.2,129.1z M25.5,152.8h23.8v-23.8H25.5L25.5,152.8z M5.6,129.1h19.9v-19.9H5.6
		L5.6,129.1z"/>
</g>
</svg>
