<?xml version="1.0" encoding="utf-8"?>
<!-- Generator: Adobe Illustrator 24.1.2, SVG Export Plug-In . SVG Version: 6.00 Build 0)  -->
<svg version="1.1" id="Layer_1" xmlns="http://www.w3.org/2000/svg" xmlns:xlink="http://www.w3.org/1999/xlink" x="0px" y="0px"
	 viewBox="0 0 200.4 66.5" style="enable-background:new 0 0 200.4 66.5;" >
<style type="text/css">
	.st0{opacity:0.3;fill:#FFFFFF;}
	.st1{opacity:0.6;fill:#FFFFFF;}
	.st2{fill:#FFFFFF;}
</style>
<path class="st0" d="M67.1,33.2h-0.4l-11.1-11l0,0c-1.5-1.5-2.3-3.4-2.3-5.5s0.8-4,2.3-5.5c3-3,8-3,11,0l11.1,11.1l-0.1,0.6
	L67.4,33.2l10.3,10.3v0.8l-11,11c-3,3-8,3-11,0s-3-8,0-11l11-11L67.1,33.2L67.1,33.2z"/>
<path class="st1" d="M100.2,44.7L88.7,33.3l11.2-11.2c0.4-0.5,0.8-0.9,1.2-1.3c3.2-4.1,2.7-7.5-0.1-10.3C99.5,9,97.4,8,95.4,8
	c0,0-3.2,0-5.7,2.4c-0.1,0.1-0.3,0.2-0.4,0.4L77.7,22.3l-11,11l11,11l11.5,11.5c0.2,0.2,0.4,0.4,0.7,0.6c3.9,3.2,8.6,2.8,11.4,0
	s2.7-7.2-0.5-10.9C100.6,45.2,100.4,45,100.2,44.7"/>
<path class="st2" d="M113.8,0c-8.5,0-16.2,3.2-22.1,8.4c-0.7,0.6-1.3,1.2-2,1.9c1.4-1.2,3.2-1.9,5.1-1.9l0,0c2.1,0,4,0.8,5.5,2.3
	c2.7,2.7,3,7,0.8,10c0.5-0.5,1-0.9,1.5-1.3c3.1-2.5,6.9-4,11.2-4c9.8,0,17.8,8,17.8,17.8s-8,17.8-17.8,17.8c-4.2,0-8.1-1.5-11.2-4
	c-0.6-0.5-1.2-1.1-1.8-1.7c2.4,3.1,2.2,7.5-0.6,10.3c-2.8,2.8-7.3,3-10.3,0.6c0.6,0.6,1.1,1.1,1.7,1.7l0,0
	c5.9,5.2,13.6,8.4,22.1,8.4c18.4,0,33.3-14.9,33.3-33.2S132.2,0,113.8,0"/>
</svg>
