<?xml version="1.0" encoding="utf-8"?>
<!-- Generator: Adobe Illustrator 24.1.2, SVG Export Plug-In . SVG Version: 6.00 Build 0)  -->
<svg version="1.1" id="Layer_1" xmlns="http://www.w3.org/2000/svg" xmlns:xlink="http://www.w3.org/1999/xlink" x="0px" y="0px"
	 viewBox="0 0 160 210" style="enable-background:new 0 0 160 210;" >
<style type="text/css">
	.st0{fill:#FFC107;}
	.st1{fill:#FFECB3;}
	.st2{fill:#FFA000;}
	.st3{fill:#FFFFFF;}
</style>
<path class="st0" d="M145,210H15c-8.3,0-15-6.7-15-15V15C0,6.7,6.7,0,15,0h95l50,50v145C160,203.3,153.3,210,145,210z"/>
<path class="st1" d="M160,50h-50V0L160,50z"/>
<path class="st2" d="M110,50l50,50V50H110z"/>
<path class="st3" d="M110,95H50c-5.5,0-10,4.5-10,10v60c0,5.5,4.5,10,10,10h60c5.5,0,10-4.5,10-10v-60C120,99.5,115.5,95,110,95z
	 M110,115v40H50v-40H110z"/>
</svg>
