<?xml version="1.0" encoding="utf-8"?>
<!-- Generator: Adobe Illustrator 24.1.2, SVG Export Plug-In . SVG Version: 6.00 Build 0)  -->
<svg version="1.1" id="logo__guideline" xmlns="http://www.w3.org/2000/svg" xmlns:xlink="http://www.w3.org/1999/xlink" x="0px"
	 y="0px" viewBox="0 0 160 155" style="enable-background:new 0 0 160 155;" >
<style type="text/css">
	.st0{fill:#A49DFF;}
	.st1{fill:#28289A;}
	.st2{fill:#5ADCEE;}
	.st3{fill:#7878FF;}
</style>
<path class="st0" d="M80.2,3.8c-27,0-53.7-1.3-80.2-3.8C-1.5,31.2,27.5,60.7,64,67.9l6,0.8c1.7-11.5,10-54.8,13-65
	C82.1,3.8,81.2,3.8,80.2,3.8z"/>
<path class="st1" d="M83.1,3.8c0,0,43.1,31.2,59.6,73c7.6-25,13.2-51,17.4-76.8C134.1,2.5,108.6,3.8,83.1,3.8z"/>
<path class="st2" d="M70,68.8l-0.9,6c0,0-7.8,62.4,46.9,80.2c10.2-25.5,19.1-51.6,26.7-78.3C109.9,74.3,70,68.8,70,68.8z"/>
<path class="st3" d="M83.1,3.8c-3,10.2-11.3,53.3-13,65c0,0,39.9,5.5,72.6,7.9C126,35,83.1,3.8,83.1,3.8z"/>
</svg>
