<?xml version="1.0" encoding="utf-8"?>
<!-- Generator: Adobe Illustrator 24.1.2, SVG Export Plug-In . SVG Version: 6.00 Build 0)  -->
<svg version="1.1" id="Layer_1" xmlns="http://www.w3.org/2000/svg" xmlns:xlink="http://www.w3.org/1999/xlink" x="0px" y="0px"
	 viewBox="0 0 200.4 66.5" style="enable-background:new 0 0 200.4 66.5;" >
<style type="text/css">
	.st0{opacity:0.5;fill:#FFFFFF;}
	.st1{fill:#FFFFFF;}
</style>
<path class="st0" d="M173.3,33.2c0,1.4,0.5,21-5.9,27.3c-6.4,6.4-27.3,5.9-27.3,5.9s-21,0.5-27.3-5.9c-6.4-6.4-5.9-26-5.9-27.3
	c0-1.4-0.5-21,5.9-27.3c6.4-6.4,27.3-5.9,27.3-5.9s21-0.5,27.3,5.9C173.8,12.3,173.3,31.9,173.3,33.2z"/>
<path class="st1" d="M33.8,41.7V9.6c0-1.9-1.4-3.3-3.3-3.3c-1.9,0-3.4,1.4-3.4,3.3v32.2c0,3.7,3,6.7,6.7,6.7c1.9,0,3.3-1.4,3.3-3.3
	C37.1,43.2,35.6,41.7,33.8,41.7z"/>
<path class="st1" d="M65.7,18.3c-1.6,0-2.8,1.1-3.1,2.7c-2.3-1.6-5-2.7-8-2.7c-4.1,0-7.7,1.7-10.2,4.5c-2.6,2.7-4.1,6.5-4.1,10.6
	c0,4.1,1.5,7.8,4.1,10.6c2.6,2.7,6.1,4.4,10.2,4.4c3,0,5.7-1,8-2.6c0.4,1.4,1.6,2.6,3.1,2.6c1.7,0,3.2-1.4,3.2-3.2V21.5
	C68.9,19.7,67.4,18.3,65.7,18.3z M60.1,39.6c-1.4,1.5-3.5,2.4-5.6,2.4c-2.2,0-4.2-0.8-5.6-2.4c-1.4-1.6-2.3-3.7-2.3-6.2
	s0.8-4.7,2.3-6.2c1.4-1.6,3.4-2.5,5.6-2.5c2.1,0,4.2,0.8,5.6,2.5c1.4,1.5,2.4,3.7,2.4,6.2S61.6,38.1,60.1,39.6z"/>
<path class="st1" d="M97.2,18.3c-1.8,0-3.1,1.4-3.1,3.2v14.2c0,3.5-2.8,6.1-6.2,6.1s-6.3-2.7-6.3-6.1V21.5c0-1.8-1.3-3.2-3.2-3.2
	c-1.6,0-3.1,1.4-3.1,3.2v14.2c0,6.9,5.7,12.7,12.6,12.7c2,0,4-0.5,5.7-1.4c-1,3.1-4,5.4-7.5,5.5c-1.2,0-2.4-0.3-3.5-0.8
	c-1.4-0.8-3.5-0.1-4.3,1.3c-0.7,1.7-0.1,3.6,1.6,4.3c1.8,0.9,4,1.5,6.2,1.5c8,0,14.4-6.3,14.4-14.4V21.5
	C100.4,19.7,98.9,18.3,97.2,18.3z"/>
<path class="st1" d="M163.6,24.8L163.6,24.8c-4.6,0-8.8,5.4-8.8,10v10.3c0,1.8-1.5,3.3-3.3,3.3s-3.3-1.5-3.3-3.3l0,0V21.6
	c0-1.8,1.5-3.3,3.3-3.3s3.3,1.5,3.3,3.3v0.2c2-2.2,4.9-3.5,8-3.5h0.7c1.8,0,3.3,1.5,3.3,3.3C166.9,23.4,165.4,24.8,163.6,24.8
	L163.6,24.8z M138.7,18.3c-1.6,0-2.8,1.1-3.1,2.7c-2.3-1.6-5-2.7-8-2.7c-4.1,0-7.7,1.7-10.2,4.5c-2.6,2.7-4.1,6.5-4.1,10.6
	s1.5,7.8,4.1,10.6c2.6,2.7,6.1,4.4,10.2,4.4c3,0,5.7-1,8-2.6c0.4,1.4,1.6,2.6,3.1,2.6c1.7,0,3.2-1.4,3.2-3.2V21.5
	C141.9,19.7,140.5,18.3,138.7,18.3z M133.2,39.6c-1.4,1.5-3.5,2.4-5.6,2.4c-2.2,0-4.2-0.8-5.6-2.4c-1.4-1.6-2.3-3.7-2.3-6.2
	s0.8-4.7,2.3-6.2c1.4-1.6,3.4-2.5,5.6-2.5c2.1,0,4.2,0.8,5.6,2.5c1.4,1.5,2.4,3.7,2.4,6.2C135.5,35.9,134.6,38.1,133.2,39.6z"/>
</svg>
