<?xml version="1.0" encoding="utf-8"?>
<!-- Generator: Adobe Illustrator 24.2.1, SVG Export Plug-In . SVG Version: 6.00 Build 0)  -->
<svg version="1.1" id="Layer_1" xmlns="http://www.w3.org/2000/svg" xmlns:xlink="http://www.w3.org/1999/xlink" x="0px" y="0px"
	 viewBox="0 0 487.8 575.6" style="enable-background:new 0 0 487.8 575.6;" >
<style type="text/css">
	.st0{fill:#003087;}
	.st1{fill:#009CDE;}
	.st2{fill:#012169;}
</style>
<path class="st0" d="M415.3,43.4C388.7,13,340.5,0,278.9,0H100C87.4,0,76.6,9.2,74.7,21.6L0.2,494c-1.3,8.4,4.4,16.2,12.8,17.5
	c0.8,0.1,1.6,0.2,2.4,0.2h110.4l27.7-175.9l-0.9,5.5c1.9-12.4,12.6-21.6,25.2-21.6h52.5c103.1,0,183.8-41.9,207.4-163
	c0.7-3.6,1.3-7.1,1.8-10.5C446.6,101.5,439.5,71,415.3,43.4"/>
<path class="st0" d="M415.3,43.4C388.7,13,340.5,0,278.9,0H100C87.4,0,76.6,9.2,74.7,21.6L0.2,494c-1.3,8.4,4.4,16.2,12.8,17.5
	c0.8,0.1,1.6,0.2,2.4,0.2h110.4l27.7-175.9l-0.9,5.5c1.9-12.4,12.6-21.6,25.2-21.6h52.5c103.1,0,183.8-41.9,207.4-163
	c0.7-3.6,1.3-7.1,1.8-10.5C446.6,101.5,439.5,71,415.3,43.4"/>
<path class="st0" d="M183.3,146.8c1.7-10.9,11.1-18.9,22.1-18.9h140.2c16.6,0,32.1,1.1,46.3,3.3c7.7,1.2,15.4,3,22.9,5.1
	c8.6,2.4,16.8,5.7,24.7,9.8c7-44.8,0-75.2-24.2-102.9C388.6,13,340.5,0,278.9,0H100C87.4,0,76.6,9.2,74.7,21.6L0.2,494
	c-1.3,8.4,4.4,16.2,12.8,17.6c0.8,0.1,1.6,0.2,2.4,0.2h110.4l27.7-175.9L183.3,146.8z"/>
<path class="st1" d="M439.6,146.2c-0.5,3.5-1.2,7-1.8,10.5c-23.6,121.1-104.3,163-207.4,163h-52.5c-12.6,0-23.3,9.2-25.2,21.6
	l-26.9,170.4l-7.6,48.3c-1.2,7.3,3.8,14.2,11.2,15.4c0.7,0.1,1.4,0.2,2.1,0.2h93.1c11,0,20.4-8,22.1-18.9l0.9-4.7l17.5-111.2
	l1.1-6.1c1.7-10.9,11.1-18.9,22.1-18.9h13.9c90.2,0,160.8-36.6,181.4-142.6c8.6-44.3,4.1-81.2-18.6-107.2
	C457.8,157.9,449.2,151.2,439.6,146.2"/>
<path class="st2" d="M414.9,136.4c-3.6-1.1-7.3-2-11.1-2.9c-3.8-0.8-7.8-1.6-11.8-2.2c-14.2-2.3-29.6-3.4-46.3-3.4H205.5
	c-11,0-20.4,8-22.1,18.9l-29.8,189l-0.9,5.5c1.9-12.4,12.6-21.6,25.2-21.6h52.5c103.1,0,183.8-41.9,207.4-163
	c0.7-3.6,1.3-7.1,1.8-10.5c-6.2-3.3-12.7-6-19.4-8.2C418.5,137.5,416.7,136.9,414.9,136.4"/>
</svg>
