<?xml version="1.0" encoding="utf-8"?>
<!-- Generator: Adobe Illustrator 24.1.2, SVG Export Plug-In . SVG Version: 6.00 Build 0)  -->
<svg version="1.1" id="Layer_1" xmlns="http://www.w3.org/2000/svg" xmlns:xlink="http://www.w3.org/1999/xlink" x="0px" y="0px"
	 viewBox="0 0 160 160" style="enable-background:new 0 0 160 160;" >
<style type="text/css">
	.st0{fill-rule:evenodd;clip-rule:evenodd;fill:#3546F5;}
	.st1{fill-rule:evenodd;clip-rule:evenodd;fill:#8CECFD;}
</style>
<path class="st0" d="M142,160H18c-9.9,0-18-8-18-18L0,18C0,8,8,0,18,0l124,0c9.9,0,18,8,18,18v124C160,152,152,160,142,160z"/>
<g>
	<path class="st1" d="M85.9,88.5l-4.8-3.6c-0.2-0.2-0.5-0.2-0.8,0l-4.8,3.5c-0.1,0.1-0.2,0.2-0.2,0.4v38.4c0,0.2,0.1,0.3,0.3,0.3
		h10.1c0.2,0,0.3-0.1,0.3-0.3V88.9C86.1,88.7,86,88.6,85.9,88.5L85.9,88.5z"/>
	<path class="st1" d="M78.1,33L33,66.5c-0.6,0.5-1,1.1-1,1.9v58.9c0,0.2,0.1,0.3,0.3,0.3h10.1c0.2,0,0.3-0.1,0.3-0.3V73.5
		c0-0.6,0.3-1.2,0.8-1.5l35.3-26.2c0.7-0.5,1.7-0.5,2.4,0L116.5,72c0.5,0.4,0.8,0.9,0.8,1.5v53.8c0,0.2,0.1,0.3,0.3,0.3h10.1
		c0.2,0,0.3-0.1,0.3-0.3V68.4c0-0.8-0.4-1.4-1-1.9L81.8,33C80.7,32.2,79.2,32.2,78.1,33z"/>
	<path class="st1" d="M54.1,78.4v48.9c0,0.2,0.1,0.3,0.3,0.3h10.1c0.2,0,0.3-0.1,0.3-0.3V83.7c0-0.3,0.1-0.5,0.3-0.7l15.1-11.3
		c0.3-0.2,0.7-0.2,1,0L96.4,83c0.2,0.2,0.3,0.4,0.3,0.7v43.6c0,0.2,0.1,0.3,0.3,0.3h10.1c0.2,0,0.3-0.1,0.3-0.3V78.4
		c0-0.3-0.1-0.6-0.4-0.8L81.6,58.8c-0.5-0.4-1.2-0.4-1.7,0L54.5,77.7C54.3,77.8,54.1,78.1,54.1,78.4z"/>
</g>
</svg>
