<?xml version="1.0" encoding="utf-8"?>
<!-- Generator: Adobe Illustrator 24.1.2, SVG Export Plug-In . SVG Version: 6.00 Build 0)  -->
<svg version="1.1" id="Layer_1" xmlns="http://www.w3.org/2000/svg" xmlns:xlink="http://www.w3.org/1999/xlink" x="0px" y="0px"
	 viewBox="0 0 200.4 66.5" style="enable-background:new 0 0 200.4 66.5;" >
<style type="text/css">
	.st0{fill:#BDC5D1;}
	.st1{fill:#7B878D;}
</style>
<path class="st0" d="M44.7,11.6c1.3,0,2.5-0.4,3.4-1.2c0.9-0.8,1.4-1.9,1.4-3.1C49.5,6,49,5,48.1,4.1c-0.9-0.8-2-1.2-3.4-1.2
	c-1.3,0-2.4,0.4-3.3,1.3c-0.9,0.9-1.3,1.9-1.3,3.1c0,1.2,0.4,2.2,1.3,3.1C42.3,11.2,43.4,11.6,44.7,11.6L44.7,11.6z"/>
<path class="st0" d="M73.5,0v20.5h-0.2C73,20,72.5,19.5,72,19c-0.6-0.5-1.3-1-2.1-1.4c-0.8-0.4-1.7-0.8-2.8-1.1
	c-1.1-0.3-2.3-0.4-3.6-0.4c-2.1,0-4,0.4-5.7,1.2c-1.7,0.8-3.2,1.9-4.5,3.3c-1.2,1.4-2.2,3-2.9,4.9c-0.7,1.9-1,3.9-1,6
	c0,2.1,0.3,4.2,1,6c0.6,1.9,1.6,3.5,2.9,4.9c1.3,1.4,2.8,2.5,4.5,3.3c1.8,0.8,3.8,1.2,6.1,1.2c2.1,0,4-0.4,5.8-1.2
	c1.8-0.8,3.2-2.1,4.3-3.9h0.1V46h6.9V0H73.5z M73.2,34.7c-0.4,1.1-1,2-1.7,2.8c-0.8,0.8-1.7,1.5-2.7,1.9c-1.1,0.5-2.3,0.7-3.6,0.7
	c-1.3,0-2.5-0.2-3.6-0.7c-1.1-0.5-2-1.1-2.7-1.9c-0.8-0.8-1.3-1.7-1.7-2.8c-0.4-1.1-0.6-2.1-0.6-3.3c0-1.1,0.2-2.2,0.6-3.3
	c0.4-1.1,1-2,1.7-2.8c0.8-0.8,1.7-1.5,2.7-1.9c1.1-0.5,2.3-0.7,3.6-0.7c1.3,0,2.5,0.2,3.6,0.7c1.1,0.5,2,1.1,2.7,1.9
	c0.8,0.8,1.3,1.7,1.7,2.8c0.4,1.1,0.6,2.2,0.6,3.3C73.8,32.5,73.6,33.6,73.2,34.7z"/>
<path class="st1" d="M131,19.8l-7.2,7.2l0,0v13.3h-0.2c-0.4-0.5-0.8-1-1.4-1.5c-0.6-0.5-1.3-1-2.1-1.4c-0.8-0.4-1.7-0.8-2.8-1.1
	c-0.7-0.2-1.6-0.3-2.5-0.4L99.7,51.2c0,2.1,0.3,4.1,1,6c0.6,1.9,1.6,3.5,2.9,4.9c1.3,1.4,2.8,2.5,4.5,3.2c1.8,0.8,3.8,1.2,6,1.2
	c2.1,0,4-0.4,5.8-1.2c1.8-0.8,3.2-2.1,4.2-3.9h0.1v4.4h6.9V19.8H131z M123.5,54.4c-0.4,1.1-1,2-1.7,2.8c-0.7,0.8-1.7,1.5-2.7,1.9
	c-1.1,0.5-2.2,0.7-3.6,0.7c-1.3,0-2.5-0.2-3.6-0.7c-1.1-0.5-2-1.1-2.7-1.9c-0.7-0.8-1.3-1.7-1.7-2.8c-0.4-1.1-0.6-2.1-0.6-3.3
	c0-1.1,0.2-2.2,0.6-3.3c0.4-1.1,1-2,1.7-2.8c0.7-0.8,1.6-1.5,2.7-1.9c1.1-0.5,2.2-0.7,3.6-0.7c1.3,0,2.5,0.2,3.6,0.7
	c1.1,0.5,2,1.1,2.7,1.9c0.7,0.8,1.3,1.7,1.7,2.8c0.4,1.1,0.6,2.2,0.6,3.3C124.1,52.3,123.9,53.4,123.5,54.4z"/>
<path class="st1" d="M162.6,44.9L162.6,44.9c-0.8-1.9-2-3.5-3.4-4.8c-1.4-1.3-3.1-2.4-5-3.1c-1.9-0.7-4-1.1-6.2-1.1
	c-2.2,0-4.2,0.4-6.2,1.1c-1.9,0.7-3.6,1.8-5,3.1c-1.4,1.3-2.5,2.9-3.4,4.8c-0.8,1.9-1.2,4-1.2,6.3c0,2.3,0.4,4.4,1.2,6.3
	c0.8,1.9,2,3.5,3.4,4.8c1.4,1.3,3.1,2.4,5,3.1c1.9,0.7,4,1.1,6.2,1.1c2.2,0,4.2-0.4,6.2-1.1c1.9-0.7,3.6-1.8,5-3.1
	c1.4-1.3,2.5-2.9,3.4-4.8c0.8-1.9,1.2-4,1.2-6.3C163.9,48.9,163.5,46.8,162.6,44.9z M156,54.4c-0.4,1.1-1,2-1.7,2.8
	c-0.7,0.8-1.6,1.5-2.7,1.9c-1.1,0.5-2.2,0.7-3.6,0.7c-1.3,0-2.5-0.2-3.6-0.7c-1.1-0.5-2-1.1-2.7-1.9c-0.7-0.8-1.3-1.7-1.7-2.8
	c-0.4-1.1-0.6-2.1-0.6-3.3c0-1.1,0.2-2.2,0.6-3.3c0.4-1.1,0.9-2,1.7-2.8c0.7-0.8,1.6-1.5,2.7-1.9c1.1-0.5,2.2-0.7,3.6-0.7
	c1.3,0,2.5,0.2,3.6,0.7c1.1,0.5,2,1.1,2.7,1.9c0.7,0.8,1.3,1.7,1.7,2.8c0.4,1.1,0.6,2.2,0.6,3.3C156.6,52.3,156.4,53.4,156,54.4z"/>
<path class="st1" d="M186.5,52.6c-0.8-1.1-1.7-2-2.9-2.6c-1.2-0.6-2.4-1.1-3.8-1.4c-1.3-0.3-2.5-0.6-3.8-0.9c-1.2-0.3-2.1-0.6-2.9-1
	c-0.8-0.4-1.2-1.1-1.2-1.9c0-1.1,0.5-1.9,1.4-2.4c0.9-0.5,1.9-0.7,2.9-0.7c2.4,0,4.3,1,5.7,3l4.9-4.4c-1.2-1.6-2.7-2.8-4.6-3.4
	c-1.9-0.7-3.8-1-5.8-1c-1.5,0-2.9,0.2-4.3,0.5c-1.4,0.4-2.7,0.9-3.8,1.7c-1.1,0.8-2,1.8-2.6,2.9c-0.7,1.2-1,2.6-1,4.2
	c0,1.9,0.4,3.3,1.2,4.4c0.8,1.1,1.7,1.9,2.9,2.5c1.2,0.6,2.4,1,3.8,1.3c1.4,0.3,2.6,0.5,3.8,0.9c1.2,0.3,2.1,0.7,2.9,1.2
	c0.8,0.5,1.2,1.2,1.2,2.2c0,0.6-0.2,1.1-0.5,1.5c-0.3,0.4-0.7,0.8-1.2,1.1c-0.5,0.3-1,0.5-1.6,0.6c-0.6,0.1-1.1,0.2-1.6,0.2
	c-1.5,0-2.8-0.3-3.9-1c-1.1-0.7-2.1-1.5-3-2.6l-4.9,4.6c1.5,1.7,3.2,2.9,5.1,3.5c1.9,0.6,4,1,6.3,1c1.4,0,2.8-0.1,4.3-0.4l8.3-8.3
	c0-0.2,0-0.4,0-0.6C187.7,55.2,187.3,53.7,186.5,52.6L186.5,52.6z"/>
<polygon class="st0" points="33.9,17.2 26.1,37.4 26,37.4 18.3,17.2 12.7,22.8 22.2,46 29.9,46 41,18 41,46 48.3,46 48.3,17.2 "/>
<path class="st0" d="M108.7,34.3L108.7,34.3v-5c0-0.7,0-1.5-0.1-2.4c0-0.9-0.2-1.9-0.4-2.8c-0.2-1-0.6-1.9-1.1-2.9
	c-0.5-0.9-1.2-1.8-2.2-2.5c-0.9-0.7-2.1-1.3-3.5-1.8c-1.4-0.5-3.2-0.7-5.2-0.7c-2.3,0-4.5,0.4-6.7,1.1c-2.2,0.7-4.1,1.9-5.7,3.6
	l3.8,3.8c1-0.9,2.1-1.7,3.5-2.2c1.3-0.5,2.8-0.8,4.3-0.8c1.9,0,3.5,0.5,4.8,1.4c1.3,0.9,1.9,2.3,1.9,4.1v0.8h-1.8
	c-1.2,0-2.5,0-3.9,0.1c-1.4,0.1-2.7,0.2-4.1,0.4c-1.4,0.2-2.7,0.6-3.9,1c-1.3,0.4-2.4,1-3.3,1.8c-1,0.7-1.7,1.7-2.3,2.8
	c-0.6,1.1-0.8,2.5-0.8,4c0,1.5,0.3,2.7,0.9,3.8c0.6,1.1,1.4,2,2.4,2.7c1,0.7,2.1,1.3,3.4,1.6c1.3,0.4,2.6,0.5,3.9,0.5
	c1.6,0,3-0.2,4.4-0.7c0,0,0,0,0,0L108.7,34.3L108.7,34.3L108.7,34.3z M101.7,34.6c0,2.1-0.6,3.7-1.8,4.9c-1.2,1.2-3,1.8-5.6,1.8
	c-0.6,0-1.2-0.1-1.8-0.2c-0.6-0.1-1.2-0.4-1.6-0.7c-0.5-0.3-0.9-0.7-1.2-1.2c-0.3-0.5-0.5-1-0.5-1.7c0-1.1,0.4-1.9,1.2-2.5
	c0.8-0.6,1.7-1,2.8-1.3c1.1-0.3,2.3-0.5,3.5-0.6c1.3-0.1,2.4-0.1,3.4-0.1h1.5V34.6z"/>
</svg>
