<?xml version="1.0" encoding="utf-8"?>
<!-- Generator: Adobe Illustrator 24.1.2, SVG Export Plug-In . SVG Version: 6.00 Build 0)  -->
<svg version="1.1" id="Layer_1" xmlns="http://www.w3.org/2000/svg" xmlns:xlink="http://www.w3.org/1999/xlink" x="0px" y="0px"
	 viewBox="0 0 200.4 66.5" style="enable-background:new 0 0 200.4 66.5;" >
<style type="text/css">
	.st0{fill:#BDC5D1;}
	.st1{fill:#7B878D;}
</style>
<path class="st0" d="M66.4,55.7c0.7,0.7,1.1,1.7,1.1,2.7c0,1.2-0.5,2.1-1.1,2.7c-1.2,1.2-2.7,2.4-4.8,3.2c-1.8,0.7-3.7,1.1-5.6,1.1
	H20.2c-4.1,0-7.7-1.6-10.4-4.3c-2.7-2.7-4.3-6.3-4.3-10.4V15c0-4.1,1.6-7.7,4.3-10.4c2.7-2.7,6.3-4.3,10.4-4.3H56
	c1.9,0,3.8,0.4,5.6,1.1c2.4,1,3.9,2.2,5.4,3.8c0.6,0.6,1.1,1.6,1.1,2.7c0,1-0.4,2-1.1,2.7c-0.7,0.7-1.7,1.1-2.7,1.1
	c-1,0-2-0.4-2.7-1.1c-1-1-1.6-1.6-2.8-2.1C57.9,8.3,57,8.1,56,8.1H20.2c-1.9,0-3.6,0.8-4.9,2c-1.2,1.2-2,3-2,4.9v35.9
	c0,1.9,0.8,3.6,2,4.9c1.3,1.3,3,2,4.9,2H56c1,0,1.9-0.2,2.7-0.5c0.8-0.4,1.6-0.9,2.2-1.5c0.7-0.7,1.7-1.1,2.7-1.1
	C64.7,54.6,65.7,55,66.4,55.7z"/>
<path class="st1" d="M55.9,51.1c-0.1-2.8-2.1-7.2-6.9-7.8H32l19.7-18.9c0.8-0.8,2.7-3.5,1.4-6.4c-1.1-2.3-2.9-3.3-6-3.3H22.5
	c0.1,3.3,1.7,7.1,6,7.8h14L21.8,42.1c-0.8,0.8-2.2,3.3-1.1,5.8c1,2.3,2.6,3.2,5.7,3.2H55.9L55.9,51.1z"/>
<path class="st1" d="M112.1,33.3v14.5c0,5.3-1.6,10-5.3,13.7c-3.3,3.3-7.6,4.7-12.2,4.7c-9.1,0-13.8-7-13.8-7
	c2.4-2.4,5.8-3.9,9.2-1.9c0.6,0.3,2.2,1.2,4.6,1.2c8.4,0,9.8-7.5,9.8-9.7c-2.9,1.8-6.2,2.6-9.8,2.6h0c-4.7,0-8.9-1.5-12.4-4.5l0,0
	c-3.4-3.3-5.1-7.3-5.2-12c0-1,0-4,0-4.7c0-4.6,1.7-8.6,5.2-11.9c3.5-3.3,7.6-5,12.4-5h0c6.4,0,11,3.2,13.2,5.8
	c0.6,0.7,0.9,1.5,0.9,2.5c0,1.1-0.4,2.1-1.1,2.8c-0.7,0.7-1.7,1.1-2.8,1.1c-1.1,0-2.1-0.4-2.7-1.1c-2.4-2.5-4.7-3.3-7.4-3.3
	c-2.7,0-4.9,0.9-6.9,2.7c-1.9,1.8-2.8,3.9-2.8,6.5c0,1.1,0,3.6,0,4.7c0,2.7,0.9,4.7,2.8,6.6c2,1.8,4.2,2.7,6.9,2.7
	c2.6,0,4.9-0.9,6.9-2.7c1-1,1.8-2.1,2.2-3.3c0.4-1,1.1-3,3.7-4.1C109.6,33.2,112.1,33.3,112.1,33.3L112.1,33.3z"/>
<path class="st1" d="M148.8,34.1c-2.6,1-3.4,3.1-3.7,4.1c-0.5,1.2-1.2,2.3-2.2,3.3c-2,1.8-4.3,2.7-6.9,2.7c-2.6,0-4.9-0.9-6.9-2.7
	c-1.9-1.8-2.8-3.9-2.8-6.6c0-1.1,0-3.5,0-4.7c0-2.6,0.9-4.7,2.8-6.5c1.9-1.8,4.2-2.7,6.9-2.7c2.7,0,5,0.8,7.4,3.3
	c0.7,0.7,1.7,1.1,2.7,1.1c1.1,0,2.1-0.4,2.8-1.1c0.7-0.7,1.1-1.7,1.1-2.8c0-0.9-0.3-1.8-0.9-2.5c-2.2-2.6-6.8-5.8-13.2-5.8h0
	c-4.8,0-9,1.7-12.4,5c-3.4,3.3-5.2,7.3-5.2,11.9c0,0.7,0,3.8,0,4.7c0,4.7,1.8,8.7,5.2,12l0,0c3.5,3,7.6,4.5,12.4,4.5h0
	c3.6,0,6.9-0.9,9.8-2.6c0,2.2-1.4,9.7-9.8,9.7c-2.4,0-4.1-0.9-4.6-1.2c-3.3-2-6.7-0.5-9.2,1.9c0,0,4.7,7,13.8,7
	c4.6,0,8.8-1.4,12.2-4.7c3.7-3.7,5.3-8.4,5.3-13.7V33.3C153.5,33.3,151,33.2,148.8,34.1L148.8,34.1z"/>
<path class="st1" d="M194.9,30.2L194.9,30.2c0-4.6-1.7-8.6-5.2-11.9c-3.5-3.3-7.6-5-12.4-5h0c-4.8,0-9,1.7-12.4,5
	c-3.4,3.3-5.2,7.3-5.2,11.9c0,0.7,0,3.8,0,4.7c0,4.7,1.8,8.7,5.2,12l0,0c3.5,3,7.6,4.5,12.4,4.5h0c4.7,0,8.9-1.5,12.4-4.5l0,0
	c3.4-3.3,5.1-7.3,5.2-11.9C194.9,34,194.9,30.9,194.9,30.2z M187,34.9c0,2.6-0.9,4.7-2.8,6.5c-2,1.8-4.3,2.7-6.9,2.7l0,0
	c-2.6,0-4.9-0.9-6.9-2.7c-1.9-1.8-2.8-3.9-2.8-6.6c0-1.1,0-3.5,0-4.7c0-2.6,0.9-4.7,2.8-6.5c1.9-1.8,4.2-2.7,6.9-2.7
	c2.7,0,4.9,0.9,6.9,2.8c1.9,1.8,2.8,3.8,2.8,6.5C187,31.3,187.1,33.7,187,34.9z"/>
<path class="st0" d="M70.7,14.7c-4.1,0-7.8,3.4-7.8,7.1v29.3c4.1,0,7.8-3.4,7.8-7.1V14.7z"/>
</svg>
