<?xml version="1.0" encoding="UTF-8" standalone="no"?><!DOCTYPE svg PUBLIC "-//W3C//DTD SVG 1.1//EN" "http://www.w3.org/Graphics/SVG/1.1/DTD/svg11.dtd"><svg width="100%" height="100%" viewBox="0 0 128 128" version="1.1" xmlns="http://www.w3.org/2000/svg" xmlns:xlink="http://www.w3.org/1999/xlink" xml:space="preserve" xmlns:serif="http://www.serif.com/" style="fill-rule:evenodd;clip-rule:evenodd;stroke-linejoin:round;stroke-miterlimit:2;"><rect id="Artboard11" x="-0" y="-0" width="128" height="128" style="fill:none;"/><clipPath id="_clip1"><rect x="-0" y="-0" width="128" height="128"/></clipPath><g clip-path="url(#_clip1)"><rect x="0.275" y="10.977" width="128" height="55.456" style="fill:#fff;"/><g><path d="M0,120.143l0,-96.736c0,-7.935 6.658,-14.43 14.797,-14.43l98.412,0c8.136,0 14.791,6.495 14.791,14.43l-0,95.96c-0,0.24 -0.006,0.478 -0.018,0.715l-20.436,-19.708c-1.663,-1.604 -4.437,-2.41 -6.156,-1.783c-1.728,0.623 -4.367,-0.299 -5.854,-2.044l-24.151,-28.281c-1.483,-1.749 -3.946,-1.753 -5.442,-0.017l-20.196,23.388c-1.505,1.741 -4.305,2.095 -6.221,0.798l-4.861,-3.311c-1.917,-1.31 -4.708,-0.943 -6.213,0.806l-2.804,3.264c-1.497,1.741 -3.658,3.174 -4.787,3.17c-1.133,-0.004 -3.312,1.412 -4.83,3.14l-16.031,20.639Z" style="fill:#0050c8;fill-rule:nonzero;"/><path d="M71.472,74.31c-1.496,-1.758 -3.929,-1.753 -5.42,0.004l-15.488,18.264c-1.492,1.754 -1.234,2.01 0.581,0.568l4.721,-3.754c1.807,-1.442 4.318,-2.428 5.578,-2.185c1.252,0.231 3.028,-0.273 3.947,-1.135c0.91,-0.866 3.364,-0.742 5.456,0.273l5.854,2.859c2.082,1.024 3.395,0.516 2.896,-1.118c-0.486,-1.634 -0.486,-3.012 0.004,-3.059c0.499,-0.047 -0.319,-1.527 -1.807,-3.272l-6.322,-7.445Z" style="fill:#eeeeef;fill-rule:nonzero;"/><path d="M93.715,101.606c-1.4,-1.613 -1.89,-1.788 -1.076,-0.392c0.818,1.395 1.085,6.962 2.69,7.248c1.602,0.294 3.623,1.126 4.485,1.847c0.866,0.717 2.266,0.977 3.137,0.568c0.857,-0.406 3.399,-0.197 5.631,0.465l3.08,0.921c2.235,0.653 2.695,-0.102 1.024,-1.693l-5.307,-5.056c-1.676,-1.6 -4.472,-2.487 -6.222,-1.984c-1.75,0.508 -3.566,0.939 -4.038,0.96c-0.464,0.021 -2.004,-1.276 -3.404,-2.884" style="fill:#eeeeef;fill-rule:nonzero;"/><path d="M35.984,94.661c-1.912,-1.323 -4.703,-0.981 -6.226,0.755l-1.837,2.091c-1.51,1.732 -3.89,3.148 -5.268,3.144c-1.383,-0 -3.771,1.399 -5.312,3.11l-2.738,3.042c-1.549,1.711 -1.138,2.193 0.888,1.071l0.682,-0.376c2.035,-1.113 4.384,-2.001 5.224,-1.949c0.831,0.046 2.945,-1.165 4.673,-2.688l0.245,-0.218c1.737,-1.527 3.701,-2.355 4.366,-1.86c0.665,0.512 1.873,0.235 2.682,-0.61c0.823,-0.836 3.181,-1.425 5.25,-1.301c2.074,0.115 2.21,-0.862 0.307,-2.18l-2.936,-2.031Z" style="fill:#eeeeef;fill-rule:nonzero;"/></g></g></svg>
