<?xml version="1.0" encoding="utf-8"?>
<!-- Generator: Adobe Illustrator 24.1.3, SVG Export Plug-In . SVG Version: 6.00 Build 0)  -->
<svg version="1.1" id="Layer_1" xmlns="http://www.w3.org/2000/svg" xmlns:xlink="http://www.w3.org/1999/xlink" x="0px" y="0px"
	 viewBox="0 0 801.7 567.9" style="enable-background:new 0 0 801.7 567.9;" >
<style type="text/css">
	.st0{fill:#F4F6F9;}
	.st1{fill:none;stroke:#132144;stroke-width:7;stroke-linecap:round;stroke-linejoin:round;}
	.st2{fill:#333333;}
</style>
<path id="BG" class="st0" d="M69.1,312.5l84.4-24.3c-21.3,35.5-38.3,73.5-50.6,113c-2.7,8.7,7.3,15.2,14.7,11.3l65.9-34.5
	c-13.3,23.2-21.2,49.1-23,75.8c9.2-4.8,18.2-9.6,26.7-14.1c16.1-8.6,33.8-19.7,52.1-24.5c16.7-4.8,33.7-8.7,50.9-11.5
	c6.1-1,12.5-1.8,18.9-2.4l0,0c-5.3-8,0.3-25.5,8.7-23c-4.7-4.7-4.3-14.3,3.1-14.8h0.3l-0.4-1c0,0-8.3-18.7-13.3-26
	c0.8-0.4,1.6-0.8,2.4-1.2l-0.8-1.7l-5.3-9.7c-9,4.2-16.5,6-28.7,4s-24.8-7.9-29.3-15.5c-5.1,4.6-14.8,5.3-21.1-0.5
	c-6.7-6.3-10.6-33.4,6.3-38.7l0.1,0.1c1.2-13.2,11-22.3,25.9-22.3l0.1,0.3c5.7-5.5,16.1-8,26.8-8l0.8-0.2
	c-2.7-4.4-6.9-8.5-15.2-11.3c-9.9-3.2-22.7-5.5-33.3-4.3c-8.5,1-23.9,5.2-31.7,1.4c-8.3-4-5.9-14.4,2.7-19c11-5.9,23.8-6.6,35.8-7
	c13.7-0.5,25.9,2.6,39,6.1c48.5,13,74.2,64.5,98.3,102.8l0.2,0.7c8.8-0.9,8.5,3.9,12.5,13.2c2.5,5.9,7.4,23.8,7.4,23.8
	c13.5,0.7,24.4,7,26.8,25.5l0.6,3.6c3.8-0.9,7.6-1.6,11.5-2c15.3-13,27.9-26.3,41.2-41.2c-10.4-16.7-21.8-32.9-34.1-48.3
	c-7-8.8-14.2-17.3-21.8-25.6c-3.7-4-7.4-8-11.3-11.9c-3.6-3.7-7.8-7.1-11-11.1c-2.4-3,0.4-4,3-6.6c4-3.9,8.1-7.7,12.3-11.4
	c9.1-8.1,18.5-15.9,28.3-23.3c3.6-2.7,5.9-6.7,4.6-11.3c-1.1-4-5.3-7.7-9.6-7.4c-23.6,2.1-47.3,2.6-71,1.5
	c16.7-27.6,36.5-53.2,59.1-76.3c7.8-8-2.2-21.6-12.1-15.7c-38.3,22.9-77.6,44.3-117.7,64c-14.3-44.7-24-90.7-28.7-137.4
	c-0.2-1.7-0.7-3.3-1.5-4.8c-0.5-6.6-6-11.2-12.6-9.6c-11,2.6-15.1,13.3-16.1,23.6c-1.1,12.2-0.1,24.7-0.9,37
	c-1.3,21.2-4.1,42.3-8.6,63.1C197,101.7,162,81.2,126,62.6c-8.1-4.2-19.9,5-13.7,13.7c22.1,30.8,44.4,61.8,70.1,89.9
	c-31.3-6.6-63.1-10.4-95-11.2c-9.5-0.3-14.2,14.4-5.1,18.6c27.2,12.6,53.4,27.2,78.5,43.6c-10.5,15.9-26.9,26.4-43.4,36.2
	c-20.6,12.2-42.3,24-58,42.5C53.2,303,58.9,315.4,69.1,312.5z"/>
<path class="st1" d="M3.5,563.8c40.4,2.7,83.1-4.7,123.8-3.2c71,2.7,141.9-3.1,213-4.3c136-2.2,273.7-6.4,409.6-1.3
	c19.1,0.7,48.3,0.9,48.3,0.9"/>
<path class="st1" d="M306.4,556c11.4-30.3,13.3-50.2,17.4-64.6c3.8,16,9.7,48.8,20.5,64.6"/>
<path class="st1" d="M785.3,554.5c-1.7-16.8-5.8-29.5-8.1-39.6c-4.4-19.3-10.6-33.9-23.8-54.1c-29.4,1.3-59.2,0.9-89.1,3.5
	c-26.5,2.4-54,4.5-80.5,1.8c-14.2-1.4-27.8-6-41.6-9.1c-18.7-4.2-31.4-8.9-46.9-20.7c-15.3-11.6-25.9-29.3-42.8-38.8
	c-23.7-13.4-60.2-10.6-81.7,6c-12.2,9.4-21.5,21.3-29.2,34.5c-7.6,13-13.3,27.3-18,43.4c-7.7-32.2-18.7-50-38.6-61.3
	c-34.2-19.5-68.5,4-97.8,19.6c-25.4,13.6-55.7,29.9-83,39c-15.8,5.3-43.9,12-61,9.1c-11.8,24.5-21.2,50.1-28,76.5"/>
<path class="st1" d="M239.2,415.3c16.8-4.8,33.8-8.7,51-11.6c18.4-2.8,36.9-4.3,55.5-4.3c7.5,0,20-0.5,26.6,2.7"/>
<path class="st1" d="M383.3,396.1c10.8-5.1,28.8-12.8,40.3-16.4c14.6-4.5,31.4-4.1,46.4-5.6c24.4-2.4,49.8-4.1,74,0
	c23.8,4.1,50.7,17.1,70.7,31.1c23.7,16.6,54.7,36.3,74.2,43s37.5,12.1,64.5,12.4"/>
<path class="st1" d="M307.3,486c-5.8-8.5-20.1-18.6-29.3-22.1c-11.9-4.4-25.9-4-38.3-1.4c-32.8,7-55.3,24.3-86.2,36.8
	c-15.7,6.3-45.3,12.8-61,16"/>
<path class="st1" d="M44.5,548.6c63.3-3.7,99.7-17.7,121-20.3c30.4-3.7,62.5-4.8,92.7-1.5c10.3,1.1,29.4,6.8,38.7,11"/>
<path class="st1" d="M299.7,509.7c-13.5-7.2-41.8-16-69.6-6.7"/>
<path class="st1" d="M347.8,481c13.7-17.4,22.1-31.1,42.3-41.8c17.2-9.2,31.1-10.1,49.2-1.5c12.4,5.8,32.8,18.3,44.8,25.3"/>
<path class="st1" d="M356.5,499.5c14.8-6.4,41-17.4,57.5-19c13.5-1.3,26.8-0.3,40.1,0.9c28,2.6,56.2,12.4,83.6,18.2
	c9,1.8,18.2,2.8,27.4,2.8"/>
<path class="st1" d="M590.6,466.7c7.7,22.6,13,59.8,15.3,85.8"/>
<path class="st1" d="M363.3,529.2c22.3-2,36.3-2.7,59.6-4c17.5-0.9,71.7,3,71.7,3"/>
<path class="st1" d="M539.1,529.2h7.2"/>
<path class="st1" d="M749.1,491.7c-8.5-0.6-59.9,0.5-69.3,2.8"/>
<path class="st1" d="M760.5,508.4c-21.3,1.8-120.5,3.8-140.7,4.5"/>
<path class="st1" d="M748.8,529.2c-39.1,0-77.7,0-119.3,2"/>
<path class="st1" d="M427.3,375c-5.4-42-54.4-21.1-79.4-14.6c-8.7,2.3-19.4,2.6-26.9,3s-7.8,10.1-3.1,14.8c-8.4-2.5-14,15-8.7,23"/>
<path class="st1" d="M320.8,362.4c0,0-8.3-18.7-13.3-26c14.3-7.2,27.4-11.7,42.2-16.9c8.3-2.9,19-4.8,28-6.5
	c11.9-2.2,11,2.5,15.4,12.8c2.5,5.9,7.4,23.8,7.4,23.8"/>
<path class="st1" d="M380.4,311.9c-24.1-38.4-49.9-89.8-98.3-102.8c-13.1-3.5-25.3-6.6-39-6.1c-12,0.4-24.8,1.1-35.9,7
	c-8.6,4.6-11,15-2.7,19c7.9,3.8,23.3-0.4,31.7-1.4c10.5-1.2,23.4,1.1,33.3,4.3c10.4,3.4,14.3,9.1,17.1,14.7"/>
<path class="st1" d="M310.1,261.7c-14.6-0.4-32.6,2.5-45.2,6c-7.3,2-16.1,3.9-19.4,11.9s2.5,13.2,11.3,13.3
	c10.3,0.2,20.7-2,34.7-1.7c-2,5-2.4,17.9,5,20.6"/>
<path class="st1" d="M283.9,243.3c-19.4,0-37.7,8.3-29.2,27.5"/>
<path class="st1" d="M257,251.1c-18.5,0-29.3,14.1-25.1,32.9c4.6,20.4,33,31,37.5,12.6"/>
<path class="st1" d="M231.1,273.3c-16.9,5.3-13,32.4-6.3,38.7c9,8.4,25.4,3.2,24.4-7.8"/>
<path class="st1" d="M245.8,312.5c4.4,7.6,17.1,13.5,29.3,15.5s19.7,0.2,28.7-4l5.3,9.6"/>
<path class="st1" d="M439.4,376.6c17.4-14.7,31.2-29.8,46.5-47.2c12.2-13.9,24.5-28.5,35.4-49.8c8.3,5.2,17.5,8.2,44.2,9.5
	s50.9,0.1,59.2-1.3c9.7-1.6,10.9,3.4,13.3,13.1c2.4,10.1,5.9,19.9,11.3,28c13.9,20.7,22.5,31.5,39.4,56.3
	c16.9,24.7,30.8,46.3,45.3,72.8"/>
<path class="st1" d="M511.4,312.3c3,10,9.5,17.7,21.9,10.9c9.9-5.5,18.5-11.3,25.8-22.3c7.9,17.4,15.4,25.7,28.8,34
	c13.8,8.6,34.5-1.4,44.9-12.8"/>
<path class="st1" d="M524.7,278.5l-2.8-63c0,0-32.9,4.3-46.7,6.9c3.5-17.5,9-29.5,14.6-42.4c6.3-14.4,12.4-27.6,23.2-39.3
	c19.6-21.2,60.9-40.2,84.3-13.3c13.7,15.7,11.2,38.6,12.3,58c13.7-3,34.6-16.1,43.4,3.5c9.3,20.8-22.3,20.8-35.3,21.1
	c2.4,18.8,9.9,63.9,11.6,75.6"/>
<path class="st1" d="M558.1,228.9c13.3,0,21.7-6.8,21.7-13.5"/>
<line class="st1" x1="549" y1="177.5" x2="550.9" y2="185.5"/>
<line class="st1" x1="536.2" y1="180.5" x2="538" y2="188.5"/>
<path class="st2" d="M625.8,180.5c-0.2-2.5-0.5-5-0.9-7.5c-1-7-2-16.6-5.2-24.5c-3-11.5-9.5-29.9-20.1-35.9c-4.1-3.1-9-4.7-14.4-3.5
	c0-0.1-0.1-0.2-0.1-0.3c-1.5-3.3-5.5-5.4-8.7-6.7c-7.7-3.2-16.6-2.5-24.4,0c-19.2,6.2-31.2,23.9-49.7,31.3c-2.7,1.1-2.5,5.3,0.7,5.3
	l26.5,0.2c8,0.1,16.2,0.2,24.1-1.3c7.3-1.2,14.2-4.3,19.9-9c1,8.5,5.5,18.5,12.9,24.3c5.7,4.5,10.9,8.5,12.9,15.8
	c2.3,8.2,3.3,16.9,4.8,25.3c0.5,2.7,5.6,2.5,6.2,0c0.7-2.9,1.5-6,2.1-9.1C616.6,183.6,621.2,181.8,625.8,180.5z"/>
<path class="st2" d="M617.7,210.1c0.6,4.4,1.4,10.4,2.4,16.9c1.4,1.1,4,0.8,4.3-1.3c0.8-5.3,1.4-10.6,1.8-15.9
	C623,210,620.1,210.1,617.7,210.1z"/>
<path class="st1" d="M556.2,316.6c-5.2,9.4,0,19.1,2,28.7c2.4,11.2-5.8,18.5-6.7,28.7"/>
<path class="st1" d="M565.4,336.9c0.1,0.5,0.5,0.9,1,1"/>
<path class="st1" d="M564.4,368.9c0.7,0.2,1.3,0.4,2,0.5"/>
</svg>
