<?xml version="1.0" encoding="utf-8"?>
<!-- Generator: Adobe Illustrator 24.1.2, SVG Export Plug-In . SVG Version: 6.00 Build 0)  -->
<svg version="1.1" id="Layer_1" xmlns="http://www.w3.org/2000/svg" xmlns:xlink="http://www.w3.org/1999/xlink" x="0px" y="0px"
	 viewBox="0 0 805.1 511.1" style="enable-background:new 0 0 805.1 511.1;" >
<style type="text/css">
	.st0{fill:#F68B9C;}
	.st1{clip-path:url(#SVGID_2_);}
	.st2{fill:#2B4C65;}
	.st3{fill:#08DB94;}
	.st4{fill:#AED2DA;}
</style>
<g id="_20_-_DESIGN_CARD" transform="translate(-6466 -4878.84)">
	<g id="CARD-2">
		<rect id="CARD-3" x="6466" y="4878.8" class="st0" width="805.1" height="511.1"/>
		<g>
			<defs>
				<rect id="SVGID_1_" x="6466" y="4878.8" width="805.1" height="511.1"/>
			</defs>
			<clipPath id="SVGID_2_">
				<use xlink:href="#SVGID_1_"  style="overflow:visible;"/>
			</clipPath>
			<g id="Clip" class="st1">
				<path id="SHAPE" class="st2" d="M7498.3,5060.9L5255,5541c0-70.2-58.1-198.8,24.2-265c136.1-108,365.8-133,553-203.8
					c114.8-42.1,215.4-89.9,269.7-162.9c38.8-52.1,37.6-104.5,98.8-150.4c1.5-1.2,3-2.4,4.5-3.5s3-2.3,4.5-3.5l0,0
					c2.4-1.8,4.8-3.5,7.2-5.3s4.8-3.4,7.3-5.1c4.9-3.4,9.8-6.7,14.8-9.9c7.5-4.8,15.2-9.5,23-14c2.8-1.6,5.6-3.2,8.4-4.7
					c5.1-2.8,10.2-5.5,15.4-8.2c7.9-4.1,16-8,24.1-11.7c0.2-0.1,0.4-0.1,0.5-0.2c5.5-2.5,11-4.9,16.6-7.3c2.8-1.2,5.7-2.4,8.5-3.6
					c2.8-1.2,5.7-2.3,8.6-3.4c2.9-1.1,5.8-2.2,8.6-3.3c2.9-1.1,5.8-2.2,8.6-3.2l0.1,0c2.9-1.1,5.8-2.1,8.8-3.1s5.9-2,8.8-3
					c8.9-3,17.9-5.9,27-8.6c9.1-2.7,18.3-5.3,27.5-7.7c3.1-0.8,6.2-1.6,9.3-2.4l9.4-2.3c66-16,136.1-26,207.8-32.3
					c1.5-0.1,2.9-0.3,4.4-0.4c18.9-1.6,38-3,57.1-4.2c16.5-1,33.1-1.9,49.7-2.7c4.1-0.2,8.2-0.4,12.3-0.5c9.2-0.4,18.4-0.8,27.5-1.1
					c13.3-0.5,26.5-0.9,39.8-1.2c6.6-0.2,13.3-0.4,19.9-0.5c14.1-0.3,28.1-0.6,42.1-0.9c5.7-0.1,11.4-0.2,17.1-0.3
					c3.3-0.1,6.6-0.1,9.8-0.2c6.5-0.1,13.1-0.2,19.6-0.4s13-0.2,19.5-0.3c9.7-0.2,19.4-0.4,29-0.5c6.4-0.1,12.8-0.3,19.2-0.4
					c25.5-0.5,50.6-1.2,75.3-2c193.6-6.2,427.1-47.6,573.3-140.7c5.1,3.3,10.1,6.6,15.2,9.9c2.5,1.6,5.1,3.3,7.6,4.9
					c12.7,8.2,25.5,16.4,38.8,24.6c2.3,1.4,4.6,2.8,7,4.3c3.3,2,6.6,4,10,6.1c2.2,1.3,4.4,2.6,6.6,3.9c2.1,1.2,4.2,2.5,6.3,3.7
					c2.3,1.3,4.6,2.7,6.9,4c9.9,5.6,20.1,11.2,30.6,16.8c76.5,40.6,143.9,78.8,229.8,113c6,2.4,11.9,4.9,17.6,7.6
					c-3.6,2.2-7,4.4-10.3,6.7c-19.8,13.8-34.2,29.6-43.5,46.2c-2.3,4.1-4.3,8.3-6,12.6c-1.1,2.8-2.1,5.6-3,8.5
					c-0.4,1.3-0.8,2.7-1.1,4.1c-0.4,1.5-0.8,3.1-1,4.6c-0.3,1.4-0.6,2.8-0.8,4.2c-0.2,1.4-0.4,2.8-0.5,4.3c-0.2,1.4-0.3,2.9-0.3,4.3
					c-0.1,1.4-0.1,2.7-0.1,4.1c0,0.1,0,0.3,0,0.4c-0.1,1.3,0,2.7,0,4c0,0.1,0,0.2,0,0.3c0.1,1.3,0.1,2.6,0.3,3.9
					c0.2,2.8,0.6,5.7,1.2,8.5c0.2,1.2,0.4,2.3,0.7,3.5c0.1,0.6,0.3,1.1,0.4,1.7c0.2,1,0.5,1.9,0.8,2.9c0,0.2,0.1,0.4,0.1,0.5
					c0.4,1.3,0.7,2.5,1.2,3.8c2.5,6-6.1,14.5-12.7,18c-114.4,53-251.8,69.2-377.3,104.8C7535.4,4924.7,7454.5,5022.1,7498.3,5060.9z
					 M6333.8,4918.2c-96.2,57.1-128.3,163-60.6,209.6c134,92.1,629.8-68.7,709-94.4c164.5-53.4,376.4-122.1,375.1-199
					c-1.1-65.6-157.1-120.1-293.9-107.1c-94.4,8.9-110.1,43.5-244.1,89.1C6580.3,4897.8,6449.6,4849.5,6333.8,4918.2z"/>
				<path id="SHAPE-2" class="st3" d="M6949.7,5134.6c435.6-80.9,809-37.3,834,97.3s-307.8,309.5-743.4,390.4s-809,37.3-834-97.3
					S6514.1,5215.5,6949.7,5134.6z"/>
				<path id="SHAPE-3" class="st4" d="M6269.8,5132.6c-67.8-46.6-35.7-152.9,60.9-210.1c116.2-68.9,247.3-20.5,487.1-102.2
					c134.4-45.8,150.1-80.4,244.9-89.3c137.2-13,293.6,41.5,294.8,107.3c1.3,77.2-211.2,146.1-376.3,199.6
					C6901.6,5063.6,6404.2,5224.9,6269.8,5132.6z"/>
			</g>
		</g>
	</g>
</g>
</svg>
