<?xml version="1.0" encoding="utf-8"?>
<!-- Generator: Adobe Illustrator 24.1.2, SVG Export Plug-In . SVG Version: 6.00 Build 0)  -->
<svg version="1.1" id="Layer_1" xmlns="http://www.w3.org/2000/svg" xmlns:xlink="http://www.w3.org/1999/xlink" x="0px" y="0px"
	 viewBox="0 0 805.1 511" style="enable-background:new 0 0 805.1 511;" >
<style type="text/css">
	.st0{fill:#EDC9C3;}
	.st1{clip-path:url(#SVGID_2_);}
	.st2{fill:#26596C;}
	.st3{fill:#0CC8B9;}
</style>
<g id="_34_-_DESIGN_CARD_" transform="translate(-5013 -8358.97)">
	<g id="CARD-2">
		<rect id="CARD-3" x="5013" y="8359" class="st0" width="805.1" height="511"/>
		<g>
			<defs>
				<rect id="SVGID_1_" x="5013" y="8359" width="805.1" height="511"/>
			</defs>
			<clipPath id="SVGID_2_">
				<use xlink:href="#SVGID_1_"  style="overflow:visible;"/>
			</clipPath>
			<g id="Clip" class="st1">
				<path id="SHAPE" class="st2" d="M5660,8880.8c-30.2-8.3-57.9-23.9-80.6-45.5c-41.4-32.2-45.5-72.8-91.2-87.9
					c-24.1-7.9-51.1,1.6-79,13.3c-75.4,40.3-163.4,49.9-245.8,26.9c-171.9-47.7-271.2-221.2-221.9-387.6s228.6-262.6,400.5-214.9
					c134.9,37.4,225.1,152.4,233.8,280.6c4.7,22.4,12.2,41.9,30.5,51.7c26.2,14.1,49.1,10.2,75.2,7.1c27.5-4.4,55.7-2.8,82.6,4.7
					c100.3,27.8,158.3,129.1,129.5,226.2S5760.3,8908.7,5660,8880.8z"/>
				<path id="SHAPE-2" class="st3" d="M5521.8,8275.3c28.8-0.6,57.2,5.9,82.9,19c44.8,17.5,59.1,52.2,103.2,53.5
					c23.3,0.7,44.6-14.7,66.1-32.4c55.9-55.1,130.9-86.6,209.4-87.9c163.8-2.9,296.6,123.8,296.6,283s-132.9,290.7-296.7,293.7
					c-128.6,2.3-238-75.3-279.2-185.7c-10-18.5-21.7-33.6-40.3-37.5c-26.7-5.6-45.9,3.9-68.1,13.4c-23.1,11.1-48.4,17-74,17.5
					c-95.6,1.7-173.1-72.2-173.1-165.2S5426.2,8277,5521.8,8275.3z"/>
			</g>
		</g>
	</g>
</g>
</svg>
