<?xml version="1.0" encoding="utf-8"?>
<!-- Generator: Adobe Illustrator 24.1.2, SVG Export Plug-In . SVG Version: 6.00 Build 0)  -->
<svg version="1.1" id="Layer_1" xmlns="http://www.w3.org/2000/svg" xmlns:xlink="http://www.w3.org/1999/xlink" x="0px" y="0px"
	 viewBox="0 0 805.1 511" style="enable-background:new 0 0 805.1 511;" >
<style type="text/css">
	.st0{fill:#B4CEFF;}
	.st1{clip-path:url(#SVGID_2_);}
	.st2{fill:#75A1F3;}
	.st3{fill:#0059C6;}
</style>
<g id="_24_-_DESIGN_CARD" transform="translate(-5010.94 -6039)">
	<g id="CARD-2">
		<rect id="CARD-3" x="5010.9" y="6039" class="st0" width="805.1" height="511"/>
		<g>
			<defs>
				<rect id="SVGID_1_" x="5010.9" y="6039" width="805.1" height="511"/>
			</defs>
			<clipPath id="SVGID_2_">
				<use xlink:href="#SVGID_1_"  style="overflow:visible;"/>
			</clipPath>
			<g id="Clip" class="st1">
				<path id="SHAPE" class="st2" d="M5264.1,6457c-58.9-46.7-109.7-105.9-142.4-174c-27.8-57.9-62.1-161-8.8-214.3
					c20.2-20.2,48.4-29.6,74.9-40.3c80.5-32.4,146.7-96.4,238.3-82.6c74.8,11.3,143.1,54.5,202.3,99.4
					c54.5,41.3,98.2,93.4,117.3,150.3c15.4,46,16.1,97-6.1,132.5c-7,11-15.9,20.7-26.2,28.7c-11,8.6-23.8,16.4-37.7,23.8
					c-47.7,25.2-89.5,50.8-124.8,92.1c-30.4,35.4-65,57.6-113.3,58.4c-41.7,0.7-82.4-14.2-118.2-35.7
					C5300.1,6483.7,5281.6,6470.9,5264.1,6457z"/>
				<path id="SHAPE-2" class="st3" d="M4907.3,6195.1c1,30.9,5.6,61.5,13.7,91.3c8.3,29.9,20.9,58.5,38.1,84.3
					c20.1,30,46.3,55.7,73.1,80.2c26.1,23.8,51.8,51.1,82.8,67.8c38.3,20.6,71,13.6,107.2-2.1c11.6-5.1,24.2-10.6,37.2-16.2
					c30.1-11.6,61.3-19.9,92.9-27.2c29.6-6.9,62.8-9.9,91.2-21.8c9.8-4.1,19.1-9.4,27.7-15.7c9.2-6.9,17.8-14.4,25.7-22.7
					c13.7-14,25.5-29.7,35.2-46.8c9.4-16.7,16.9-34.3,22.5-52.6c6.2-18.2,11.5-37,16.3-56s9.2-38.3,13.3-57.6
					c6.4-30.3,9.2-60.4,7-88.8s-9.9-55-24.3-78.4c-12.6-20-29.5-36.9-49.4-49.5c-22.5-14.2-47.9-23.3-74.3-26.5
					c-17.9-2.1-35.9-2.2-53.9-0.3c-20.7,2.3-41.3,5.7-61.7,10.2c-18.9,4.1-37.8,8-56.5,11.6s-37.4,6.8-56,9.4s-36.9,4.5-55,5.5
					c-17.8,1-35.7,0.9-53.5-0.2c-31-2.1-59.4-0.9-84.9,6.1c-26.5,7.2-50.5,21.7-69.1,41.9c-27.9,29.8-39.6,67-43.9,106.8
					C4907.1,6163.4,4906.6,6179.2,4907.3,6195.1z"/>
			</g>
		</g>
	</g>
</g>
</svg>
