<?xml version="1.0" encoding="utf-8"?>
<!-- Generator: Adobe Illustrator 24.1.3, SVG Export Plug-In . SVG Version: 6.00 Build 0)  -->
<svg version="1.1" id="Layer_1" xmlns="http://www.w3.org/2000/svg" xmlns:xlink="http://www.w3.org/1999/xlink" x="0px" y="0px"
	 viewBox="0 0 991.5 576.3" style="enable-background:new 0 0 991.5 576.3;" >
<style type="text/css">
	.st0{fill:#F4F6F9;}
	.st1{fill:none;stroke:#132144;stroke-width:7;stroke-linecap:round;stroke-linejoin:round;}
	.st2{fill:#132144;}
	.st3{fill:#00C9DB;}
	.st4{fill:none;stroke:#00C9DB;stroke-width:7;stroke-linecap:round;stroke-linejoin:round;}
	.st5{fill:#F5CA99;}
	.st6{fill:none;stroke:#F5CA99;stroke-width:7;stroke-linecap:round;stroke-linejoin:round;}
</style>
<path id="BG" class="st0" d="M396.4,501.5c7.8-10.4,15.3-21.1,22.2-32.3c6.1-9.9,4.7-12.3,2.6-23.1c-3.8-19.4-7.4-38.9-11-58.4
	c-0.2-0.1-0.4-0.2-0.6-0.3c-11.4-6.5-21.1-15.6-28.3-26.6c-9.3,0-16.4-3.4-15.4-14.5c0.4-3.7,1.7-7.2,3.9-10.2
	c-1.2-3.9-2.1-7.9-2.7-12c-3-19.1-0.8-50.7,17.1-62.2c-1-13.5,10.8-25,23.9-28.5c19.3-5,40.9,4.2,59-5.8c3.3-1.9,7.7,2.7,5.1,5.8
	c-2.8,3.3-5.6,6.7-8.6,10.1c34.5-1.2,69,0.5,103.2,5.2C548.7,264,502,281.9,502,281.9s10.3,25.1,13.4,35.2
	c6.5,20.7,13.4,40.9,18.5,62.1c2.6,10.8,13,52,13,52c10.4,10.8,21,20.9,30.9,30.7c10,10,18,21.2,26.5,32.5c2-2,4-4,5.9-6
	c25.8-26.8,35.9-94.4,35.9-125.8S638,298,629,278.8c-9.6-20.4-21.1-40.7-35.7-57.4c-50.1-57.6-134.4-53.3-195.1-18.4
	c-30.7,17.7-59.3,44.5-72.2,80.1c-14.6,40.2-3.8,81.9,10.3,120.3C349.6,439.7,367.5,477,396.4,501.5z"/>
<path class="st1" d="M546.9,431.1c0,0-10.3-41.2-13-52c-5.2-21.1-12-41.4-18.5-62.1c-3.2-10-13.4-35.2-13.4-35.2
	s46.7-17.9,64.7-33.2c-37.4-5.1-75.2-6.7-112.9-4.8c-22.3,1.2-45.5,7-58.3,26.3c-7.9,11.8-6,23.4-3,37.1c0.9,4,1.8,8,2.7,12
	c-13.9,5-28.2,13.9-29.3,27c-1.7,19.6,21.9,15.3,37.9,10.2c1.9,8.2,3.6,16.5,5.2,24.8c4.1,21.6,8,43.2,12.2,64.7
	c2.1,10.8,3.5,13.1-2.6,23.1c-11.8,19.2-25.5,37-39.6,54.5c-8.3,10.3-36.1,42.3-37.8,49c0,0,281-0.4,309-5.1
	c-15.2-30.6-26.4-48.8-37.9-63.1c-11.9-14.7-21.4-29.7-34.5-42.8C567.9,452,557.3,441.9,546.9,431.1c-14.1,6.3-27.5,11.2-41.7,16
	c-13.2,4.4-26.9,5.2-40.8,6.6c-10.8,1.1-27.4,4.6-38.2,5"/>
<line class="st1" x1="449" y1="296.8" x2="454.7" y2="302.1"/>
<line class="st1" x1="468.6" y1="288" x2="474.3" y2="293.3"/>
<path class="st1" d="M432.8,469.1c0,0,12.5,16.8,20,23.4c9,8,21,19.8,34,18.3c20.5-2.4,28.9-34.2,22.1-48.9
	c3.3,12.8,29,52.1,42.7,19.5c2.7-6.3,2.6-28.9,2.6-28.9"/>
<path class="st1" d="M398.6,338.2c-4.9-0.2-9.4-1.4-12.5,2.6"/>
<path class="st2" d="M403.8,356.6c-7,2.2-15.4,4.3-22.5,4.3c7.2,11,16.9,20.2,28.3,26.6c0.2,0.1,0.4,0.2,0.6,0.3l-1.2-6.4
	C407.4,373.1,405.6,364.8,403.8,356.6z"/>
<path class="st2" d="M467.1,227.7c-18.1,10-39.7,0.8-59,5.8c-13.1,3.4-24.8,15-23.9,28.5c-17.9,11.4-20.1,43.1-17.1,62.2
	c0.6,4.1,1.6,8.1,2.7,12c5.3-7.5,15.1-12.9,24.8-16.5c3.9,4.1,8,8,11.6,12.9c2.3,3.1,6.5,0.7,7-2.3c3.4-19.9-0.7-43.3-11.9-60
	c10.4,3,22,1.6,32.1-2.7c16.1-6.9,27.8-20.9,38.7-34C474.8,230.4,470.4,225.9,467.1,227.7z"/>
<path class="st1" d="M471,351c14.3-8,30.8-4.5,45.7,1.2"/>
<path class="st1" d="M524.5,345.5c-2.9-9.5-6-18.9-9-28.4c-0.1-0.4-0.3-0.8-0.4-1.3c-2.7,2.6-4.9,5.7-7.7,8.2
	c-8,7-18.3,10.6-27.9,14.5c-7,2.8-15.3,2-9.6,10.8C482.2,368.8,510.1,360.9,524.5,345.5z"/>
<path class="st1" d="M518.2,504.3c8.6,18.1,12.6,44.3,12,64.5"/>
<path class="st1" d="M572.7,546.3c15.3-0.4,33.9,1.6,48,6"/>
<path class="st1" d="M605.7,538.8c2.7,6.7,4.2,13.8,4.5,21"/>
<path class="st1" d="M592.2,537.3c7.2,7.9,5,23.3,9,33"/>
<path class="st1" d="M541.2,553.8h1.5"/>
<path class="st1" d="M533.2,514.8h3"/>
<path class="st2" d="M521.8,339.2c-1.7-3.6-3.5-7.1-5.2-10.6c0-0.1-0.1-0.1-0.1-0.2c3.8-3.1-0.1-9.9-4.2-6.8
	c-12,9.2-26.3,14-40.6,18.5c-4.1,1.3-3.6,8.3,1.1,7.9c6.6-0.7,13.2-1,19.9-1c7.4,0.1,13.8,1.7,20.9,3.6c4.1,1.1,9.4,0.3,10.1-4.8
	C524,343.3,522.7,341.2,521.8,339.2z"/>
<path class="st3" d="M218.2,320.1c33.7-7,55.5-23.5,78.3-51.4s26.8-72.9,20-107.4c-3-14.1-7.2-27.8-12.7-41.1
	c-0.4-0.9-1.1-2.3-2-3.9c-21.2-38.8-59-65.7-102.5-73.1c-3.9-0.7-7.8-1.3-11.7-1.6h-0.3c-22.7,0.9-45.3,3.5-67.6,7.8
	c-20,3.7-44.9,10.1-63,19.4C24.8,85.2,9.1,118.9,4.8,153.3l0,0c-0.1,1-0.2,2-0.3,2.9c-0.1,0.7-0.2,1.5-0.2,2.2c0,0.3,0,0.6-0.1,0.9
	v0.4c-0.1,1.7-0.3,3.5-0.4,5.2c0,0.7-0.1,1.3-0.1,2c0,0.9-0.1,1.9-0.1,2.8s-0.1,2.1-0.1,3.1c0,1.6,0,3.3,0,5c0,0.5,0,1,0,1.4
	c0,1.3,0.1,2.6,0.1,3.9c0,0.1,0,0.3,0,0.4v0.9c0.1,1.7,0.1,3.3,0.2,5l0.1,0.9l0,0c0.1,1.4,0.2,2.8,0.3,4.3c0,0.5,0.1,1,0.1,1.5
	c0.1,1.4,0.2,2.8,0.3,4.3c0,0.1,0,0.3,0,0.5s0,0.4,0,0.6c0.2,1.7,0.3,3.5,0.5,5.3c0.1,0.5,0.1,1.1,0.2,1.6c0.1,1.3,0.3,2.6,0.4,4
	c0,0.5,0.1,1.1,0.2,1.7c0.2,1.6,0.3,3.3,0.5,5c0,0.1,0,0.3,0,0.4l0.2,2.1l0.1,0.8c0,0.4,0.1,0.7,0.1,1.1s0.1,0.6,0.1,1
	c0.1,0.7,0.2,1.3,0.3,2s0.1,1,0.2,1.5c0,0.1,0,0.3,0,0.4c0,0,0,0.1,0,0.1c0.1,0.9,0.3,1.9,0.4,2.8l0.1,0.6c0.1,0.4,0.1,0.7,0.2,1.1
	c0.1,0.9,0.3,1.8,0.4,2.7c0,0.3,0.1,0.6,0.1,0.9c0.1,0.7,0.3,1.4,0.4,2.1l0.2,1c0.1,0.4,0.2,0.8,0.2,1.2l0.3,1.5
	c0,0.2,0.1,0.4,0.1,0.6c0.1,0.4,0.2,0.8,0.3,1.2c0.1,0.6,0.2,1.1,0.3,1.7c0.1,0.4,0.2,0.8,0.3,1.1s0.2,0.9,0.3,1.4s0.3,1.2,0.4,1.7
	s0.2,1,0.3,1.5c0.2,0.9,0.4,1.7,0.6,2.5c0.1,0.5,0.3,1.1,0.4,1.6c0.2,0.5,0.2,0.9,0.4,1.3s0.3,1.1,0.4,1.6c0.2,0.7,0.4,1.5,0.6,2.2
	c0,0.1,0,0.2,0.1,0.3c8.4-11.4,16.7-23.5,20.4-29.3c14-22,28.8-45.4,38.7-69.1c-18.9,17.8-29-5.5-22.1-23.3
	c6.1-15.8,28.9-34.2,39.8-13.1c-2.1-27,22.3-55.1,50.2-55c21.9,0.1,34.4,8.9,49,24.9c9.3,10.1,17.4,21.7,25.1,33.5l0.9-0.3
	c23.1-22.5,38.9,22.2,25,37l-1.8,0.9l1.3,1.9c9.1,13.1,23.5,40.8,23.5,40.8s-29.1-8.4-51.5-13.5c1.3,1.4,2.3,3,3,4.7
	c0.8,1.9,1.6,3.9,2.4,5.8c1,1.5,1.8,3.3,2.1,5.1c0.7,1.7,1.4,3.5,2.1,5.2c1.4,3.3-1.9,5.3-4.7,4.7c-0.1,0.1-0.1,0.2-0.2,0.3
	c-1.8,2.1-4.9,1.1-6.3-0.8c-1.9-2.8-4.5-5.1-7.5-6.7c0.4,3.6,0.3,7.3-0.3,11c-0.6,2.1-2.8,3.4-4.9,2.8c-4-1.4-7.6-3.5-10.7-6.3
	l-0.6,2.1c0,0-13,42.4-13.9,63.2l-0.7,0.8c4-0.8,7.9-1.9,11.8-3.2c0,0-0.1,19-1.8,31.8c-0.4,3-1.1,6-1.9,8.9l0.9-0.1
	c10.5-1.7,23.2-3.6,36.4-5.8L218.2,320.1z"/>
<path class="st4" d="M181.8,325.9c10.5-1.7,23.3-3,36.4-5.8c33.7-7,55.5-23.5,78.3-51.4s26.8-72.9,20-107.4
	c-3-14.1-7.2-27.8-12.7-41.1c-0.4-0.9-1.1-2.3-2-3.9c-21.2-38.8-59-65.7-102.5-73.1c-4-0.8-8-1.3-12-1.6
	c-22.7,0.9-45.2,3.5-67.5,7.8c-20,3.7-44.9,10.1-63,19.4C24.8,85.2,9.1,118.9,4.8,153.3c-2.6,20.5-0.9,42.1,1.8,66.1
	s6.8,40.5,14.1,60c4.7,12.6,9.8,21.9,17,33.5c2.8,4.5-12.1,68.5-16.5,76.4c13.8-18.5,56-53.3,56-53.3c9.8,1.5,19.7,1.8,29.5,0.9
	c15.7-1.8,22.3-2.4,52-7"/>
<path class="st1" d="M13.9,258.9c8.9-9,14.1-16.1,21-27c14-22,28.8-45.4,38.7-69.1c-18.9,17.8-29-5.5-22.1-23.3
	c6.1-15.8,28.9-34.2,39.8-13.1c-2.1-27,22.3-55.1,50.2-55c21.9,0.1,34.4,8.9,49,24.9c19.7,21.4,33.8,49,50.5,73.1
	c9.1,13.1,23.5,40.8,23.5,40.8s-47.7-13.8-68-16.6s-38.3-5-53.7-5.1"/>
<path class="st1" d="M66.5,139.4c2.8,1.1,5.5,2.4,8,4"/>
<path class="st1" d="M133.7,142.4c1.7-12.6,10.3-28.1,23.8-31c11.7-2.5,24.2,6,28.6,16.5c9.4,22.7-11,56.4-37.5,46.5
	C137.4,170.3,132.1,152.6,133.7,142.4z"/>
<line class="st1" x1="164.5" y1="141.4" x2="163.5" y2="147.4"/>
<path class="st1" d="M216.5,129.4c23.1-22.5,38.9,22.2,25,37"/>
<line class="st1" x1="187.9" y1="134.6" x2="230.9" y2="142.4"/>
<line class="st1" x1="109.3" y1="120.3" x2="139.5" y2="125.8"/>
<path class="st1" d="M142.9,188.3c-9.4,7.6-21.6,24-12.8,30.1c9.3,6.5,27.9-10.9,31.6-18.7c-0.1,5.9-2.1,16.9,3.9,20.8
	c8.1,5.2,13.9-6.9,15-13.9c2.4,11.4,10.4,25.1,23.8,22.4c1.8-5.2,1.6-10.9-1.9-15.3c3,6,13.6,15,20,9c5.8-5.4-4.7-20.1-5.9-24.4"/>
<path class="st1" d="M122.2,290c5.6,0,15.3,3,20.6,2.8c-0.6,7-1.7,16.9-5.2,23.4c-5-2.3-14.7-3-20-3.1c1.9-4.3,3.8-9.5,4-14.2
	c0.4-8.2,0.1-7.9,0.1-7.9S99.5,274.4,91,268.7c-8.2,14.3-11,38.4-12.3,53.6c12.6-1.7,25.3-7.4,37.7-9.7"/>
<path class="st1" d="M33.3,234.3c25.2,13.2,55.7,26.2,83.2,32.1c10.6,2.3,32.4,7.3,58.1,7.3"/>
<path class="st1" d="M187.5,224.4c0,0-13,42.4-13.9,63.2"/>
<path class="st1" d="M144.9,295.5c12.7-5.2,27-5.8,39.8-10.2c0,0-0.1,19-1.8,31.8c-1.3,8.3-3.9,16.3-7.7,23.8l-34.8-25.3"/>
<path class="st1" d="M16.5,267.6c21.2,8.5,43,18.3,63.9,25.1"/>
<path class="st2" d="M222.8,217.5c-0.7-1.7-1.4-3.5-2.1-5.2c-0.3-1.8-1.1-3.6-2.1-5.1c-0.8-1.9-1.6-3.9-2.4-5.8
	c-1.6-3.8-3.6-6.3-7.9-7.2c-11.5-2.3-23.7-2.5-35.4-3.6c-6-0.6-11.9-1.1-17.9-1.6c-4.8-0.4-9.2-0.5-13.3,2.3
	c-7.6,5.2-11.3,14.9-12.2,23.7c-0.3,2.4,2.8,4.8,5.1,3.9c9.4-3.6,17.7-9.5,24.2-17.1c0.4,0,0.7-0.1,1.1-0.1c1.3-0.1,2.6-0.1,3.8,0.2
	c0.3,0.1,0.5,0.1,0.8,0.2c-0.4,0.3-0.7,0.7-0.9,1.2c-2.6,5.4-2.4,11.7,0.5,17c1.1,1.9,3.6,2.5,5.5,1.4c0.3-0.2,0.6-0.4,0.8-0.6
	c2.9-3.3,6.7-8.1,9-13c2.6,9.7,9.8,17.6,19.4,20.8c2.1,0.6,4.3-0.7,4.9-2.8c0.6-3.6,0.8-7.3,0.3-11c3,1.6,5.6,3.9,7.5,6.7
	c1.4,2,4.5,2.9,6.3,0.8c0.1-0.1,0.1-0.2,0.2-0.3C220.8,222.7,224.1,220.7,222.8,217.5z"/>
<path class="st5" d="M920.8,84.4c-2.8,3.5-6.1,6.5-9.7,9.2c-11.3,7.8-22.7,14.1-33.8,14.8l-5.5-3.3c0.9,0.8,1.8,1.7,2.6,2.6
	c12.9,14.3,22.7,31,28.9,49.2c9.9-4.2,22.6-6.8,31.8-5.4c8.1,1.2,15.5,8.2,14.5,17.5c-1,9-10.7,14-19,16.3
	c-4.3,1.2-11.4,3.4-17.5,5.4c2.6,13.8,5,27.8,8.2,41.5s13.6,60.1,13.6,60.1s20.6,9.6,36.7,16.8c2.3-4.5,4.3-9,6.1-13.7
	c11-29.2,11.4-50.2,9.8-80.9c-1-19.6-5.8-45.8-13.1-64c-8.5-21.1-22.3-39.3-38.5-54.2C931,91.9,926,88,920.8,84.4z"/>
<path class="st5" d="M803.8,360.3c5.8-7.5,10.9-15.5,15.3-23.9c0,0-13.1-39-20.5-57.3c-5.5-13.7-20.1-49.8-20.1-49.8
	c-18,7.5-52.8,29-52.8,29s11.2-52.5,18.6-73.9c9.3-27,20-52.6,42.3-71.6c17.7-15,48-24.5,70.8-16.3l0,0c-4.3-9.6-3.3-22.7-0.3-35.3
	l-0.2-0.1c-10-1.3-20.1-1.9-30.1-1.8c-21.9,0.2-70.2,12-103.2,37.3s-51.4,71.3-55.4,109.6c-4.1,39.4,7.2,81,28.3,114.1
	c8.8,13.7,19.5,27.3,45.7,45.5c12.7,8.8,29,14.6,45.8,18.1C795.3,372.9,801.8,363.1,803.8,360.3z"/>
<line class="st1" x1="836.5" y1="186.4" x2="838.5" y2="196.4"/>
<line class="st1" x1="815.5" y1="194.4" x2="817.5" y2="204.4"/>
<path class="st1" d="M839.3,231.8c4.4-2.1,5.8,1.2,5.3,5.3c-0.5-4.6,4.3-10.1,9.8-8.5s7.8,23.1,0.6,30.3c-8.2,8.1-16.6,3-20.4-7.7
	C830.7,240.6,834.9,233.8,839.3,231.8z"/>
<path class="st1" d="M823.5,252.4c16.9,2.6,40.5-11.6,43.8-26.7"/>
<path class="st1" d="M777.5,122.4c29.8,20,87,43.3,119,21"/>
<path class="st6" d="M857,61.2c-10-1.3-20-1.9-30.1-1.8c-21.9,0.2-70.2,12-103.2,37.3s-51.4,71.3-55.4,109.6
	c-4.1,39.4,7.2,81,28.3,114.1c8.8,13.7,19.5,27.3,45.7,45.5s67.7,23.6,97.2,21.8c23.9-1.4,52.6-6.6,73.6-16.5l0.3,0.3
	c0,0,19.4,18.7,29.6,27c11.5,9.4,24.9,18.8,38.6,24.6c-6.2-15.7-16.4-31.5-24.7-46.2c-4.1-7.3-9.7-19-13.8-28
	c14.9-15.3,27.4-34.9,34.4-53.5c11-29.2,11.4-50.2,9.8-80.9c-1-19.6-5.8-45.8-13.1-64c-8.5-21.1-22.3-39.3-38.5-54.2
	c-4.7-4.3-9.7-8.2-14.9-11.8"/>
<path class="st1" d="M971.6,308.8c-10.2-4-36.8-16.6-36.8-16.6s-10.4-46.4-13.6-60.1s-5.6-27.7-8.2-41.5c6.1-2,13.2-4.3,17.5-5.4
	c8.3-2.2,18-7.2,19-16.3c1-9.3-6.4-16.3-14.5-17.5c-9.2-1.4-22,1.2-31.8,5.4c-6.2-18.2-16.1-34.9-28.9-49.2
	c-22.1-24-65.1-14-87.7,5.2c-22.3,18.9-33,44.6-42.3,71.6c-7.3,21.4-18.6,73.9-18.6,73.9s34.7-21.6,52.8-29c0,0,14.5,36.1,20.1,49.8
	c7.4,18.3,20.5,57.3,20.5,57.3c-4.4,8.4-9.5,16.4-15.3,24c-5.5,7.4-17.3,23.1-17.3,23.1"/>
<path class="st2" d="M918.2,0.9c-21.3-4.3-41.5,6.4-52.8,28.1c-7.8,15-20.2,48.7-11.2,69c0.8,1.8,2.8,2.6,4.6,1.8
	c0.7-0.3,1.2-0.8,1.6-1.4l13.8,8.2c-0.4,0.6-0.5,1.3-0.5,2c0.1,1.8,1.6,3.3,3.5,3.3h0.2c13-0.8,25.8-8.7,35.6-15.4
	c11.9-8.3,26.8-29.9,30-50.5C945.5,30.3,936.2,4.6,918.2,0.9z"/>
<path class="st1" d="M889.8,351.6c22-12.7,39.2-38.9,49-59.9"/>
<path class="st1" d="M815.5,339.4c16.1,10.3,38,20.6,57.8,18.1"/>
<path class="st1" d="M884,346.4c-10.2-2.6-14.8,11.5-6,15c11,4.4,17.6-12.5,5-15H884z"/>
<path class="st1" d="M929.8,166.9c-4.5-0.6-8.9,1.3-11.5,5"/>
<path class="st2" d="M895.6,139c-8.1-20.7-26-37.1-47.8-42.1c-22.6-5.2-46.9,2.3-63.1,18.6c-3.1,0.4-4.9,5.3-1.5,7.6
	c17.6,11.8,37.3,20.1,58,24.4c9.9,2.1,19.9,3.2,30,3.4c8.5,0.1,17.5-1.4,23.4-8C895.6,141.9,896,140.4,895.6,139z"/>
</svg>
