<?xml version="1.0" encoding="utf-8"?>
<!-- Generator: Adobe Illustrator 24.2.1, SVG Export Plug-In . SVG Version: 6.00 Build 0)  -->
<svg version="1.1" id="Layer_1" xmlns="http://www.w3.org/2000/svg" xmlns:xlink="http://www.w3.org/1999/xlink" x="0px" y="0px"
	 viewBox="0 0 594.2 750.7" style="enable-background:new 0 0 594.2 750.7;" >
<style type="text/css">
	.st0{fill:#F4F6F9;}
	.st1{fill:none;stroke:#333333;stroke-width:7;stroke-linecap:round;stroke-linejoin:round;}
	.st2{fill:none;stroke:#1E2022;stroke-width:7;stroke-linecap:round;stroke-linejoin:round;}
	.st3{fill:#1E2022;}
</style>
<path id="BG" class="st0" d="M565.9,118c-18-25.4-36.3-44.3-61.9-60.2c-26.4-16.3-54.6-29.3-84.1-38.8C359-0.7,294.6-4.5,231.7,4.8
	c-32.4,4.8-64.3,13.1-95,24.6C110.2,39.3,80.7,54,62.1,71.3s-38.8,51.3-43.6,67.1C8.8,171.1,5.2,205.3,8,239.2
	c4.1,49.1,21.6,96.5,50.6,134.8c4.2-5.9,8.2-11.7,11.3-16.6c8.5-13.5,25.1-33.6,25.1-33.6c-1.5-8.6-2.1-18.8-1.6-22.5
	c5.3,0.3,22,0.2,33,0.2v-0.8c0,0-4.9-34.7-9.5-50.1c-5.5-0.2-10.1-2.2-12-7.3l0,0c-5.8,3.9-15.4,1.3-20.7-4.7
	c-16.6-19.1-5.6-41.1,13-54.2c9.9-6.9,20.9-12.6,33.1-10.4c8.2,1.5,15.6,5.8,29.4,21.3c1.5,0.7,2.9,1.5,4.2,2.6
	c8,6.7,10.5,21.5,13.5,30.8c4.4,13.4,7.3,27.4,9.7,41.1c2.9,16.3,10.3,72.5,10.3,72.5l0.5,2.6l1.6-0.3c14-20.2,35.7-46.8,41.3-71.1
	c4.8-20.6,4.9-43.8,4-65.3l-0.4-0.5c-0.2-0.1-0.4-0.3-0.5-0.4c-3.4-3.4-5.8-7.6-7.1-12.2c-2.3-3.2-4.4-6.7-6.1-10.2
	c-2.7-0.3-5.1-0.6-6.9-0.8c-8.2-0.9-11.4-4.2-11.8-13.7c-0.5-11.2,5.5-15.1,13.5-16.1c0.1-5.2,0.4-10.4,1-15.5
	c1-10.3,2.5-21.1,7.6-30.3c2.6-4.7,6.5-8.6,11.2-11.2c3.1-2.4,6.7-3.8,10.6-4.3c1.2-5.6,3.1-11.2,7.8-14.8
	c5.4-4.3,12.6-4.6,19.2-4.4c7.2,0.3,13.5,1.9,19.1,6.6c6.6,5.4,13.4,8.6,22.1,6.8c3.7-0.8,6.3,4.4,2.7,6.4
	c-4.6,2.5-9.5,4.6-14.5,6.2c21.2,12,39.6,34.2,54,51.8c-6.5,1.3-49-6.9-49-6.9s1,38.1,2.1,54.5c1,14.6,2.2,28.7,5.4,43.1
	c2,9.2,5.7,19.7,9.9,27.1c8.7,15.4,17.6,29.8,27.6,44.7c8.6,12.9,16.2,26.5,23.7,39.7h0.1l2.2-2.8V351c0,0,4-29,5.8-38.7
	c2.4-13.3,8.7-45.8,12.4-58.9c4.5-16.1,7.8-31.1,15.3-46.3c11.3-22.7,26.1-30.1,51.4-26.2c10.9,1.7,21.9,8.2,20.1,21
	c16.8-0.6,13.5,22.7,4,29.3c4.4,14-20.9,28.3-26.4,16.5c-0.5,6.3-3.5,11.6-12.3,14l-0.8,3.9c-0.1,12.3,1.7,29.6,1.7,29.6v0.2
	c8.1-0.4,19-0.5,20.5,1.4c3.5,4.5,2.8,19.2,2.2,25.4c0,0,16.9,16.2,23.8,23.6c10.6,11.7,20.5,24.1,29.7,37
	c17.3-21.2,32.6-44.3,42.6-70.3c12.1-31.6,15.1-66.3,16-100.1C595,179.7,585.2,145.3,565.9,118z"/>
<path class="st1" d="M386.1,354c-7.5-13.2-15-26.8-23.7-39.7c-10-15-18.8-29.3-27.6-44.7c-4.2-7.4-7.9-18-9.9-27.1
	c-3.2-14.4-4.4-28.6-5.4-43.1c-1.1-16.4-2.1-54.5-2.1-54.5s42.4,8.3,49,6.9c-18.1-22.2-42.3-51.3-70.7-58.8
	c-42.2-11.1-51.5,26.4-52.6,62.3c-14.6-1.9-32-3.4-31.1,15.3c0.5,9.4,3.6,12.8,11.8,13.7c4.7,0.5,13,1.8,19.9,1.7
	c0.1,2.9,0.3,5.6,0.5,8.1c1.4,25.1,2.6,54.4-3.3,79.6c-5.6,24.2-27.4,50.8-41.3,71"/>
<path class="st2" d="M272.9,165.9c4.1,0.8,10.8,1.5,14.9,2.7"/>
<line class="st2" x1="281.4" y1="124.8" x2="280.6" y2="131.3"/>
<line class="st2" x1="296.6" y1="127.5" x2="296" y2="134.5"/>
<path class="st2" d="M174.8,54.6c1.6-3.8,5-12,10.7-12.2c5.9-0.2,10,7.8,9.4,12.7c-0.6,4.4-5,10-7,14.2c-1.4,2.8-2.7,5.5-3.9,8.3
	c-0.6,1.4-2.2,5.6-2.2,5.6"/>
<line class="st2" x1="180" y1="102.3" x2="181" y2="100.7"/>
<path class="st2" d="M476.3,34.6c9.7,0.9,28.8,8.2,17.4,21.9c-6.2,7.6-33.3,13.1-31.4,23.9"/>
<line class="st2" x1="460.2" y1="93.2" x2="460" y2="95"/>
<path class="st2" d="M546.1,148.8c3.3-3,8.7-4.2,12.5-1s1.2,12-5.3,17.8c-4.3,3.9-14.6,8.6-12,15.9"/>
<line class="st2" x1="541.6" y1="196.2" x2="541.8" y2="194.7"/>
<path class="st2" d="M3.5,175.1c8.2-10.6,17-3.6,18.4,6.8c1,7.4-3.2,28.6,4.2,32"/>
<line class="st2" x1="29.9" y1="229.9" x2="31.8" y2="227.5"/>
<path class="st2" d="M197.6,342.3c0,0-7.5-56.2-10.3-72.5c-2.4-13.7-5.3-27.7-9.7-41.1c-3.1-9.3-5.5-24-13.5-30.8
	c-9.9-8.3-26-2.6-34.6,1s-17.6,8.5-15.8,16c1.3,5.4,17.3,4.5,22.2,2.9c-12,4-4.6,14.8-1,18"/>
<path class="st2" d="M159.7,195.4c-13.9-15.5-21.2-19.8-29.4-21.3c-12.2-2.2-23.2,3.5-33.1,10.4c-18.7,13-29.6,35-13,54.2
	c7.9,9.1,25.6,10.4,25.4-6.4c7.8,1.1,14.1-3.8,13.5-11.5"/>
<path class="st2" d="M77.9,209.4c-0.1,12.2,15.4,24.7,31.7,22.8"/>
<path class="st2" d="M90.2,190.1c-2,10,8.4,37.2,21.6,26.4"/>
<path class="st2" d="M111.8,176.3c-4.7,6.1-5.5,25.9,5.5,27.7"/>
<path class="st2" d="M132.4,188.1c0.7,0.2,1.9,5.6,2.4,6.1"/>
<path class="st2" d="M388.4,351c0,0,4-29,5.8-38.7c2.4-13.3,8.7-45.8,12.4-58.9c4.5-16.1,7.8-31.1,15.3-46.3
	c11.3-22.7,26.1-30.1,51.4-26.2c10.9,1.7,21.9,8.2,20.1,21c16.8-0.6,13.5,22.7,4,29.3c4.4,14-20.9,28.3-26.4,16.5"/>
<path class="st2" d="M441,199.8c10.4,0.4,28.9,4.2,32.9,15c6.7,17.8-21.2,15.2-29.5,7.9c9.2,2.2,11.5,10.8,10.2,19.3"/>
<path class="st2" d="M468.7,231.2c3.1,12.3,6,26.1-9.9,30.6c-1.2,0,0.8-0.4,1.1-0.8"/>
<path class="st2" d="M458.3,258.2c-1.4,10.7,1.3,37,1.3,37"/>
<path class="st2" d="M473.3,181c5.6,6.1,3.1,22-5,25.8"/>
<path class="st2" d="M456.2,196c-0.6,0.9-3.2,4.3-3,4.1"/>
<path class="st2" d="M493.6,197.7c-0.9,9.9-4.3,29-17.8,22.8"/>
<path class="st2" d="M469,228.6c4.3,14.8,20,7,28.3,2.6"/>
<line class="st2" x1="227.9" y1="170.5" x2="236.5" y2="171.1"/>
<path class="st2" d="M104.9,243.4c1.9,5.1,6.5,7.1,12,7.3c4.7,15.4,9.5,50.1,9.5,50.1"/>
<path class="st2" d="M416.2,323.8c1.5,9.3,10,23.1,16,23.1s11.7-19.8,14.9-31.6c5.2,11.2,10.5,28.6,16.9,28.3s10.2-10.7,11-16.7"/>
<path class="st2" d="M448.1,347.8c2.5,18.9,2.3,47.3,2.8,66.2c0.9,30.9,0.4,61.7,2.3,92.8c1.3,21.7,4.5,44.7,4.1,66.3
	c-0.3,13.9-3.4,27.3-4,41.1c-0.6,13.5-0.3,27.4-0.3,40.8c0,5.7-2,16.7-0.2,21.3"/>
<line class="st2" x1="459" y1="382.4" x2="462.5" y2="382.7"/>
<line class="st2" x1="462.7" y1="437.8" x2="465.2" y2="438"/>
<line class="st2" x1="466.1" y1="494.9" x2="469.5" y2="496.1"/>
<path class="st2" d="M470,561c1.2-0.4,2.4-0.8,3.6-1"/>
<path class="st2" d="M465.8,630.3l3.5,0.3"/>
<path class="st2" d="M366.9,442.9c1.7,6.9-8.2,17.5-7.9,25.6c1.1-1.8,7.4-4.7,8.4-6.7c-0.6,7.5-8.6,15.9-9.3,23.2
	c0.5,0.1,4-1.2,4.1-1.2c-6.6,56,0.4,113.4-3.5,169.7c-0.7,10.5-0.7,22.2-0.7,26.9s19.7,16.3,31.5,19.4c16.5,4.5,31,4.2,47.7,2
	c15.2-2,30.7,1.9,45.7-1.2c6.3-1.3,24.1-2.8,36.3-9.8"/>
<path class="st2" d="M367.1,690c-1.1,11.9-1.5,23.7-15.1,25.1c-8.2,0.8-30.5-1-33.5-2.4s-1.8-41.8-1.2-54.7
	c1.1-22.3,4-43.5,6.1-65.8c4-44,8.1-88,12.2-132c1-11,1.5-27,5.1-37.2c7-19.5,24-38.6,35.7-55.8c8.7-12.9,30.8-38.5,30.8-38.5
	s1.8-9.7,3.2-15.5c1.9-7.9,0.8-9.3,8.6-11.8c9.6-3.1,23.1-4.4,33.3-5.4c5.6-0.5,25.7-1.8,27.8,0.9c3.5,4.5,2.8,19.2,2.2,25.4
	c0,0,16.9,16.2,23.8,23.6c15.4,16.8,27.6,33.9,40.7,52.5c10.5,14.9,21.9,28.2,20.2,45.9c-2.2,24.1-2.1,49.3-1.1,73.5
	c0.7,17.8-0.1,35.2-0.3,53c-0.3,22,3.9,43.8,2,65.6c-0.9,10.9-0.3,69.8-3.4,74.6c-4.2,6.7-24.9,7.4-32.7,9.2
	c-10.8,2.5-12.6,1-12.7-9.9c-0.1-8.7,0.6-17.5,0.7-26.1c0.1-28.3,0-56.8-0.9-85.1c-0.8-28.1-1.3-56.9,0-84.8
	c0.5-9.8,1.8-20.9-0.2-30.3c-1-4.7-10.7-30.1,4.7-19c-3.4-5.8-8.3-11.4-5.9-18.6c1.2-2.4,3.6-0.1,5.1,0.3"/>
<path class="st2" d="M524.7,721.4c-0.9,9.4-0.6,14.5-0.9,23.9c12.2,2.5,24.4,0,35.3-1.6c0.5-7.9,0-29,0-29"/>
<path class="st2" d="M320,713.5c-0.6,6.1-0.6,28,0.8,31.6s34.6,1.7,35.6,0.2s3.7-33.3,3.7-33.3"/>
<path class="st2" d="M491.7,416.9c7.8,0.9,22,4.9,22,4.9"/>
<path class="st2" d="M93.4,301.4c7.1,0.4,34.6,0.1,41.5,0.3c11.5,0.3,25.3-1,36.9,1c-0.4,10,1.1,36.6-7.3,43.3
	c-11.6,9.1-28.5-21.2-32.3-28.5c-2.9,8.5-13.9,27.5-20.6,28s-12.4-5.7-15-14.6S92.8,306.2,93.4,301.4z"/>
<path class="st2" d="M95,323.8c0,0-16.6,20.1-25.1,33.6c-6.9,11-18.6,26.5-26,37.4c-6.4,9.4-12,17.8-14.3,29.1
	c-3.7,19-5.3,38.5-7.1,57.9c-4.5,48.8,0.7,98-1.3,146.7c-0.8,19.7-4,39.9-2.9,59.1c0.6,11.2-1,17.8,11.4,19.4
	c8.2,1,24.2-0.6,26.3-2.1s2.4-13,2.4-13"/>
<path class="st2" d="M53.6,686.1c5.8,13.8,34.6,13.8,52.1,13.3c18.1-0.6,37-3.4,55.1-1c14.1,1.9,27.6,4.3,41.6,1.9
	c10.6-1.8,20.2-1.3,29.1-6.1c1-0.5-17.7-2.2-28.4-2.6s-21.5-1.3-32.3-2.1c-13.8-1-31.6-4.8-45.3-2.5c-5.5,1-7.2,4.2-12.2,5.8
	s-12.1-0.2-17.3-0.7c-8.2-0.8-16-1.8-24-2.3c-11.2-0.6-20.1,1-20.4-11c-0.4-19.6-0.8-39.5,0.2-59c0.6-11.3,1.2-22.4,2.3-33.8
	c1.6-17-2.1-33.1-1.5-50c0.3-10.7,3.2-21.6,1.9-32.1c-0.9-7.4-6.6-33.3,8.6-25.5c-5.8-10.2-12.9-21.2-8.9-33.7
	c2-6.3,8.6-10.9,8.5-17.8"/>
<path class="st2" d="M213.9,434.9c1.7,6.6,4.6,15.3,3.9,22.1c-0.7-0.6-2.3-1.3-3-1.9c-3.4,15.1,4.8,29.9,4.4,45
	c-0.3,10.7,2.4,21,2.4,31.7c0,10.3-1.6,20.8-2,31c-1.1,23.8,6.5,45.9,8.5,69.3c1.2,14.7,2.7,29.7,3.7,44.4
	c0.5,7.4,0.2,29.7,1.3,35.7c11,1.5,22.1,1.6,33.2,0.5c16-1.5,12.4-6.7,11.2-21.9c-2.6-35.1-2.2-70.7-3.1-106
	c-1-37.7-2.4-75.2-4.4-112.8c-0.6-11.3-2.1-29.3-9-44.9s-18.4-32-31.9-48.5c-20-24.6-32.4-37.2-57.4-63"/>
<path class="st2" d="M135.5,342.3c1.3,6.7,9.2,30.4,9.7,37.3c1.2,15.2-1,31.2-4.5,46.1c-2.1,9-4.9,18.4-3.7,27.8
	c1.1,8.2,6.2,16.9,9.3,24.9c4.9,12.9,11,26.8,13.1,40.5c1.8,11.8-0.9,19.4-7.5,28.7c-7.7,10.8-10.7,24.6-10.7,33.9
	s3.8,22.9,8.9,30.8s2.8,42.9-0.7,57.8"/>
<path class="st2" d="M166.5,635.8c0.6,0.1,1-0.1,0.9-0.8"/>
<line class="st2" x1="158.2" y1="581.5" x2="160.1" y2="580"/>
<line class="st2" x1="166" y1="509.1" x2="168.7" y2="507.6"/>
<line class="st2" x1="149.4" y1="444.6" x2="151.4" y2="443.2"/>
<path class="st2" d="M155.1,389.9l2.6,0.2"/>
<path class="st2" d="M194,433c-7.2,3.2-17.5,9-22.9,11"/>
<path class="st2" d="M199.5,438.8c-4.9,0.8-13.3,5.7-16.4,7.2"/>
<path class="st2" d="M236.6,714c0,0,0.4,6.9,0,15.7c8,1.8,28.1,1.8,36.1,0c1.2-5.9,0-18.2,0-18.2"/>
<path class="st2" d="M160.7,301.5c-4.2-2.5-8.3-6.1-12.3-9c-3.5-2.6-13.3-10.6-17.8-10.8c-5.9-0.2-23.5,19.1-23.5,19.1"/>
<path class="st2" d="M422.4,300.4c0,0,12.2-17.6,20.9-20.9c8.5,4.9,25.1,15.8,25.1,15.8"/>
<path class="st2" d="M130.3,280.3l-1.6-31.7c-0.8-2.1-4.8-3.6-6.6-5c-1.8-1.4-3.3-3.1-4.6-4.9c-2.8-3.6-3.9-8.1-3.3-12.5
	c0.3-2.3,1.2-4.5,2.6-6.3"/>
<path class="st2" d="M444.2,278.8c0.8-9,2.2-21.1,3.4-27.7c0,0,25.6,0.1,14.9-22.5"/>
<path class="st2" d="M24.4,706.6c0,0-0.4,7.5-0.3,11c6.8,0.5,13.6,0.4,20.3-0.2c4-0.4,5.8,0,6.6-4.1c0.4-2,0.3-4.4,0.9-6.4"/>
<path class="st3" d="M243.8,185.8c-4.3,0-8.6-0.4-12.9-0.9c1.7,3.6,3.7,7,6.1,10.2c1.2,4.6,3.7,8.8,7.1,12.2c0.3,0.3,0.6,0.5,1,0.7
	c-0.2-4.8-0.5-9.5-0.7-14.1C244.1,191.4,243.9,188.7,243.8,185.8z"/>
<path class="st3" d="M324.3,87.2c-8.7,1.8-15.5-1.3-22.1-6.8c-5.6-4.6-12-6.3-19.1-6.6c-6.6-0.3-13.8,0.1-19.2,4.4
	c-4.6,3.7-6.5,9.2-7.8,14.8c-3.9,0.4-7.5,1.9-10.6,4.3c-4.7,2.6-8.6,6.5-11.2,11.2c-5.1,9.1-6.5,20-7.6,30.3
	c-0.5,5.1-0.9,10.3-1,15.5c4.9-0.4,9.9-0.3,14.8,0.4c0.7,2.5,1.6,4.9,2.7,7.2c1.5,3.3,6.4,1.5,6.5-1.8c0.1-5.9,1.2-11.8,3.4-17.4
	c2-5.1,5.1-9.7,7.2-14.8c3.3-7.9,4.4-16.6,3.3-25.1c9.4,2.7,19.6,2.3,29.1,1.1c12-1.3,23.6-4.9,34.3-10.5
	C330.5,91.6,328,86.4,324.3,87.2z"/>
</svg>
