<?xml version="1.0" encoding="utf-8"?>
<!-- Generator: Adobe Illustrator 24.1.3, SVG Export Plug-In . SVG Version: 6.00 Build 0)  -->
<svg version="1.1" id="Layer_1" xmlns="http://www.w3.org/2000/svg" xmlns:xlink="http://www.w3.org/1999/xlink" x="0px" y="0px"
	 viewBox="0 0 581.8 568.2" style="enable-background:new 0 0 581.8 568.2;" >
<style type="text/css">
	.st0{fill:#F4F6F9;}
	.st1{fill:none;stroke:#132144;stroke-width:7;stroke-linecap:round;stroke-linejoin:round;}
	.st2{fill:#377dff;stroke:#377dff;stroke-width:7;stroke-linecap:round;stroke-linejoin:round;}
	.st3{fill:#333333;}
	.st4{fill:#132144;}
</style>
<path id="BG" class="st0" d="M581.3,230.3c-2.7-47.7-15.5-96-41.9-136.2c-13.1-20.2-29.8-37.8-49.2-52.1
	c-21.5-15.7-46.6-26.2-72.4-32.4c-27.6-6.7-56.3-9-84.6-9.4S276,0.4,247.7,2.6c-30.1,2.4-60,7.7-87.6,20.4
	c-20.1,9.4-38.4,22.4-53.9,38.2c8.8,3.6,16.9,7.6,20.4,14.1c3.8,6.9,1.2,17.8-6,36.8c-6.5,17.2-15.6,40-26.4,74.6l0,0
	c0.9-0.1,1.8-0.1,2.6,0.1c10.8,2.8-3.1,49.8-9.8,67.9c-4.5,12.4-11,21.1-13.3,33.4c-1.5,8-2.9,19.1-3.2,21.5
	c0.6,0.1,1.3,0.2,1.9,0.3c2.8,10.5,4.9,21.1,6.2,31.8c9.3,1.3,19.6,20.6,23.4,30.1c6.8,17.1,12.3,34.6,19.3,51.7
	c9.5,23.1,22.4,52.8,49.5,54.6c9.2,0.6,18.5-1,27-4.7c-3.7-13.5-3.5-26.3,7.4-34.5c-7.9-7.5-11.4-21.8-10.9-32.7
	c0.5-9.6,4.8-21,14-24.9c-0.5-12.6,0.3-29.2,0.3-42.1c1.2,0,2.3,0.1,3.5,0.1l-0.4-1.9l-2.3-25.1l-0.1-0.2c-3.8-0.5-7.2-2.4-9.8-5.2
	l-1.9,0.6c-7.1-0.3-11.9,1.4-18.5-3.8c-4.7-3.6-8.5-10.9-9.8-17.7l-2.2-1.2c-10.9-7.3-16.1-36.5,1.5-37.6l2.7-1.2
	c-3.1-14.6,2.2-22.5,16-27.5c3-1.1,6.3-2.3,9.8-3.3c-8.6-4-19.1-9-27.1-14.3c-7.5-4.9-15.6-10.9-20.8-18
	c-4.6-6.4-10.5-17.9-2.1-24.1c9.3-7,18.6,2.3,24.9,7.6c9.4,7.9,20.8,13.5,31.7,19.8c10.1,5.9,22.9,11.3,33.8,17.3
	c21,11.4,38.7,17.8,36.5,45.4c-1.8,22.8-13,46.8-10.1,73.3v0.4c1.2-0.9,2.5-1.9,3.8-2.9c2.2,9.9,3.8,32.2,3.8,32.2
	c12.7-3.6,17.6,13.2,22.5,29.9l0.3-0.2c5.2-6.5,10.5-13,16-19.2c20-22.6,43-50,56-62.6c0.5,0.7,1,1.5,1.5,2.2
	c4.5-10.9,14.6-35.2,20.3-46.5c7.1-14.2,18.1-34,27.4-47.8c-7.8-6.5-37.5-23.5-45-29.2c26.5-11.3,51.5-18.6,77.2-21.7
	c1.5-0.2,3-0.3,4.5-0.5c-3.4-3.4-6.1-7.4-8-11.8c-1.1-2.5,1.6-5.5,4.1-3.8c10.1,7,23,2.8,34.3,5.1c9,1.8,17.7,8.8,17.3,18.6
	c0.2,0.1,0.3,0.1,0.5,0.2c1,0.5,1.9,1.2,2.8,1.9c17.1,9.6,16,36.4,10.4,52.4c-0.5,1.5-1.1,3-1.7,4.5l0,0c9.7,2.5,17.4,8.3,15.8,19.6
	c-2.2,16-23,17.3-38.7,14.7l0.3,0.1c-3.7,4-8.2,7.2-13.2,9.4c-1.1,0.5-2.4,0.5-3.5,0c-3.1,11.4-7.2,27.4-8.3,35
	c-2.1,14.3-5.1,37.5-5.1,37.5l-0.3,1.3c0.5-0.1,1.1-0.2,1.6-0.3c0,0-0.9,18.7,2.4,22.6s16.6,14.6,22.6,20.6c7.6,7.7,14.8,18,21,29
	c13.2-8.2,25.1-18.4,35.3-30.1C576.9,341.5,584.2,282.4,581.3,230.3z"/>
<path class="st1" d="M271.5,351.7c0,0-1.6-22.3-3.8-32.2c-8.6,6.6-14.2,10.9-23.9,14.9c-11,4.5-22.5,5.2-35,4.7
	c0,13-0.8,29.5-0.3,42.1c12.5-0.1,24.9-3,36.2-8.3C255.7,367.7,268.7,359.7,271.5,351.7z"/>
<path class="st1" d="M350.1,330c-1.2,6.8-6.1,30.5,6.6,23.1c9.6-5.5,15.7-17.9,24.1-24.6c1.1,14.3-8.2,32.3-0.5,46.7
	c7.1,13.5,28.2,5.3,39.6,0.9c8-3.1,22.8-8.8,30.8-10.2"/>
<path class="st1" d="M368.2,300.5c0,0,12.5-30.5,20-45.4c7.1-14.2,18.1-34,27.4-47.8c-7.8-6.5-37.5-23.5-45-29.2
	c26.5-11.3,51.5-18.6,77.2-21.7c22.1-2.6,57.4-2.1,52.6,30.3c-1.8,12.2-8.2,25.5-15,36c13.3-3.1,45.4-2.1,42.4,20
	c-2.9,21.1-38.5,16.6-51.5,11.3c0,0-10.1,35.4-11.9,47.9c-2.1,14.3-5.1,37.5-5.1,37.5"/>
<path class="st1" d="M432.8,225.1c2.9,2.9,11.1,3.4,15,2"/>
<path class="st1" d="M439.4,192c-1.2,2.5-3.2,6.6-3.2,6.6"/>
<path class="st1" d="M453.1,196.3c-1.2,2.5-3.2,6.6-3.2,6.6"/>
<path class="st1" d="M208.5,381.2c-9.1,3.9-13.5,15.3-14,24.9c-0.5,10.9,2.9,25.2,10.9,32.7c-13.8,10.5-10.5,28.2-3.8,45.4
	s20.6,45.6,20.6,55.1"/>
<path class="st1" d="M271.5,351.7c13.9-4,18.5,16.8,24,34.8s16.8,41.1,28.7,61.3c15.8,26.8,44,78,84.8,77.9
	c24.9,0,28.1-14.9,22.9-22.8s-19.8-1.7-11.6,7.7s29.5-8.2,35.9-28.1"/>
<path class="st1" d="M294.3,381.3c5.2-6.5,10.5-13,16-19.2c20-22.6,43-50,56-62.6c5.4,8.1,15.3,17.4,32,27.1
	c16.7,9.7,43,18.3,62.3,13.8c0,0-0.9,18.7,2.4,22.6s16.6,14.6,22.6,20.6c15.8,15.9,29.5,42.9,36.6,64.2c3.8,11.5,7.9,31.2,9.5,42.8"
	/>
<path class="st1" d="M21.8,355.5c0,0-5.7-36.4-6.5-44.9c18.9-3.1,38.3-3.4,57.3-0.8c2.8,10.5,4.9,21.1,6.2,31.8
	c9.3,1.3,19.6,20.6,23.4,30.1c6.8,17.1,12.3,34.6,19.3,51.7c9.5,23.1,22.4,52.8,49.5,54.6c9.2,0.6,18.5-1,27-4.7"/>
<path class="st1" d="M78.8,341.6c-18.7,0-54.8,7.9-63.5,19.8s1.3,55.1,5.2,69.3c7.4,26.9,13.3,56.2,24.3,81.7
	c6.6,15.1,11.1,40.9,22.9,52.3"/>
<path class="st1" d="M41.7,252.6c3.7-13.2,17.7-19.2,30.6-26.8c7-18,13.7-41.7,24.5-39s-3.1,49.8-9.8,67.9
	c-4.5,12.4-11,21.1-13.3,33.4c-1.7,9.1-3.2,22-3.2,22"/>
<line class="st1" x1="211.9" y1="337.2" x2="209.6" y2="312.1"/>
<path class="st1" d="M214.4,311.4c-13.3,4.2-27.1-16.4-14.2-24.3"/>
<path class="st2" d="M44.4,245.9c0,0-13.1-3.4-19.2-8c-8.9-6.7-5.6-19.8-4.8-29.6c3.6-41.3,14.3-76.8,30.3-114.5
	c4.6-10.9,10.5-24.9,17.9-34c7.6-9.4,18.2-6.3,29.6-1.7s23.8,8.9,28.4,17.2c3.8,6.9,1.2,17.8-6,36.8c-6.5,17.2-15.6,40-26.4,74.6"/>
<path class="st1" d="M197.8,307.2c-7.1-0.3-11.9,1.4-18.5-3.8c-6.1-4.7-10.9-15.8-10.2-23.8c0.9-10.9,31.8-32.3,37.8-24.5"/>
<path class="st1" d="M16.4,307.4c-5.1-22.8-1.1-44.8-6-66.8c-4.3-19.5-10.6-44.1-4-63.1c3.6-10.2,11-13,18.7-7.3"/>
<path class="st1" d="M170.8,274c-3.4-15.4-2.9-23.2,10.3-31.9c7.7-5.1,25.1-14.1,32.9-12"/>
<path class="st1" d="M12.7,166.9c-3-3.2-1.9-14.8,0.6-19.2c3.2-5.6,14.2-13.1,20.8-8.8"/>
<path class="st1" d="M171.8,247.3c-3.9-15.5,1.4-23.8,15.6-29c12.2-4.4,29-9.8,40.8-4.1"/>
<path class="st1" d="M19.8,141.8c-3.4-11.6,5.3-25.8,20-24.1"/>
<path class="st1" d="M167.3,284.6c-10.9-7.3-16.1-36.5,1.5-37.6"/>
<path class="st1" d="M26.4,120.3c0-12.9,11.9-38.4,25-30.6"/>
<path class="st1" d="M197.4,215.1c-8.7-4-19.2-9.1-27.4-14.5c-7.5-4.9-15.6-10.9-20.8-18c-4.6-6.4-10.5-17.9-2.1-24.1
	c9.3-7,18.6,2.3,24.9,7.6c9.4,7.9,20.8,13.5,31.7,19.8c10.1,5.9,22.9,11.3,33.8,17.3c21,11.4,38.7,17.8,36.5,45.4
	c-1.8,22.8-13,46.8-10.1,73.3"/>
<path class="st1" d="M35,227.7c4.5-47.3,17.8-83.9,32.7-128.9c2.8-8.4,10.7-26.3,17.6-32.1"/>
<path class="st1" d="M498.9,240.9c1.5-1.1,9.5-1.2,9.5-1.2"/>
<path class="st3" d="M472.7,266.9c1.1,0.5,2.4,0.5,3.5,0c5-2.2,9.5-5.4,13.2-9.4c-4.5-0.7-8.9-1.8-13.1-3.4
	C476.4,254.1,474.8,259.5,472.7,266.9z"/>
<path class="st4" d="M503.3,166.3c-0.9-0.7-1.8-1.3-2.8-1.9c-0.2-0.1-0.3-0.2-0.5-0.2c0.5-9.9-8.2-16.8-17.3-18.6
	c-11.3-2.3-24.2,1.9-34.3-5.1c-2.5-1.8-5.2,1.3-4.1,3.8c8.2,18.8,27.9,25.6,47,27.1c-4.6,5.3-6.3,12.8-6.4,19.9
	c-0.1,11.5,3.7,26-6.4,34.6c-2.5,2.1,0.5,6.4,3.3,4.6c4-2.5,7.7-5.5,11-8.8c6.4-0.6,12.9-0.1,19.1,1.4c0.6-1.5,1.2-3,1.7-4.5
	C519.3,202.7,520.4,175.9,503.3,166.3z"/>
</svg>
