<?xml version="1.0" encoding="utf-8"?>
<!-- Generator: Adobe Illustrator 24.1.3, SVG Export Plug-In . SVG Version: 6.00 Build 0)  -->
<svg version="1.1" id="Layer_1" xmlns="http://www.w3.org/2000/svg" xmlns:xlink="http://www.w3.org/1999/xlink" x="0px" y="0px"
	 viewBox="0 0 160 160" style="enable-background:new 0 0 160 160;" >
<style type="text/css">
	.st0{fill:#97a4af;}
</style>
<path class="st0" d="M128,112V16c0-8.8-7.2-16-16-16H16C7.2,0,0,7.2,0,16v96c0,8.8,7.2,16,16,16h96C120.8,128,128,120.8,128,112z
	 M16,16h96v96H16V16z M144,32v96c0,8.8-7.2,16-16,16H32c0,8.8,7.2,16,16,16h80c17.7,0,32-14.3,32-32V48C160,39.2,152.8,32,144,32z"
	/>
</svg>
