<?xml version="1.0" encoding="utf-8"?>
<!-- Generator: Adobe Illustrator 24.1.3, SVG Export Plug-In . SVG Version: 6.00 Build 0)  -->
<svg version="1.1" id="Layer_1" xmlns="http://www.w3.org/2000/svg" xmlns:xlink="http://www.w3.org/1999/xlink" x="0px" y="0px"
	 viewBox="0 0 726.6 683.1" style="enable-background:new 0 0 726.6 683.1;" >
<style type="text/css">
	.st0{fill:#F4F6F9;}
	.st1{fill:#F5CA99;}
	.st2{fill:none;stroke:#132144;stroke-width:7;stroke-linecap:round;stroke-linejoin:round;}
	.st3{fill:#132144;}
	.st4{fill:#00C9DB;}
</style>
<g id="BG">
	<path class="st0" d="M142,352.9c-0.4-28.7-2-55.6,0-84.3c1.5-22.6,6.9-58.9,15.3-61.4c0,0,1.1-14.3,2.4-27.9
		c-26.6-2-53.1-4.4-79.6-6.7c-5.5-0.5-10.1,4.3-10.5,9.5c-4.9,65.4-6.3,132.7,11.7,196.4c11.3,40,30.1,78.2,57.7,109.3
		C143.5,442,142.7,398.8,142,352.9z"/>
	<path class="st0" d="M225.6,204.7c11.5,2.2,16.9,24.7,17.7,46.1c1.2,31.2,9.9,84.2,14,115.5c5.9,44.6,20.7,88.9,28.7,133.3
		c0.2,0.9,0.3,1.8,0.5,2.7c8.2-10.7,20-21.1,23.1-33.3c4.7-18.4,25.3-99.5,25.3-99.5l-36.8,4.1c10.3-13.4,36.1-46,44-54.8
		c6.8-7.6,14.1-15,22.7-20.1l-1-0.4c-5-2.1-11.5-4.6-13.2-10.2c-0.8-2.6,0.7-5.3,3.7-5c4.4,0.4,9.2,0.8,13.5-0.5s6.5-4.7,9.5-7.7
		c6.5-6.2,15-9.9,24-10.2c7.8-0.2,16.2,3.7,19.3,11.3c1.1,2.8,1.4,5.8,0.8,8.8c3.7-0.3,7.4,0.6,10.6,2.4c9,5,12.9,15.2,13.8,25
		c0.4,4.5,0.5,9.1,0.3,13.6c12.2-0.5,23.3,3.5,24.6,16.7c1.5,14.6-15.3,17.7-31.1,18.5l0,0c-1.9,5.8-4.6,11.5-8.9,15.5
		c0-0.1,0-0.3,0-0.4l0,0c0.8,13.7,1.8,33.5,2.1,44.7c0.5,20.9,1.5,58.8,4.5,68.9c2.5,8.5,10.7,20.5,17.7,34.6
		c10.3-20.1,26.6-48,37.1-77.1c18.3-50.7,33.9-102.6,28.6-157c-2.5-25.8-10.9-75.5,8.2-91.9c0.5-4.6,0.6-15.2,0.6-24.9
		c-68.5,4.6-136.8,11.8-205.4,12.7c-33.3,0.5-66.6-0.5-99.9-2.2C225.2,194.8,225.6,204.7,225.6,204.7z"/>
	<path class="st0" d="M706.1,179.1c-0.5-4.4-5.3-7.5-9.3-7.8c-34.9-2.6-70-2.7-105-1.5c0.7,8.3,1.2,15.1,1.2,15.1
		c12.3,1.1,27.5,32.3,16.2,51.6c12.2,0.9,11,25.7,9.6,33.5c-1.5,8.3-8.3,14.7-8.3,22.3c0,9.6,6.5,20.2,7.9,30.1
		c2.8,20.7,4.7,41.3,4,62.3c-1.2,35.9-5,71-10.7,106.5c30.6-35.9,50.2-80,63.5-125.2c8.7-29.4,15-59.4,21.3-89.3
		C703.3,244.3,709.6,212.1,706.1,179.1z"/>
</g>
<path class="st1" d="M726.5,66.9c-0.3-3.9-1.4-13.5-6.5-17.5c-8.7-6.8-29-8.6-37.4-8.4c-1.9,0-3.5,1.6-3.5,3.5s1.6,3.5,3.5,3.5V88
	h-0.3c-1.9,0.1-3.4,1.7-3.4,3.6s1.7,3.4,3.6,3.4h0.3l2.8-0.2c11-0.7,29.3-1.9,36.5-9.2C727,80.8,726.7,70,726.5,66.9z"/>
<path class="st2" d="M583.9,23.8c3.7-8.8,31.3-8,22.3,5.6"/>
<path class="st2" d="M590,99.4c-0.3,11.4-9.4,14.6-13.8,17.5"/>
<path class="st3" d="M42.8,64.6c-0.6-3.6,0.5-8.4-2.2-9c-1.2-1.4-24.5,8.5-27.4,9.6c-3.3,1.2-5.3,5.9-1,6.7
	c6.8,1.2,17.5,2.5,24.3,3.7c2,0.4,4.4-0.5,4.9-2.8C41.7,71.7,43.1,66.2,42.8,64.6z"/>
<path class="st4" d="M190.6,55.6c-9.7-1.5-23.3-3.2-27.3-13.9c-1-2.8-0.5-6.3-2.8-8.4c1.7-0.1,2.9-0.2,3.6-0.2
	c1.9-0.1,3.4-1.7,3.4-3.6c-0.1-1.9-1.7-3.4-3.6-3.4l0,0c-2.4,0.1-11.5,0.6-23,1.2c-18.5,1-41.6,2.3-46.3,2.3c-1.9,0-3.5,1.6-3.5,3.5
	c0,1.3,0.7,2.4,1.9,3c4.3,2,6.8,6.6,6.1,11.4c-0.5,5-3.3,8.3-4.3,8.6c-1.9,0.4-3.1,2.3-2.7,4.2c0.4,1.8,2.1,2.9,3.8,2.7
	c1.9-0.4,3.8,0.3,5,1.7c2,2.3,2.7,6.8,1.7,10.6c-1.3,4.7-6.3,8.7-10,11.7c-1.1,0.9-2.2,1.8-3.1,2.6c-1.4,1.3-1.5,3.5-0.2,4.9
	c0.6,0.7,1.5,1.1,2.4,1.1c0.5,0,50.3,3.1,84.6,3.8h0.1c1.9,0,3.5-1.5,3.5-3.5s-1.5-3.5-3.5-3.5H176c0.2-0.1,0.5-0.2,0.7-0.3
	c3.3-1.6,3.5-4.8,5-7.8c4.3-8.5,15.6-9.6,23.9-10.4c2-0.2,4.2-1.7,4-4C208.8,59.8,199.5,56.9,190.6,55.6z"/>
<path class="st4" d="M523.2,32.6l2,0.1h0.1c1.9,0,3.5-1.5,3.5-3.5s-1.5-3.5-3.4-3.5c-57.8-1.8-194.7-1.9-286.4-1
	c-1.9,0-3.5,1.6-3.5,3.5s1.6,3.5,3.5,3.5h0.1c-7,3.9-12.6,10.2-14,18.4c-0.4,2.4,1.3,4.6,3.7,5c0.6,0.1,1.2,0.1,1.8-0.1
	c9,9.1,14.8,21,16.4,33.7c0.1,0.3,0.1,0.7,0.3,1c-0.1,0.2-0.2,0.4-0.3,0.6c-0.5,0.9-0.7,2-0.4,3l-2.3-0.1c-1.9,0-3.5,1.5-3.6,3.4
	s1.5,3.5,3.4,3.6l0,0c8,0.2,16,0.4,24,0.7c27.2,0.8,55.2,1.6,83,1.2c30.7-0.5,108.7,0.1,171.4,0.5l0,0c1.9,0,3.5-1.6,3.5-3.5
	s-1.6-3.5-3.5-3.5h-1.2c0.3-0.7,0.3-1.5,0.2-2.2c-0.7-3.8,2.5-6.8,5-9.2c3.4-3.2,7-6,9.9-9.6c6.5-8.1,5.1-18.5,1.2-27.6
	C534.9,40.4,529.7,35.2,523.2,32.6z"/>
<path class="st4" d="M631.7,39.3c0.5-1.9-0.5-3.8-2.3-4.6c0.2-0.4,0.3-0.9,0.3-1.3c0-1.9-1.5-3.5-3.4-3.6c0,0,0,0,0,0
	c-4.3-0.1-12.4-0.4-20.2-0.8c-6.9-0.3-13.4-0.6-17.3-0.7c-1.9,0-3.5,1.5-3.6,3.4s1.5,3.5,3.4,3.6l3,0.1c-0.3,0.5-0.5,1.1-0.5,1.7
	c-0.2,1.3,0.2,2.7,1.2,3.7c2.7,7.3,8.7,26.5,1.6,26.7c-1.8,1.3-4.2,1.4-6,0.2c-4.4,0.9-7.5,3.7-10.5,6.9c-4.1,4.4-8,7.7-13.8,9.5
	c-2.2,0.6-3.4,2.9-2.7,5c0.1,0.3,0.2,0.6,0.4,0.8c1.2,2.3,2.9,4.4,5.1,5.8H566c-1.9,0-3.5,1.6-3.5,3.5s1.6,3.5,3.5,3.5
	c21.6,0.1,36.5,0.2,46.2,0.2c7.4,0,11.7,0,13.4-0.1c1.9-0.1,3.4-1.7,3.4-3.6c-0.1-1.6-1.2-2.9-2.7-3.3c4.5-5.4,5.1-14.7,5.9-21.3
	C633.7,63,633.5,51.1,631.7,39.3z"/>
<line class="st2" x1="376.4" y1="328.8" x2="375.9" y2="333.3"/>
<line class="st2" x1="392.4" y1="331.5" x2="391.9" y2="336"/>
<path class="st2" d="M347.4,369c5.9,1,12.3,3.4,18.5,3c7.6-0.5,13.9-5.2,21-7.9c9.6-3.6,23.5-2.7,26.1,9.5
	c6.7,30.1-39.5,36.5-57.3,26.9C349.1,397,337.9,370.3,347.4,369z"/>
<path class="st2" d="M408.8,366.3c-1.4,4.3-2.7,8.5-3.9,13c2.6,2.6,4.9,5.5,7,8.5"/>
<path class="st2" d="M352.6,370.5c3.3,3.6,3.7,11.5,4.7,14.1c-0.7,2.9-5.5,8.8-5.5,8.4"/>
<path class="st2" d="M309.7,468.9c31,19.1,93,27.2,126.1,10.1"/>
<path class="st2" d="M310.8,490.8c2.8,14.9,13.3,37.1,26,46.3c14.5,10.4,50.1-13.8,47.5-28.8c-2.9,10.6,1.8,25.6,10.3,32.5
	c19.1,15.8,31.7-31,31.5-44.2c-1.2-1.4-0.2,0.6-0.8,0.9"/>
<path class="st2" d="M380.5,535.9c-3.6,7.6-0.6,28.2-2.4,36c-5.5,23.3-19.2,35.8-25.8,57.9c-4.4,14.8,9,8.3,20.2,11.2
	c19,4.9-7.7,20.2-3.9,26.8s13.9,6,16.9,11.9"/>
<path class="st2" d="M596,612.9c1.5-14.1,0.5-28.8,2.2-43.3c2.9-25,8.7-49.2,12.8-73.9c6.1-37,10.2-73.6,11.4-111.1
	c0.7-20.9-1.2-41.6-4-62.3c-1.3-9.9-7.8-20.5-7.9-30.1c0-7.6,6.8-14,8.3-22.3c1.4-7.8,2.7-32.6-9.6-33.5
	c11.3-19.3-3.9-50.5-16.2-51.6c-12.3-1.1-54.6,5-64,13.1c-19.1,16.4-10.7,66.1-8.2,91.9c5.2,54.4-10.4,106.3-28.6,157
	c-16,44.6-45.8,86.2-46.5,101.6c-0.4,8.7-1.6,25.6,8.4,25.7c17.6,0.3,7.8-34.6,4.8-41.8c-7.4-17.8-18.6-32.9-21.6-43.1
	s-4-48.1-4.5-68.9c-0.4-18.3-2.9-59.4-2.9-59.4c17.7-0.3,42.7-1.1,40.9-18.8c-2-19.7-25.6-19-42.3-13.2l-2.3-9.4
	c-4.4-21.5-18.4-28.6-39.3-27.9c-19,0.6-33,13.6-44.9,27c-7.9,8.8-33.7,41.3-44,54.8l36.8-4.1c0,0-20.6,81.1-25.3,99.5
	s-29.2,32.8-31.1,49.9c-1,8.8,3.1,12.3,7.1,3.7c3.4-7.2,1.7-15.6,0.4-23c-8.1-44.4-22.9-88.7-28.8-133.3
	c-4.1-31.2-12.8-84.2-14-115.5c-0.8-21.4-6.2-43.9-17.7-46.1c-19.5-3.7-50.7-2.8-68.3,2.5c-8.3,2.5-13.8,38.9-15.3,61.4
	c-1.9,28.7-0.4,55.6,0,84.3c0.7,46.5,1.6,90.1-3.2,136.4c-2.4,23.5,0.2,46.2-2.5,69.5"/>
<path class="st2" d="M529,198c1-8.9,0.3-40.3,0.8-44.1s18.8-6.2,28.3-8.6c9.6-2.4,29.3-6.7,30.7-3.1c1.4,3.5,4.2,42.8,4.2,42.8"/>
<path class="st2" d="M225.6,204.7c0,0-1.2-33-4.7-46.5c-17.8-5.4-40.4-1.2-58.8,0.5c-1.9,11.7-4.8,48.6-4.8,48.6"/>
<path class="st2" d="M532.4,151.5c-3.2-19.2-16.2-43.4-7.1-62.9c5.6-11.9,36.5-35.1,48.3-20.3c9.3,11.6-12.3,18.6-19.1,19.5
	c10.5,5.8,13.8,12.4,11,20"/>
<path class="st2" d="M179.2,99.8c-2.6-23.7,31.8-28.8,40.1-18c-8-4.8-19.4-25.4-7.4-31.7c11.6-6.1,20.5,10.8,25.8,18.1
	c6.9,9.4,9,17,6.4,29c-2.9,13.4-13.1,12.3-19.1,23c-3.3,5.8-7.9,25.6-6.7,37.3"/>
<path class="st2" d="M543.7,68.7c1.6-10.9-9-34.2-18.4-39.6"/>
<path class="st2" d="M512.9,27c4.5-12.2,24.5-15.8,30.3-1.2c3.6-11.2,17.9-6.3,21.3,1.7c10.3-15.1,27.6,5.2,30.2,15.7
	c2.5,10.1,7.8,35.7-11,22.6c-0.3,3.6-3.8,7.1-7.5,6.7"/>
<path class="st2" d="M582.5,114.3c1.9,6.1,2.9,26.5,2.9,26.5"/>
<path class="st2" d="M160.7,97.7c-2.4,9.3,5.2,22.7,15.7,21.7"/>
<path class="st2" d="M165.9,155.3c1.1-9.5-0.6-26.4,3.8-36.3"/>
<path class="st2" d="M192.3,123c1.5-2,4.2-2.9,6.6-2"/>
<path class="st2" d="M556.9,128.2c2.2,0,4.4-0.3,6.5-1.1"/>
<path class="st2" d="M240.5,25.2c-3,5.3-13.3,24.2-17.3,24.9"/>
<path class="st2" d="M206.7,60.6c-5.6,0.7-15.3,0.5-15.7-6.3c-5.2,3.8-14.9,3.7-13.1-5.5c-29,7.6-9.1-51.6,10.1-31.5"/>
<path class="st2" d="M178.9,33.6c3.5-6.3,6.8-14.7,12.2-19.7c4.9-4.5,18.1-10,19.9,0.4c5.8-19.4,41.5-10.2,42.4,8.7"/>
<path class="st2" d="M438.6,346.6c3.8-1.9,8.1-3.1,11.6-4.6"/>
<path class="st2" d="M435,633.6c16.6-4.7,35.8-7.2,51.3-13.1"/>
<path class="st2" d="M472.7,613.4c3.9,6.6,5,15.6,5.5,23.3"/>
<path class="st2" d="M460.6,616.6c6.9,10,8.6,26.2,10.1,38.3"/>
<path class="st2" d="M628.6,99.4c16.4-0.4,43.5,0.4,49.5-3.6c6.4-4.2,8.2-18.9,7.2-33.2s-3.7-21.9-9.7-24.6c-4.6-2-24.9-3.1-43.6-4"
	/>
<path class="st2" d="M574.6,77.9l60.5,1.3"/>
<path class="st2" d="M241.6,74.8C304,75,401,74.4,432.8,75c11.4,0.2,57.1,1.1,102.2,2.1"/>
<path class="st2" d="M106.5,73.6c0,0,80.1,0.4,88,0.7c4.4,0.1,10.5,0.3,17.8,0.3"/>
<path class="st2" d="M632.7,34.4c4.9,14.4,7.1,41.9-4.1,64.9"/>
<path class="st2" d="M94.7,33.1c0,0-26,10.9-33.4,13.7c-8.3,3.2-57.8,23-57.8,23s37.7,8.5,46.8,10.8c13,3.3,41.6,11.7,41.6,11.7"/>
<path class="st2" d="M41.4,55.2c5.4,5.1,1.8,16.1-2.6,22.7"/>
<path class="st3" d="M446,311.9c-0.9-9.8-4.8-20-13.8-25c-3.2-1.8-7-2.6-10.7-2.4c0.6-2.9,0.3-6-0.8-8.8
	c-3.1-7.6-11.5-11.4-19.3-11.3c-9,0.4-17.5,4-24,10.2c-3,3-5.2,6.3-9.5,7.7s-9.1,1-13.5,0.5c-3-0.3-4.5,2.5-3.7,5
	c1.7,5.7,8.2,8.1,13.2,10.2c6.7,2.8,13.8,4.7,21.1,5.5c7,0.9,17.1,1.5,23.8-2.4c0,2.9,0.5,5.8,1.3,8.6c1.4,4.8,3.1,9.4,5.1,14
	c2,4.8,6.3,10.6,4.3,15.9c-1.6,4.4,4.6,6.7,6.7,2.7c2.6-4.7,4.8-9.6,6.6-14.7c4.4-1.2,9-2,13.5-2.2C446.6,321,446.4,316.5,446,311.9
	z"/>
<path class="st3" d="M431,376.2c4.3-4,7-9.6,8.9-15.5c-3.4,0.2-6.7,0.2-9.8,0.3C430,361,430.5,367.4,431,376.2z"/>
<path class="st2" d="M553.2,38.4c4.4,7.7,6.4,13.7,8.4,22.1"/>
<path class="st2" d="M575.4,39.7c4.5,8,6.8,16.3,8,25.1"/>
<path class="st3" d="M355.2,383.3c-0.5-3.9-1-7.9-1.5-11.8c-0.3-2.6-2.8-3.4-4.8-2.7c-0.9-0.1-1.7,0.2-2.4,0.8
	c-3.5,3.4-3.3,7.5-1.7,11.4c0.1,0.6,0.2,1.2,0.4,1.8c0.3,0.9,0.6,1.8,1,2.7l0,0c0.3,1.6,0.7,3.1,1.2,4.6c0.9,2.5,3.9,2.6,5.6,1.1
	c0.9-0.4,1.6-1.1,2-2l0.9-2C356.6,385.9,356.2,384.3,355.2,383.3z"/>
<path class="st3" d="M413.5,376.6L413.5,376.6c0,0,0-0.1,0-0.1S413.5,376.4,413.5,376.6c0-0.1,0-0.1,0-0.2c0.1-1.9-1.3-3.6-3.2-3.8
	c-1.5-0.1-3,0.7-3.6,2c-0.2,0.2-0.3,0.5-0.4,0.8c-0.4,1.3-0.5,2.7-0.3,4.1c0.3,2,2.2,3.3,4.2,3c1.6-0.3,2.8-1.5,3-3.1
	c0-0.1,0-0.3,0-0.4c0.1-0.1,0.1-0.2,0.2-0.3C413.6,377.9,413.7,377.2,413.5,376.6z"/>
</svg>
