<?xml version="1.0" encoding="utf-8"?>
<!-- Generator: Adobe Illustrator 24.1.3, SVG Export Plug-In . SVG Version: 6.00 Build 0)  -->
<svg version="1.1" id="Layer_1" xmlns="http://www.w3.org/2000/svg" xmlns:xlink="http://www.w3.org/1999/xlink" x="0px" y="0px"
	 viewBox="0 0 558.2 628.8" style="enable-background:new 0 0 558.2 628.8;" >
<style type="text/css">
	.st0{fill:#F4F6F9;}
	.st1{fill:none;stroke:#132144;stroke-width:7;stroke-linecap:round;stroke-linejoin:round;}
	.st2{fill:#F5CA99;}
	.st3{fill:#132144;}
</style>
<path id="BG" class="st0" d="M527.5,134.5C499.8,90,461.3,51.5,415,26.2c-47.6-26-121.3-30-175.2-23.5
	c-27.1,3.3-63.3,10.6-87.9,22.4c-26.1,12.6-49.2,30.6-69,51.7c-40.1,42.7-72.4,94.9-79.9,153C-4,284.7,0.4,343,24.2,393.2
	c10.5,22.2,24.8,42.5,42.1,60c2.9-4.6,7.7-11,12-10.2L67.1,397c-5.6-22.9,8.5-46,31.5-51.6l57.6-14l0,0c6-8,12.2-15.8,15.7-20.7
	c7.7-10.7,16.2-20.8,25.4-30.3c7.3-7.6,15.2-14.9,22.4-22.5c3.4-3.7,4.4-4.2,4.7-9.6c0.2-4.5,0.4-8.9,0.6-13.4
	c0.4-7.8,1.1-15.3,1.4-22.9l1.5-0.1l-0.2-3.4c0-13.7-3-27.8-5-41.3c-1-6.3-2.6-17.3-4-27.4c-9.5-5-15.5-13.6-19.3-23.4
	c-3.7-0.2-7.1-0.4-9-0.6c-10.3-1.1-19.9-9.7-13.3-21.1c2.9-5,9.9-7.6,17.2-9c0-9.8,1.1-20.6,5-29.3c2.1-4.8,6.6-8.9,11.6-10
	c1.7-0.9,2.3-1.1,3.1-3.2c0.5-1.2,0.8-2.4,1.3-3.6c5.1-11.3,17.5-17,29.3-17.4c6.9-0.3,13.9,1.2,20.4,3.1c7.5,2.3,15.3,6.3,23.2,3.8
	c3.6-1.1,5.8,2.9,4.5,5.9c-1.9,4.2-4.6,7.9-7.9,11c12.6,4.2,27.1,9.8,32.8,12.5c12.4,5.8,24.2,12.8,35.4,20.8
	c-3.5,3.1-26.5,13.8-34,16.3c-8.1,2.7-16.5,7.1-24.5,8.9c1.7,16.9,13.9,78.5,16,91.1l0.2,1.6c0.7,0.3,1.3,0.7,1.8,1.1
	c3.5,2.8,5.9,14.9,7.2,19.2c2.3,7.8,3.1,15.8,4.8,23.4c12.7,2.2,29.3,12.2,39.6,19.5c4.5,3.2,12.2,9.9,18.9,15.9l0,0l60.5-14.7
	c22.9-5.6,46,8.5,51.6,31.5c0,0,0,0,0,0l7,28.7c12.3,4.2,25.7,12.9,33.3,23.6c3.6,5,7.1,12.6,9.4,19c7.1-17.5,11.3-36.1,12.4-55
	C560.5,252.3,557.6,182.9,527.5,134.5z"/>
<path class="st1" d="M533.5,452.4l8.9,36.6c5.6,22.9-8.5,46-31.5,51.6c0,0,0,0,0,0l-344.8,83.5c-22.9,5.6-46-8.5-51.6-31.4l-5-20.7"
	/>
<path class="st1" d="M88.1,483.3l-20.9-86.2c-5.6-22.9,8.5-46,31.5-51.6l344.8-83.5c22.9-5.6,46,8.5,51.6,31.5c0,0,0,0,0,0
	l17.2,70.9"/>
<path class="st2" d="M476.8,382.1c-0.5-1.9-1-3.6-1.2-4.6c-1.5-7.1-3.9-11.5-7.7-13.8c-5.5-3.5-12.2-1.8-20.6,0.3
	c-1.7,0.4-3.5,0.9-5.4,1.3c-12.1,2.7-24.6,5.9-37.1,9.6L404,375c-10.8,3.1-14.3,4.7-14.5,16.5c-0.6,32.2,4.8,50,16,52.8
	c0.9,0.2,1.8,0.3,2.7,0.3c4.5,0,10.6-1.9,17.5-4.1c2-0.6,3.6-1.2,4.7-1.5l0,0c12.7-3.3,27.8-8,42.1-12.6
	C487.4,421.7,480.5,395.9,476.8,382.1z"/>
<polyline class="st1" points="411.9,377.1 427.3,391.3 392.8,402 "/>
<path class="st1" d="M395.5,416.5c25.9-7.8,51-16.4,76.8-22.1"/>
<path class="st1" d="M430.6,406.5c-0.3,10.2-6.9,22.6-6.6,30.4"/>
<line class="st1" x1="449.4" y1="400.7" x2="442.7" y2="432"/>
<path class="st1" d="M433.6,372.6c0,0,6.7,9.3,8.4,14.2c9.5-2.8,20.3-3.3,30-6.3"/>
<path class="st1" d="M145,419.3c-12-27.6,28.8-53.6,49.1-31.7c19,20.5,10.2,51-18.6,52.4C161.4,440.7,150.8,435,145,419.3z"/>
<path class="st1" d="M189.8,401.9c0-13.4,4.3-22.2,20.6-27.6c11.9-3.9,24.6-3.1,30.9,9.4c11.1,22.1-8.8,48.1-33.7,41.5
	C200.4,423.2,189.8,415.3,189.8,401.9z"/>
<path class="st1" d="M192.1,517.7c0,0,36.1-12.3,57-18c24.2-6.6,51.2-16.3,75.3-23"/>
<path class="st1" d="M192.1,543.7c36.3-14.1,69.2-20.5,106.3-31.8"/>
<path class="st1" d="M206.4,564c25.3-8.2,117.2-34.7,117.2-34.7"/>
<path class="st1" d="M156.2,331.5c6-8,12.2-15.8,15.6-20.7c7.7-10.7,16.2-20.8,25.4-30.3c7.3-7.6,15.2-14.9,22.4-22.5
	c3.4-3.7,4.4-4.2,4.7-9.6c0.2-4.5,0.4-8.9,0.6-13.4c0.4-7.8,1.1-15.3,1.4-22.9c7.8-0.4,15-1.1,22.7-2.1c17.4-2.2,36.9-3.4,53.2-10.2
	c4.8-2,6.6-4,10.1-1.2s5.9,14.9,7.2,19.2c2.3,7.8,3.1,15.8,4.8,23.4c12.7,2.2,29.3,12.2,39.6,19.5c4.5,3.2,12.2,9.9,18.9,15.9"/>
<path class="st1" d="M84.3,485.7c5-1.7,29.3-26.6,35.4-21.9c8,6.2-13.1,26.8-15,30.9c-2.3,4.8-2.9,7.7,2.3,10.7
	c4.4,2.5,11.2,4.5,16.1,5.8c5.8,1.6,30,5,30.6,12.2c1,12-31.9,9.1-38.5,8.7c7.8-0.1,15.6,0.8,23.1,2.8c6.8,1.8,18.7,4.2,21,11.5
	c4.4,13.9-29.4,4.6-36.1,0.3c8.4,2.1,38.8,7.8,40.4,19.1c1.2,8.7-15,3.5-19.9,2.3c-7.2-1.8-18-2.8-24.5-6.7
	c5.4,1.5,25,6.8,23.7,14.6c-1.9,9.8-32-2.1-44.4-9.8c-13.8-8.5-22.8-23.2-26-38.8c-2.6-12.6-5.6-23.1-2.9-35.9
	c1.4-6.4,8.4-18.6,15.4-20.1"/>
<path class="st1" d="M231,254c7.6,1.5,20.6,7.7,28.9,3.3c9.1-4.9,10.2-28.7,11.9-37.9c3.4,8.4,11.5,30.4,21.5,33.4
	c11.3,3.3,15.3-6.8,25-9.4"/>
<path class="st1" d="M515.3,362.4c-5,5.7-27.1,1.9-25.6,8.9c1.2,6.8,11.5,9.8,17.3,13.6c6.4,4.3,9.9,5.9,5.9,13.2
	c-4.6,8.5-16.1,17.6-21.7,25.7c-3.5,5.1-6.8,16.9,4,13.3c9.5-3.2,18.4-13.6,24.4-20.7c-5.8,7.2-13.6,13-19,20.4
	c-3.2,4.4-14,13.7-9,19.2c7.9,5.8,24.3-16.2,31-22.5c-8.8,5.6-27.1,27-22.4,30.5c7.3,3.9,21-12.4,25-17.7c-6,6.5-13.8,21.1-11,23
	c14.5,8.7,30.4-45.2,31.8-52.9c3.7-20.5-8.5-64.3-38.9-72.3"/>
<path class="st1" d="M75.7,537.4c-18.4-20.8-27.1-54.7-11.5-80.7c2.1-3.5,8.5-14.8,14.2-13.7"/>
<path class="st1" d="M544.2,389.1c3.8-4.9,3.3-16,1.7-21.1c-2.2-6.9-6.3-16.4-10.6-22.3c-7.7-10.7-21-19.4-33.3-23.6"/>
<path class="st1" d="M227.7,208.7c0-13.7-3-27.8-5-41.3c-2.1-13.9-7.3-50-7.3-50s-19.3-0.7-25-1.3c-10.3-1.1-19.9-9.7-13.3-21.1
	c5.3-9.1,24.3-10.5,33.9-10.4c-2.6-16.7,2.5-34.3,19.4-41.4c10.9-4.6,23.4-3.7,35-2.4c8.6,0.9,42.7,13.4,52.3,18
	c12.4,5.8,24.2,12.8,35.4,20.8c-3.5,3.1-26.5,13.8-34,16.3c-8.2,2.7-16.5,7.1-24.5,8.9c1.7,16.9,13.9,78.5,16,91.1"/>
<path class="st1" d="M240.3,113.4c-1.2,11.4,8.1,19.6,18.7,20"/>
<line class="st1" x1="259.7" y1="91.4" x2="257.7" y2="82.7"/>
<line class="st1" x1="281" y1="82.7" x2="279" y2="74"/>
<path class="st3" d="M198.4,116.6c3.5,10.4,9.6,19.5,19.9,24.3c0.2,0.1,0.4,0.1,0.5,0.2c-1.8-12.4-3.5-23.7-3.5-23.7
	S206,117,198.4,116.6z"/>
<path class="st3" d="M288.1,29.4c-7.9,2.4-15.7-1.6-23.2-3.8c-6.6-2-13.5-3.4-20.4-3.1c-11.8,0.4-24.3,6.2-29.3,17.4
	c-0.5,1.2-0.9,2.4-1.3,3.6c-0.8,2.1-1.5,2.2-3.1,3.2c-5,1.1-9.5,5.2-11.6,10c-3.9,8.8-5,19.5-5,29.3c3.2-0.6,6.5-1,9.8-1.2
	c2.3,7.7,6,14.9,11.1,21.2c2.2,2.8,6.9,0.4,6.8-2.8c-0.3-12,6.9-22.4,8.1-34.2c0.3-2.8,0.2-5.6-0.2-8.4h1.5c1.9-0.1,3.8-0.2,5.7-0.2
	c3.8-0.1,7.6-0.3,11.4-0.6c6.7-0.4,13.3-1.6,19.7-3.7c10.5-3.6,20.1-10.4,24.7-20.8C294,32.3,291.8,28.3,288.1,29.4z"/>
<path class="st1" d="M276.7,249c-0.1,4,1.7,8.6,2.3,12.7c0.8,5.1,1.6,10.3,2.3,15.5c1.2,8,4.4,23,4.4,23"/>
<path class="st1" d="M291.7,283.7c0.5,0.1,1,0,1.3-0.3"/>
<path class="st1" d="M200.9,101.8c-3.1-1-5.6-1.8-8.9-1.6"/>
</svg>
