<?xml version="1.0" encoding="utf-8"?>
<!-- Generator: Adobe Illustrator 24.1.3, SVG Export Plug-In . SVG Version: 6.00 Build 0)  -->
<svg version="1.1" id="Layer_1" xmlns="http://www.w3.org/2000/svg" xmlns:xlink="http://www.w3.org/1999/xlink" x="0px" y="0px"
	 viewBox="0 0 764.4 583" style="enable-background:new 0 0 764.4 583;" >
<style type="text/css">
	.st0{fill:#F4F6F9;}
	.st1{fill:none;stroke:#132144;stroke-width:7;stroke-linecap:round;stroke-linejoin:round;}
	.st2{fill:#00C9DB;}
	.st3{fill:#132144;}
	.st4{fill:#377dff;}
</style>
<path class="st0" d="M411.7,245.7c-1.5,27.5-3.3,60.9-3.3,60.9c2.7,8.8,3.9,18.1,3.4,27.3c18,2.5,44.7,27,55.4,40.9
	c16.6,21.5,31,50.2,41,86.6c10,36.4,20.3,53,25.2,52.8s12.4-7.2,16.4-24.3s3.8-32.9,4.5-47.7c0.3-5.8-0.8-15.7,3.6-20.3
	c1.3-1.3,3.1-2.2,4.9-2.6l-0.9-0.2c0,0-3.8-27.9,3.5-33.8c0.5-0.4,1-0.8,1.6-1.1l-0.5-3.1v-12.8c-18-10.3-26.5-34.8-16.4-53v-8.5
	c-5,1.4-10,2.4-15.1,3.1c-13.5,1.9-27.6,1.3-40.4-4.5c-11.9-5.4-22.1-13.9-32.1-22.7c-10.4-9.3-20.7-18.9-32.2-26.6
	C424.5,252.2,418.2,248.7,411.7,245.7z"/>
<path class="st0" d="M196.6,317.2c-0.4,0.1-0.8,0.2-1.2,0.4c1.8,9.4,2.9,18.3,2.9,18.3c13.1-0.6,21,15.5,8.5,35
	c13,2.1,19.6,18.5,22.8,34.9c7.8-18.3,19.6-34.6,34.4-47.8c7.6-6.7,16.8-10.8,25.9-14.9c10.9-4.9,30.7-9.3,30.7-9.3
	c8.7-11.2,10.5-26.3,12.5-40.6c1.3-9.1,1.5-18.3,2.8-27.3c0.3-1.6,0.5-3.7,0.7-5.9l-0.2-0.1c-1.1,0.9-2.8,0.8-3.8-0.4
	c-0.1-0.1-0.1-0.2-0.2-0.3c-2.1-4.1-3.8-8.4-5-12.9h0.2c-5.1-0.9-10.6-3.3-12.2-8.9c-25.7,6.9-47.2,22.2-67.3,40.5
	c-10.9,9.9-21.6,20.1-33.3,28.8C209.2,311.1,203.3,315.1,196.6,317.2z"/>
<path class="st0" d="M755.9,334.2c-3.4-14.7-7.6-30.1-16.2-42.3c-8.6-12.2-20.3-20.1-33.6-24.8c-27.1-9.5-56-2.3-81.9,8.3
	c1.8,1,3.4,2.3,4.9,3.7c3.9,3.9,5.8,9.4,4.9,14.9l0.7,0.2c8.8,2.4,10.9,9.4,9.6,17l0.7,0.2c8,1.4,9.1,10.7,7.4,19l2.1,0.9
	c5.5,5.1,4.7,17.5-0.4,22.8c-2.1,2.1-4.9,3.3-7.9,3.4l0.5,1.4c-2.2,10.6-9.8,15.3-16.9,16.2l-0.9,13.6c1.4,0.7,2.8,1.6,4.1,2.6
	c5.1,4.1,3.4,13.4,3.4,20.1v21.8l-2-0.4c18.7,12.3,14,32.8,14.8,47.6c0.9,13.7,0.8,27.4-0.5,41l40.8-0.5l24.2-0.3
	c7.6-0.1,15.7,0.7,23.1-0.8c8.3-1.7,11.8-8.5,14.2-16.6c2.2-7.4,4.2-14.9,5.8-22.5c3.5-16.1,5.7-32.5,6.8-49
	C765.9,399.1,763.3,366.2,755.9,334.2z"/>
<path class="st0" d="M117.9,497.8c-1.9-13.9-8.8-26.9-9.6-41.2c-0.4-10.7-0.1-21.4,0.9-32.1c1.3-15.7,3.2-29,12.1-42.7
	c1.9-2.9,4.1-5.6,6.6-8l0,0c0,0-13-44-8.1-46.8c-0.9-0.3-1.8-0.6-2.6-1.1c-7.7,3.3-15.1,7.3-22,12c-23.3,15.8-41.5,39.3-53.5,66.1
	c-6.1,13.6-10.7,27.8-13.9,42.4c-3,13.6-6,28.7-5,42.9c1,15,8.1,27.8,21.9,31.9c6.8,2,14.1,1.6,21.1,1.7l24.4,0.2l24.4,0.2
	C116.6,514.2,119,505.4,117.9,497.8z"/>
<path class="st1" d="M411.8,333.9c18,2.5,44.7,27,55.4,40.9c16.6,21.5,31,50.2,41,86.6c10,36.4,20.3,53,25.2,52.8
	s12.4-7.2,16.4-24.3s3.8-32.9,4.5-47.7c0.3-5.8-0.8-15.7,3.6-20.3c4.8-5,14.9-2.3,21.1-1.3c17.4,3,38.7,2.3,53.9,11.4
	c20.4,12.2,15.4,33.4,16.3,48.5c2,35.2,0.8,44-1.6,52.4c-1.9,6.5-4.5,28.6-18.9,29.3c-14.5,0.6,1.4-20.9,8.6-7.3
	c4.1,7.7-4.7,20.8-9.7,24.7"/>
<path class="st1" d="M114.4,553.9c-7.8-18,5.8-39.8,3.5-56.1c-1.9-13.9-8.8-26.9-9.6-41.2c-0.4-10.7-0.1-21.4,0.9-32.1
	c1.3-15.7,3.2-29,12.1-42.7c8.3-13,22.6-19.6,35.2-28c11.7-7.8,28.6-17.2,41.8-17.8s21,15.5,8.5,35c24.5,3.9,26.1,58.7,25.7,68.2
	c-0.4,8.8-1,32.9-11,37c-8.5,3.5-8.4-3.3-7.6-10.3c1.4-12.8,5.9-26.3,8.8-38.8c6-26.2,21.1-51.1,41.4-68.9
	c7.6-6.7,16.8-10.8,25.9-14.9c10.9-4.9,30.7-9.3,30.7-9.3"/>
<path class="st1" d="M562,419.2c0,0-3.8-27.9,3.5-33.8s24.1-2.8,38.9-1.9c14.8,0.9,23.5,3.8,28.6,7.9c5.1,4.1,3.4,13.4,3.4,20.1
	v21.8"/>
<path class="st1" d="M566.5,368.4c-18.3-10.5-26.9-35.8-15.8-54.1c8.9-14.5,41.8-31,53.3-10.2c8.6,15.7-16.4,17.5-25.4,14.4
	c7.1,1.3,14,13.1,14,24.1"/>
<path class="st1" d="M572.1,285.2c9.2-4,18.7-7.5,28.4-10.4c10.2-2.8,20.8-3.8,28.6,4.3c12.7,13.1-1,31.6-11.7,42.5
	c-9.2,9.4-19.9,9-22.4,0.1"/>
<path class="st1" d="M550.1,313.2c0-31.5-0.1-62.1,8.4-92.1c1.7-5.9,4.9-26.1,19-19c7.9,4,3.2,28.1,2.7,36
	c-0.7,10.6-0.8,32.5-0.8,42.8"/>
<path class="st1" d="M606.2,295.1c-1.8,1.7-3.2,3.8-4.3,6"/>
<path class="st1" d="M634.7,294.2c16.5,4.6,9.6,25.1,0.5,36.1s-18.1,14.2-24.2,11.4c-5-2.3-8.9-8.3-3.7-13.7"/>
<path class="st1" d="M645.1,311.5c12.2,2.1,8.3,22.8,3.1,29.7c-3.6,4.8-10,10.8-17,9.1c-5.1-1.2-7.8-6-5.2-11.2"/>
<path class="st1" d="M654.5,331.3c5.5,5.1,4.7,17.5-0.4,22.8c-5.2,5.5-17.9,4.5-15.1-4.9"/>
<path class="st1" d="M646.8,358.9c-2.6,12.5-12.7,16.8-20.7,16.4"/>
<line class="st1" x1="629.8" y1="375.3" x2="629" y2="388"/>
<path class="st1" d="M127.8,373.8c0,0-13-44-8.1-46.8s27.1-14.5,39.5-20.4c5.9-2.8,23.7-12.9,29-10.8s10,40.1,10,40.1"/>
<path class="st1" d="M187.7,293.4c4.8-13.9-1.4-38.5,8.3-49.1c12.5-13.5,35.7-27.6,27.8-36.2c-10-10.8-22.6,1.7-31.6,6.5
	c-9.9,5.3-19.5,10.8-30.8,17.5c-47.1-19.2-66.9-8.6-93.6-2.8c-10.1,2.2-32.8,10.2-16.1,20.2c13.4,7.9,35,9.4,43,23.2
	c4.9,8.5,8.5,19.9,10.9,29.4c1.6,6.5,4.9,22.4,14.2,25"/>
<path class="st1" d="M49.7,237.3c8.8-2.5,31.3,5,36.8,8.5"/>
<path class="st1" d="M73,228.6c9.7,1.8,20.8,7,28.5,10.4"/>
<path class="st1" d="M98.9,224.3c7.8,2.4,15.7,7.4,23.3,10.4"/>
<path class="st2" d="M669.8,107.2c-5.3-39.9-27.4-67.4-62-77.3c-19.1-5.4-37.6-5.9-53.7-1.2c-18,5.2-32.4,16.3-42.8,33.1
	c-10.3,16.5-16,35.4-16.4,54.9c-0.4,20.3,5.3,39.4,16.5,55.2c11.7,16.6,29,26.4,48.6,27.4c4.7,0.2,9.4,0.4,14.1,0.4
	c15,0,30.1-1.7,43.5-8.3c18.3-9,30.8-19.8,39.3-34.1C664.6,144.3,672.1,124.4,669.8,107.2z"/>
<path class="st1" d="M539.4,39.5c0,0,9.5,25,13.1,35.4c3.8,10.9,16.7,40.3,16.7,40.3s43.9,9.1,55.6,11.9c11.4,2.7,23.6,4.7,33.7,8.2
	"/>
<path class="st1" d="M569.7,113.7c0,0,72.3-37.4,82.8-44.9"/>
<path class="st1" d="M484.5,71h-8.6"/>
<line class="st1" x1="609.2" y1="3.5" x2="619" y2="3.9"/>
<line class="st1" x1="686.2" y1="98.8" x2="696.6" y2="98.5"/>
<path class="st1" d="M320.6,333.9c8.7-11.2,10.5-26.3,12.5-40.6c1.3-9.1,1.5-18.3,2.8-27.3c0.9-5.9,1.8-19,1.8-19
	s-25.8,2.6-22.3-16.1c1.9-10.3,14.8-22.1,25.7-17.8c2.6-21.2,2.2-42.6,22.4-55.3c22.7-14.3,47.6,12.4,63.6,27.5
	c11.2,10.6,21.4,22.3,30.6,34.7c-13.3,1.7-44.6,0.3-44.6,0.3c-1.3,24.6-4.6,86.5-4.6,86.5c6.2,20.4,4.1,43.6-5.6,44
	s-15.1-16.7-22.6-25c-3.8,10.1-16.4,26.4-29.5,26.4S325.3,342,320.6,333.9z"/>
<path class="st1" d="M332.7,300.3c16,17.3,53.4,14.9,72.5,5.2"/>
<path class="st1" d="M325.8,230.4c2.3-0.2,4.6,0.8,6,2.6"/>
<path class="st1" d="M369.2,229.1c2.5,4.4,7.6,5.4,12.1,3.5"/>
<path class="st1" d="M375,201.8v-3.6"/>
<path class="st1" d="M394,199.3V195"/>
<path class="st1" d="M377.3,360.7c1,10-4.2,24.7-6,34.4c-2.8,15.2-7.8,29.6-7.9,41.7s2.6,18.2,9.3,23s9.4,8,8.9,16.7
	c-0.6,11.9-5.5,25-10.4,35.7c-3.1,6.7-8.9,14-2.1,19.8c8.1,6.8,18,0.8,21.1,15c1.8,8.5-1.1,19.5-3.3,27.5"/>
<path class="st1" d="M414.7,420.1c12.8,0,23.9-1.2,36.2,0.6"/>
<line class="st1" x1="441.7" y1="413.3" x2="440.8" y2="431.4"/>
<path class="st1" d="M431.3,411.6c0,8,1.6,17.6-0.9,25"/>
<line class="st1" x1="375.8" y1="427.7" x2="379.3" y2="426"/>
<line class="st1" x1="392.1" y1="485.5" x2="395.2" y2="484.7"/>
<path class="st1" d="M403.9,551l-2.6,0.2"/>
<path class="st3" d="M327.6,246.4c1.2,4.5,2.9,8.8,5,12.9c0.8,1.3,2.5,1.6,3.7,0.8c0.1-0.1,0.3-0.2,0.4-0.3c0.6-6,1.1-12.9,1.1-12.9
	C334.4,247.2,330.9,247,327.6,246.4z"/>
<path class="st3" d="M399.7,149.5l-22.1-2.4c-6.5-0.7-13.1-1.8-19.7-0.5c-8.8,1.7-21.4,8.6-22.5,18.7c-0.3,2,0.2,4,1.3,5.6
	c0.1,0.2,0.3,0.4,0.5,0.6c-11,7.2-11.5,24.4-12.2,36.6c-0.2,2.8-0.3,5.6-0.3,8.4c2.9-2.4,6.3-3.9,10-4.5c1.5,3.4,3.3,6.8,5.2,10
	c0.8,1.2,2.4,1.6,3.6,0.8c0.7-0.5,1.2-1.3,1.2-2.1c-0.1-6.3,1.3-12.5,4.3-18c2.4-4.4,5.6-8.3,7.4-13.1s1.2-10.9-2-14.7
	c5.2-1.3,10.3-5.6,13.6-9.4c4.8-5.4,9-8.8,16.5-8.8c5.8,0,11.4,0.6,16.5-2.5C403.3,152.9,402.2,149.8,399.7,149.5z"/>
<line class="st1" x1="566.5" y1="381.2" x2="566.5" y2="368.4"/>
<path class="st1" d="M155,281.3c-3-0.2-5.9,1.1-7.8,3.5"/>
<path class="st4" d="M209.5,82.2c-0.1-0.6-0.1-1.3-0.1-2.1c-0.7-11.1-1.9-29.7-12.8-34.4c-16.5-7.1-29.9,14.2-33.6,20.9
	c-3.4,6.2-6.2,13.5-9.2,21.2c-7.3,19-14.9,38.6-31.6,41.5c-12.7,2.2-16.9-6.1-22.8-19.7C95,99.4,90.5,88.9,79.6,86.1
	c-14.3-3.6-35.6,3.2-55.6,56c-0.2,0.5-0.3,1.1-0.2,1.6l9.5,88.4c0.2,1.8,1.7,3.1,3.5,3.1c0.2,0,0.4,0,0.6-0.1l176-32.2
	c1.7-0.3,3-1.9,2.9-3.6C216.3,198.4,211,103.3,209.5,82.2z"/>
<path class="st1" d="M243.6,197.3c0,0-77.1,10.6-93.8,13.4c-27.5,4.5-113.1,21.1-113.1,21.1s-15-140-18.6-172.4
	c-1-9.1-2.7-31.2-2.7-31.2"/>
<path class="st1" d="M4.8,40.6c3.4-4.3,10.6-12.4,10.6-12.4l13.4,8.3"/>
<path class="st1" d="M236.6,188.3c3.2,2.7,6.6,4.9,10,7.5c-2.1,4.1-5,8.3-6.3,12.6"/>
<line class="st1" x1="9.1" y1="80.5" x2="3.5" y2="80.5"/>
<line class="st1" x1="19.6" y1="172.9" x2="14" y2="172.9"/>
<line class="st1" x1="14.7" y1="122.7" x2="9.1" y2="122.7"/>
<line class="st1" x1="23.4" y1="214.3" x2="17.8" y2="214.3"/>
</svg>
