<?xml version="1.0" encoding="utf-8"?>
<!-- Generator: Adobe Illustrator 24.1.3, SVG Export Plug-In . SVG Version: 6.00 Build 0)  -->
<svg version="1.1" id="Layer_1" xmlns="http://www.w3.org/2000/svg" xmlns:xlink="http://www.w3.org/1999/xlink" x="0px" y="0px"
	 viewBox="0 0 622 575.1" style="enable-background:new 0 0 622 575.1;" >
<style type="text/css">
	.st0{fill:#F4F6F9;}
	.st1{fill:none;stroke:#377dff;stroke-width:7;stroke-linecap:round;stroke-linejoin:round;}
	.st2{fill:none;stroke:#132144;stroke-width:7;stroke-linecap:round;stroke-linejoin:round;}
	.st3{fill:#377dff;stroke:#377dff;stroke-width:7;stroke-linecap:round;stroke-linejoin:round;}
	.st4{fill:none;stroke:#333333;stroke-width:7;stroke-linecap:round;stroke-linejoin:round;}
	.st5{fill:none;stroke:#00C9DB;stroke-width:7;stroke-linecap:round;stroke-linejoin:round;}
	.st6{fill:#00C9DB;stroke:#00C9DB;stroke-width:7;stroke-linecap:round;stroke-linejoin:round;}
</style>
<g id="BG">
	<path class="st0" d="M129.7,384.2c4.5-3,9.8-4.3,15.2-3.6c1.8,0.2,3.6,0.6,5.4,1.1l0,0c0,0,32.4-31,50.9-44.2
		c7.1-5.1,13.9-7.4,20.6-7.4c8.8-7.4,22.2-22.1,30.2-31.1v-1.1c-3.8-17.8-11.7-34.8-19.8-51c-4.3-8.6-20.6-34.3-1.3-34.2
		c7.2,0,17.3,10.3,23.3,19.6c-6.7-16.7-11.4-31.9-18.4-48.7c-3.3-8-14.8-41.7,6.3-41.2h3c-0.8-4.6,0.4-8.8,6.2-11.2
		c11.6-4.7,16.8,6.9,21.3,13.2l0.1,0.1c1.1-15.1,20.4-8.3,25.9,8.9l0.1,0.4c1.9-0.7,4.3-0.6,7.3,0.8c-0.5-2.4-4-8.7-4.9-12.7
		c-2-8.8-0.3-19.9,10.5-16.9c20,5.6,29.4,45.8,33.3,62c-3.3-22.3-5-28.8-9.7-43c-2.7-8.1-12.6-21.9-8.3-30.7c5-10.1,19.5-3,24.5,2.8
		c17,19.2,18.1,49,22.5,72.9c-0.1-14.9-1.4-29.8-3.7-44.6c-2.3-14.7-7.7-32.9-0.9-39.3c12.2-11.4,21.5,6.6,24.2,16.7
		c7.9,30.4,7.7,66.9,4.4,98.8l0,0c3.6-5.7,7.4-11.3,11.4-16.5c6.8-8.9,19.2-31,34-26.1c14.3,4.8,0,27.2-3.9,36.2
		c-6.7,15.6-11.9,31.8-18.7,47.3c-3.3,7.6-12.5,22.6-14.9,33.6c0,0,23.7,31.7,35.5,46l0.4,0.1c0.7-1.3,1.2-2.5,1.7-3.7
		c18,14.7,30.7,30.4,46.5,45.6c2.5,2.5,4.5,4.2,6,5.8c0.7-0.9,1.4-1.7,2-2.6c29-37.3,41.8-83.5,43.7-129.2
		c0.8-24.3-0.9-48.6-5.1-72.5c-3.6-21.2-9.6-42.1-19.6-61.6c-10.3-20-25.3-37.2-43.9-50c-18.7-13-41-21.4-63.3-27.1
		c-46.9-11.9-100.2-16.2-147-1.6c-44.3,13.8-78.8,44.7-104.6,80.5c-49.3,68.3-72.9,162.3-38,240.9
		C123,371.9,126.2,378.2,129.7,384.2z"/>
	<path class="st0" d="M397.5,444.9c-11.3-12.6-24.5-28.3-33.9-42.7c1.2-0.4,2.4-0.7,3.5-1.1c-5.7-6.6-36.8-43.6-38.3-54.6
		c-1.9,2-3.8,3.9-5.6,5.8c-16.1,17.2-27.6,32.4-42.4,50.8l-1.4,0.8c-1.1,12.7-10.1,21.3-19.3,32c-8.9,10.1-18.4,19.6-28.3,28.7
		c24.7,4.4,50,4.2,75,2s50.3-5.2,74.7-10.6c7.1-1.6,14.3-3.4,21.3-5.5C400.8,448.4,398.9,446.4,397.5,444.9z"/>
</g>
<path class="st1" d="M3.5,464.8c3-13.3,18.3-28.5,29.2-36.7c4.4-3.4,11.8-9.3,17.7-6.6c7.1,3.2,6.6,16.7,12,21.7
	c1.6-15.4,14.4-36.7,25.7-47c7.5-6.8,16.6-5.2,24.4,0.9c10.8-6.6,18.1-18.2,32.3-16.5c12.1,1.5,24.5,9.1,33.5,17.1
	c13.3,11.9,24.5,22.6,32.2,38.9c5.5,11.7,6.7,24.2,9.5,37.2c3.7,17.5-3.6,27.8-22.3,27.6c-0.1,6.6-5.3,15.6-9,21
	c-5.8,8.5-12.2,7.9-19.3,13.1c-4.9,3.6-7.6,9.8-11.3,14.6c-5.7,7.3-12.1,13.7-16.8,21.6"/>
<path class="st1" d="M184.5,488.7c0.9-1.8,2.2-3.4,3.8-4.7"/>
<path class="st2" d="M44.2,237.6c8,19.3,8.6,27.7-6.9,39.6c15-14.1,26.6-9.1,37.2,5.4c-8.9-11.8-10.1-14.7-8.7-23
	c0.8-4.5,8.1-12.2,12.3-15.2C69.9,250,54.2,257.9,44.2,237.6z"/>
<path class="st2" d="M221.7,330.1c13.2-11.2,37-38.8,37-38.8"/>
<path class="st2" d="M280.9,403c14.7-18.5,26.3-33.6,42.4-50.8c5.7-6.1,12.6-12.2,16-19.3c3.8-8,4.2-23.3,4.2-32.2
	c0-34.8-3.2-73.1-15.5-106c-3.5-9.3-12.3-35.8-22-40.4c-9.5-4.5-12.9,3.9-11.8,10.5c3,18.1,7.5,36.5,9.3,52.4"/>
<path class="st3" d="M150.2,381.6c0,0,32.4-31,50.9-44.2c17.5-12.5,33.2-8.1,49.9,5.4c16.1,13.1,25.2,33.1,28.2,53.5
	c2.5,17.1-8.1,26.9-19,39.5c-8.3,9.7-31.4,33-40.2,38"/>
<line class="st2" x1="142.3" y1="125.4" x2="117.9" y2="122.6"/>
<line class="st2" x1="167.8" y1="71" x2="153.5" y2="61.6"/>
<path class="st2" d="M298.5,153.2c-6.3-20-31.2-26-24.9,0c2.3,9.4,2.9,22.8,5.3,32.4c2.2,8.9,5,25.1,5,25.1"/>
<path class="st2" d="M310.1,343.8c2.8,0.3,7.8-2.8,7.8-2.8"/>
<path class="st2" d="M272.6,144.2c-4.6-6.3-9.7-17.9-21.3-13.2c-10.6,4.3-5.7,14.6-2.1,22.8c6.9,16,16.7,54.3,16.7,54.3"/>
<path class="st2" d="M359.8,341c2.5-2.5,5.6-3.6,8.4-2.8"/>
<path class="st2" d="M242,142.2c-21.1-0.5-9.6,33.2-6.3,41.2c7,16.8,11.6,32,18.4,48.7c1.9,4.7,6.2,16.1,6.2,16.1"/>
<path class="st2" d="M390.6,232.6c5.5-10,11.7-19.6,18.6-28.7c6.8-8.9,19.2-31,34-26.1c14.3,4.8,0,27.2-3.9,36.2
	c-6.7,15.6-11.9,31.8-18.7,47.3c-4.2,9.8-18.2,31.6-15,41.6"/>
<path class="st4" d="M251.9,297.9c-3.8-17.8-11.7-34.8-19.8-51c-4.3-8.6-20.6-34.3-1.3-34.2c7.2,0,17.3,10.3,23.3,19.6"/>
<path class="st2" d="M397.8,220.4c3.3-31.9,3.6-68.4-4.4-98.8c-2.6-10.1-12-28.1-24.2-16.7c-6.9,6.4-1.4,24.6,0.9,39.3
	c2.3,14.8,3.5,29.7,3.7,44.6c-4.4-23.9-5.5-53.6-22.5-72.9c-5-5.7-19.5-12.9-24.5-2.8c-4.3,8.7,5.6,22.5,8.3,30.7
	c4.7,14.1,6.4,20.6,9.7,43c-3.9-16.2-13.3-56.4-33.3-62c-10.8-3-12.5,8.1-10.5,16.9c0.9,3.9,4.4,10.3,4.9,12.7"/>
<path class="st2" d="M405.8,294.9c0,0,23.8,31.8,35.5,46.1"/>
<path class="st2" d="M328.8,346.4C330.5,358.6,367,401,367,401"/>
<path class="st5" d="M420.7,462c-2.9,10.3-0.5,19.8,2.8,26.9c3.7,7.9,14,12.3,16.8,20.4c2.5,7.3,0.4,15,5.7,21.8
	c3.5,4.5,21.7,15.7,27.3,16.2"/>
<path class="st5" d="M498.5,394.6c34.3,3.7,59.2,35.1,77.3,61.6c-0.2-9.6,9.2-12.9,16.5-12.3c15.8,1.3,17.5,15.4,26.1,25.3"/>
<path class="st6" d="M407.1,379.8c-13.6,9.4-28,17.7-43.5,22.3c9.4,14.4,22.6,30.2,33.9,42.7c5,5.5,15.7,15.7,23.2,17.1
	c8.4,1.6,19.7-4.6,26.1-9.1c14.2-10,23.8-18.8,36.3-31c5.3-5.1,12.6-14.8,14.5-22c2.3-8.7-0.6-9.9-7.9-17
	c-15.7-15.2-28.5-30.9-46.5-45.6C438.5,349.6,423.2,368.7,407.1,379.8z"/>
<path class="st2" d="M568.8,248.2c-1.2,7.2-8.5,19.7-14,24.8c-6.6,6.2-19.2,6.4-27.9,7c27.5,0,21.9,16.3,20.3,37.2
	c3.2-16.6,4.4-22.2,9.3-27.9c6.5-7.4,15.6-5.3,23.2-8.5c-10.4,0.2-17.1,1.6-17.5-9.8C561.9,262.9,566.2,256.1,568.8,248.2z"/>
<line class="st2" x1="511.4" y1="103.1" x2="527.6" y2="90.7"/>
<line class="st2" x1="500.4" y1="71" x2="513.5" y2="56"/>
<line class="st2" x1="355.1" y1="16.6" x2="358.8" y2="3.5"/>
<line class="st2" x1="270.7" y1="36.6" x2="265.1" y2="20.6"/>
</svg>
