<?xml version="1.0" encoding="utf-8"?>
<!-- Generator: Adobe Illustrator 24.1.3, SVG Export Plug-In . SVG Version: 6.00 Build 0)  -->
<svg version="1.1" id="Layer_1" xmlns="http://www.w3.org/2000/svg" xmlns:xlink="http://www.w3.org/1999/xlink" x="0px" y="0px"
	 viewBox="0 0 160 160" style="enable-background:new 0 0 160 160;" >
<style type="text/css">
	.st0{fill:#97a4af;}
</style>
<path class="st0" d="M142.2,35.6V17.8c0-9.8-8-17.8-17.8-17.8H35.6c-9.8,0-17.8,8-17.8,17.8v17.8C8,35.6,0,43.5,0,53.3v48.9
	c0,2.5,2,4.4,4.4,4.4h13.3v35.6c0,9.8,8,17.8,17.8,17.8h88.9c9.8,0,17.8-8,17.8-17.8v-35.6h13.3c2.5,0,4.4-2,4.4-4.4V53.3
	C160,43.5,152,35.6,142.2,35.6z M35.6,17.8h88.9v17.8H35.6V17.8z M124.4,142.2H35.6V88.9h88.9V142.2z M142.2,66.7
	c0,2.5-2,4.4-4.4,4.4h-8.9c-2.5,0-4.4-2-4.4-4.4v-8.9c0-2.5,2-4.4,4.4-4.4h8.9c2.5,0,4.4,2,4.4,4.4V66.7z"/>
</svg>
