<?xml version="1.0" encoding="utf-8"?>
<!-- Generator: Adobe Illustrator 23.0.3, SVG Export Plug-In . SVG Version: 6.00 Build 0)  -->
<svg xmlns="http://www.w3.org/2000/svg" xmlns:xlink="http://www.w3.org/1999/xlink" x="0px" y="0px"
	 viewBox="0 0 104.7 88.6" style="enable-background:new 0 0 104.7 88.6;" >
<style type="text/css">
	.review-rating-shield-0{fill:#377dff;}
	.review-rating-shield-1{opacity:8.000000e-02;fill:#FFFFFF;}
	.review-rating-shield-2{fill:url(#SVGID_1_);}
	.review-rating-shield-3{fill:url(#SVGID_2_);}
	.review-rating-shield-4{fill:url(#SVGID_3_);}
	.review-rating-shield-5{fill:url(#SVGID_4_);}
	.review-rating-shield-6{fill:url(#SVGID_5_);}
</style>
<path class="review-rating-shield-0" d="M52.4,0c0,0-19.6,13.3-36,11.5c0,1,0,1.9,0,2.9c0,2.3,0,4.5,0,6.8c0,2.6,0,5.1,0,7.7c0,1.9,0,3.8,0,5.7
	c0,2.5,0,5,0.2,7.6c0.1,1.5,0.3,2.9,0.6,4.4c0.3,1.7,0.6,3.5,1.1,5.2c0.5,1.9,1,3.8,1.7,5.7c0.7,2,1.6,4,2.5,5.9
	c1,2.1,2.2,4.1,3.5,6c1.4,2,2.9,4,4.6,5.7c1.8,1.9,3.8,3.7,5.9,5.3c2.3,1.8,4.7,3.3,7.3,4.6c2.8,1.5,5.8,2.7,8.8,3.6
	c3-1,6-2.2,8.8-3.6c2.5-1.3,5-2.8,7.3-4.6c2.1-1.6,4-3.4,5.9-5.3c1.7-1.8,3.2-3.7,4.6-5.7c1.3-1.9,2.4-3.9,3.5-6
	c1-1.9,1.8-3.9,2.5-5.9c0.7-1.9,1.2-3.7,1.7-5.7c0.4-1.7,0.8-3.4,1.1-5.2c0.2-1.5,0.4-2.9,0.6-4.4c0.2-2.5,0.2-5,0.2-7.6
	c0-1.9,0-3.8,0-5.7c0-2.6,0-5.1,0-7.7c0-2.3,0-4.5,0-6.8c0-1,0-1.9,0-2.9C72,13.3,52.4,0,52.4,0z"/>
<path class="review-rating-shield-1" d="M52.4,0c0,0-19.6,13.3-36,11.5c0,1,0,1.9,0,2.9c0,2.3,0,4.5,0,6.8c0,2.6,0,5.1,0,7.7c0,1.9,0,3.8,0,5.7
	c0,2.5,0,5,0.2,7.6c0.1,1.5,0.3,2.9,0.6,4.4c0.3,1.7,0.6,3.5,1.1,5.2c0.5,1.9,1,3.8,1.7,5.7c0.7,2,1.6,4,2.5,5.9
	c1,2.1,2.2,4.1,3.5,6c1.4,2,2.9,4,4.6,5.7c1.8,1.9,3.8,3.7,5.9,5.3c2.3,1.8,4.7,3.3,7.3,4.6c2.8,1.5,5.8,2.7,8.8,3.6V0z"/>
<g>
	<linearGradient id="SVGID_1_" gradientUnits="adminSpaceOnUse" x1="8.3676" y1="50.5335" x2="8.3676" y2="66.4861">
		<stop  offset="0" style="stop-color:#FDDF4E"/>
		<stop  offset="1" style="stop-color:#FFC107"/>
	</linearGradient>
	<path class="review-rating-shield-2" d="M8.7,50.7l2.3,4.7c0.1,0.1,0.2,0.2,0.3,0.2l5.1,0.7c0.3,0,0.4,0.4,0.2,0.6l-3.7,3.6c-0.1,0.1-0.1,0.2-0.1,0.3
		l0.9,5.1c0.1,0.3-0.3,0.5-0.5,0.4L8.5,64C8.4,64,8.3,64,8.2,64l-4.6,2.4c-0.3,0.1-0.6-0.1-0.5-0.4l0.9-5.1c0-0.1,0-0.2-0.1-0.3
		L0.1,57c-0.2-0.2-0.1-0.6,0.2-0.6l5.1-0.7c0.1,0,0.2-0.1,0.3-0.2L8,50.7C8.2,50.5,8.6,50.5,8.7,50.7z"/>
</g>
<g>
	<linearGradient id="SVGID_2_" gradientUnits="adminSpaceOnUse" x1="30.3676" y1="50.5335" x2="30.3676" y2="66.4861">
		<stop  offset="0" style="stop-color:#FDDF4E"/>
		<stop  offset="1" style="stop-color:#FFC107"/>
	</linearGradient>
	<path class="review-rating-shield-3" d="M30.7,50.7l2.3,4.7c0.1,0.1,0.2,0.2,0.3,0.2l5.1,0.7c0.3,0,0.4,0.4,0.2,0.6l-3.7,3.6c-0.1,0.1-0.1,0.2-0.1,0.3
		l0.9,5.1c0.1,0.3-0.3,0.5-0.5,0.4L30.5,64c-0.1-0.1-0.2-0.1-0.3,0l-4.6,2.4c-0.3,0.1-0.6-0.1-0.5-0.4l0.9-5.1c0-0.1,0-0.2-0.1-0.3
		L22.1,57c-0.2-0.2-0.1-0.6,0.2-0.6l5.1-0.7c0.1,0,0.2-0.1,0.3-0.2l2.3-4.7C30.2,50.5,30.6,50.5,30.7,50.7z"/>
</g>
<g>
	<linearGradient id="SVGID_3_" gradientUnits="adminSpaceOnUse" x1="52.3676" y1="50.5335" x2="52.3676" y2="66.4861">
		<stop  offset="0" style="stop-color:#FDDF4E"/>
		<stop  offset="1" style="stop-color:#FFC107"/>
	</linearGradient>
	<path class="review-rating-shield-4" d="M52.7,50.7l2.3,4.7c0.1,0.1,0.2,0.2,0.3,0.2l5.1,0.7c0.3,0,0.4,0.4,0.2,0.6l-3.7,3.6c-0.1,0.1-0.1,0.2-0.1,0.3
		l0.9,5.1c0.1,0.3-0.3,0.5-0.5,0.4L52.5,64c-0.1-0.1-0.2-0.1-0.3,0l-4.6,2.4c-0.3,0.1-0.6-0.1-0.5-0.4l0.9-5.1c0-0.1,0-0.2-0.1-0.3
		L44.1,57c-0.2-0.2-0.1-0.6,0.2-0.6l5.1-0.7c0.1,0,0.2-0.1,0.3-0.2l2.3-4.7C52.2,50.5,52.6,50.5,52.7,50.7z"/>
</g>
<g>
	<linearGradient id="SVGID_4_" gradientUnits="adminSpaceOnUse" x1="74.3677" y1="50.5335" x2="74.3677" y2="66.4861">
		<stop  offset="0" style="stop-color:#FDDF4E"/>
		<stop  offset="1" style="stop-color:#FFC107"/>
	</linearGradient>
	<path class="review-rating-shield-5" d="M74.7,50.7l2.3,4.7c0.1,0.1,0.2,0.2,0.3,0.2l5.1,0.7c0.3,0,0.4,0.4,0.2,0.6l-3.7,3.6c-0.1,0.1-0.1,0.2-0.1,0.3
		l0.9,5.1c0.1,0.3-0.3,0.5-0.5,0.4L74.5,64c-0.1-0.1-0.2-0.1-0.3,0l-4.6,2.4c-0.3,0.1-0.6-0.1-0.5-0.4l0.9-5.1c0-0.1,0-0.2-0.1-0.3
		L66.1,57c-0.2-0.2-0.1-0.6,0.2-0.6l5.1-0.7c0.1,0,0.2-0.1,0.3-0.2l2.3-4.7C74.2,50.5,74.6,50.5,74.7,50.7z"/>
</g>
<g>
	<linearGradient id="SVGID_5_" gradientUnits="adminSpaceOnUse" x1="96.3677" y1="50.5335" x2="96.3677" y2="66.4861">
		<stop  offset="0" style="stop-color:#FDDF4E"/>
		<stop  offset="1" style="stop-color:#FFC107"/>
	</linearGradient>
	<path class="review-rating-shield-6" d="M96.7,50.7l2.3,4.7c0.1,0.1,0.2,0.2,0.3,0.2l5.1,0.7c0.3,0,0.4,0.4,0.2,0.6l-3.7,3.6c-0.1,0.1-0.1,0.2-0.1,0.3
		l0.9,5.1c0.1,0.3-0.3,0.5-0.5,0.4L96.5,64c-0.1-0.1-0.2-0.1-0.3,0l-4.6,2.4c-0.3,0.1-0.6-0.1-0.5-0.4l0.9-5.1c0-0.1,0-0.2-0.1-0.3
		L88.1,57c-0.2-0.2-0.1-0.6,0.2-0.6l5.1-0.7c0.1,0,0.2-0.1,0.3-0.2l2.3-4.7C96.2,50.5,96.6,50.5,96.7,50.7z"/>
</g>
</svg>
