<?xml version="1.0" encoding="utf-8"?>
<!-- Generator: Adobe Illustrator 24.1.3, SVG Export Plug-In . SVG Version: 6.00 Build 0)  -->
<svg version="1.1" id="Layer_1" xmlns="http://www.w3.org/2000/svg" xmlns:xlink="http://www.w3.org/1999/xlink" x="0px" y="0px"
	 viewBox="0 0 948.8 594.8" style="enable-background:new 0 0 948.8 594.8;" >
<style type="text/css">
	.st0{fill:#F4F6F9;}
	.st1{fill:none;stroke:#333333;stroke-width:7;stroke-linecap:round;stroke-linejoin:round;}
	.st2{fill:none;stroke:#132144;stroke-width:7;stroke-linecap:round;stroke-linejoin:round;}
	.st3{fill:#FFC107;}
	.st4{fill:#132144;}
</style>
<path class="st0" d="M852.1,235c-5.7,3.3-11.2,5-14.7,4.9c4.1,5.9,1,8.2-5.4,15.4c-5,5.6-18.2,21.1-18.2,21.1
	c-3.3,18.8-17.3,38.6-25.2,57c-7.8,17.8-16.7,35.1-26.6,51.8c-3.5,6-7.1,11.9-11.1,17.7c-3.2,4.7-26,47-41.2,75.3
	c34.4-3.7,69.1-10.9,99.3-28.4c26.6-15.5,49-38.4,60.3-67.3c13.1-33.5,7.2-72.5-1.3-106.4C864.5,261.8,859.2,248,852.1,235z"/>
<path class="st0" d="M148.2,201.2l1.3,1.1l0.3-0.3c7.8-5.6,12.8-1,17.9,3.5c7.5,6.7,9.3,11.5,18.6,16.8c5.8,3.3,10.8,3.5,16,9.7
	c4.6,5.5,8.2,12.2,12.3,18.1c7.1,10.2,16.4,17.9,25.3,26.6c24.6,24,54.8,63.2,82.4,89.7s54.5,41.3,59.5,41.4s10.8-10.4,10.8-10.4
	c0.1,0.1,0.2,0.2,0.3,0.4c0.5-0.6,1.1-1.1,1.8-1.5c1.3-17,1.9-29,0.3-39.3c-0.8-5.6-1.7-11.1-2.9-16.6c-0.2-0.1-0.3-0.1-0.5-0.2
	c-0.6,2.5-12.4-4.8-16.3-7.8c-6.2,4.5-13,6.8-22.6,3.8c-14.2-4.4-7.1-18.9,2.3-29.2c0-0.2-0.1-0.3-0.1-0.5c-0.1,0.1-0.3,0.3-0.4,0.4
	c-3.8-7.8-5.6-16.3-5.4-24.9c-1.6-9.1-0.3-23.7,10.1-24.3c-3.7-14.5,6.4-20.8,16.4-25.6c7.2-3.4,17.8-3.3,25.7-4.2
	s18.7-2.4,22.7-10.6c1.5-3.1,6.3-0.7,5.3,2.4c-1.7,6.1-4.4,11.9-7.8,17.2c9.6-1.9,19.4-3.6,28.3-5.1c19.4-3.3,54.2-5.1,54.2-5.1
	c-9,11.2-22,33.9-27,43.7c20.8,34.8,31.1,77.1,35.7,103.3c0.8,0.3,1.5,0.8,2.2,1.4c0.2-0.3,0.4-0.5,0.6-0.7l10.3,13.5
	c10.8-3,34.4-12.1,68-30.7s56.1-45.1,67.6-55.3c17.8-15.8,34.2-30,44.8-35.1c9.4-4.6,11.6-1.9,16.8-13c9.5-20.4,30-21.1,39.9-18.5
	l0.3-1c7.2-8.2,18.7-26.1,30.2-27.5c0.3,0,0.6,0.1,0.9,0.1l0.1-0.1c2.1-8.6,5.6-16.8,10.4-24.2c-21.8-15.7-46.2-27.2-71.1-37.4
	C667.5,118,597.5,99.8,526.2,92.4c-70.6-7.3-142.9-3.1-211.5,15.6c-57.5,15.8-111.7,41.5-160.3,76c-4.8,2.7-9.6,5.5-14.2,8.5
	C144.7,197.3,148.2,201.2,148.2,201.2z"/>
<path class="st0" d="M166.4,377.6c-13.6-26.1-26.1-53-42.2-77.6c-6.9-10.6-20.9-25-18.6-37.7c0.1-0.7,0.3-1.4,0.5-2.1l0,0
	c-6.8-6.4-12.4-11.9-16.2-16.9c-3.6,5.9-6.7,12.1-9.4,18.5c-11.1,26.8-14,58.1-5.5,86.1c4.2,14.2,11.5,27.3,21.3,38.4
	c11.9,13.4,27.4,23.2,42.2,32.8c15.1,9.8,30.5,19.4,47,26.8c7.2,3.2,14.6,6,22.1,8.4C190.3,421.9,171,386.5,166.4,377.6z"/>
<path class="st1" d="M394.4,397.6c1.3-17.7,2-29.9,0.4-40.6c-1.8-11.8-3.7-23.7-8.4-34.9c-10,9.9-18.3,18.9-33.9,14.1
	c-20.7-6.4,4.1-34.6,14.8-39.5c-7.7-6-5-21.3-2.2-29.2c4.5-12.8,18.4-21.9,30.9-25c16.5-4.2,36.7-7.7,53.7-10.6
	c19.4-3.3,54.2-5.1,54.2-5.1c-9,11.2-22,33.9-27,43.7c21.7,36.3,31.9,80.7,36.3,106.5"/>
<path class="st2" d="M407.3,288.8c-1.4-4.3,0.9-8.8,5.2-10.2c1.5-0.5,3.2-0.5,4.7-0.1"/>
<path class="st2" d="M436.4,270c2.6-6.9,7.6-8.8,13.2-4.9"/>
<path class="st2" d="M431,315.6c8.1,7,28.5,4.2,29-11.5"/>
<path class="st2" d="M762.8,235.2c-10-2.6-30.4-2-39.9,18.5c-5.2,11-7.4,8.4-16.8,13c-10.6,5.2-27,19.3-44.8,35.1
	c-11.5,10.2-34,36.8-67.6,55.3s-57.2,27.7-68,30.7l-10.2-13.5c-5.5,7.2-18.7,15.4-27,19.3c-12.7,6-26.3,9.9-40.2,11.4
	c-10.7,1.2-22.1,3.4-33.1,1.4c-5.7-1-20.3-5.1-22.6-8.9c0,0-5.7,10.6-10.8,10.4s-31.9-14.9-59.5-41.4s-57.8-65.7-82.4-89.7
	c-8.9-8.7-18.2-16.4-25.3-26.6c-4.1-5.9-7.7-12.6-12.3-18.1c-5.1-6.2-10.2-6.4-16-9.7c-9.3-5.3-11.1-10.1-18.6-16.8
	c-5.1-4.5-10.1-9.1-17.9-3.5c-13.4,12.1-40.6,41-44,60.3c-2.3,12.7,11.7,27.2,18.6,37.7c16,24.6,28.6,51.6,42.1,77.6
	c8.2,15.7,63,116.5,70.1,132.6"/>
<path class="st2" d="M393.4,419.2c6.1,10.7,13,24.8,37.8,25.6c18.8,0.6,28.5-13.1,35.1-30.4c8.8,10.3,21,16.4,35.1,14.4
	c10.9-1.5,18.4-14.9,18.9-30.4"/>
<path class="st2" d="M470.8,437.1c6.5,7.2-5.4,35.6-6.5,44.3c-1.2,9.2-6.4,37.1,7.4,39.7c10.1,1.9,17.8-12.6,15.4,6.4
	c-0.6,4.9-4.3,12.9,0.7,16s11.7-3.9,17.1-0.1c11,7.8,7.1,35.8,6.7,47.8"/>
<path class="st2" d="M558.1,485.6c12.2,0.3,30.6,0.8,42.8,1.3"/>
<line class="st2" x1="473.3" y1="494.4" x2="475.1" y2="490.2"/>
<line class="st2" x1="526.1" y1="557.3" x2="527.1" y2="552.2"/>
<path class="st2" d="M763.2,234.2c7.3-8.3,18.7-26.2,30.3-27.6c10.6,1,38.3,24.1,44.1,33.3c4.1,5.9,1,8.2-5.4,15.4
	c-5,5.6-18.2,21.1-18.2,21.1c-3.3,18.8-17.3,38.6-25.2,57c-7.8,17.8-16.7,35.1-26.6,51.8c-3.5,6-7.1,11.9-11.1,17.7
	c-4.9,7.1-55,101-55,101"/>
<path class="st2" d="M106.1,260.2c-15.5-14.6-24.5-24.8-22-33.4c3.4-11.6,8.5-22.6,15.3-32.7c7.8-11.4,16-17,20.7-18.2
	s28,25.2,28,25.2"/>
<path class="st2" d="M762.8,235.2c10.5,0.3,21,8.7,27.2,13.4s18,15.9,24,27.8"/>
<path class="st3" d="M281.2,80.2c-1.3-1-4-2.9-33.1,6.5c-2.9-29.4-6.6-31.3-8.1-32c-1.3-0.7-2.9-0.6-4.2,0.2
	c-1.4,0.9-3.8,2.3-9.9,22.3c-2.1,6.9-4,13.6-4.8,16.8c-41.8,14.4-41.9,18.6-41.9,21c0,5.3,6.6,6.2,15,7.4c4.1,0.4,8.1,1.2,12.1,2.3
	c-1.5,4.8-4.2,11-6.7,16.6c-6,13.7-7.8,18.4-5.7,21.6c0.8,1.3,2.2,2,3.8,2h0.2c2.1,0,5.4-0.6,22.6-22.4c5.6-7,10.9-14.1,13.8-18.1
	c3,2.7,8.1,7.2,13.3,11.5c14.6,12.1,19.5,14.8,22.8,12.3c2.4-1.8,3.7-4.6-3.2-22.4c-2.7-7-6.1-14.4-8.2-18.6
	c1.6-1.4,3.9-3.3,6.3-5.3c13.6-11.3,17.5-15.1,17.6-18.5C282.8,82.1,282.2,80.9,281.2,80.2z"/>
<path class="st3" d="M365.9,52.5l-1.8,0.8c-1.5-4.5-2.8-10.3-3.9-15.4c-2.9-12.9-4.4-19.9-9.6-20c-2.8,0-7-0.1-14.1,39.9
	c-3.8,0.2-10.8,0.7-17.8,1.4c-19.8,2.1-23.5,4.8-23.4,8.9c0,2.4,0.1,7.8,32.9,11.2c-1.2,4.5-3.3,12-5.2,19.7
	c-6.4,25.6-5.2,27.2-4,28.8c0.7,1,1.8,1.5,3,1.6l0,0c3,0,5.4-2.8,15.8-16.8c5.2-7,13.9-18.6,16.9-20.5c2.8,1,10.4,8.8,14.5,13.1
	c7.7,7.9,10.5,10.6,13.4,10.6c1.1,0,2.2-0.5,2.9-1.4c2.5-2.9,0.9-7-8.1-24.8c-2.7-5.5-5.8-11.5-7.2-15.1c3.9-2.6,11.3-7.4,17.5-12.1
	c10.7-8,13.8-12.2,12-16.1C397.4,40.6,387.8,43.4,365.9,52.5z"/>
<path class="st3" d="M498.3,30.3c-6.3-0.5-12.5-0.6-18.8-0.2c-0.6-2.9-1.7-7.6-2.9-12.3C473,3.9,470.9-0.1,467,0s-6.4,4-12.3,25.4
	c0,0.2-0.1,0.4-0.1,0.5c-5.8-0.2-11.6-0.1-17.3,0.3c-17.8,1.1-21.1,3.7-22.2,4.6c-1.3,0.9-2,2.3-2.1,3.9c-0.2,6.2,9.1,8.7,24.5,12.2
	l2.3,0.5c-4.4,5.8-8.4,11.9-11.9,18.4c-4.5,8.1-9.7,18.7-9.1,23.4c0.1,1.6,1.1,3,2.5,3.7c2.7,1.3,5.6-0.1,12-5.7
	c3.6-3.2,8.4-7.8,14.1-13.6c6.1-6.3,12.1-12.7,15.7-16.6c2.1,4,5.5,10.1,8.9,16.1c11.8,20.9,13.9,22.1,16.1,22.1h0.5
	c1.3-0.1,2.5-0.7,3.2-1.8c3.3-4.7-0.9-28.3-4.3-40.5c9.8-2.8,23.8-9.5,25.8-14.1c0.6-1.3,0.5-2.8-0.2-3.9
	C512.3,33.6,511,31.4,498.3,30.3z"/>
<path class="st2" d="M794.4,206.6c2.8-11.7,8.8-24,17.2-32.7c7-7.4,15.6-13.1,25.1-16.7c7.2-2.5,21.7-5.4,28.4-0.1
	c5.8,4.7,3.3,12.3-2,15.5c-5.8,3.6-12.6,4.4-19,5.8s-18.3,5.8-18.8,15.1"/>
<path class="st2" d="M908.1,121.5c4.8-0.1,9.9,1.1,10.4,6.9c0.5,5.8-2.4,9.7-6.7,12"/>
<path class="st2" d="M899.7,160.5c-6.9-3-2.3-13.7,1.2-16.8c4.2-3.7,12.9-5.3,16.3,0.5c2,3.4,2.4,7.9-1.8,11.7
	S903.1,161.9,899.7,160.5z"/>
<path class="st2" d="M917.6,153.8c1.7,1.4,2.5,3.6,2.4,7.1c-0.1,4.6-2.4,8.9-6.2,11.5c-3.9,2.7-11.8,6.3-15.9,2.3
	c-3.2-3.2-2.9-11.4,0-15.3"/>
<path class="st2" d="M912.5,173.3c5.1,0.3,5.6,7.3,3.3,12.7s-8.9,10.7-14.9,8.1"/>
<path class="st2" d="M833.7,156c0,0,3.9-43.2,4.5-48.8c0.4-3.5,0.5-8.2,3.4-10.2c3.6-2.4,17-2.9,35-1.2s29.5,5,31,7.5
	s-0.1,14.6-0.7,19.8c-0.2,1.4-0.8,8.9-1.5,18.1"/>
<path class="st2" d="M831.4,184.6c0,0-2.8,17.1-1.8,19.7c2.7,7.1,19.2,6.5,25.4,7.5c9.4,1.5,19.2,2,28.7,2.6
	c7.4,0.4,13.1,0,14.4-8.2c0.8-5.2,4.3-26.4,4.3-26.4"/>
<path class="st2" d="M871.4,214.9c-7.7,16-26,25.2-34,25"/>
<line class="st2" x1="815.7" y1="121.4" x2="808" y2="119.3"/>
<line class="st2" x1="822.3" y1="76.2" x2="819" y2="71.9"/>
<line class="st2" x1="829.5" y1="68" x2="828" y2="63.4"/>
<line class="st2" x1="917.9" y1="70.7" x2="924.4" y2="64.2"/>
<line class="st2" x1="937.9" y1="113.5" x2="945.3" y2="111.7"/>
<line class="st2" x1="938.5" y1="127.9" x2="943.8" y2="129.2"/>
<path class="st2" d="M77.9,142.6c-10.1-12.6-36-15.1-47.4-3.7c-4.6,4.6-6.7,11.1-5.7,17.4c0.8,5,6.4,14.1,12.6,11"/>
<path class="st2" d="M46.4,146.7c0,1.6,0.9,3.1,0.8,4.9c0.6,0.1,1.2-0.1,1.8,0"/>
<path class="st2" d="M25.4,143.6c-13.1,6.6-21.2,20.9-14.3,34.1c3.4,5.9,8.3,10.8,14.3,14c7.1,3.5,18,2,16-6.7"/>
<path class="st2" d="M6.4,171.5c-8.2,10.5,2.4,26,10.8,32.1c5.2,3.8,12.2,7.2,18.1,2.8c4.6-3.4,6.1-12.2-1.7-13.2"/>
<path class="st2" d="M6.2,194.4c-5.1,7.1-0.8,16.5,7.5,20.6s15.6,2,18.1-5.2"/>
<path class="st2" d="M31.8,210.8c14.4,15.4,37.6,14.3,49.5-5.3"/>
<path class="st2" d="M81.6,224.9c-5.2-4-10.4-8.6-10.4-8.6"/>
<path class="st2" d="M58.9,189.4c-4.7-9.1,9.5-22.5,9.5-22.5c-6.4,5.3-15.2,17.7-24.5,17.7c-11.8-0.1-5.6-17.4-1.6-23.5
	c12.1-18.4,44.5-26.4,58.7-6.4c4.6,6.4,13.9,21.5,13.9,21.5"/>
<path class="st4" d="M375,332.2c3.7,3,16.4,10.9,16.5,7.8c0-0.5,0-1.1,0-1.6c-1.2-5.6-2.9-11-5.1-16.3
	C382.9,325.8,379.1,329.2,375,332.2z"/>
<path class="st4" d="M423.9,217.2c-4,8.2-14.7,9.7-22.7,10.6s-18.5,0.8-25.7,4.2c-10,4.8-20.2,11.1-16.4,25.6
	c-10.4,0.6-11.7,15.3-10.1,24.3c-0.2,8.6,1.6,17.2,5.4,24.9c2-2,4.1-4,6.3-5.7c5,3.9,11,6.4,17.4,7.1c2.9,0.4,3.6-3.2,2.2-5
	c-6.2-8.6-6.1-17.1-5.5-27.1c0.3-3.4-0.3-6.9-1.9-10c0.2-0.1,0.4-0.2,0.7-0.3c11.8-2,21-6.8,29-11.4c13.8-7.8,22-19.3,26.7-34.8
	C430.2,216.6,425.4,214.1,423.9,217.2z"/>
<line class="st2" x1="361.1" y1="321.8" x2="366.7" y2="317.7"/>
<path class="st2" d="M591,478.4c0,0,2.3,15.3,1.8,22.8"/>
<path class="st2" d="M581.3,474.7c0.4,11.8,3,24.3,0.8,36.1"/>
</svg>
