<?xml version="1.0" encoding="utf-8"?>
<!-- Generator: Adobe Illustrator 24.1.3, SVG Export Plug-In . SVG Version: 6.00 Build 0)  -->
<svg version="1.1" id="Layer_1" xmlns="http://www.w3.org/2000/svg" xmlns:xlink="http://www.w3.org/1999/xlink" x="0px" y="0px"
	 viewBox="0 0 887 501.6" style="enable-background:new 0 0 887 501.6;" >
<style type="text/css">
	.st0{fill:#F4F6F9;}
	.st1{fill:none;stroke:#132144;stroke-width:7;stroke-linecap:round;stroke-linejoin:round;}
	.st2{fill:#132144;}
	.st3{fill:#377dff;stroke:#377dff;stroke-width:7;stroke-linecap:round;stroke-linejoin:round;}
</style>
<path id="BG" class="st0" d="M25.7,356.3l4.3-5.1c9.3-11.3,44.4-53,53.5-63.5c12.7-14.7,23.8-24.4,36.5-38.5
	c6.1-6.7,15.4-12.6,18.2-21.3c2.9-9,6.4-22.1,11.3-29.9c0.8,0,1.6,0.1,2.4,0.3l3.8-23.6c0,0,1.6-12.6,3-21.3l0,0
	c-3.9-1.1-4.9-7.4-5.1-11.6c-0.3-5.7-0.6-11.4-0.7-17.1c-9.5-0.1-21.1-1.2-27.2-9c-8.4-10.8-1-24.7,7.7-30
	c5.8-3.6,14.1-4.7,24.3-4.5l0,0c1.9-6.5,4.6-12.8,8-18.6c6.4-10.7,17.2-22.1,29.9-20.4c1.1-0.3,2.1-0.9,3.1-1.6
	c24.6-18.9,52.6,2.3,78.8,3.5c3.8,0.2,5.7,5.5,2,7.4c-3.6,1.9-7.4,3.6-11.2,5.1c7.4,3,14.7,6.2,21.8,8.9c10.3,4,44.7,21.9,44.7,21.9
	l-54.5,2c0,0-1,20.6-1.3,28.7c-0.5,11.7-1.4,22.8-2,34.5c-0.8,17.8-7.4,70.2-7.4,70.2l-0.1,3.4h0.6c3.7,10.6,7.6,24.3,8.7,35.6
	c0.2,2,0.2,4.1,0.1,6.1c13.4,11.5,34.8,40.8,44.8,51.9c13.1,14.8,24.8,30.9,34.9,47.9c2.6-14,6.2-29.3,10.3-41.3
	c4-11.6,10-25.3,17.5-35c2.2-2.9,9.2-8.2,14.5-9.8v-0.1c9.9-14.3,19-31.2,27.3-46.3c8.3-14.9,16.3-32,27.3-46.1
	c-8.2,0.5-16.4,1.5-24.5,3c-1.9,0.4-3.8,0.8-5.8,1.2c16.4-17.7,35.3-32.8,56.3-44.7c5.5-3.1,6.7-11.3,2-15.7c-9.5-9-21.8-6-32.5-1.1
	c-13,6-25.9,12.3-38.9,18.4l-11.1,5.3c36.2-25.6,74.8-47.6,115.3-65.8c4.5-2,5.9-8.4,4.1-12.5c-2.1-4.8-6.8-6.7-11.8-5.8
	c-42.2,7.7-83.5,19.6-123.3,35.4c4.3-3.4,8.7-6.7,13.1-9.9c10.8-7.8,22-15.2,33.6-22c3-1.8,6-3.5,9.1-5.2c2.6-1.5,6-2.8,8.1-4.9
	c6.3-6.4,3-16.1-3.4-20.7c-5.3-3.8-11.9-4.5-18.2-5.8l-23.3-4.6l-44.6-8.9c-29.5-5.9-59-12.2-88.8-17.3
	c-53.7-9.1-110.4-12.8-161.8,8.5c-22,9.1-42.6,22.1-58.6,39.9c-17.7,19.7-28.5,44.1-34.9,69.7C1.8,181,1.2,240.4,10.5,296.7
	C13.8,316.3,17.5,337.5,25.7,356.3z"/>
<path class="st1" d="M247.6,283.4c0.7,14.9-0.9,31.8-5.2,46c-2.9,9.5-5.1,19.2-8.4,28.6c-2.5,7.2-7.7,14.1-9.5,21.2
	c10.4-9.2,37.7-19.9,44.7,0.3c7.6,22.2-16.2,52.8-28.1,68.4c4.5-3.2,13.3-12.2,18.9-7.7c3,2.5,3.5,8.2,3.5,11.7
	c-0.1,6.9-3.6,12.4-6.6,18.5s-9.9,20.2-9,27.7"/>
<path class="st1" d="M3.5,384.6c8.1-11.9,17.3-22.4,26.5-33.5c9.3-11.3,44.4-53,53.5-63.5c12.7-14.7,23.8-24.4,36.5-38.5
	c6.1-6.7,15.4-12.6,18.2-21.3c2.9-9,6.4-22.1,11.3-29.9c4.6-0.3,12.8,5.5,24.3,9.7s30.8,7.3,44.7,10.8c17,4.3,34.4,6.8,51.9,7.6
	c3.7,10.6,7.6,24.3,8.7,35.6c1.5,14.6-7.6,36.2-12.6,36.5s-13-36.2-18.6-47.4c-5.2,7-17.1,45.8-23.4,46.4s-17.2-6.7-24.4-12.1
	S166,256.7,150,238"/>
<path class="st1" d="M279.1,267.8c13.4,11.5,34.9,40.8,44.9,52c13.5,15.3,25.5,31.9,35.8,49.5c7.5,13,16.8,26.2,18.7,35.5
	s-2.8,21.2-10.9,21.5s-13.8-12-13.1-26.8s6.8-50.1,14.7-73.1c4-11.6,10-25.3,17.5-35c2.9-3.8,9.8-11.8,14.5-9.9"/>
<path class="st1" d="M151.8,198.7l3.9-24c0,0,2-16.6,3.6-24.8c1.2-6,4.9-14.8,4.3-20.6c-0.4-4.4,1.3-2.1-2.5-4
	c-2.4-1.2-5.4-0.7-8-0.7c-9.6-0.1-21.3-1.1-27.4-9c-8.4-10.8-1-24.7,7.7-30c9.7-6,26.3-5.3,47-2.3c2.4-2,3.5-9.2,5.4-12.4
	c2.5-4.3,4.7-7.9,8.3-11.4c7.4-7,14.7-10.1,24.4-11.9c24.5-4.4,49.2,8.9,71.8,17.7c10.3,4,44.7,21.9,44.7,21.9l-54.5,2
	c0,0-1,20.6-1.3,28.7c-0.5,11.7-1.4,22.8-2,34.5c-0.8,17.8-7.3,70.2-7.3,70.2"/>
<path class="st1" d="M215.8,108c1.8,4.7,13.7,14.7,18,10"/>
<path class="st1" d="M247.1,72.7c0,2.9,0.4,5.9,1.3,8.7"/>
<path class="st1" d="M259.8,70.7c1,2.1,1.7,4.4,2,6.7"/>
<path class="st1" d="M145.1,104c4.6-0.7,10.2,3,14.7,4"/>
<path class="st2" d="M161.1,125.4c-2.4-1.2-5.4-0.7-8-0.7h-0.2c0.1,5.7,0.4,11.4,0.7,17.1c0.2,4.2,1.2,10.5,5.1,11.6
	c0.2-1.3,0.4-2.5,0.6-3.5c1.2-6,4.9-14.8,4.3-20.6C163.2,125,164.9,127.2,161.1,125.4z"/>
<path class="st2" d="M277.6,44.1c-26.2-1.3-54.3-22.4-78.8-3.5c-0.9,0.7-1.9,1.2-3.1,1.6c-12.8-1.7-23.6,9.7-29.9,20.4
	c-3.4,5.9-6.1,12.1-8,18.6c4.9,0.1,10.2,0.6,15.8,1.3c0,0,0,0.1,0,0.1c2,6.3,5.4,12.7,3.3,19.4c-1.1,3.6,4.1,7.1,6.7,3.9
	c11-13.7,17.7-30.2,19.5-47.6c8.9,4.9,21.5,5.2,30.6,5.1c16-0.3,31.8-4.3,45.9-11.8C283.3,49.6,281.4,44.3,277.6,44.1z"/>
<path class="st1" d="M401.8,281.4c11.8,4.2,23.1,9.7,33.7,16.3c13.5,8.8,25.7,19.5,36.3,31.7c9.2,10.8,11.3,14.6,12,29
	c0.7,14.4-0.2,30.8-15.3,37.8c8.8,8.5,15,35.8-1.3,40.7c2.5,3,5.9,5.5,8.3,8.6c5.8,7.7,9.8,15.8,11,24.5"/>
<path class="st1" d="M401.1,281.4c9.9-14.3,19-31.2,27.3-46.3c12.5-22.7,24.7-50.3,47.1-65.1c27.1-17.8,64.8-13.7,94.8-3.6
	c31,10.4,42,26.9,27.7,33c-6,2.5-18-4.9-24.6-6.3c-8.5-1.7-17.7-4.3-25.6-3.1"/>
<path class="st1" d="M423.8,244c16.2,3.7,27,11.2,39.7,20.7c6.4,4.8,23.4,16.1,24.3,23.7c0.8,7.1-12.6,43-12.6,43"/>
<path class="st1" d="M491.1,183.4c7.5-2.7,14.4-2.3,22.7,0.5c9.1,3.3,17.2,8.7,23.6,15.9c4.2,4.8,10,21.4-1.7,22.4
	c-3.3,0.3-9.9-6.4-13.1-7.9c-4.8-2.3-12.1-4.9-17.3-3.5c11.5,4.5,15.1,15.5,7.6,26"/>
<path class="st1" d="M490.5,253.4c2.5,9.3,12.5,9.5,20.7,10c10,0.6,27.6-8.4,29.3-18.8c8.9,5.7,12.2,15.9,14.9,25.5
	c1.3,4.6,4.8,14.2,11.6,10.7c7.4-3.7,5.8-16.7,4.2-22.1c-2.9-9.5-6.9-17.4-17.3-25.7c15.3,7.4,33.2,42.1,42.6,26.4
	c9.3-15.5-27.4-41.9-38.6-45.5c-0.2-0.3-0.2-0.8,0-1.1c18,3.6,27.3,16.9,42.2,20.2c16.7,3.8,20.4-20-2-33.7"/>
<path class="st1" d="M497.8,262c0,6.9-9.2,15-10,22.7"/>
<path class="st1" d="M503.1,132.2c15.3-9.4,37.3-17.5,54.5-21.5c17.9-4.1,35.5-9,53.5-12.3c15.5-2.9,52.3-7,79.8-7"/>
<path class="st1" d="M614.5,144.7c7.1-2.1,15-4.5,22.1-6c8.5-1.8,17.2-2.9,25.8-4.5c13.2-2.5,26.8-3.6,40.2-4.8"/>
<path class="st3" d="M847.3,88.6c-20.5-1.6-40.8-5.2-61.2-8.1c-20.5-3-87-15-91.2-13.5c7.9,12.3,19.3,23.6,30,34.7
	c0,0-3.2,22.7-2.4,35.3c0,0,17.4-7.7,25.2-9.5l0,0c5.8,7,11.2,13.6,11.2,13.6s47.3-13,61.5-19.3c16.1-7.2,32.4-13.3,48.8-19.5
	c5.4-1.9,10.3-5.2,14.3-9.4C872.3,90.2,858.8,89.5,847.3,88.6z"/>
<path class="st1" d="M758.9,141c0,0-5.4-6.6-11.2-13.6c-4.3-5.1-8.7-10.5-11.5-13.6c-3.5-4-7.4-8.1-11.3-12.1
	c-10.7-11.1-22.1-22.4-30-34.7"/>
<path class="st1" d="M842.6,98c-3.7,2.5-6.7,0.1-10.7,0.3c-5.8,0.2-10.2,3.7-16.4,3.3c-11.1-0.8-47.7,0.5-58.1,0.7
	c-6.7,0.2-26.3,0.8-32.6-0.7c0,0-3.2,22.7-2.4,35.3"/>
</svg>
