<?xml version="1.0" encoding="utf-8"?>
<!-- Generator: Adobe Illustrator 24.2.1, SVG Export Plug-In . SVG Version: 6.00 Build 0)  -->
<svg version="1.1" id="ICONS" xmlns="http://www.w3.org/2000/svg" xmlns:xlink="http://www.w3.org/1999/xlink" x="0px" y="0px"
	 viewBox="0 0 113.6 114" style="enable-background:new 0 0 113.6 114;" >
<style type="text/css">
	.st0{fill:none;stroke:#132144;stroke-width:7;stroke-linecap:round;stroke-linejoin:round;}
</style>
<g id="world-line">
	<path class="st0" d="M21.6,98.4C10.8,90.2,2.4,70.8,3.9,51.8C5.2,35.5,20.7,13.8,36.4,8.4C46.2,5,55.3,3,65.6,3.6
		C81.4,4.5,94,14.6,101.5,28c11.5,20.6,12.1,45.2-4.1,63.7c-11.1,12.7-23,17-39.8,18.7C49.4,111.3,32.4,106.6,21.6,98.4z"/>
	<path class="st0" d="M28.1,60.8c0,28.1,13.7,39.3,24,49.7c10.5-6.6,21.8-16.6,25.9-45c4.1-28.4-7.1-49.6-21.2-62.1
		C44.3,14.6,28.1,32.7,28.1,60.8z"/>
	<path class="st0" d="M3.7,56.1c35.2,3.8,70.8,4.3,106.1,1.3"/>
	<path class="st0" d="M15.9,24.6c19.3,2.2,39,2.1,58.6,1.9l18.5-0.2l7.5-0.1"/>
	<path class="st0" d="M12.5,87.9c27.8-0.6,59.7-0.4,87.5,0.5"/>
</g>
</svg>
