<svg width="600" height="400" viewBox="0 0 600 400" fill="none" xmlns="http://www.w3.org/2000/svg">
<path d="M600 0H0V400H600V0Z" fill="white"/>
<path d="M105 10H10V390H105V10Z" fill="#DFE3EE"/>
<path d="M590 10H115V390H590V10Z" fill="#F7F8F9"/>
<circle cx="33" cy="33" r="7" fill="#F7F8F9"/>
<path d="M49 33C49 30.7909 50.7909 29 53 29H85C87.2091 29 89 30.7909 89 33V33C89 35.2091 87.2091 37 85 37H53C50.7909 37 49 35.2091 49 33V33Z" fill="#F7F8F9"/>
<circle cx="33" cy="72" r="7" fill="#F7F8F9"/>
<path d="M49 72C49 69.7909 50.7909 68 53 68H85C87.2091 68 89 69.7909 89 72V72C89 74.2091 87.2091 76 85 76H53C50.7909 76 49 74.2091 49 72V72Z" fill="#F7F8F9"/>
<circle cx="33" cy="111" r="7" fill="#F7F8F9"/>
<path d="M49 111C49 108.791 50.7909 107 53 107H85C87.2091 107 89 108.791 89 111V111C89 113.209 87.2091 115 85 115H53C50.7909 115 49 113.209 49 111V111Z" fill="#F7F8F9"/>
<circle cx="33" cy="150" r="7" fill="#F7F8F9"/>
<path d="M49 150C49 147.791 50.7909 146 53 146H85C87.2091 146 89 147.791 89 150V150C89 152.209 87.2091 154 85 154H53C50.7909 154 49 152.209 49 150V150Z" fill="#F7F8F9"/>
<circle cx="33" cy="189" r="7" fill="#F7F8F9"/>
<path d="M49 189C49 186.791 50.7909 185 53 185H85C87.2091 185 89 186.791 89 189V189C89 191.209 87.2091 193 85 193H53C50.7909 193 49 191.209 49 189V189Z" fill="#F7F8F9"/>
<circle cx="33" cy="228" r="7" fill="#F7F8F9"/>
<path d="M49 228C49 225.791 50.7909 224 53 224H85C87.2091 224 89 225.791 89 228V228C89 230.209 87.2091 232 85 232H53C50.7909 232 49 230.209 49 228V228Z" fill="#F7F8F9"/>
<circle cx="33" cy="267" r="7" fill="#F7F8F9"/>
<path d="M49 267C49 264.791 50.7909 263 53 263H85C87.2091 263 89 264.791 89 267V267C89 269.209 87.2091 271 85 271H53C50.7909 271 49 269.209 49 267V267Z" fill="#F7F8F9"/>
<circle cx="33" cy="306" r="7" fill="#F7F8F9"/>
<path d="M49 306C49 303.791 50.7909 302 53 302H85C87.2091 302 89 303.791 89 306V306C89 308.209 87.2091 310 85 310H53C50.7909 310 49 308.209 49 306V306Z" fill="#F7F8F9"/>
</svg>
