<?xml version="1.0" encoding="UTF-8" standalone="no"?><!DOCTYPE svg PUBLIC "-//W3C//DTD SVG 1.1//EN" "http://www.w3.org/Graphics/SVG/1.1/DTD/svg11.dtd"><svg width="100%" height="100%" viewBox="0 0 1792 567" version="1.1" xmlns="http://www.w3.org/2000/svg" xmlns:xlink="http://www.w3.org/1999/xlink" xml:space="preserve" xmlns:serif="http://www.serif.com/" style="fill-rule:evenodd;clip-rule:evenodd;stroke-linejoin:round;stroke-miterlimit:2;"><rect id="Artboard1" x="0" y="-0" width="1791.67" height="566.667" style="fill:none;"/><g><rect x="1.148" y="45.738" width="533.333" height="231.068" style="fill:#fff;"/><g><path d="M1.148,520.743l-0,-413.347c-0,-33.907 27.743,-61.658 61.655,-61.658l410.048,0c33.899,0 61.63,27.751 61.63,61.658l0,410.03c0,1.024 -0.025,2.043 -0.076,3.056l-85.15,-84.21c-6.928,-6.854 -18.485,-10.299 -25.65,-7.62c-7.2,2.662 -18.193,-1.276 -24.391,-8.732l-100.628,-120.844c-6.18,-7.475 -16.443,-7.493 -22.678,-0.073l-84.148,99.935c-6.271,7.438 -17.938,8.951 -25.923,3.409l-20.253,-14.146c-7.984,-5.597 -19.615,-4.029 -25.886,3.445l-11.685,13.946c-6.235,7.437 -15.24,13.563 -19.943,13.544c-4.722,-0.018 -13.8,6.034 -20.126,13.417l-66.796,88.19Z" style="fill:#0050c8;fill-rule:nonzero;"/><path d="M298.949,324.902c-6.235,-7.511 -16.37,-7.493 -22.587,0.018l-64.533,78.041c-6.216,7.493 -5.141,8.586 2.425,2.425l19.67,-16.042c7.528,-6.162 17.992,-10.373 23.242,-9.334c5.214,0.984 12.615,-1.167 16.444,-4.849c3.791,-3.701 14.018,-3.172 22.732,1.167l24.391,12.213c8.678,4.376 14.147,2.206 12.068,-4.776c-2.023,-6.982 -2.023,-12.87 0.019,-13.07c2.078,-0.201 -1.331,-6.527 -7.529,-13.983l-26.342,-31.81Z" style="fill:#eeeeef;fill-rule:nonzero;"/><path d="M391.627,441.535c-5.834,-6.891 -7.875,-7.638 -4.485,-1.677c3.409,5.961 4.521,29.751 11.212,30.972c6.672,1.258 15.094,4.813 18.685,7.894c3.609,3.062 9.443,4.174 13.071,2.424c3.573,-1.731 14.164,-0.838 23.461,1.987l12.834,3.938c9.315,2.789 11.23,-0.438 4.266,-7.237l-22.113,-21.602c-6.982,-6.837 -18.631,-10.628 -25.922,-8.477c-7.292,2.169 -14.858,4.01 -16.826,4.101c-1.933,0.092 -8.35,-5.45 -14.183,-12.323" style="fill:#eeeeef;fill-rule:nonzero;"/><path d="M151.081,411.859c-7.967,-5.651 -19.597,-4.193 -25.941,3.227l-7.657,8.932c-6.289,7.402 -16.206,13.454 -21.948,13.436c-5.761,-0 -15.714,5.979 -22.131,13.289l-11.412,12.998c-6.453,7.31 -4.74,9.37 3.701,4.575l2.843,-1.604c8.477,-4.758 18.267,-8.549 21.767,-8.331c3.463,0.201 12.268,-4.976 19.469,-11.484l1.021,-0.93c7.237,-6.526 15.422,-10.063 18.193,-7.948c2.771,2.187 7.802,1.002 11.175,-2.607c3.427,-3.573 13.253,-6.089 21.876,-5.56c8.64,0.492 9.206,-3.683 1.276,-9.316l-12.232,-8.677Z" style="fill:#eeeeef;fill-rule:nonzero;"/></g><g><g><path d="M690.933,383.789l-37.072,-0l0,-148.309l37.072,0l0,148.309Zm0,-171.908l-37.072,0l0,-30.319l37.072,0l0,30.319Z" style="fill:#0a143c;fill-rule:nonzero;"/><path d="M805.142,350.11c41.82,-0 62.71,-23.713 62.71,-72.924c0,-41.9 -20.89,-61.938 -62.71,-61.938l-40.009,-0l-0,134.862l40.009,-0Zm-77.101,33.679l-0,-202.233l77.101,-0c66.714,-0 100.091,32.149 100.091,95.63c-0,70.831 -33.377,106.603 -100.091,106.603l-77.101,-0Z" style="fill:#0a143c;fill-rule:nonzero;"/><path d="M933.701,304.338l-0,-122.784l37.118,0l0,122.784c0,32.117 17.671,48.171 50.559,48.171c32.894,0 50.585,-16.054 50.585,-48.171l-0,-122.784l37.079,0l-0,122.784c-0,53.717 -29.87,80.589 -87.664,80.589c-57.788,0 -87.677,-26.872 -87.677,-80.589" style="fill:#0a143c;fill-rule:nonzero;"/><path d="M1146.14,383.791l0,-202.233l92.325,0c41.176,0 61.737,18.234 61.737,54.2c0,24.33 -16.014,44.737 -48.07,60.718l63.85,87.315l-47.037,0l-62.093,-88.039l-0,-17.074c37.072,-6.096 53.924,-19.743 53.924,-41.358c0,-14.854 -7.98,-22.076 -24.705,-22.076l-49.472,-0l-0,168.547l-40.459,0Z" style="fill:#0a143c;fill-rule:nonzero;"/><path d="M1351.44,383.791l-38.326,0l85.572,-202.233l40.17,0l87.382,202.233l-40.164,0l-22.982,-53.931l-66.941,-0l12.815,-33.686l40.586,0l-31.713,-75.539l-66.399,163.156Z" style="fill:#0a143c;fill-rule:nonzero;"/><path d="M1547.4,383.791l-0,-202.233l92.271,0c41.149,0 61.69,18.234 61.69,54.2c0,24.33 -16.007,44.737 -48.05,60.718l63.85,87.315l-47.084,0l-61.999,-88.039l-0,-17.074c37.099,-6.096 53.911,-19.743 53.911,-41.358c0,-14.854 -8.014,-22.076 -24.753,-22.076l-49.371,-0l0,168.547l-40.465,0Z" style="fill:#0a143c;fill-rule:nonzero;"/></g></g></g></svg>