<?xml version="1.0" encoding="utf-8"?>
<!-- Generator: Adobe Illustrator 22.0.1, SVG Export Plug-In . SVG Version: 6.00 Build 0)  -->
<svg xmlns="http://www.w3.org/2000/svg" xmlns:xlink="http://www.w3.org/1999/xlink" x="0px" y="0px" width="98.9px" height="103.2px"
     viewBox="0 0 98.9 103.2" style="enable-background:new 0 0 98.9 103.2;" >
<style type="text/css">
	.logo-vertical-white-0{fill:#FFFFFF;}
	.logo-vertical-white-1{opacity:0.65;fill:#E1E4EA;}
	.logo-vertical-white-2{opacity:0.5;fill:#FFFFFF;}
	.logo-vertical-white-3{opacity:0.7;fill:#FFFFFF;}
	.logo-vertical-white-4{fill:#377dff;}
</style>
    <g>
	<path class="logo-vertical-white-0" d="M1,87.1V58.9h18.3v5.2H7.8v6.1h8.6v5.2H7.8v11.7H1z"/>
        <path class="logo-vertical-white-0" d="M28.8,64.7v4.2c1.6-2.9,3.7-4.4,6.4-4.4v7h-1.7c-1.6,0-2.8,0.4-3.5,1.1c-0.8,0.8-1.2,2.1-1.2,3.9v10.6H22V64.7
		H28.8z"/>
        <path class="logo-vertical-white-0" d="M38.7,84.2c-2.3-2.1-3.4-4.9-3.4-8.4c0-3.5,1.1-6.2,3.4-8.3c2.2-2.1,5-3.1,8.3-3.1s6.1,1,8.3,3.1
		c2.2,2.1,3.3,4.8,3.3,8.3c0,3.5-1.1,6.2-3.3,8.4s-5,3.2-8.3,3.2S41,86.3,38.7,84.2z M50.3,80.1c0.9-1,1.4-2.4,1.4-4.2
		s-0.5-3.2-1.4-4.2s-2-1.4-3.3-1.4c-1.3,0-2.4,0.5-3.3,1.4c-0.9,1-1.4,2.3-1.4,4.2s0.5,3.2,1.4,4.2c0.9,1,2.1,1.4,3.3,1.4
		S49.4,81,50.3,80.1z"/>
        <path class="logo-vertical-white-0" d="M67.9,64.7V68c1.4-2.4,3.7-3.5,6.8-3.5c2.6,0,4.6,0.9,6.2,2.6c1.6,1.7,2.4,4,2.4,7v13.1h-6.8V74.9
		c0-1.4-0.4-2.6-1.1-3.4c-0.8-0.8-1.8-1.2-3.1-1.2s-2.4,0.4-3.1,1.2c-0.8,0.8-1.1,1.9-1.1,3.4v12.2H61V64.7H67.9z"/>
        <path class="logo-vertical-white-0" d="M96.5,81.3h2.4v5.8h-3.5c-2.5,0-4.4-0.6-5.8-1.7c-1.4-1.1-2.1-3-2.1-5.7v-9.3h-2.1v-5.7h2.1v-5.5h6.8v5.5h4.5
		v5.7h-4.5v9.3C94.4,80.7,95.1,81.3,96.5,81.3z"/>
</g>
    <g>
	<path class="logo-vertical-white-1" d="M50,41L50,41c-9.9,0-18-8-18-18l0,0c0-9.9,8-18,18-18h11.3c3.7,0,6.6,3,6.6,6.6V23C68,32.9,59.9,41,50,41z"/>
        <path class="logo-vertical-white-2" d="M55,35.9L55,35.9c-9.9,0-18-8-18-18l0,0c0-9.9,8-18,18-18h11.3C70,0,73,3,73,6.6V18C73,27.9,65,35.9,55,35.9z"
        />
        <path class="logo-vertical-white-3" d="M45,46L45,46c-10,0-18-8-18-18l0,0c0-9.9,8-18,18-18h11.3c3.7,0,6.6,3,6.6,6.6V28C62.9,38,54.9,46,45,46z"/>
        <g>
		<path class="logo-vertical-white-4" d="M44.4,34V18.3h10.2v2.9h-6.4v3.4H53v2.9h-4.8V34H44.4z"/>
	</g>
</g>
</svg>
